<?xml version="1.0" encoding="UTF-8"?>
<svg id="_圖層_2" data-name="圖層 2" xmlns="http://www.w3.org/2000/svg" viewBox="0 0 1163.27 230.12">
  <defs>
    <style>
      .cls-1 {
        fill: #004e26;
      }
    </style>
  </defs>
  <g id="_圖層_1-2" data-name="圖層 1">
    <g>
      <path class="cls-1" d="M115.4,230.12c-32.01,0-59.01-11.16-81.01-33.47C11.46,173.88,0,146.79,0,115.4S11.15,56.4,33.47,34.39C55.93,11.46,83.24,0,115.4,0s58.47,11.46,81.24,34.39c22.31,22.01,33.47,49.01,33.47,81.01s-11.16,58.47-33.47,81.24c-22.77,22.31-49.85,33.47-81.24,33.47ZM43.62,48.01c14,1.85,26.93,2.77,38.78,2.77h65.32c.61-.31,3.23-3.46,7.85-9.46,5.69-7.23,9-10.85,9.92-10.85,3.08,0,7.85,3.46,14.31,10.39,6.31,6.92,9.46,11.23,9.46,12.92,0,2.31-1.46,3.46-4.39,3.46h-51.7v50.78h15.46c.31,0,2.54-2.31,6.69-6.92,5.69-7.08,9.38-10.62,11.08-10.62s6.61,3.92,14.77,11.77c4.77,4.46,7.16,7.39,7.16,8.77,0,2.46-1.46,3.69-4.39,3.69h-50.78v65.55h23.08c.46-.31,3-3.46,7.62-9.46,5.69-7.39,9-11.08,9.92-11.08,2.92,0,7.62,3.54,14.08,10.62,4.77,4.93,7.77,8.46,9,10.62,15.38-18.62,23.08-40.47,23.08-65.55,0-28.16-10.23-52.39-30.7-72.71-20.31-20.46-44.93-30.7-73.86-30.7s-53.01,10.24-72.7,30.7C22.23,63.01,12,87.25,12,115.4s10.23,53.55,30.7,73.86c19.69,20.46,43.93,30.7,72.7,30.7s53.55-10.24,73.86-30.7c1.07-.92,2-1.85,2.77-2.77H75.94c-12.62,0-23.08,.61-31.39,1.85l-3.92-11.08c5.54,.77,10.85,1.38,15.93,1.85v-57.93c0-12.46-.62-23.62-1.85-33.47,6.31,.77,14.39,2,24.23,3.69,7.69,1.23,11.54,2.54,11.54,3.92,0,2.16-2.08,4.08-6.23,5.77-3.23,.92-4.85,2.69-4.85,5.31v73.86h29.54V57.24h-30.47c-12.62,0-23.08,.62-31.39,1.85l-3.46-11.08Z"/>
      <path class="cls-1" d="M257.58,30.47c7.54,1.38,18.39,2.08,32.54,2.08h48.01v-3.92c0-6.77-.69-13.85-2.08-21.23,10.92,1.08,21.39,2.54,31.39,4.39,6.31,.46,9.46,2.16,9.46,5.08,0,.92-1.93,2.23-5.77,3.92-4.31,1.7-6.46,3.77-6.46,6.23v5.54h36.24c.61-.31,3.46-3.84,8.54-10.62,6.15-7.85,9.77-11.77,10.85-11.77,3.23,0,8.31,3.77,15.23,11.31,7.08,7.54,10.62,12.16,10.62,13.85,0,2.31-1.54,3.46-4.62,3.46h-76.86v20.31h32.54c.61-.15,3-3,7.16-8.54,5.38-6.61,8.46-9.92,9.23-9.92,2.92,0,7.39,3.23,13.39,9.69,6,6.31,9,10.23,9,11.77,0,2.46-1.23,3.69-3.69,3.69h-67.63v22.85h53.78c.61-.15,3.23-3.31,7.85-9.46,5.38-7.23,8.62-10.85,9.69-10.85,2.92,0,7.62,3.54,14.08,10.62,6.61,6.77,9.92,11,9.92,12.69,0,2.46-1.62,3.69-4.85,3.69h-179.11c-13.39,0-22.93,.31-28.62,.92l-3.69-9.46c7.54,1.23,18.31,1.85,32.31,1.85h62.09v-22.85h-34.39c-13.39,0-22.93,.31-28.62,.92l-3.46-9.46c7.39,1.23,18.08,1.85,32.08,1.85h34.39v-20.31h-48.01c-13.39,0-22.93,.31-28.62,.92l-3.92-9.23Zm22.39,71.32c10,2.62,20.31,6.31,30.93,11.08h79.86c2.31-2.61,4.08-4.69,5.31-6.23,4.92-4.62,8.38-6.92,10.39-6.92,2.61,0,7.92,3,15.93,9,7.69,6,11.54,10.16,11.54,12.46,0,1.7-1.85,3.92-5.54,6.69-4.77,3.23-7.15,6.16-7.15,8.77v61.86c0,8.77-4.62,15.31-13.85,19.62-7.23,3.69-13.39,5.54-18.46,5.54-1.85,0-3.46-3.08-4.85-9.23-2-7.23-9.62-13.39-22.85-18.46l.92-4.62c11.08,1.23,20,1.85,26.77,1.85,3.54,0,5.31-2.46,5.31-7.39v-12.93h-85.63v42.47c0,3.38-4.23,5.85-12.69,7.39-3.39,.61-5.93,.92-7.62,.92-5.54,0-8.31-2.46-8.31-7.39,.61-4.62,.92-9.85,.92-15.69V123.02c0-6-.31-13.08-.92-21.23Zm28.62,36.7h85.63v-19.39h-85.63v19.39Zm0,27.93h85.63v-21.23h-85.63v21.23Z"/>
      <path class="cls-1" d="M480.08,77.55c6.46,1.08,15.15,1.69,26.08,1.85V42.7c0-12.77-.69-24.23-2.08-34.39,6.61,.77,15.15,2.16,25.62,4.15,8.15,1.23,12.23,2.69,12.23,4.38,0,2-2.31,3.92-6.92,5.77-3.39,.92-5.08,2.62-5.08,5.08v51.7c.61-.15,2.69-2.38,6.23-6.69,4.31-5.23,6.84-7.85,7.62-7.85,2.46,0,6.15,2.62,11.08,7.85,2.46,2.46,4.31,4.46,5.54,6-.31-3.23-.62-6.69-.92-10.39,10.46,2.62,20.08,6,28.85,10.16h21.93v-24.7h-26.54c-13.54,0-23.08,.31-28.62,.92l-3.92-9.23c7.54,1.08,18.39,1.62,32.54,1.62h26.54c0-14.46-.54-27.39-1.62-38.78,7.54,.77,17.08,2.23,28.62,4.38,2.31,.31,4.39,.69,6.23,1.15l2.08-4.62c7.08,1.23,12.77,2.69,17.08,4.39,4.15,1.54,7.08,3.16,8.77,4.85,1.85,1.38,2.77,3,2.77,4.85,0,4.15-1.62,7.85-4.85,11.08-2.62,3.54-6,5.31-10.16,5.31-.77,0-2.54-3.15-5.31-9.46-1.85-3.38-3.92-6.61-6.23-9.69-1.23,1.23-3.23,2.23-6,3-3.54,.92-5.31,2.62-5.31,5.08v18.46h25.62c.77-.15,3.15-2.85,7.15-8.08,4.92-6.31,7.85-9.46,8.77-9.46,2.46,0,6.46,3.08,12,9.23,5.54,6.16,8.31,9.85,8.31,11.08,0,2.62-1.23,3.92-3.69,3.92h-58.16v24.7h18.46c2.31-2.15,4-3.92,5.08-5.31,4.62-4.31,7.77-6.46,9.46-6.46,2.61,0,7.69,2.69,15.23,8.08,7.23,5.54,10.85,9.31,10.85,11.31,0,1.54-1.77,3.69-5.31,6.46-4.46,2.92-6.69,5.62-6.69,8.08v97.86c0,8.15-4.39,14.23-13.16,18.23-6.92,3.38-12.69,5.08-17.31,5.08-1.7,0-3.16-2.92-4.39-8.77-1.23-5.23-5.16-9.85-11.77-13.85,.15,3.84,.31,7.69,.46,11.54,0,2.92-4.15,5.08-12.46,6.46-3.69,.46-6.31,.69-7.85,.69-5.54,0-8.31-2.39-8.31-7.16,1.07-15.54,1.62-29.77,1.62-42.7v-10.16h-23.77v56.55c0,2.92-3.77,5.15-11.31,6.69-3.39,.46-5.77,.69-7.15,.69-5.69,0-8.54-2.46-8.54-7.39,1.23-16.93,1.85-31.7,1.85-44.32v-61.16c0-6.77-.23-14.54-.69-23.31-.62,.31-1.23,.46-1.85,.46h-28.85v72.01c9.23-2.61,18.23-5.77,27-9.46l.92,3c-17.7,17.7-36.39,30.55-56.09,38.54-2,.31-3,1.31-3,3-.31,.77-.62,1.85-.92,3.23-.46,2.15-1.38,3.23-2.77,3.23-3.08,0-6.77-5.31-11.08-15.93-1.08-3.08-2.92-8-5.54-14.77,9.38-1.23,18.62-2.77,27.7-4.62V86.09c-10.16,0-17.62,.23-22.39,.69l-3.69-9.23Zm106.4,36.24h23.77v-28.62h-23.77v28.62Zm0,37.85h23.77v-31.62h-23.77v31.62Zm49.85-66.47v28.62h22.16v-28.62h-22.16Zm0,34.85v31.62h22.16v-31.62h-22.16Zm0,37.85v10.16c0,8,.08,15.85,.23,23.54,6.46,1.08,11.92,1.62,16.39,1.62,3.69,0,5.54-2.46,5.54-7.39v-27.93h-22.16Z"/>
      <path class="cls-1" d="M724.04,7.39c10.92,2.77,21.15,6.46,30.7,11.08h138.25c2.77-2.46,5.23-4.77,7.39-6.92,3.38-3.23,5.77-4.85,7.15-4.85,2.77,0,7.54,2.31,14.31,6.92,7.85,6.16,11.77,10.31,11.77,12.46,0,2-1.7,4.31-5.08,6.92-2.77,2.77-4.15,5.31-4.15,7.62v125.79l1.62,47.09c0,2.92-4.31,5.15-12.93,6.69-3.69,.46-6.39,.69-8.08,.69-4.46,0-6.69-2.46-6.69-7.39v-3.69h-147.72v4.62c0,2.92-3.77,5.15-11.31,6.69-3.23,.46-5.54,.69-6.92,.69-5.54,0-8.31-2.46-8.31-7.39,1.23-16.93,1.85-31.7,1.85-44.32V48.01c0-11.08-.62-24.62-1.85-40.62Zm26.54,195.96h147.72V69.24h-50.32c.77,18.62,2.85,35.39,6.23,50.32,4.15-9.85,7.85-21.93,11.08-36.24,6.77,3.23,13.62,6.62,20.54,10.16,7.08,3.39,10.62,6.16,10.62,8.31,0,2.31-2.77,3.46-8.31,3.46-3.39,0-5.46,.92-6.23,2.77-6.62,15.23-13.24,27.85-19.85,37.85,5.38,13.7,10.69,20.54,15.93,20.54,1.85,0,5.61-11.08,11.31-33.24l4.62,1.85c-2.46,21.85-3.69,34.16-3.69,36.93,0,1.23,.77,4.15,2.31,8.77,1.54,3.54,2.31,6.08,2.31,7.62-.62,5.54-3.16,8.62-7.62,9.23-10,0-20.39-5.39-31.16-16.16-4.15-4.46-7.93-9.69-11.31-15.7-4,3.85-8.16,7.39-12.46,10.62-11.7,9.39-24.7,16.46-39.01,21.23l-1.85-3.46c12.46-7.54,24.47-17.62,36.01-30.24,3.84-4.46,7.39-9.23,10.62-14.31-.92-2.77-1.77-5.62-2.54-8.54-4.46-16.77-7.93-40.7-10.39-71.78h-39.24c-13.54,0-23.16,.31-28.85,.92l-3.46-9.23c7.39,1.38,18.15,2.08,32.31,2.08h38.78c-.77-10.62-1.38-22.08-1.85-34.39,7.69,1.23,14.92,2.54,21.7,3.92,5.69,.92,9.92,1.93,12.69,3-.62-1.39-1.31-2.77-2.08-4.16l2.54-2.77c8.46,2.31,14.23,4.23,17.31,5.77,4,2,6,3.77,6,5.31,0,4.93-1.15,8.69-3.46,11.31-2.92,3.08-6.16,4.62-9.69,4.62-1.85,0-3.16-.38-3.92-1.15-1.08-.61-1.93-3-2.54-7.16-.31-1.54-.62-3-.92-4.38-1.54,.77-3.62,1.54-6.23,2.31-4.46,1.23-6.69,3.08-6.69,5.54,0,4.16,.08,8.23,.23,12.23h25.85c.46-.15,2.38-2.23,5.77-6.23,4-4.62,6.31-6.92,6.92-6.92,2.31,0,5.61,2.39,9.92,7.16,.77,.92,1.46,1.7,2.08,2.31V25.16h-147.72V203.34Zm79.63-56.55l.92,2.77c-17.39,15.08-35.78,25.93-55.16,32.54-2,.46-3,1.38-3,2.77-.31,.62-.54,1.54-.69,2.77-.46,1.85-1.23,2.77-2.31,2.77-2.92,0-6.54-5.15-10.85-15.46-1.08-2.77-2.92-7.46-5.54-14.08,27.85-2.77,53.39-7.46,76.63-14.08Zm-69.24-64.4c8.46,2.16,17.16,5.23,26.08,9.23h7.15c2.46-3.23,4.85-5.92,7.16-8.08,1.69-2.15,3.23-3.23,4.62-3.23,1.54,0,4.92,1.7,10.16,5.08,6.31,4.31,9.46,7.31,9.46,9s-.92,3.46-2.77,5.31c-1.23,1.7-1.85,3.62-1.85,5.77v9.23c0,6,.31,14.23,.92,24.7,0,2.77-3.39,4.77-10.16,6-2.92,.46-5.08,.69-6.46,.69-3.85,0-5.77-2.23-5.77-6.69h-15.46v3.92c0,2.62-3.16,4.54-9.46,5.77-2.92,.31-5.08,.46-6.46,.46-4.15,0-6.23-2.08-6.23-6.23,.61-6.77,.92-13.54,.92-20.31v-13.16c0-9.38-.62-18.54-1.85-27.47Zm23.08,50.78h15.46v-35.31h-15.46v35.31Z"/>
      <path class="cls-1" d="M967.78,47.08c11.69,2.77,22.69,6.46,33.01,11.08h45.24v-3.46c0-17.69-.92-33.16-2.77-46.39,8.15,.77,18.39,2.23,30.7,4.38,8.62,1.08,12.93,2.69,12.93,4.85,0,2.77-2.54,5.08-7.62,6.92-3.69,1.08-5.54,3.08-5.54,6v27.7h43.62c3.69-4.62,7.23-8.62,10.62-12,2.46-3.08,4.69-4.62,6.69-4.62,2.31,0,7.31,2.46,15,7.39,9.08,6.31,13.62,10.7,13.62,13.16,0,2.16-1.85,4.38-5.54,6.69-3.08,2.16-4.62,4.54-4.62,7.15v40.62c0,7.54,.31,17.93,.92,31.16,0,3.23-4.23,5.54-12.69,6.92-3.69,.46-6.54,.69-8.54,.69-4.15,0-6.23-2.54-6.23-7.62v-11.08h-52.85v30.47c0,15.54,.31,30.7,.92,45.47,0,3.23-4.31,5.77-12.93,7.62-3.85,.46-6.62,.69-8.31,.69-6.16,0-9.23-2.77-9.23-8.31,1.23-16.62,1.85-31.77,1.85-45.47v-30.47h-48.7v10.16c0,3.54-4.15,6.08-12.46,7.62-3.69,.62-6.39,.92-8.08,.92-6,0-9-2.54-9-7.62,1.23-19.08,1.85-36.01,1.85-50.78v-4.39c0-12.46-.62-27.62-1.85-45.47Zm29.54,83.09h48.7V64.86h-48.7v65.32Zm76.4-65.32v65.32h52.85V64.86h-52.85Z"/>
    </g>
  </g>
</svg>