<?xml version="1.0" encoding="UTF-8"?>
<svg id="_圖層_2" data-name="圖層 2" xmlns="http://www.w3.org/2000/svg" viewBox="0 0 63.99 322.21">
  <defs>
    <style>
      .cls-1 {
        fill: #004e26;
      }
    </style>
  </defs>
  <g id="_圖層_1-2" data-name="圖層 1">
    <g>
      <path class="cls-1" d="M31.74,0c8.97,0,16.67,2.88,23.11,8.63,6.09,6.26,9.14,13.8,9.14,22.6,.17,9.14-2.88,16.76-9.14,22.85-6.09,6.3-13.63,9.46-22.6,9.46s-16.76-3.15-22.85-9.46C3.13,47.99,0,40.46,0,31.48S3.13,15.49,9.39,9.39C15.49,3.13,22.94,0,31.74,0Zm.51,61.19c8.46-.13,15.45-3.07,20.95-8.82,5.67-5.97,8.51-13.01,8.51-21.14s-2.96-15.06-8.89-20.82c-5.8-5.42-12.82-8.12-21.07-8.12s-15.23,2.86-20.82,8.57C5.16,16.74,2.29,23.61,2.29,31.48c.08,8.21,3,15.23,8.76,21.07,5.75,5.75,12.82,8.63,21.2,8.63ZM12.19,13.71c2.79,.55,5.59,.83,8.38,.83h22.34l4.06-4.63,5.21,3.87c.59,.51,.89,1,.89,1.46,0,.68-.42,1.02-1.27,1.02h-16.25v15.23h4.57l3.81-4.32,5.01,3.75c.55,.47,.83,.91,.83,1.33,0,.72-.34,1.08-1.02,1.08h-13.2v16.25h8.38l4.06-4.63,5.27,3.87c.55,.51,.83,1,.83,1.46,0,.68-.42,1.02-1.27,1.02H17.77c-2.37,0-4.74,.17-7.11,.51l-1.27-3.05c2.71,.51,5.42,.78,8.12,.83V28.44c0-.63-.09-1.9-.25-3.81l6.09,.89c1.18,.13,1.78,.51,1.78,1.14,0,.8-.85,1.48-2.54,2.03v20.88h7.62V16.25h-9.65c-2.37,0-4.74,.17-7.11,.51l-1.27-3.05Z"/>
      <path class="cls-1" d="M5.08,72.11c2.79,.51,5.59,.76,8.38,.76h15.49v-2.29c0-.68-.09-2.03-.25-4.06l6.47,.83c1.27,.17,1.9,.59,1.9,1.27,0,.85-.93,1.59-2.79,2.22v2.03h14.98l3.81-4.25,5.01,3.62c.55,.47,.83,.94,.83,1.42,0,.7-.34,1.05-1.02,1.05h-23.61v5.52h12.44l3.55-4.06,4.82,3.55c.51,.42,.76,.85,.76,1.27,0,.72-.34,1.08-1.02,1.08h-20.57v6.03h19.04l3.81-4.32,5.01,3.75c.55,.47,.83,.92,.83,1.36,0,.7-.34,1.05-1.02,1.05H9.39c-2.37,0-4.74,.19-7.11,.57l-1.27-3.11c2.79,.47,5.59,.7,8.38,.7H28.95v-6.03h-10.92c-2.37,0-4.74,.15-7.11,.44l-1.27-2.98c2.79,.47,5.59,.7,8.38,.7h10.92v-5.52H13.46c-2.37,0-4.74,.17-7.11,.51l-1.27-3.11Zm7.11,20.31l5.84,3.11h27.93l2.79-3.36,4.51,3.49c.55,.38,.83,.83,.83,1.33,0,.42-.25,.76-.76,1.02l-1.78,1.02v20.31c0,2.29-1.06,4.1-3.17,5.46-1.82,1.1-3.47,1.65-4.95,1.65,0-1.65-.23-2.75-.7-3.3-.47-.59-2.86-1.27-7.17-2.03v-1.52l9.14,.32c1.02,0,1.52-.53,1.52-1.59v-6.03H18.03v12.63c0,.68-.44,1.16-1.33,1.46-.72,.21-1.55,.32-2.48,.32-1.19,0-1.78-.59-1.78-1.78l.25-11.17v-16.5c0-1.95-.17-3.55-.51-4.82Zm5.84,10.41h28.18v-5.59H18.03v5.59Zm0,7.62h28.18v-5.78H18.03v5.78Z"/>
      <path class="cls-1" d="M.76,149.61c2.62,.47,5.25,.7,7.87,.7v-14.73c0-.63-.09-1.9-.25-3.81l6.09,.83c1.18,.17,1.78,.59,1.78,1.27,0,.76-.85,1.42-2.54,1.97v14.47h.51l3.3-3.55,4.32,3.17c.51,.39,.76,.78,.76,1.17,0,.7-.34,1.05-1.02,1.05h-7.87v21.39c.8-.25,1.59-.51,2.35-.76,2.45-.8,4.55-1.67,6.28-2.6l.25,1.59c-1.35,1.19-2.88,2.33-4.57,3.43-1.78,1.23-4.1,2.54-6.98,3.94-1.69,.85-3.26,1.5-4.7,1.97l-.76,1.78c-.3,.85-.72,1.27-1.27,1.27-.38-.08-.7-.47-.95-1.14l-1.59-6.73c1.9-.17,4.19-.59,6.86-1.27v-22.85c-2.2,0-4.4,.19-6.6,.57l-1.27-3.11Zm20.31-8.44c2.79,.55,5.59,.83,8.38,.83h9.39v-1.84c0-3.64-.25-6.35-.76-8.12l6.28,.89c1.06,.08,1.59,.47,1.59,1.14s-.34,1.1-1.02,1.27l-1.27,.51v6.16h10.66l3.55-3.87,4.57,3.36c.51,.42,.76,.83,.76,1.21,0,.68-.34,1.02-1.02,1.02h-18.54v7.11h10.09l2.35-2.79,4.06,2.92c.51,.34,.76,.72,.76,1.14,0,.47-.23,.8-.7,1.02l-1.59,1.02v30.79c0,1.99-.93,3.6-2.79,4.82-1.57,.97-3.01,1.46-4.32,1.46,0-1.48-.17-2.48-.51-2.98-.38-.55-2.24-1.16-5.59-1.84v-1.21h7.11c.85,0,1.27-.44,1.27-1.33v-10.66h-10.16v15.49c0,.46-.21,.8-.63,1.02-.59,.38-1.48,.57-2.67,.57s-1.74-.36-1.78-1.08l.25-10.41v-5.59h-9.14v16.5c0,.59-.4,1.02-1.21,1.27-.72,.17-1.5,.25-2.35,.25-1.02,0-1.52-.51-1.52-1.52l.25-10.09v-27.17c0-1.65-.17-3.03-.51-4.13l5.33,2.54h9.14v-7.11h-9.39c-2.37,0-4.74,.19-7.11,.57l-1.27-3.11Zm8.63,19.87h9.14v-8.38h-9.14v8.38Zm0,10.41h9.14v-8.7h-9.14v8.7Zm13.96-18.79v8.38h10.16v-8.38h-10.16Zm0,10.09v8.7h10.16v-8.7h-10.16Zm4.82-29.14c2.33,.38,4.27,1.02,5.84,1.9,1.18,.8,1.78,1.67,1.78,2.6,0,1.35-.85,2.03-2.54,2.03-.68,0-1.27-.32-1.78-.95-1.06-1.57-2.5-3.11-4.32-4.63l1.02-.95Z"/>
      <path class="cls-1" d="M4.57,198.05l5.33,2.54H53.76l2.6-3.05,4.32,3.24c.51,.42,.76,.87,.76,1.33,0,.25-.25,.55-.76,.89l-1.78,.95v49.7c0,.8-.36,1.42-1.08,1.84-.59,.3-1.25,.44-1.97,.44-1.35,0-2.03-.42-2.03-1.27v-1.97H9.9v1.71c0,.59-.4,1.02-1.21,1.27-.72,.17-1.5,.25-2.35,.25-1.02,0-1.52-.51-1.52-1.52l.25-10.16v-42.15c0-1.61-.17-2.96-.51-4.06Zm5.33,52.81H53.83v-48.43H9.9v48.43Zm.76-39.36c2.79,.55,5.59,.83,8.38,.83h12.95v-3.36c0-1.35-.17-3.13-.51-5.33l5.14,.63c1.14,.09,1.71,.38,1.71,.89s-.68,1.12-2.03,1.84c0,1.86,.02,3.64,.06,5.33h8.32l3.3-3.62,4.38,3.17c.47,.38,.7,.76,.7,1.14,0,.68-.34,1.02-1.02,1.02h-15.62c.13,2.96,.3,5.59,.51,7.87,.38,3,1.04,5.99,1.97,8.95,.04,.09,.08,.19,.13,.32,1.95-3.47,3.75-7.49,5.4-12.06l5.08,1.21c.85,.17,1.27,.53,1.27,1.08s-.76,1-2.29,1.33c-2.12,4.57-4.7,8.84-7.74,12.82,.34,.68,.74,1.33,1.21,1.97,1.06,1.65,2.31,3.13,3.75,4.44,.38,.34,.72,.51,1.02,.51,.34,0,.61-.3,.83-.89l3.24-7.43,1.02,.19c-.85,5.25-1.27,8.12-1.27,8.63,0,.8,.34,1.57,1.02,2.29,.55,.63,.83,1.33,.83,2.09,0,.97-.78,1.46-2.35,1.46-1.23,0-2.65-.51-4.25-1.52-2.16-1.48-4.13-3.34-5.9-5.59-.63-.89-1.25-1.84-1.84-2.86-3.26,3.51-7.39,6.83-12.38,9.97l-1.02-1.21c4.15-3,7.85-6.79,11.11-11.36,.17-.25,.36-.51,.57-.76-.42-.8-.78-1.65-1.08-2.54-1.02-2.71-1.82-6.03-2.41-9.97-.38-2.54-.63-5.52-.76-8.95h-13.01c-2.37,0-4.74,.19-7.11,.57l-1.27-3.11Zm21.58,24.63l.25,1.27c-4.78,2.46-10.28,4.85-16.5,7.17l-.51,1.97c-.04,.55-.3,.83-.76,.83-.51,0-.85-.36-1.02-1.08l-2.29-5.59c7.15-1.23,14.09-2.75,20.82-4.57Zm-18.79-17.77l3.87,2.09h8.06l2.29-2.35,3.05,2.6c.51,.34,.76,.66,.76,.95s-.17,.53-.51,.7l-1.27,.63v5.33l.25,4.51c0,.42-.23,.78-.7,1.08-.38,.3-.91,.44-1.59,.44-1.35,0-2.03-.34-2.03-1.02v-.76h-7.87v1.33c0,.59-.3,1-.89,1.21-.55,.34-1.19,.51-1.9,.51-.8,0-1.23-.42-1.27-1.27v-12.44c0-1.82-.09-3-.25-3.55Zm4.32,12.5h7.87v-8.7h-7.87v8.7Zm22.09-26.91c1.86,.42,3.43,1.14,4.7,2.16,.93,.85,1.4,1.8,1.4,2.86,0,1.19-.68,1.78-2.03,1.78-.55,0-1.02-.34-1.4-1.02-.89-1.61-2.03-3.22-3.43-4.82l.76-.95Z"/>
      <path class="cls-1" d="M5.08,272.19l5.84,3.05H28.95v-5.08c0-4.06-.25-7.09-.76-9.08l6.86,.95c1.18,.08,1.78,.53,1.78,1.33,0,.72-.38,1.19-1.14,1.4l-1.4,.57v9.9h18.09l2.98-3.05,4.19,3.11c.76,.47,1.14,.87,1.14,1.21,0,.55-.28,.93-.83,1.14l-1.71,.89v15.74l.25,6.09c0,.59-.32,1.06-.95,1.4-.51,.42-1.21,.63-2.09,.63-1.69,0-2.54-.42-2.54-1.27v-2.22h-18.54v21.84c0,.42-.23,.74-.7,.95-.72,.34-1.76,.51-3.11,.51-1.1,0-1.69-.42-1.78-1.27l.25-11.36v-10.66H10.92v1.21c0,.8-.38,1.35-1.14,1.65-.85,.42-1.74,.63-2.67,.63-1.1,0-1.69-.59-1.78-1.78l.25-6.6v-16.95c0-2.5-.17-4.13-.51-4.89Zm5.84,24.88H28.95v-20H10.92v20Zm23.36-20v20h18.54v-20h-18.54Z"/>
    </g>
  </g>
</svg>