<?xml version="1.0" encoding="UTF-8"?>
<svg id="_圖層_2" data-name="圖層 2" xmlns="http://www.w3.org/2000/svg" viewBox="0 0 533.82 308.87">
  <defs>
    <style>
      .cls-1 {
        fill: #42b049;
      }

      .cls-2 {
        fill: #e3007f;
      }

      .cls-3 {
        fill-rule: evenodd;
      }

      .cls-3, .cls-4 {
        fill: #231815;
      }

      .cls-5 {
        fill: #459ea5;
      }

      .cls-6 {
        fill: #91308c;
      }

      .cls-7 {
        fill: #541b85;
      }

      .cls-8 {
        fill: #004097;
      }

      .cls-9 {
        fill: #00aeeb;
      }
    </style>
  </defs>
  <g id="_圖層_1-2" data-name="圖層 1">
    <g>
      <g>
        <path class="cls-4" d="M3.4,169.64c1.55,.29,3.78,.43,6.66,.43h.38v-3.09c0-3.24-.19-6.08-.57-8.52,1.49,.1,3.38,.33,5.66,.71,1.55,.19,2.33,.52,2.33,1,0,.51-.44,.92-1.33,1.24-.6,.25-.9,.67-.9,1.24v7.42c.06-.03,.43-.43,1.09-1.19,.76-.89,1.21-1.33,1.33-1.33,.41,0,1.02,.46,1.81,1.38,.86,.95,1.28,1.52,1.28,1.71,0,.48-.21,.71-.62,.71h-4.9v3.09c2.06,.67,3.49,1.38,4.28,2.14,.82,.76,1.24,1.68,1.24,2.76,0,.76-.33,1.47-1,2.14-.41,.51-.98,.76-1.71,.76-.48,0-.89-.65-1.24-1.95-.35-1.3-.87-2.57-1.57-3.81v24.99c0,.63-.78,1.09-2.33,1.38-.7,.1-1.21,.14-1.52,.14-1.14,0-1.71-.51-1.71-1.52,.25-3.05,.38-5.84,.38-8.38v-10.57c-.98,2-1.9,3.55-2.76,4.66-1.11,1.65-2.35,3.09-3.71,4.33l-.71-.33c3.39-6.85,5.74-13.47,7.04-19.85h-.24c-2.76,0-4.73,.06-5.9,.19l-.76-1.9Zm22.65-10.66c1.71,.25,3.27,.52,4.66,.81,1.87,.29,2.81,.65,2.81,1.09,0,.48-.4,.89-1.19,1.24-.73,.25-1.09,.6-1.09,1.05,0,14.18-.41,22.62-1.24,25.32-.95,3.01-2.21,5.5-3.76,7.47-2.03,2.51-4.82,4.92-8.38,7.23l-.52-.76c2.09-2.03,3.79-4.25,5.09-6.66,1.24-1.9,2.22-4.36,2.95-7.38,.16-.92,.3-2.28,.43-4.09-.48,.6-.97,1.14-1.48,1.62-.86,.82-1.28,1.3-1.28,1.43v1.28c-.03,.67-.17,1-.43,1-.41,0-1.16-.84-2.24-2.52-.57-.89-1.28-2.08-2.14-3.57,2.19-.51,4.78-1.41,7.76-2.71,.06-1.9,.13-4.11,.19-6.62-.16,.35-.38,.68-.67,1-.67,.89-1.43,1.33-2.28,1.33-.22,0-.44-.14-.67-.43-.16-.32-.33-1.33-.52-3.05-.22-1.93-.86-4.27-1.9-7l.81-.62c2.13,1.4,3.62,2.64,4.47,3.71,.35,.48,.62,.9,.81,1.28v-6.66c0-1.3-.06-2.9-.19-4.81Zm7.85,0c1.49,.13,3.33,.38,5.52,.76,1.52,.25,2.28,.57,2.28,.95,0,.57-.49,1.02-1.48,1.33-.67,.22-1,.6-1,1.14v9.28c.13-.29,.27-.59,.43-.9,.98-1.93,1.79-4.03,2.43-6.28,1.59,1.05,3.08,2.02,4.47,2.9,1.3,.92,1.95,1.62,1.95,2.09s-.24,.71-.71,.71l-2.9-.33c-1.36,1.55-3.25,3.14-5.66,4.76v4.47c2.89,.76,4.95,1.55,6.19,2.38,1.21,.92,1.81,1.98,1.81,3.19,0,.73-.3,1.4-.9,2-.38,.48-.92,.71-1.62,.71-.92,0-1.73-.73-2.43-2.19-.64-1.46-1.65-2.89-3.05-4.28v12.94c0,1.17,.24,1.9,.71,2.19,.41,.32,1.06,.48,1.95,.48,1.02,0,1.67-.13,1.95-.38,.32-.25,.54-.87,.67-1.85,.19-1.11,.46-2.65,.81-4.62h1.14c.1,2.06,.16,3.52,.19,4.38,.06,.95,.29,1.68,.67,2.19,.7,.6,1.05,1.14,1.05,1.62,0,.73-.25,1.33-.76,1.81-.44,.41-1.16,.74-2.14,1-1.08,.25-2.27,.38-3.57,.38-1.87,0-3.35-.1-4.43-.29-1.02-.19-1.68-.48-2-.86-.83-.6-1.24-1.85-1.24-3.76v-31.27c0-2.95-.11-5.17-.33-6.66Z"/>
        <path class="cls-4" d="M54.09,159.55c2.22,.54,4.3,1.25,6.23,2.14h27.03c.6-.54,1.13-1.03,1.57-1.48,.7-.7,1.21-1.05,1.52-1.05,.51,0,1.46,.49,2.86,1.48,1.62,1.27,2.43,2.11,2.43,2.52,0,.44-.3,.94-.9,1.47-.51,.54-.76,1.08-.76,1.62v25.65l.38,9.76c0,.63-.89,1.09-2.67,1.38-.79,.09-1.36,.14-1.71,.14-.89,0-1.33-.51-1.33-1.52v-2.1h-28.94v2.1c0,.63-.81,1.09-2.43,1.38-.76,.09-1.28,.14-1.57,.14-1.14,0-1.71-.51-1.71-1.52,.22-3.71,.33-6.96,.33-9.76v-23.56c0-2.41-.11-5.35-.33-8.8Zm5.71,38.69h5.85c-.35-.44-.73-1.19-1.14-2.24-.19-.48-.49-1.27-.9-2.38,1.43-.13,2.82-.3,4.19-.52v-2.86c-.32,.1-.6,.21-.86,.33-1.87,.76-3.95,1.41-6.23,1.95l-.38-.81c2.16-.89,4.17-2.03,6.04-3.43,1.68-1.33,3.11-2.86,4.28-4.57h-2.14v.43c0,.54-.73,.94-2.19,1.19-.6,.06-1.08,.1-1.43,.1-.98,0-1.48-.43-1.48-1.29,.13-.86,.19-1.82,.19-2.9v-2.81c0-1.08-.06-2.35-.19-3.81,1.71,.44,3.46,1.08,5.24,1.9h10.14c.57-.63,1.03-1.14,1.38-1.52,.38-.38,.75-.57,1.09-.57,.54,0,1.46,.49,2.76,1.47,1.49,.98,2.24,1.7,2.24,2.14,0,.32-.29,.63-.86,.95-.51,.29-.79,.6-.86,.95v3.76c0,.41-.4,.75-1.19,1,.79,.48,1.54,.95,2.24,1.43,.92,.63,1.38,1.09,1.38,1.38,0,.25-.17,.38-.52,.38h-1.9c-.89,.7-2.06,1.43-3.52,2.19,.22,.16,.49,.3,.81,.43,2,1.17,4.24,2.09,6.71,2.76l-.38,.95c-1.27,.51-2.09,1.16-2.47,1.95-.44,.95-.83,1.43-1.14,1.43-.35,0-1-.33-1.95-1-1.08-.7-2.24-1.7-3.47-3-.89-.92-1.73-2.21-2.52-3.86-.57-1.11-1.08-2.63-1.52-4.57-1.05,1.08-2.02,1.93-2.9,2.57v4.52c1.36-.35,2.7-.71,4-1.09l.38,.71c-2.89,2.44-5.97,4.22-9.23,5.33-.35,.03-.52,.16-.52,.38-.03,.13-.06,.29-.1,.48l-.05,.14h22.08v-35.27h-28.94v35.27Zm2.81-30.89c1.55,.28,3.78,.43,6.66,.43h1.9c0-1.3-.13-2.63-.38-4,2.09,.19,4.09,.46,6,.81,1.24,.03,1.86,.32,1.86,.86,0,.25-.37,.54-1.09,.86-.79,.35-1.19,.76-1.19,1.24v.24h3c.16-.06,.65-.6,1.48-1.62,1.02-1.21,1.62-1.81,1.81-1.81,.48,0,1.25,.6,2.33,1.81,1.11,1.21,1.67,1.93,1.67,2.19,0,.48-.25,.71-.76,.71h-9.52v3.67h4.71c.13-.06,.62-.6,1.48-1.62,1.02-1.24,1.62-1.85,1.81-1.85,.48,0,1.25,.6,2.33,1.81,1.11,1.21,1.67,1.94,1.67,2.19,0,.54-.27,.81-.81,.81h-20.75c-2.76,0-4.73,.06-5.9,.19l-.71-1.9c1.52,.25,3.73,.38,6.62,.38h4.38v-3.67h-1.9c-2.76,0-4.71,.06-5.85,.19l-.81-1.9Zm5.9,15.09h11.09v-4.62h-11.09v4.62Zm7.57,1.76c.48,1.01,1.08,1.98,1.81,2.9,.54,.79,1.21,1.49,2,2.09,.25-.38,.51-.81,.76-1.28,.57-.89,1.06-1.86,1.48-2.9-.54,.06-.95,.09-1.24,.09-.86,0-1.28-.4-1.28-1.19v-.19h-3.14c-.13,.19-.25,.35-.38,.48Z"/>
        <path class="cls-4" d="M129.09,158.6c1.62,.54,3.17,1.09,4.66,1.66,1.43,.57,2.14,1.17,2.14,1.81,0,.32-.35,.51-1.05,.57-.73,.09-1.13,.21-1.19,.33-1.49,1.84-3.22,3.51-5.19,5h7.09c.13-.06,.76-.79,1.9-2.19,1.4-1.74,2.2-2.62,2.43-2.62,.73,0,1.84,.81,3.33,2.43,1.49,1.62,2.24,2.6,2.24,2.95,0,.48-.33,.71-1,.71h-18.47c-1.17,2.16-2.57,4.06-4.19,5.71h10.71c.57-.54,1.06-1.05,1.48-1.52,.73-.73,1.25-1.09,1.57-1.09,.57,0,1.57,.51,3,1.52,1.68,1.33,2.52,2.22,2.52,2.67,0,.41-.4,.89-1.19,1.43-.6,.57-.9,1.09-.9,1.57v12.37l.38,9.9c0,.63-.92,1.11-2.76,1.43-.83,.09-1.43,.14-1.81,.14-.89,0-1.33-.52-1.33-1.57v-2.1h-19.85v2.1c0,.67-.84,1.14-2.52,1.43-.76,.09-1.32,.14-1.67,.14-1.02,0-1.52-.52-1.52-1.57,.16-1.75,.24-3.51,.24-5.28v-16.8c0-2.48-.14-4.87-.43-7.19,2.22,.57,4.49,1.38,6.81,2.43h4.62c.38-1.59,.68-3.49,.9-5.71h-12.52c-2.76,0-4.73,.06-5.9,.19l-.76-1.9c1.55,.29,3.78,.43,6.66,.43h19.23c.98-2.92,1.76-6.04,2.33-9.37Zm-16.56,0c2.86,.79,4.84,1.6,5.95,2.43,.95,.86,1.43,1.84,1.43,2.95,0,.92-.4,1.83-1.19,2.71-.57,.57-1.3,.86-2.19,.86-.6,0-1.13-.71-1.57-2.14-.54-2-1.56-3.95-3.05-5.85l.62-.95Zm1.09,24.03h19.85v-6.28h-19.85v6.28Zm0,7.8h19.85v-6.52h-19.85v6.52Zm0,8h19.85v-6.71h-19.85v6.71Z"/>
        <path class="cls-4" d="M170.74,158.6c2.09,.22,4.09,.49,6,.81,1.21,.06,1.81,.38,1.81,.95,0,.19-.35,.46-1.05,.81-.83,.35-1.24,.78-1.24,1.28v2.62h7.47c.06,0,.62-.6,1.67-1.81,1.4-1.71,2.3-2.57,2.71-2.57s1.63,.94,3.66,2.81c1.24,1.14,1.86,1.86,1.86,2.14,0,.54-.38,.81-1.14,.81h-33.7v10.8c0,4.35-.22,8.17-.67,11.47-.51,2.95-1.41,5.7-2.71,8.23-1.14,2-2.68,4.01-4.62,6.04l-1-.38c1.36-3.33,2.27-6.44,2.71-9.33,.63-3.58,.95-8.93,.95-16.04s-.19-11.82-.57-14.8c2.95,.89,5.24,1.76,6.85,2.62h11.42v-2.43c0-1.3-.14-2.65-.43-4.05Zm-7.57,11.04c1.62,.44,3.17,.87,4.66,1.28,1.46,.44,2.19,.92,2.19,1.43,0,.48-.43,.79-1.29,.95-.83,.13-1.28,.32-1.38,.57-.29,.95-.59,1.87-.9,2.76,2.09,1.01,3.6,1.93,4.52,2.76,.51,.48,.89,.9,1.14,1.28v-7.95c0-1.36-.13-2.76-.38-4.19,2.09,.19,4.14,.44,6.14,.76,1.24,.06,1.86,.38,1.86,.95,0,.22-.38,.51-1.14,.86-.76,.38-1.14,.86-1.14,1.43v16.9h4.19c.13-.03,.67-.68,1.62-1.95,1.11-1.49,1.78-2.24,2-2.24,.6,0,1.57,.73,2.9,2.19,1.36,1.4,2.05,2.25,2.05,2.57,0,.54-.32,.81-.95,.81h-11.8v8.9h7.38c.16-.06,.75-.76,1.76-2.09,1.3-1.62,2.05-2.43,2.24-2.43,.7,0,1.76,.76,3.19,2.28,1.46,1.55,2.19,2.51,2.19,2.86,0,.51-.33,.76-1,.76h-30.65c-2.76,0-4.73,.06-5.9,.19l-.76-1.9c1.55,.22,3.78,.33,6.66,.33h9.57v-8.9h-5.76c-2.76,0-4.73,.06-5.9,.19l-.71-1.9c1.52,.22,3.73,.33,6.62,.33h5.76v-5.62c-.19,.44-.41,.83-.67,1.14-.63,.86-1.36,1.28-2.19,1.28-.38,0-.7-.14-.95-.43-.22-.25-.49-1.16-.81-2.71-.25-1.33-.84-2.86-1.76-4.57-.48,1.11-.98,2.13-1.52,3.05-1.14,2.09-2.63,4.2-4.47,6.33l-.57-.57c1.11-2.92,1.93-5.63,2.47-8.14,.6-2.67,1.11-5.85,1.52-9.57Zm18.47-.38c1.71,.48,3.35,.95,4.9,1.43,1.52,.44,2.28,.94,2.28,1.47,0,.51-.4,.83-1.19,.95-.86,.13-1.33,.3-1.43,.52-.25,.86-.51,1.68-.76,2.48,2.54,1.14,4.33,2.19,5.38,3.14,1.24,1.05,1.86,1.98,1.86,2.81,0,1.08-.33,2.02-1,2.81-.57,.79-1.25,1.19-2.05,1.19-.48,0-.89-.14-1.24-.43-.32-.29-.67-1.24-1.05-2.86-.38-1.43-1.24-3.08-2.57-4.95-.48,1.24-.98,2.36-1.52,3.38-1.08,2.03-2.52,4.08-4.33,6.14l-.71-.71c.95-2.89,1.67-5.55,2.14-8,.51-2.63,.94-5.76,1.28-9.37Z"/>
        <path class="cls-4" d="M208.29,159.79c3.33,.6,5.66,1.27,7,2,1.14,.67,1.71,1.46,1.71,2.38,0,.86-.38,1.71-1.14,2.57-.16,.19-.37,.33-.62,.43h7c1.02-2.28,1.57-5.14,1.67-8.57,2.28,.38,4.14,.75,5.57,1.09,2,.38,3,.84,3,1.38,0,.35-.52,.67-1.57,.95-.86,.13-1.36,.33-1.52,.62-1.36,1.52-3.27,3.03-5.71,4.52h7.09c.13-.06,.75-.76,1.86-2.09,1.33-1.62,2.11-2.43,2.33-2.43,.67,0,1.73,.76,3.19,2.28,1.43,1.55,2.14,2.51,2.14,2.86,0,.51-.32,.76-.95,.76h-16.23v5.52h5.38c.13-.06,.68-.74,1.67-2.05,1.21-1.59,1.92-2.38,2.14-2.38,.63,0,1.63,.76,3,2.29,1.4,1.49,2.09,2.4,2.09,2.71,0,.48-.3,.71-.9,.71h-13.37v5.76h10.09c.16-.06,.76-.78,1.81-2.14,1.27-1.62,2.01-2.43,2.24-2.43,.67,0,1.73,.76,3.19,2.28,1.43,1.56,2.14,2.49,2.14,2.81,0,.54-.33,.81-1,.81h-21.46c.32,.06,.62,.11,.9,.14,2.06,.41,3.09,.86,3.09,1.33,0,.44-.4,.79-1.19,1.05-.73,.28-1.17,.71-1.33,1.28-.19,.86-.41,1.68-.67,2.47h12.14c.13-.06,.73-.78,1.81-2.14,1.33-1.62,2.13-2.43,2.38-2.43,.67,0,1.73,.78,3.19,2.33,1.43,1.52,2.14,2.46,2.14,2.81,0,.48-.33,.71-1,.71h-18.28c1.84,1.87,3.57,3.16,5.19,3.85,1.3,.7,3.16,1.36,5.57,2,2.76,.73,5.73,1.27,8.9,1.62l-.57,1.14c-1.3,.6-2.21,1.51-2.71,2.71-.29,1.11-.52,1.66-.71,1.66-.6,0-2.06-.43-4.38-1.28-2.25-.76-4.2-1.73-5.85-2.9-1.75-1.21-3.11-2.52-4.09-3.95-1.05-1.27-2.06-2.89-3.05-4.85h-1.09c-.83,2.22-1.75,3.93-2.76,5.14-1.71,1.93-3.82,3.54-6.33,4.81-3.11,1.46-7.27,2.6-12.47,3.43l-.38-.57c4.47-1.59,7.96-3.28,10.47-5.09,2.13-1.36,3.81-3.14,5.04-5.33,.44-.67,.81-1.46,1.09-2.38h-9.14c-2.76,0-4.73,.08-5.9,.24l-.81-1.9c1.55,.25,3.79,.38,6.71,.38h9.52c.44-1.74,.7-3.84,.76-6.28h-10.47c-2.76,0-4.73,.06-5.9,.19l-.81-1.9c1.55,.25,3.79,.38,6.71,.38h11.76v-5.76h-6.47c-2.76,0-4.73,.06-5.9,.19l-.71-1.91c1.52,.29,3.73,.43,6.62,.43h6.47v-5.52h-9.47c-2.76,0-4.73,.06-5.9,.19l-.76-1.95c1.52,.25,3.74,.38,6.66,.38h4.71c-.38-.28-.71-.76-1-1.43-.76-1.81-2.06-3.54-3.9-5.19l.38-.76Z"/>
        <path class="cls-4" d="M248.65,158.6c2.25,.57,4.36,1.33,6.33,2.28h28.51c.57-.51,1.08-.98,1.52-1.43,.7-.67,1.19-1,1.48-1,.57,0,1.55,.48,2.95,1.43,1.62,1.27,2.43,2.13,2.43,2.57,0,.41-.35,.89-1.05,1.43-.57,.57-.86,1.09-.86,1.57v25.94l.33,9.71c0,.6-.89,1.06-2.67,1.38-.76,.09-1.32,.14-1.67,.14-.92,0-1.38-.51-1.38-1.52v-.76h-30.46v.95c0,.6-.78,1.06-2.33,1.38-.67,.1-1.14,.14-1.43,.14-1.14,0-1.71-.51-1.71-1.52,.25-3.49,.38-6.54,.38-9.14v-25.18c0-2.28-.13-5.08-.38-8.38Zm5.47,40.41h30.46v-27.65h-10.38c.16,3.84,.59,7.3,1.28,10.38,.86-2.03,1.62-4.52,2.28-7.47,1.4,.67,2.81,1.36,4.24,2.1,1.46,.7,2.19,1.27,2.19,1.71,0,.48-.57,.71-1.71,.71-.7,0-1.13,.19-1.28,.57-1.36,3.14-2.73,5.74-4.09,7.8,1.11,2.83,2.2,4.24,3.28,4.24,.38,0,1.16-2.28,2.33-6.85l.95,.38c-.51,4.51-.76,7.04-.76,7.62,0,.25,.16,.86,.48,1.81,.32,.73,.48,1.25,.48,1.57-.13,1.14-.65,1.78-1.57,1.9-2.06,0-4.2-1.11-6.43-3.33-.86-.92-1.63-2-2.33-3.24-.83,.79-1.68,1.52-2.57,2.19-2.41,1.94-5.09,3.4-8.04,4.38l-.38-.71c2.57-1.55,5.04-3.63,7.42-6.24,.79-.92,1.52-1.9,2.19-2.95-.19-.57-.37-1.16-.52-1.76-.92-3.46-1.63-8.39-2.14-14.8h-8.09c-2.79,0-4.78,.06-5.95,.19l-.71-1.9c1.52,.29,3.74,.43,6.66,.43h8c-.16-2.19-.29-4.55-.38-7.09,1.59,.25,3.08,.52,4.47,.81,1.17,.19,2.05,.4,2.62,.62-.13-.29-.27-.57-.43-.86l.52-.57c1.74,.48,2.93,.87,3.57,1.19,.82,.41,1.24,.78,1.24,1.09,0,1.02-.24,1.79-.71,2.33-.6,.63-1.27,.95-2,.95-.38,0-.65-.08-.81-.24-.22-.13-.4-.62-.52-1.48-.06-.32-.13-.62-.19-.9-.32,.16-.75,.32-1.29,.48-.92,.25-1.38,.64-1.38,1.14,0,.86,.02,1.7,.05,2.52h5.33c.1-.03,.49-.46,1.19-1.28,.82-.95,1.3-1.43,1.43-1.43,.48,0,1.16,.49,2.05,1.47,.16,.19,.3,.35,.43,.48v-7.04h-30.46v36.74Zm16.42-11.66l.19,.57c-3.59,3.11-7.38,5.35-11.37,6.71-.41,.1-.62,.29-.62,.57-.06,.13-.11,.32-.14,.57-.1,.38-.25,.57-.48,.57-.6,0-1.35-1.06-2.24-3.19-.22-.57-.6-1.54-1.14-2.9,5.74-.57,11.01-1.54,15.8-2.9Zm-14.28-13.28c1.74,.44,3.54,1.08,5.38,1.9h1.48c.51-.67,1-1.22,1.48-1.66,.35-.44,.67-.67,.95-.67,.32,0,1.02,.35,2.09,1.05,1.3,.89,1.95,1.51,1.95,1.86s-.19,.71-.57,1.09c-.25,.35-.38,.75-.38,1.19v1.91c0,1.24,.06,2.93,.19,5.09,0,.57-.7,.98-2.09,1.24-.6,.09-1.05,.14-1.33,.14-.79,0-1.19-.46-1.19-1.38h-3.19v.81c0,.54-.65,.94-1.95,1.19-.6,.06-1.05,.09-1.33,.09-.86,0-1.28-.43-1.28-1.28,.13-1.4,.19-2.79,.19-4.19v-2.71c0-1.93-.13-3.82-.38-5.66Zm4.76,10.47h3.19v-7.28h-3.19v7.28Z"/>
        <path class="cls-4" d="M305.51,181.06c0,2.79,.42,5.29,1.26,7.51,.84,2.22,2,4.09,3.48,5.63,1.47,1.54,3.22,2.71,5.22,3.52,2.01,.81,4.18,1.22,6.53,1.22,1.4,0,2.76-.27,4.06-.81,1.3-.54,2.51-1.25,3.63-2.12,1.11-.87,2.11-1.86,2.99-2.95,.88-1.09,1.61-2.2,2.17-3.33l2.83,1.81c-.82,1.34-1.8,2.63-2.92,3.87-1.12,1.23-2.42,2.33-3.9,3.28-1.47,.95-3.14,1.71-5,2.27-1.86,.56-3.93,.84-6.22,.84-3.31,0-6.32-.55-9.01-1.66-2.7-1.1-5.01-2.6-6.94-4.48-1.93-1.89-3.42-4.09-4.47-6.61-1.05-2.52-1.58-5.18-1.58-7.99,0-1.87,.24-3.69,.72-5.46,.48-1.78,1.18-3.44,2.09-5,.91-1.55,2.03-2.98,3.34-4.27,1.31-1.29,2.8-2.41,4.45-3.34,1.66-.93,3.47-1.66,5.43-2.17,1.97-.51,4.06-.77,6.29-.77s4.09,.29,5.88,.86c1.8,.57,3.43,1.33,4.91,2.27,1.47,.94,2.79,2.03,3.94,3.27,1.15,1.23,2.14,2.52,2.96,3.87l-2.92,1.93c-1.67-3.23-3.53-5.59-5.6-7.09-2.07-1.5-4.44-2.24-7.13-2.24-2.31,0-4.47,.42-6.47,1.26-2.01,.84-3.76,2.05-5.25,3.61-1.5,1.56-2.67,3.47-3.52,5.7-.85,2.24-1.28,4.76-1.28,7.57Z"/>
        <path class="cls-4" d="M347.01,160.95h13.3c4.09,0,7.62,.38,10.56,1.14,2.95,.76,5.41,1.99,7.37,3.67,2.25,1.93,3.94,4.13,5.07,6.62,1.13,2.49,1.7,5.21,1.7,8.16s-.51,5.45-1.52,7.92c-1.01,2.47-2.5,4.62-4.45,6.46-1.96,1.84-4.37,3.29-7.25,4.35-2.88,1.06-6.18,1.6-9.89,1.6h-14.9v-39.91Zm6.71,36.99h7.13c2.25,0,4.36-.37,6.35-1.11,1.99-.74,3.72-1.85,5.19-3.31,1.47-1.47,2.64-3.27,3.49-5.4,.85-2.14,1.28-4.61,1.28-7.42,0-2.47-.4-4.73-1.2-6.79-.8-2.06-1.93-3.83-3.37-5.31-1.44-1.48-3.17-2.64-5.16-3.46-2-.82-4.18-1.23-6.55-1.23h-7.16v34.04Z"/>
        <path class="cls-4" d="M400.38,181.06c0,2.79,.42,5.29,1.26,7.51,.84,2.22,2,4.09,3.48,5.63,1.47,1.54,3.22,2.71,5.22,3.52,2.01,.81,4.18,1.22,6.53,1.22,1.4,0,2.76-.27,4.06-.81,1.3-.54,2.51-1.25,3.63-2.12,1.11-.87,2.11-1.86,2.99-2.95,.88-1.09,1.61-2.2,2.17-3.33l2.83,1.81c-.82,1.34-1.8,2.63-2.92,3.87-1.12,1.23-2.42,2.33-3.9,3.28-1.47,.95-3.14,1.71-5,2.27-1.86,.56-3.93,.84-6.22,.84-3.31,0-6.32-.55-9.01-1.66-2.7-1.1-5.01-2.6-6.94-4.48-1.93-1.89-3.42-4.09-4.47-6.61-1.05-2.52-1.58-5.18-1.58-7.99,0-1.87,.24-3.69,.72-5.46,.48-1.78,1.18-3.44,2.09-5,.91-1.55,2.03-2.98,3.34-4.27,1.31-1.29,2.8-2.41,4.45-3.34,1.66-.93,3.47-1.66,5.43-2.17,1.97-.51,4.06-.77,6.29-.77s4.09,.29,5.88,.86c1.8,.57,3.43,1.33,4.91,2.27,1.47,.94,2.79,2.03,3.94,3.27,1.15,1.23,2.14,2.52,2.96,3.87l-2.92,1.93c-1.67-3.23-3.53-5.59-5.6-7.09-2.07-1.5-4.44-2.24-7.13-2.24-2.31,0-4.47,.42-6.47,1.26-2.01,.84-3.76,2.05-5.25,3.61-1.5,1.56-2.67,3.47-3.52,5.7-.85,2.24-1.28,4.76-1.28,7.57Z"/>
        <path class="cls-4" d="M438.51,167.55c1.55,.29,3.78,.43,6.66,.43h3.62c.13-.06,.67-.71,1.62-1.95,1.17-1.49,1.86-2.24,2.05-2.24,.6,0,1.57,.71,2.9,2.14,1.33,1.43,2,2.3,2,2.62,0,.48-.3,.71-.9,.71h-11.28c-2.76,0-4.73,.06-5.9,.19l-.76-1.9Zm1.95-6.09c1.52,.29,3.73,.43,6.62,.43h1c.1-.06,.55-.6,1.38-1.62,1.05-1.2,1.65-1.81,1.81-1.81,.54,0,1.33,.6,2.38,1.81,1.08,1.21,1.62,1.94,1.62,2.19,0,.48-.24,.71-.71,.71h-7.47c-2.76,0-4.73,.06-5.9,.19l-.71-1.9Zm0,23.99c2,.6,4.06,1.36,6.19,2.28h1.43c.67-.76,1.32-1.44,1.95-2.05,.48-.51,.89-.76,1.24-.76,.41,0,1.32,.44,2.71,1.33,1.65,1.08,2.47,1.84,2.47,2.28,0,.41-.35,.84-1.05,1.28-.44,.41-.67,.87-.67,1.38v2.52c.22-.29,.54-.59,.95-.9,1.11-.89,1.98-1.87,2.62-2.95,.63-1.02,1.16-2.55,1.57-4.62l1.14,.19c0,4.28-.13,7.23-.38,8.85-.25,1.68-.73,2.87-1.43,3.57-.38,.38-.79,.57-1.24,.57-1.11,0-2.05-.33-2.81-1-.16-.16-.3-.3-.43-.43,.03,1.08,.08,2.32,.14,3.71,0,.6-.79,1.05-2.38,1.33-.73,.1-1.27,.14-1.62,.14-.89,0-1.33-.49-1.33-1.47v-1.71h-3.57v2.09c0,.6-.76,1.06-2.28,1.38-.7,.09-1.21,.14-1.52,.14-1.05,0-1.57-.51-1.57-1.52,.13-1.65,.19-3.32,.19-5v-3.76c0-2.35-.11-4.65-.33-6.9Zm.14-11.57c1.55,.25,3.78,.38,6.66,.38h.81c.1-.06,.55-.63,1.38-1.71,1.05-1.27,1.65-1.91,1.81-1.91,.57,0,1.41,.62,2.52,1.86,1.11,1.27,1.67,2.05,1.67,2.33,0,.48-.24,.71-.71,.71h-7.47c-2.76,0-4.73,.06-5.9,.19l-.76-1.86Zm0,6.66c1.55,.25,3.78,.38,6.66,.38h.62c.1-.06,.55-.63,1.38-1.71,1.05-1.3,1.65-1.95,1.81-1.95,.57,0,1.4,.64,2.47,1.91,1.14,1.27,1.71,2.03,1.71,2.28,0,.54-.24,.81-.71,.81h-7.28c-2.76,0-4.73,.06-5.9,.19l-.76-1.9Zm5.38,17.09h3.57v-8.52h-3.57v8.52Zm10.85-36.74c1.84,.38,3.81,.57,5.9,.57h11.8c.48-.54,.9-.95,1.29-1.24,.73-.7,1.3-1.05,1.71-1.05,.54,0,1.49,.54,2.86,1.62,1.43,1.14,2.14,1.93,2.14,2.38,0,.25-.29,.59-.86,1-.57,.51-.86,.94-.86,1.28-.13,3.11-.41,6.24-.86,9.38-.41,2.38-.87,3.95-1.38,4.71-.44,.95-1.38,1.67-2.81,2.14-1.36,.38-2.41,.57-3.14,.57-.38,0-.68-.52-.9-1.57-.25-1.52-1.55-2.9-3.9-4.14l.24-.81c2.51,.79,4.09,1.19,4.76,1.19,.6,0,1.05-.22,1.33-.67,.32-.54,.62-2.33,.9-5.38,.25-2.82,.38-5.52,.38-8.09h-4.24c-.35,3.24-.92,5.95-1.71,8.14-.73,2.38-1.65,4.25-2.76,5.62-.89,1.17-2.14,2.25-3.76,3.24-1.78,1.11-4.08,1.93-6.9,2.47l-.19-.81c1.84-.92,3.25-1.84,4.24-2.76,.89-.89,1.79-2.03,2.71-3.43,.67-1.17,1.27-2.78,1.81-4.81,.54-2.16,.95-4.71,1.24-7.66h-3.14c-2.54,0-4.27,.13-5.19,.38l-.71-2.29Zm1.14,4.76c2.35,.82,3.98,1.55,4.9,2.19,.92,.63,1.38,1.17,1.38,1.62,0,1.14-.33,2.09-1,2.86-.57,.76-1.27,1.14-2.09,1.14-.29,0-.54-.09-.76-.29-.22-.19-.48-.89-.76-2.09-.29-1.33-1.11-2.93-2.47-4.81l.81-.62Zm3.57,18.09c1.49,.13,3.33,.38,5.52,.76,.41,.06,.79,.14,1.14,.24-.64-1.17-1.38-2.33-2.24-3.47l.38-.71c3.2,.98,5.44,2.02,6.71,3.09,1.11,1.08,1.67,2.32,1.67,3.71,0,.92-.4,1.78-1.19,2.57-.51,.6-1.21,.9-2.09,.9-.7,0-1.32-.84-1.86-2.52-.19-.7-.41-1.36-.67-2-.25,.19-.57,.35-.95,.48-.7,.22-1.05,.6-1.05,1.14v7.81c0,1.01,.36,1.65,1.09,1.9,.6,.25,1.59,.38,2.95,.38,1.24,0,2.05-.13,2.43-.38,.38-.25,.68-.89,.9-1.9,.25-1.21,.59-2.84,1-4.9h.95c.16,2.09,.27,3.59,.33,4.47,.13,.98,.44,1.73,.95,2.24,1.05,.67,1.57,1.22,1.57,1.67,0,.7-.32,1.27-.95,1.71-.57,.38-1.49,.68-2.76,.9-1.33,.25-2.81,.38-4.43,.38-2.25,0-4.01-.08-5.28-.24-1.14-.19-1.92-.45-2.33-.76-.92-.51-1.38-1.64-1.38-3.38v-7.38c0-2.98-.14-5.22-.43-6.71Zm15.09,1.71c2.57,1.43,4.35,2.7,5.33,3.81,1.02,1.11,1.52,2.08,1.52,2.9,0,1.33-.38,2.44-1.14,3.33-.73,.95-1.57,1.43-2.52,1.43-.29,0-.56-.14-.81-.43-.19-.32-.41-1.36-.67-3.14-.32-2.03-1.16-4.46-2.52-7.28l.81-.62Z"/>
        <path class="cls-4" d="M486.92,167.98c1.52,.25,3.73,.38,6.62,.38h4.38c.13-.06,.62-.63,1.48-1.71,1.02-1.27,1.62-1.9,1.81-1.9,.51,0,1.33,.62,2.47,1.86,1.14,1.27,1.71,2.03,1.71,2.28,0,.51-.25,.76-.76,.76h-11.09c-2.76,0-4.73,.08-5.9,.24l-.71-1.91Zm1.9-6.28c1.62,.25,3.95,.38,7,.38,.1-.03,.52-.51,1.29-1.43,.92-1.11,1.46-1.67,1.62-1.67,.48,0,1.22,.56,2.24,1.67,1.05,1.08,1.57,1.74,1.57,2,0,.48-.27,.71-.81,.71h-5.9c-2.95,0-5.04,.06-6.28,.19l-.71-1.85Zm0,12.37c1.52,.25,3.73,.38,6.62,.38h1c.1-.06,.55-.6,1.38-1.62,1.05-1.24,1.65-1.85,1.81-1.85,.51,0,1.3,.62,2.38,1.85,1.08,1.17,1.62,1.89,1.62,2.14,0,.51-.24,.76-.71,.76h-7.47c-2.76,0-4.73,.08-5.9,.24l-.71-1.9Zm.19,6.47c1.52,.25,3.73,.38,6.62,.38h.57c.16-.06,.63-.6,1.43-1.62,1.05-1.24,1.67-1.86,1.86-1.86,.48,0,1.25,.6,2.33,1.81,1.11,1.21,1.67,1.94,1.67,2.19,0,.54-.25,.81-.76,.81h-7.09c-2.76,0-4.73,.06-5.9,.19l-.71-1.9Zm0,5.09c1.81,.54,3.68,1.24,5.62,2.09h2.19c.6-.67,1.17-1.27,1.71-1.81,.41-.44,.78-.67,1.09-.67,.35,0,1.16,.4,2.43,1.19,1.43,.98,2.14,1.68,2.14,2.09,0,.38-.29,.78-.86,1.19-.41,.41-.62,.84-.62,1.28v3.81c0,1.33,.06,3.17,.19,5.52,0,.54-.76,.94-2.28,1.19-.7,.09-1.21,.14-1.52,.14-.79,0-1.19-.44-1.19-1.33v-.95h-3.81v1.52c0,.54-.73,.94-2.19,1.19-.64,.06-1.09,.1-1.38,.1-.89,0-1.33-.43-1.33-1.28,.1-1.52,.14-3.05,.14-4.57v-4.43c0-2.13-.11-4.22-.33-6.28Zm5.09,12.37h3.81v-8.9h-3.81v8.9Zm11.09-36.55c1.46,.29,2.67,.43,3.62,.43h3.57c.48-.67,.87-1.17,1.19-1.52,.6-.92,1.11-1.38,1.52-1.38,.32,0,1.21,.57,2.67,1.71,1.62,1.24,2.43,2.06,2.43,2.48,0,.38-.3,.68-.9,.9,.32,.67,.63,1.27,.95,1.81,.67-.82,1.24-1.71,1.71-2.67,.73-1.36,1.24-2.65,1.52-3.85,1.21,.7,2.24,1.28,3.09,1.76,1.21,.67,1.81,1.17,1.81,1.52,0,.25-.3,.4-.9,.43-.79,0-1.24,.1-1.33,.29-.63,.67-1.33,1.25-2.09,1.76-.73,.54-1.81,1.08-3.24,1.62,.51,.76,1,1.36,1.48,1.81,.25,.29,.55,.56,.9,.81,.67-.57,1.29-1.2,1.86-1.9,.95-1.14,1.63-2.24,2.05-3.28,1.21,.67,2.25,1.25,3.14,1.76,1.21,.6,1.81,1.08,1.81,1.43,0,.32-.32,.49-.95,.52-.79,0-1.24,.09-1.33,.29-.83,.44-1.68,.86-2.57,1.24-.67,.32-1.6,.63-2.81,.95,.54,.35,1.11,.68,1.71,1,1.93,1.05,3.98,1.81,6.14,2.28l-.38,1c-1.24,.57-2.08,1.43-2.52,2.57-.29,1.08-.54,1.62-.76,1.62-.35,0-1.27-.52-2.76-1.57-1.43-1.01-2.68-2.24-3.76-3.66-1.14-1.49-2.02-3.12-2.62-4.9-.51-1.14-.98-2.51-1.43-4.09-.22,.16-.37,.32-.43,.48-1.46,3.74-3.41,6.71-5.85,8.9-.29,.25-.57,.49-.86,.71,1.49,.19,3.54,.29,6.14,.29h.19c.1-.03,.44-.4,1.05-1.09,.79-.89,1.27-1.33,1.43-1.33,.38,0,1.02,.46,1.9,1.38,.89,.89,1.33,1.43,1.33,1.62,0,.54-.21,.81-.62,.81h-5.28c-2.76,0-4.73,.06-5.9,.19l-.67-1.57c-2.13,1.65-4.63,3.05-7.52,4.19l-.38-.52c2.03-1.52,3.7-3.05,5-4.57,1.27-1.46,2.35-3.12,3.24-5,.92-1.78,1.6-3.74,2.05-5.9-3.87,0-6.17,.06-6.9,.19l-.71-1.9Zm15.18,30.08c1.49,.54,2.92,1.06,4.28,1.57,1.33,.54,2,1.11,2,1.71,0,.25-.32,.41-.95,.48-.67,.06-1.05,.14-1.14,.24-1.49,1.68-3.25,3.2-5.28,4.57h4.9c.13-.03,.63-.57,1.52-1.62,1.11-1.3,1.76-1.95,1.95-1.95,.54,0,1.4,.63,2.57,1.9,1.21,1.24,1.81,2,1.81,2.29,0,.51-.25,.76-.76,.76h-21.18c-2.76,0-4.73,.06-5.9,.19l-.71-1.95c1.52,.25,3.73,.38,6.62,.38h7.52c1.24-2.6,2.16-5.46,2.76-8.57Zm-15.75-26.79c2.19,.35,3.71,.75,4.57,1.19,.73,.41,1.09,.89,1.09,1.43,0,.76-.32,1.47-.95,2.14-.38,.51-.94,.76-1.67,.76-.44,0-.84-.43-1.19-1.28-.41-1.21-1.17-2.38-2.28-3.52l.43-.71Zm2.47,14.28c1.81,.48,3.7,1.17,5.66,2.09h8.61c.51-.63,.94-1.19,1.29-1.67,.41-.41,.81-.62,1.19-.62,.51,0,1.41,.48,2.71,1.43,1.46,.98,2.19,1.71,2.19,2.19,0,.32-.27,.64-.81,.95-.48,.28-.76,.6-.86,.95v5.66c0,.57-.73,.98-2.19,1.24-.67,.1-1.14,.14-1.43,.14-.92,0-1.38-.38-1.38-1.14v-.62h-9.9v.81c0,.54-.73,.94-2.19,1.19-.6,.06-1.06,.09-1.38,.09-1.02,0-1.52-.43-1.52-1.28,.13-.86,.19-1.82,.19-2.9v-4.71c0-1.08-.06-2.35-.19-3.81Zm1.71,13.13c1.93,.54,3.41,1.08,4.43,1.62,1.24,.73,1.86,1.38,1.86,1.95,0,1.27-.46,2.3-1.38,3.09-.54,.51-1.22,.76-2.05,.76-.35,0-.65-.14-.9-.43-.29-.22-.51-.81-.67-1.76-.25-1.4-.89-3.01-1.9-4.85l.62-.38Zm3.38-3.81h9.9v-5.9h-9.9v5.9Z"/>
      </g>
      <g>
        <path class="cls-4" d="M13.18,222.25c3.13,.86,6.17,1.75,9.12,2.67,2.82,.86,4.24,1.78,4.24,2.76,0,.92-.77,1.51-2.3,1.75-1.47,.18-2.34,.49-2.58,.92-.06,.31-.15,.62-.28,.92,3.19,.31,6.27,.46,9.21,.46h.37c1.04-.92,2.09-1.81,3.13-2.67,1.23-1.17,2-1.75,2.3-1.75,.74,0,2.15,.83,4.24,2.49,2.83,2.21,4.24,3.75,4.24,4.61,0,.61-.83,1.08-2.49,1.38-1.66,.18-2.76,.83-3.32,1.93l-7.92,18.8h2.3c.68-.74,1.35-1.41,2.03-2.03,1.11-.86,1.93-1.29,2.49-1.29,.8,0,2.4,.83,4.79,2.49,2.46,2.15,3.69,3.66,3.69,4.52,0,.61-.86,1.26-2.58,1.93-1.35,.61-2.09,1.2-2.21,1.75-1.35,8.66-2.95,15.85-4.79,21.56-.43,1.47-.95,2.86-1.57,4.15,1.47,1.91,3.41,3.32,5.81,4.24,3.75,1.9,10.81,2.86,21.19,2.86,8.29,0,16.65-.77,25.06-2.3l.28,2.3c-3.26,1.84-5.07,4.09-5.44,6.73-.55,2.33-1.41,3.5-2.58,3.5-17.88,0-29.61-.98-35.2-2.95-5.28-1.78-9.34-4.55-12.16-8.29-.55,.92-1.11,1.84-1.66,2.77-3.44,4.55-6.79,8.02-10.04,10.41l-1.01-1.11c3.75-5.65,6.85-11.92,9.31-18.8-1.29-3.99-2.09-8.69-2.4-14.1,.12-1.66-.12-2.49-.74-2.49-.06,0-.22,.83-.46,2.49-.18,2.4-.58,4.7-1.2,6.91-.31,1.6-.46,2.52-.46,2.76,.18,.62,.34,1.2,.46,1.75,.12,.68,.18,1.2,.18,1.57,0,.74-.22,1.11-.64,1.11-.92,0-2.37-1.04-4.33-3.13-.37-.43-.77-.83-1.2-1.2v21.56c0,1.11-1.44,1.9-4.33,2.4-1.23,.19-2.12,.28-2.67,.28-1.97,0-2.95-.89-2.95-2.67,.43-6.21,.65-12.44,.65-18.71v-27.37c-2.15,3.26-4.61,6.6-7.37,10.04l-1.38-1.47c3.62-7.74,6.39-14.9,8.29-21.47,1.97-7,3.59-15.33,4.88-24.97Zm4.88,55.01c1.41-1.96,2.76-4.11,4.05-6.45,1.29-1.9,2.49-2.86,3.59-2.86,2.21,0,3.32,1.47,3.32,4.42,.61,2.95,1.29,5.65,2.03,8.11,1.29-6.21,2.24-13.36,2.86-21.47h-3.78l-.74,1.57c-.43,.98-1.05,1.54-1.84,1.66-.86,.06-1.84,.09-2.95,.09-.55,0-1.6-.18-3.13-.55-.86-.31-1.29-.71-1.29-1.2l11.15-26.17h-.74c-3.56,0-6.91,.09-10.04,.28l-.09-.18c-1.29,4.42-2.73,8.45-4.33,12.07,.61,.18,1.17,.37,1.66,.55,1.84,.68,2.76,1.23,2.76,1.66,0,.86-.49,1.54-1.47,2.03-.68,.37-1.01,1.05-1.01,2.03v24.42Zm27.64-44.69c2.52,.31,5.31,.52,8.39,.64-.12-3.99-.49-7.56-1.11-10.69,2.7,.25,6.11,.68,10.23,1.29,2.82,.37,4.24,.95,4.24,1.75,0,.92-.83,1.66-2.49,2.21-1.05,.37-1.57,1.11-1.57,2.21v3.32h3.69c.98-1.11,1.9-2.12,2.76-3.04,1.23-1.47,2.12-2.21,2.67-2.21,.98,0,2.58,.95,4.79,2.86,2.52,1.97,3.78,3.23,3.78,3.78,0,.74-.61,1.44-1.84,2.12-1.23,.86-1.84,1.63-1.84,2.3v5.62h.74c.37-1.11,.86-2.21,1.47-3.32,.86-1.53,1.6-2.3,2.21-2.3,.55,0,1.29,.71,2.21,2.12,1.47,2.09,2.21,3.62,2.21,4.61,0,.92-.37,1.38-1.11,1.38h-7.65c0,4.18,.09,6.97,.28,8.39v3.41c0,1.11-1.35,1.91-4.05,2.4-1.23,.18-2.09,.28-2.58,.28-1.35,0-2.12-.77-2.3-2.3h-5.44v9.67h3.69c.18-.12,1.11-1.23,2.76-3.32,1.9-2.46,3.07-3.69,3.5-3.69,.98,0,2.58,1.2,4.79,3.6,2.21,2.46,3.32,3.96,3.32,4.51,0,.92-.52,1.38-1.57,1.38h-16.49v9.67h6.63c.24-.12,1.2-1.23,2.86-3.32,2.09-2.52,3.32-3.78,3.69-3.78,1.11,0,2.82,1.23,5.16,3.69,2.27,2.46,3.41,3.93,3.41,4.42,0,1.05-.49,1.57-1.47,1.57h-20.18c.06,2.64,.15,5.22,.28,7.74,0,1.05-1.51,1.81-4.52,2.3-1.29,.12-2.27,.18-2.95,.18-1.66,0-2.49-.83-2.49-2.49,.12-2.7,.21-5.28,.28-7.74h-1.11c-5.34,0-9.12,.12-11.33,.37l-1.57-3.68c3.01,.49,7.31,.74,12.9,.74h1.11c.06-1.84,.09-3.56,.09-5.16v-4.51c-4.24,.12-7.34,.28-9.31,.46l-1.38-3.69c2.58,.43,6.14,.68,10.69,.74v-9.58c-2.58,0-4.79,.09-6.63,.28l-1.47-3.6c2.33,.37,5.04,.59,8.11,.65v-9.58h-5.25c-2.76,0-5.71,.12-8.85,.37l-1.38-3.69c4.61,.55,8.02,.83,10.23,.83h5.25v-8.85c-3.07,.06-5.41,.15-7,.28l-1.47-3.59Zm17.69,3.22v8.94h5.44v-8.94h-5.44Zm0,11.43v9.68h5.44v-9.68h-5.44Z"/>
        <path class="cls-4" d="M134.45,222.53c4.18,.43,8.17,.95,11.98,1.57,2.4,.12,3.59,.74,3.59,1.84,0,.43-.71,.98-2.12,1.66-1.54,.8-2.3,1.72-2.3,2.76v2.95h16.86c.12,0,1.11-1.01,2.95-3.04,2.52-2.89,4.11-4.33,4.79-4.33,.8,0,2.95,1.57,6.45,4.7,2.15,1.97,3.23,3.23,3.23,3.78,0,.92-.61,1.38-1.84,1.38h-31.42v9.31h10.04c1.04-1.11,2.03-2.12,2.95-3.04,1.35-1.47,2.3-2.21,2.86-2.21,1.11,0,2.89,1.04,5.34,3.13,2.89,2.21,4.33,3.63,4.33,4.24,0,.92-.61,1.78-1.84,2.58-1.17,.8-1.78,1.69-1.84,2.67v2.95c.43-.43,.95-1.01,1.57-1.75,2.03-2.27,3.35-3.41,3.96-3.41s2.4,1.32,5.34,3.96c1.78,1.6,2.67,2.61,2.67,3.04,0,.92-.46,1.38-1.38,1.38h-12.07c0,.86,.03,1.69,.09,2.49,.12,5.22,.18,8.23,.18,9.03,0,1.23-1.51,2.12-4.52,2.67-1.35,.18-2.3,.28-2.86,.28-1.78,0-2.67-.98-2.67-2.95h-9.68c1.23,3.13,2.89,6.08,4.98,8.85,1.53,2.15,3.44,4.12,5.71,5.9,2.03-3.32,3.44-6.91,4.24-10.78,2.7,.92,5.19,1.93,7.46,3.04,3.13,1.11,4.7,2.21,4.7,3.32,0,.61-.74,1.07-2.21,1.38-1.47,.25-2.34,.61-2.58,1.11-2.09,1.6-4.7,3.1-7.83,4.52,.06,.06,.12,.12,.18,.18,4.91,2.89,10.41,5.13,16.49,6.73l-.74,1.93c-2.7,1.04-4.49,2.43-5.34,4.15-.92,2.15-1.72,3.23-2.4,3.23-.92,0-2.58-.83-4.98-2.49-2.7-1.66-5.59-4.06-8.66-7.19-2.4-2.27-4.55-5.31-6.45-9.12-1.9-3.44-3.5-8.35-4.79-14.74h-.28v26.17c0,5.1-1.51,8.35-4.52,9.77-2.83,1.6-5.01,2.4-6.54,2.4-.8,0-1.44-1.01-1.94-3.04-.8-2.89-4.09-5.34-9.86-7.37l.46-1.75c4.05,.25,7.46,.37,10.23,.37,1.29,0,1.94-.98,1.94-2.95v-23.59h-7.37c-4.42,0-7.99,.09-10.69,.28l-1.47-3.68c3.32,.49,7.37,.74,12.16,.74h7.37v-8.85h-22.85c-.12,7.43-.58,14.04-1.38,19.81-1.05,6.14-2.92,11.86-5.62,17.14-2.4,4.18-5.59,8.35-9.58,12.53l-1.57-.74c3.01-6.88,5.07-13.33,6.17-19.35,1.29-7.43,1.94-18.58,1.94-33.45,0-12.1-.34-20.79-1.01-26.08,5.47,1.54,9.74,3.13,12.81,4.79h19.9v-2.67c0-2.58-.25-5.28-.74-8.11Zm-.28,57.59l.65,1.11c-3.99,5.34-8.05,9.62-12.16,12.81-2.7,1.9-4.05,3.04-4.05,3.41v2.49c-.06,1.29-.28,1.93-.64,1.93-.8,0-2.24-1.66-4.33-4.98-1.23-1.72-2.61-4.02-4.15-6.91,6.63-1.78,14.87-5.07,24.7-9.86Zm2.21-35.02v-9.31h-22.85v20.36h22.85v-8.57h-8.94c-3.99,0-7.28,.12-9.86,.37l-1.57-3.6c3.93,.49,7.74,.74,11.43,.74h8.94Zm-20.37,26.45c4.85,.8,8.23,1.6,10.14,2.4,1.66,.8,2.49,1.75,2.49,2.86,0,1.6-.74,3.16-2.21,4.7-.86,.98-2.12,1.47-3.78,1.47-.92,0-1.72-.86-2.4-2.58-.98-2.52-2.64-4.94-4.98-7.28l.74-1.57Zm30.59-23.96v8.57h12.16v-8.57h-12.16Zm0,11.06v8.85h12.16v-8.85h-12.16Z"/>
        <path class="cls-4" d="M249.08,253.58c-6.14,1.29-12.13,2.43-17.97,3.41v15.94l24.97-2.49c.92-2.27,1.87-4.3,2.86-6.08,1.23-2.52,2.12-3.78,2.67-3.78,1.35,0,3.81,1.47,7.37,4.42,3.5,2.58,5.25,4.3,5.25,5.16,0,.92-.4,1.38-1.2,1.38l-41.93,3.96v16.4c0,2.76,.71,4.52,2.12,5.25,1.53,.43,5.87,.65,12.99,.65,5.04-.25,8.48-.52,10.32-.83,2.89-.12,4.73-1.69,5.53-4.7l3.23-11.43,2.3,.37c.31,7.8,.55,11.7,.74,11.7,.31,1.41,.92,2.52,1.84,3.32,1.66,1.04,2.49,2.06,2.49,3.04,0,2.21-.89,3.9-2.67,5.07-2.58,1.23-6.05,1.96-10.41,2.21-3.13,.55-7.59,.83-13.36,.83-8.11,0-13.91-.19-17.42-.55-3.01-.55-4.88-1.26-5.62-2.12-2.09-1.6-3.13-4.52-3.13-8.75v-19.26l-24.33,2.21c-1.54,.25-3.01,.65-4.42,1.2l-2.3-4.06c2.64,.25,4.64,.37,5.99,.37l25.06-2.49v-15.3c-8.48,1.17-16.59,1.93-24.33,2.3l-.74-2.3c12.72-2.21,22.21-4.52,28.47-6.91,6.57-2.03,13.3-5.13,20.18-9.31,3.26,2.46,5.84,4.39,7.74,5.81,2.95,2.09,4.42,3.62,4.42,4.61,0,.74-.49,1.11-1.47,1.11l-5.25-.37Zm-23.96-30.69c4.61,.49,9.09,1.17,13.45,2.03,2.64,.12,3.96,.8,3.96,2.03,0,.49-.77,1.11-2.3,1.84-1.72,.74-2.58,1.6-2.58,2.58v6.36h19.9c1.35-1.17,2.52-2.12,3.5-2.86,1.47-1.29,2.55-1.93,3.23-1.93,.98,0,3.19,1.47,6.63,4.42,3.19,2.58,4.79,4.39,4.79,5.44,0,.98-.86,1.6-2.58,1.84-1.84,0-2.95,.16-3.32,.46-3.38,1.66-7.59,3.38-12.62,5.16l-1.75-.74c1.41-3.01,2.64-6.08,3.69-9.21h-55.11c-.12,2.64-.31,4.64-.55,5.99-.61,2.64-1.6,4.51-2.95,5.62-.8,.61-1.69,.92-2.67,.92-2.21,0-4.09-.71-5.62-2.12-1.41-1.11-2.12-2.73-2.12-4.88,0-.86,1.07-1.9,3.23-3.13,2.33-1.17,4.18-2.55,5.53-4.15,1.23-1.35,2.24-3.5,3.04-6.45l2.3,.46c0,1.84-.03,3.56-.09,5.16h22.12v-5.62c0-2.95-.37-6.02-1.11-9.21Z"/>
        <path class="cls-4" d="M284.42,304.42v-2.04c5.72-5.45,10.68-10.25,14.89-14.39,4.2-4.14,7.77-7.81,10.71-11,2.94-3.19,5.32-5.98,7.15-8.38,1.83-2.39,3.25-4.54,4.26-6.45,1.01-1.91,1.7-3.65,2.07-5.23,.37-1.58,.55-3.16,.55-4.76,0-2.3-.36-4.52-1.08-6.68-.72-2.16-1.78-4.07-3.18-5.72-1.4-1.65-3.15-2.98-5.25-3.97-2.1-.99-4.55-1.49-7.36-1.49-2.14,0-4.25,.37-6.33,1.11-2.08,.74-3.97,1.74-5.66,3.01-1.69,1.27-3.12,2.74-4.29,4.44-1.17,1.69-1.91,3.49-2.22,5.4h-2.22c.23-3.15,1.06-6.13,2.48-8.93,1.42-2.8,3.26-5.24,5.52-7.33,2.26-2.08,4.84-3.73,7.74-4.93,2.9-1.2,5.93-1.81,9.08-1.81,4.01,0,7.52,.57,10.54,1.72,3.02,1.15,5.55,2.7,7.59,4.64,2.04,1.95,3.58,4.21,4.61,6.8,1.03,2.59,1.55,5.3,1.55,8.14,0,1.99-.29,3.98-.88,5.99-.58,2-1.49,4.11-2.71,6.3-1.23,2.2-2.82,4.55-4.79,7.03-1.97,2.49-4.33,5.22-7.09,8.17-2.76,2.96-5.95,6.22-9.57,9.78-3.62,3.56-7.71,7.48-12.26,11.76h41.33l-5.72,8.82h-49.45Z"/>
        <path class="cls-4" d="M376.19,273.13v6.83h-28.43v-6.83h28.43Z"/>
        <path class="cls-4" d="M399.84,264.14c2.96-.35,5.65-1.03,8.09-2.04,2.43-1.01,4.52-2.31,6.28-3.88,1.75-1.58,3.11-3.42,4.09-5.55,.97-2.12,1.46-4.45,1.46-6.98,0-1.71-.34-3.32-1.02-4.82-.68-1.5-1.63-2.8-2.86-3.91-1.23-1.11-2.69-1.99-4.38-2.63-1.69-.64-3.57-.96-5.63-.96-1.48,0-3.01,.25-4.58,.76s-3.09,1.2-4.55,2.07c-1.46,.87-2.8,1.91-4.03,3.09-1.23,1.19-2.23,2.44-3.01,3.76l-2.34-.87c.82-2.34,1.92-4.53,3.3-6.6,1.38-2.06,3.04-3.86,4.96-5.4,1.93-1.54,4.12-2.74,6.57-3.62,2.45-.87,5.18-1.31,8.17-1.31,2.84,0,5.5,.42,7.97,1.25,2.47,.84,4.63,1.99,6.48,3.44,1.85,1.46,3.31,3.18,4.38,5.17,1.07,1.99,1.61,4.14,1.61,6.48,0,1.21-.31,2.55-.93,4.03-.62,1.48-1.47,2.98-2.54,4.5-1.07,1.52-2.32,3.01-3.74,4.47-1.42,1.46-2.93,2.75-4.52,3.88,2.22,.66,4.29,1.69,6.22,3.07,1.93,1.38,3.61,3.01,5.05,4.88,1.44,1.87,2.58,3.88,3.42,6.04,.84,2.16,1.26,4.31,1.26,6.45,0,4.59-.9,8.6-2.69,12.03-1.79,3.43-4.26,6.27-7.41,8.52-3.15,2.26-6.87,3.95-11.15,5.08-4.28,1.13-8.91,1.69-13.89,1.69-2.1,0-3.99-.16-5.66-.47-1.67-.31-3.09-.75-4.26-1.31-1.17-.56-2.06-1.24-2.69-2.02-.62-.78-.93-1.64-.93-2.57,0-.82,.2-1.51,.61-2.07,.41-.56,.92-1.01,1.55-1.34,.62-.33,1.3-.56,2.04-.7,.74-.14,1.44-.2,2.1-.2,1.4,0,2.6,.14,3.59,.41,.99,.27,1.88,.61,2.66,1.02,.78,.41,1.5,.85,2.16,1.31,.66,.47,1.36,.9,2.1,1.31,.74,.41,1.57,.75,2.48,1.02,.91,.27,2.01,.41,3.3,.41,2.69,0,5.06-.44,7.12-1.31,2.06-.88,3.79-2.06,5.2-3.56,1.4-1.5,2.46-3.21,3.18-5.14,.72-1.93,1.08-3.94,1.08-6.04,0-2.69-.52-5.18-1.55-7.47-1.03-2.3-2.6-4.29-4.7-5.98-2.1-1.69-4.77-3.02-8-3.97-3.23-.95-7.03-1.43-11.38-1.43v-1.99Z"/>
        <path class="cls-4" d="M522.39,231.74c-10.2,1.97-19.6,3.2-28.2,3.69-6.76,.25-15.21,.37-25.34,.37v4.88h49.12c1.04-1.41,1.97-2.55,2.76-3.41,.8-.98,1.6-1.47,2.4-1.47,1.04,0,2.92,.98,5.62,2.95,3.13,2.09,4.7,3.56,4.7,4.42,0,.74-.59,1.47-1.75,2.21-1.11,.61-1.75,1.23-1.93,1.84v8.94c0,1.05-1.47,1.81-4.42,2.3-1.35,.12-2.33,.19-2.95,.19-1.72,0-2.58-.71-2.58-2.12v-1.57h-50.96c-.06,8.23-.49,15.54-1.29,21.93-1.11,6.33-3.07,12.26-5.9,17.79-2.34,4.36-5.56,8.72-9.68,13.08l-1.94-.83c3.19-7.13,5.34-13.85,6.45-20.18,1.41-7.74,2.12-19.29,2.12-34.65,0-11.18-.4-19.2-1.2-24.05,5.53,1.66,9.86,3.35,12.99,5.07,7.86-.86,14.87-1.9,21.01-3.13,8.35-1.41,17.2-3.99,26.54-7.74,2.82,1.78,5.41,3.47,7.74,5.07,2.46,1.78,3.69,3.26,3.69,4.42-.25,.55-1.11,.83-2.58,.83l-4.42-.83Zm-29.21,24.79c4.11,.37,8.11,.89,11.98,1.57,2.33,.06,3.5,.62,3.5,1.66,0,.49-.68,1.11-2.03,1.84-1.6,.74-2.4,1.63-2.4,2.67v3.69h12.9c.31-.12,1.35-1.38,3.13-3.78,2.21-2.95,3.5-4.42,3.87-4.42,1.29,0,3.23,1.41,5.81,4.24,2.58,2.77,3.87,4.46,3.87,5.07,0,.92-.61,1.38-1.84,1.38h-34.46c-.31,3.87-.8,7.22-1.47,10.05h19.72c1.35-1.23,2.27-2.09,2.76-2.58,1.54-1.23,2.58-1.84,3.13-1.84,.92,0,2.73,1.08,5.44,3.23,2.76,2.09,4.15,3.59,4.15,4.52,0,.8-.77,1.54-2.3,2.21-1.41,.61-2.12,1.23-2.12,1.84-1.84,8.23-3.32,13.33-4.42,15.3-.98,1.84-2.43,3.22-4.33,4.15-1.78,.8-3.29,1.2-4.51,1.2-.92,0-1.81-1.11-2.67-3.32-1.05-2.52-4.95-5.22-11.7-8.11l.37-1.93c5.59,.8,9.64,1.2,12.16,1.2,1.29,0,2.18-.52,2.67-1.57,.61-1.29,1.53-5.22,2.76-11.8h-21.75c-.43,1.29-.86,2.43-1.29,3.41-1.6,3.81-3.53,6.85-5.8,9.12-2.46,2.58-5.59,4.82-9.4,6.73-4.92,2.64-10.47,4.85-16.68,6.63l-1.11-1.93c3.69-1.54,7.19-3.44,10.5-5.71,3.26-2.09,6.14-4.85,8.66-8.29,1.9-2.7,3.32-5.77,4.24-9.21,1.17-4.11,1.84-8.54,2.03-13.27h-3.59c-5.34,0-9.15,.12-11.43,.37l-1.57-3.69c3.01,.55,7.34,.83,12.99,.83h11.06v-3.32c0-2.64-.28-5.34-.83-8.11Zm-24.33-4.05h50.96v-9.31h-50.96v9.31Z"/>
      </g>
    </g>
    <g>
      <g>
        <path class="cls-4" d="M154.53,87.81c.15,.76,.37,1.29,.87,2.15,.39-.92,.57-1.59,.83-3.23h-1.14c-.37,0-.9,.01-1.26,.03l.33-.46c.92-1.39,1.35-2.13,1.92-3.33h-1.7c-.41,0-.62,.01-.94,.07v-.75c.29,.05,.52,.07,.94,.07h1.25c.5,0,.79-.01,1.01-.06l.33,.44c-.08,.14-.18,.31-.34,.67-.35,.72-1.13,2.01-1.66,2.74h.95c.6,0,.86-.01,1.1-.05-.04,.18-.05,.23-.1,.56-.24,1.71-.54,2.79-1.09,3.94,1.15,1.55,2.65,2.12,5.46,2.12,1.39,0,3.04-.07,4.28-.19-.16,.33-.22,.47-.27,.79-1.05,.03-2.7,.05-3.72,.05-3.22,0-4.71-.53-6.06-2.17-.52,.9-1.02,1.54-1.93,2.47-.19-.23-.34-.38-.56-.52,1.02-.92,1.52-1.55,2.05-2.53-.3-.45-.5-.81-.67-1.17q-.48-1.14-.6-1.39l.72-.25Zm6.02-4.67h-1.77c-.41,0-.68,.01-.99,.05v-.68c.29,.06,.53,.07,1.01,.07h1.75c0-.49-.03-.76-.07-1.07h.79c-.04,.28-.07,.56-.07,1.07h2.19c.46,0,.73-.01,.99-.04q-.01,.07-.03,.23c0,.16-.01,.42-.01,.63v.95h.08c.45,0,.72-.03,1.05-.08v.69c-.3-.04-.58-.06-1.05-.06h-.08v1.13c0,.31,.01,.65,.04,.78-.39-.03-.62-.03-.99-.03h-2.19v1.29h2.19c.48,0,.84-.01,1.22-.07v.68c-.35-.04-.71-.05-1.24-.05h-2.17v1.3h2.84c.57,0,.91-.03,1.28-.08v.71c-.33-.04-.71-.06-1.28-.06h-2.84v.45c0,.6,.01,.92,.07,1.28h-.79c.05-.37,.07-.72,.07-1.26v-.46h-2.23c-.49,0-.84,.03-1.21,.08v-.73c.33,.06,.69,.08,1.22,.08h2.21v-1.3h-1.86c-.45,0-.79,.03-1.13,.08v-.71c.34,.06,.68,.07,1.13,.07h1.86v-1.29h-1.81c-.39,0-.67,.01-.96,.05v-.68c.27,.06,.54,.07,.99,.07h1.78v-1.32h-2.31c-.54,0-.92,.03-1.28,.08v-.73c.35,.07,.68,.1,1.28,.1h2.31v-1.21Zm3.14,1.21v-1.21h-2.49v1.21h2.49Zm-2.49,1.87h2.49v-1.32h-2.49v1.32Z"/>
        <path class="cls-4" d="M177.69,89.81c.76,0,1.14-.03,1.52-.08v.73c-.46-.05-.9-.08-1.52-.08h-3.89c1.63,1.28,3.29,2.02,5.62,2.53-.24,.27-.34,.41-.48,.69-2.4-.69-3.93-1.48-5.58-2.88,.03,.52,.05,.82,.05,1.07v.71c0,.71,.01,1.09,.08,1.41h-.83c.05-.37,.08-.73,.08-1.41v-.72c0-.3,.01-.65,.04-1.09-1.54,1.29-3.11,2.11-5.43,2.84-.14-.29-.26-.48-.48-.67,1.21-.29,2.12-.6,3.23-1.13,.84-.38,1.4-.73,2.24-1.36h-3.55c-.6,0-1.03,.03-1.48,.08v-.73c.37,.05,.73,.08,1.48,.08h3.94v-.27c0-.26-.01-.45-.05-.71h.77c-.04,.19-.05,.37-.05,.53v.15c-.01,.12-.01,.19-.01,.23,0,0,0,.03,.01,.07h4.27Zm-8.59-6.43c-.48,.68-.86,1.11-1.41,1.64-.18-.2-.31-.31-.56-.45,.57-.48,.99-.91,1.37-1.44,.42-.58,.72-1.16,.88-1.67l.72,.26c-.22,.41-.33,.6-.61,1.07h2.24c.64,0,1.01-.03,1.36-.08v.72c-.37-.04-.77-.06-1.32-.06h-.92c.27,.41,.45,.71,.76,1.28l-.6,.26c-.31-.68-.49-1.02-.82-1.54h-1.1Zm-.29,2.47c-.54,0-.8,.01-1.13,.07v-.71c.33,.05,.56,.07,1.13,.07h2.34c.57,0,.8-.01,1.13-.07v.71c-.34-.05-.6-.07-1.11-.07h-.83v1.78c.75-.22,1.09-.31,1.98-.61l.07,.56c-1.49,.5-2.39,.76-4.08,1.18-.37,.1-.48,.12-.77,.22l-.24-.71c.58-.04,.91-.11,2.38-.48v-1.94h-.86Zm8.42,2.12c0,.22,.05,.24,.57,.24,.56,0,.69-.04,.76-.19,.07-.19,.11-.83,.11-1.54,.24,.18,.38,.25,.63,.33-.04,.82-.12,1.39-.26,1.63-.18,.29-.45,.37-1.32,.37-.95,0-1.14-.12-1.14-.73v-2.41h-2.77c-.01,1.06-.11,1.55-.35,2.07-.29,.57-.72,.99-1.54,1.45-.16-.23-.26-.34-.5-.5,1.36-.64,1.77-1.26,1.77-2.83,0-.34-.01-.54-.05-.82,.29,.04,.6,.06,1.13,.06h1.86c.49,0,.87-.01,1.17-.06-.04,.41-.05,.76-.05,1.33v1.59Zm-3.07-4.59c-.34,.54-.57,.86-1.01,1.35-.18-.16-.29-.25-.56-.38,.87-.86,1.39-1.74,1.75-2.91l.67,.24c-.22,.5-.33,.73-.53,1.11h3.29c.64,0,1.03-.03,1.44-.08v.73c-.43-.04-.87-.07-1.43-.07h-1.66c.3,.42,.52,.73,.73,1.11l-.56,.34c-.26-.52-.46-.87-.84-1.45h-1.3Zm.42,2.79c.58,.65,.88,1.02,1.33,1.7l-.5,.42c-.42-.75-.75-1.18-1.29-1.78l.46-.34Z"/>
        <path class="cls-4" d="M183.04,87.75c0-.67,.01-1.1,.05-1.73-.52,.9-.87,1.33-1.87,2.31-.23-.33-.27-.35-.53-.56,.82-.72,1.32-1.28,1.81-2,1.06-1.55,1.78-3.08,1.94-4.14l.82,.29c-.1,.22-.34,.77-.54,1.28-.23,.54-.61,1.29-.95,1.88v7.19c0,.63,.03,1.11,.08,1.6h-.9c.07-.45,.1-.9,.1-1.64v-4.47Zm5.54-1.63c.34,2.17,.92,3.83,1.83,5.19,.61,.91,1.36,1.6,1.71,1.6,.18,0,.27-.11,.38-.43,.14-.39,.24-.97,.34-1.79,.27,.25,.46,.39,.68,.5-.33,1.87-.67,2.53-1.35,2.53-.9,0-2.28-1.52-3.19-3.49-.5-1.07-.9-2.49-1.13-4.02l-1.94,.2c-.57,.07-.99,.12-1.35,.2l-.05-.82h.15s.08,.01,.1,.01c.23,0,.73-.04,1.11-.08l1.9-.2c-.11-.9-.16-1.62-.19-2.51-.01-.54-.04-.87-.1-1.1h.88c-.04,.22-.05,.48-.05,.86,0,.82,.04,1.63,.18,2.68l3.29-.35c.77-.08,.99-.12,1.33-.22l.08,.83c-.08-.01-.14-.01-.18-.01-.23,0-.73,.04-1.17,.08l-3.27,.35Zm1.32-4.2c.9,.71,1.4,1.15,2.2,1.98l-.52,.5c-.6-.73-1.21-1.32-2.15-2.05l.46-.43Z"/>
        <path class="cls-4" d="M198.26,81.82c.39,.94,.84,1.55,1.74,2.38-.2,.23-.22,.26-.41,.57-.79-.83-1.25-1.47-1.7-2.42-.72,1.44-1.28,2.19-2.49,3.42-.11-.2-.19-.3-.43-.52,.75-.68,1.05-1.01,1.54-1.69,.48-.66,.67-1.02,.96-1.75h.79Zm-.87,6.03h-.99c-.52,0-.77,.01-1.11,.08v-.73c.33,.07,.58,.08,1.11,.08h.99v-1.62h-.48c-.31,0-.53,.01-.77,.05v-.67c.24,.04,.41,.06,.77,.06h1.67c.37,0,.58-.01,.79-.06v.67c-.23-.04-.46-.05-.8-.05h-.54v1.62h.71c.56,0,.83-.01,1.1-.08v.71c-.33-.04-.62-.06-1.1-.06h-.71v4.44c.73-.22,1.1-.33,2.07-.67v.64c-1.58,.54-2.42,.79-3.89,1.16-.38,.08-.5,.12-.79,.2l-.16-.75c.45-.03,1.11-.15,2.13-.41v-4.62Zm-1.26,3.95c-.16-1.16-.31-1.77-.68-2.89l.58-.16c.37,1.13,.48,1.58,.71,2.88l-.61,.18Zm2.51-.68c.3-.86,.41-1.33,.6-2.42l.58,.18c-.22,1.1-.34,1.51-.65,2.4l-.53-.16Zm3.53-8.37c-.56,1.37-.96,2.05-1.85,3.04-.22-.2-.33-.28-.57-.39,.53-.53,.73-.79,1.07-1.32,.33-.54,.49-.87,.76-1.59l.58,.26Zm.99,.05c0-.43-.03-.73-.08-1.13h.83c-.05,.37-.08,.68-.08,1.13v2.77h1.45c.49,0,.92-.03,1.22-.07-.04,.34-.05,.66-.05,1.15v6.25c0,.65-.24,.84-1.09,.84-.42,0-.96-.03-1.63-.1-.03-.24-.07-.41-.16-.72,.72,.12,1.25,.18,1.7,.18,.42,0,.52-.06,.52-.3v-2.02h-4.43v1.62c0,.64,.03,1.17,.08,1.51h-.8c.04-.34,.07-.9,.07-1.5v-5.75c0-.64,0-.79-.04-1.15,.27,.04,.67,.05,1.22,.05h1.28v-2.77Zm2.62,3.37h-4.43v1.69h4.43v-1.69Zm-4.43,4.01h4.43v-1.71h-4.43v1.71Zm4.05-7.83c.65,1.36,1.17,2.11,2.16,3.04-.19,.11-.37,.24-.56,.45-1.03-1.11-1.54-1.85-2.16-3.22l.56-.27Z"/>
        <path class="cls-4" d="M212.19,85.28h-1.18v-1.18h1.18v1.18Zm-1.18,6.02v-1.18h1.18v1.18h-1.18Z"/>
        <path class="cls-4" d="M218.7,83.28c-.77,.19-1.09,.27-2.09,.47-.07-.24-.16-.41-.35-.64,1.6-.22,2.91-.54,4.13-1.05,.38-.15,.62-.27,.82-.42l.52,.58c-.12,.04-.15,.05-.29,.12-.57,.25-1.39,.53-2.04,.73v2.16h1.09c.57,0,.87-.01,1.18-.07v.75c-.33-.06-.64-.07-1.17-.07h-1.07c.19,.46,.29,.67,.57,1.1,.5,.79,.9,1.26,1.63,1.92-.19,.16-.3,.3-.46,.56-.87-.92-1.35-1.64-1.83-2.81,.04,.86,.07,1.82,.07,2.46v3.04c0,.84,.03,1.26,.08,1.64h-.87c.07-.39,.08-.79,.08-1.64v-2.98c0-.61,.03-1.52,.07-2.41-.49,1.75-1.24,3.11-2.45,4.43-.15-.23-.3-.41-.49-.57,1.34-1.36,2.16-2.78,2.74-4.74h-1.06c-.53,0-.9,.03-1.3,.08v-.77c.38,.05,.73,.08,1.32,.08h1.18v-1.97Zm4.29,10.03h-.75c.05-.39,.07-.83,.07-1.58v-7.4c0-.62-.01-1-.07-1.43,.39,.05,.68,.07,1.26,.07h2.88c.58,0,.91-.01,1.26-.07-.05,.38-.07,.77-.07,1.43v7.32c0,.71,.03,1.28,.08,1.66h-.79v-.98h-3.89v.98Zm.01-1.63h3.87v-8.06h-3.87v8.06Z"/>
        <path class="cls-4" d="M234.22,92.55c0,.53,.03,1,.07,1.33h-.83c.05-.34,.08-.83,.08-1.39v-4.43c-.52,.61-.87,.98-1.64,1.67-.14-.27-.2-.39-.37-.58,.95-.75,1.68-1.54,2.4-2.58,.49-.71,.76-1.2,1.09-1.98h-2.15c-.38,0-.73,.03-1.02,.07v-.75c.3,.04,.64,.07,1.05,.07h.63v-1.3c0-.49-.01-.87-.05-1.13h.8c-.04,.24-.05,.6-.05,1.11v1.32h.31c.48,0,.73-.01,.95-.04l.37,.41c-.08,.15-.11,.22-.24,.49-.38,.83-.75,1.44-1.39,2.34v.16c.24,.3,.31,.38,.54,.6,.5-.56,.77-.95,1.14-1.63l.54,.39c-.48,.66-.84,1.13-1.3,1.59,.34,.28,.48,.38,.9,.66-.18,.2-.24,.3-.38,.53-.71-.57-1.1-.95-1.44-1.4v4.47Zm3.11-3c0-.27-.01-.53-.03-.81-.22,.18-.35,.28-.82,.65-.14-.26-.23-.38-.45-.53,1.67-1.17,2.7-2.46,3.57-4.47h.67c.83,1.77,2.09,3.15,3.93,4.29-.2,.2-.31,.38-.43,.64-.52-.37-.68-.49-1.07-.81-.01,.3-.03,.57-.03,1.02v2.99c0,.47,.01,.84,.07,1.22h-.75v-.83h-3.98v.8h-.75c.04-.34,.07-.73,.07-1.21v-2.95Zm1.93-7.39c-.82,1.52-1.43,2.31-2.54,3.29-.29-.29-.3-.3-.56-.48,1.17-.95,1.73-1.64,2.45-3.14l.65,.33Zm2.49,6.3c.54,0,.69,0,.88-.01-.67-.58-.96-.9-1.41-1.44-.57-.72-.9-1.21-1.26-1.96-.6,1.37-1.39,2.5-2.34,3.41h4.13Zm-3.75,3.83h3.99v-3.23h-3.99v3.23Zm3.26-10.52c.46,.79,.71,1.13,1.2,1.66,.49,.53,.8,.8,1.51,1.3-.22,.22-.3,.31-.46,.6-1.35-1.1-1.94-1.79-2.8-3.25l.56-.31Z"/>
        <path class="cls-4" d="M253.62,82.4c0-.34-.03-.64-.08-.9h.84c-.05,.28-.08,.56-.08,.91v.11h3.67c.6,0,1.07-.03,1.44-.08v.73c-.42-.06-.8-.07-1.44-.07h-8.75v1.94c-.03,2.38-.11,4.23-.27,5.43-.19,1.36-.43,2.13-1.05,3.3-.2-.23-.31-.33-.57-.47,.99-1.74,1.21-3.33,1.21-8.64,0-1.34-.01-1.75-.05-2.21,.42,.04,.84,.07,1.36,.07h3.78v-.12Zm-.6,10.3c-1.29,.61-2.07,.86-3.52,1.11-.1-.22-.2-.35-.43-.57,.75-.09,1.09-.16,1.79-.35,.73-.2,1.03-.33,1.6-.64l.56,.45Zm4.17-4.39c.57,0,.83-.01,1.17-.06-.04,.23-.05,.5-.05,.98v1.82c0,.44,.01,.72,.05,.92-.37-.04-.61-.06-1.21-.06h-5.22c-.57,0-.88,.01-1.22,.06,.04-.38,.04-.53,.04-.97v-1.79c0-.34-.01-.61-.04-.97,.34,.04,.64,.06,1.21,.06h2.21v-.88h-3.11c-.62,0-.95,.01-1.32,.07v-.69c.41,.05,.69,.07,1.32,.07h7.24c.6,0,.99-.03,1.35-.08v.72c-.39-.05-.75-.08-1.32-.08h-3.55v.88h2.45Zm-6.18-3.48c-.54,0-.86,.01-1.18,.07v-.68c.3,.06,.61,.07,1.2,.07h1.21v-.03c0-.37-.01-.53-.05-.75h.76c-.04,.2-.05,.39-.05,.75v.03h3.33v-.03c0-.34-.01-.53-.05-.75h.76c-.04,.2-.05,.38-.05,.77h1.34c.56,0,.87-.01,1.18-.07v.68c-.34-.05-.64-.07-1.17-.07h-1.36v.72c0,.26,.01,.43,.04,.69-.29-.03-.62-.04-1.05-.04h-2.68c-.38,0-.68,.01-.99,.04,.03-.26,.04-.46,.04-.72v-.69h-1.22Zm.38,4.01v1h2.74v-1h-2.74Zm0,1.52v1.03h2.74v-1.03h-2.74Zm1.49-4.67h3.33v-.86h-3.33v.86Zm1.86,4.16h2.92v-1h-2.92v1Zm0,1.55h2.92v-1.03h-2.92v1.03Zm1.67,.87c1.06,.57,1.89,.82,3.3,.98-.23,.27-.29,.34-.43,.61-1.33-.26-2.11-.53-3.4-1.18l.53-.41Z"/>
        <path class="cls-4" d="M266.07,84.26c-.56,.81-.91,1.21-1.68,1.89-.14-.16-.29-.28-.6-.46,1.13-.87,1.73-1.62,2.28-2.81,.19-.42,.34-.84,.39-1.1l.76,.3c-.14,.23-.15,.27-.33,.66-.18,.38-.27,.58-.45,.91h2.73v-.76c0-.64-.01-.9-.08-1.26h.88c-.07,.37-.1,.69-.1,1.29v.73h2.92c.62,0,.98-.03,1.36-.08v.78c-.37-.06-.76-.08-1.34-.08h-2.93v2.53h4.09c.58,0,.98-.03,1.35-.08v.8c-.38-.05-.79-.08-1.35-.08h-9.1c-.52,0-.9,.03-1.35,.08v-.8c.42,.06,.79,.08,1.35,.08h4.31v-2.53h-3.11Zm-.86,9.52c.05-.37,.08-.77,.08-1.33v-2.44c0-.5-.01-.79-.05-1.11,.42,.04,.77,.05,1.33,.05h5.68c.56,0,.91-.01,1.33-.05-.04,.33-.05,.61-.05,1.11v2.44c0,.58,.03,.97,.08,1.33h-.79v-.68h-6.82v.68h-.79Zm.79-1.3h6.82v-2.92h-6.82v2.92Z"/>
        <path class="cls-4" d="M285.53,81.75c.62,1.03,1.32,1.79,2.45,2.7,1.15,.94,2.23,1.59,3.53,2.17-.26,.29-.33,.38-.49,.69-1.26-.64-2.61-1.52-3.63-2.4-.94-.8-1.54-1.47-2.2-2.45-1.49,2.17-3.17,3.64-5.67,4.99-.15-.27-.24-.38-.52-.64,1.29-.61,2.54-1.45,3.63-2.46,.96-.87,1.58-1.62,2.15-2.61h.75Zm4.14,10.88c.68,0,1.06-.03,1.49-.1v.86c-.41-.07-.84-.09-1.49-.09h-8.99c-.67,0-1.1,.03-1.51,.09v-.86c.41,.07,.82,.1,1.49,.1h1.06v-3.53c0-.62-.03-1.05-.1-1.47h.91c-.07,.43-.1,.81-.1,1.47v3.53h2.66v-5.94c0-.63-.03-1.05-.1-1.47h.92c-.07,.44-.1,.8-.1,1.47v1.6h2.43c.65,0,1.03-.03,1.36-.08v.83c-.34-.05-.72-.08-1.36-.08h-2.43v3.67h3.83Z"/>
        <path class="cls-4" d="M298.41,82.9h-1.67c-.5,0-.83,.01-1.14,.07v-.68c.3,.07,.6,.08,1.17,.08h1.64c-.01-.49-.03-.65-.08-.94h.77c-.05,.28-.07,.45-.08,.94h1.45c.68,0,1.05-.01,1.37-.06-.04,.29-.04,.49-.04,1.1v.27c.58,0,.77-.01,1.07-.07v.68c-.31-.06-.48-.07-1.07-.07v.24c0,.61,0,.83,.04,1.13-.35-.04-.73-.05-1.36-.05h-1.47v.72h1.85c.6,0,.87-.01,1.21-.07v.67c-.35-.06-.67-.07-1.21-.07h-1.85v.77h2.17c.68,0,1.01-.01,1.29-.08v.71c-.35-.06-.72-.08-1.29-.08h-5.22c-.53,0-.9,.03-1.24,.08v-.71c.27,.05,.6,.08,1.21,.08h2.46v-.77h-1.67c-.54,0-.84,.01-1.21,.07v-.67c.35,.05,.64,.07,1.21,.07h1.67v-.72h-1.66c-.54,0-.86,.01-1.18,.07v-.65c.31,.06,.6,.07,1.17,.07h1.67v-.8h-2.34c-.5,0-.88,.03-1.22,.08v-.71c.29,.06,.61,.08,1.24,.08h2.32v-.79Zm4.29,10.09c-1.64,.2-4.71,.47-6.53,.6-.83,.06-.86,.07-1.25,.14l-.15-.76h.34c.41,0,2.23-.11,3.76-.22,1.79-.12,2.42-.18,3.86-.35l-.03,.6Zm-.83-2.05c0,.67,0,.83,.03,1.07-.38-.03-.57-.03-1.4-.03h-3.48c-.64,0-1.13,.01-1.47,.04,.03-.22,.04-.49,.04-1.09v-1.13c0-.58-.01-.86-.04-1.07,.34,.03,.83,.04,1.47,.04h3.48c.67,0,1.05-.01,1.41-.04-.03,.33-.04,.57-.04,1.09v1.11Zm-5.65-.86h2.2v-.8h-2.2v.8Zm0,1.4h2.2v-.88h-2.2v.88Zm2.79-1.4h2.26v-.8h-2.26v.8Zm0,1.4h2.26v-.88h-2.26v.88Zm2.2-7.8v-.79h-2.19v.79h2.19Zm-2.19,1.35h2.19v-.8h-2.19v.8Zm5.05-2.65c-.07,.34-.08,.72-.08,1.49v5.29c0,.91,.01,1.21,.07,1.55h-.82c.05-.38,.07-.66,.07-1.55v-5.29c0-.72-.03-1.1-.08-1.49h.84Zm2.5-.68c-.07,.37-.1,.88-.1,1.64v9.05c0,.9-.27,1.11-1.39,1.11-.46,0-.88-.03-1.52-.08-.05-.28-.1-.43-.2-.72,.72,.11,1.3,.16,1.79,.16s.63-.09,.63-.42v-9.13c0-.83-.03-1.22-.1-1.62h.88Z"/>
        <path class="cls-4" d="M313.48,86.83c-.84,.98-1.52,1.6-2.59,2.41-.16-.26-.31-.41-.53-.57,1.1-.69,1.87-1.37,2.77-2.42,.67-.75,1.07-1.36,1.52-2.26h-2.47c-.6,0-1.03,.03-1.48,.08v-.81c.43,.05,.86,.08,1.48,.08h2.79c.29-.68,.45-1.25,.52-1.82l.86,.15q-.08,.16-.27,.73c-.12,.35-.2,.57-.37,.94h5.53c.6,0,1.02-.03,1.45-.08v.81c-.41-.05-.9-.08-1.45-.08h-5.84c-.31,.64-.58,1.1-.98,1.67h4.99c.67,0,1.06-.01,1.45-.07-.04,.41-.05,.86-.05,1.59v5.39c0,.39-.11,.65-.33,.82-.19,.12-.41,.16-.95,.16-.43,0-1.02-.01-1.63-.05-.03-.31-.07-.45-.16-.72,.65,.08,1.18,.12,1.75,.12,.52,0,.63-.07,.63-.42v-1.81h-5.91v1.52c0,.69,.01,1.1,.07,1.52h-.86c.05-.49,.08-.94,.08-1.52v-5.37Zm6.62-.54h-5.91v1.56h5.91v-1.56Zm-5.91,2.17v1.6h5.91v-1.6h-5.91Z"/>
        <path class="cls-4" d="M327.03,82.99c0-.35-.01-.65-.04-.97,.18,.03,.5,.04,.9,.04h1.97c.43,0,.67-.01,.83-.05l.41,.45c-.07,.11-.12,.22-.2,.43-.5,1.2-.88,1.98-1.54,3.17,.72,.82,.99,1.22,1.22,1.82,.16,.45,.26,.94,.26,1.44,0,.65-.18,1.05-.53,1.24-.22,.11-.6,.16-1.1,.16-.22,0-.38-.01-.73-.03-.03-.3-.07-.46-.18-.71,.38,.07,.69,.09,1.05,.09,.6,0,.8-.18,.8-.73,0-.5-.11-1.02-.3-1.48-.24-.58-.53-.97-1.25-1.71,.76-1.4,1.11-2.16,1.63-3.48h-2.5v9.95c0,.46,.01,.81,.07,1.19h-.84c.05-.35,.08-.71,.08-1.19v-9.63Zm5.26,4.78v4.76c1.07-.29,1.51-.41,2.58-.77l.04,.65c-1.51,.47-2.38,.72-4.32,1.18-.33,.08-.43,.12-.61,.19l-.2-.73c.42-.04,.61-.08,1.83-.35v-9.08c0-.49-.01-.98-.05-1.41,.37,.04,.75,.05,1.35,.05h3.42c.68,0,1.05-.01,1.32-.07-.03,.37-.04,.64-.04,1.49v2.73c0,.83,.01,1.07,.04,1.4-.45-.03-.83-.04-1.36-.04h-1.87c.27,1.07,.43,1.48,.88,2.26,1.09-.71,2.16-1.56,2.49-2.01l.54,.54c-.08,.06-.1,.07-.19,.15-.57,.48-1.28,.98-2.51,1.82,.82,1.11,1.71,1.85,3.22,2.58-.23,.22-.33,.33-.52,.61-1.49-.88-2.39-1.66-3.19-2.79-.65-.92-.99-1.71-1.37-3.17h-1.47Zm0-3.08h4.66v-1.82h-4.66v1.82Zm0,2.49h4.66v-1.89h-4.66v1.89Z"/>
        <path class="cls-4" d="M347.06,82.37c-.14,.19-.19,.28-.38,.69-.54,1.11-1.43,2.36-2.31,3.29-.61,.65-1.17,1.14-1.98,1.75-.18-.26-.33-.41-.56-.58,1.6-1.07,2.74-2.24,3.61-3.71,.45-.75,.68-1.29,.75-1.74l.87,.3Zm5.61,11.3c-.37-.71-.52-.98-.82-1.48-2.36,.35-5.01,.63-7.5,.76-.95,.05-1.11,.07-1.55,.15l-.2-.88c.33,.01,.67,.03,.87,.03,.26,0,.42,0,.94-.01,.83-1.43,1.44-2.66,2.12-4.37,.46-1.14,.68-1.78,.79-2.32l.86,.26c-.11,.23-.12,.25-.27,.64-.75,1.93-1.85,4.32-2.68,5.76,2.8-.15,3.93-.24,6.28-.57-.58-.95-1.15-1.72-2.12-2.89l.6-.38c1.36,1.68,2.45,3.26,3.34,4.89l-.65,.44Zm-2.74-11.63c.22,.75,.8,1.77,1.54,2.72,.8,1.02,1.7,1.82,3.06,2.72-.26,.23-.38,.38-.54,.66-2.13-1.62-3.36-3.03-4.5-5.2-.18-.33-.23-.42-.31-.57l.76-.33Z"/>
        <path class="cls-4" d="M368.47,92.6c0,.84-.3,1.07-1.37,1.07-.58,0-1.29-.06-1.97-.14-.03-.34-.04-.48-.12-.79,.86,.18,1.49,.25,2.24,.25,.39,0,.52-.1,.52-.41v-9.7h-8.61c-.69,0-1.06,.03-1.48,.1v-.83c.41,.07,.77,.09,1.48,.09h8.08c.56,0,.91-.01,1.29-.05-.04,.37-.05,.65-.05,1.18v9.22Zm-10.05-8.11c.41,.05,.75,.08,1.26,.08h5.09c.52,0,.87-.03,1.28-.08v.8c-.42-.06-.77-.08-1.25-.08h-5.12c-.49,0-.84,.03-1.26,.08v-.8Zm6.53,5.47c0,.39,.01,.69,.04,1.02-.31-.03-.5-.04-1.13-.04h-3.9v1.33h-.76c.05-.37,.07-.72,.07-1.28v-3.04c0-.5-.01-.81-.05-1.13,.33,.03,.65,.04,1.14,.04h3.63c.56,0,.73-.01,1.01-.04-.03,.34-.04,.63-.04,1.02v2.12Zm-4.97,.37h4.28v-2.85h-4.28v2.85Z"/>
        <path class="cls-4" d="M153.2,107.87c.19,.01,.34,.03,.54,.03h.42c.53-.71,.6-.8,1.02-1.41-.8-1.07-1.26-1.6-1.92-2.27l.39-.49c.29,.31,.33,.35,.54,.61,.71-1.02,1.15-1.86,1.33-2.45l.67,.33q-.08,.12-.48,.8c-.45,.76-.71,1.17-1.14,1.75,.31,.38,.6,.75,.94,1.2,.77-1.2,1.24-2.05,1.4-2.55l.65,.35q-.04,.07-.14,.22s-.04,.08-.11,.18c-.01,.04-.05,.11-.88,1.44-.65,1.06-.76,1.21-1.6,2.27,1.1-.07,1.74-.12,2.32-.2-.19-.46-.3-.72-.64-1.35l.53-.2c.56,1.1,.79,1.67,1.1,2.65l-.6,.22c-.1-.39-.12-.5-.22-.82q-.64,.09-1.21,.16v4.52c0,.58,.03,1.01,.08,1.39h-.82c.05-.44,.08-.83,.08-1.39v-4.46q-.5,.05-1.7,.14c-.18,.01-.3,.04-.46,.08l-.12-.75Zm1.47,1.64c-.18,1.91-.33,2.68-.71,3.75l-.64-.27c.42-1.06,.6-1.94,.72-3.61l.62,.14Zm2.61-.25c.37,1.2,.52,1.83,.69,2.98l-.61,.22c-.14-1.2-.26-1.77-.63-3.02l.54-.18Zm2.09,.99c-.56,0-.83,.01-1.18,.07v-.75c.33,.06,.64,.07,1.17,.07h4.51c.54,0,.79-.01,1.14-.07v.75c-.35-.05-.61-.07-1.14-.07h-2.08v2.94h2.54c.54,0,.82-.01,1.14-.07v.75c-.35-.06-.62-.07-1.14-.07h-5.48c-.56,0-.82,.01-1.18,.07v-.75c.35,.06,.61,.07,1.17,.07h2.27v-2.94h-1.74Zm.68-6.28c-.1,.16-.12,.22-.37,.73-.31,.65-.64,1.21-.98,1.72,.6,.83,.94,1.4,1.47,2.45l-.58,.42c-.57-1.32-.96-2.01-1.66-2.88,.58-.72,.95-1.4,1.3-2.34,.07-.19,.1-.3,.14-.45l.68,.34Zm5.15-.68c-.35-.05-.62-.07-1.15-.07h-4.8c-.52,0-.83,.01-1.17,.07v-.75c.34,.05,.61,.07,1.17,.07h4.8c.54,0,.8-.01,1.15-.07v.75Zm-2.84,.68c-.08,.16-.1,.16-.35,.71-.41,.83-.56,1.1-.99,1.75,.6,.83,.91,1.36,1.48,2.47l-.61,.39c-.57-1.34-.96-2.05-1.59-2.88,.61-.82,1.14-1.88,1.39-2.79l.68,.34Zm2.4,.01c-.07,.11-.11,.18-.46,.84-.3,.57-.58,1.03-.95,1.58,.61,.75,1.06,1.4,1.63,2.39l-.57,.43c-.64-1.3-1.07-1.97-1.82-2.83,.49-.6,.9-1.3,1.26-2.15,.12-.27,.19-.44,.24-.63l.67,.35Z"/>
        <path class="cls-4" d="M167.24,107.87c.3,.03,.43,.03,.65,.03,.11,0,.15,0,.49-.01,.42-.49,.54-.64,1.06-1.33-.72-.84-1.1-1.22-2.09-2.06l.39-.53c.34,.3,.45,.41,.68,.62,.83-1.28,1.3-2.13,1.45-2.68l.72,.34c-.14,.18-.19,.29-.6,.99-.29,.5-.71,1.14-1.15,1.75,.41,.41,.61,.65,.96,1.06,.84-1.14,1.36-1.97,1.56-2.49l.68,.41c-.12,.15-.2,.26-.37,.52-.95,1.4-1.73,2.42-2.55,3.38,.95-.01,1.71-.08,2.5-.19-.19-.43-.29-.61-.58-1.11l.53-.22c.5,.88,.84,1.62,1.21,2.61l-.57,.24c-.16-.49-.22-.65-.35-.99-.23,.03-.49,.05-.76,.08q-.49,.06-.77,.08v4.43c0,.57,.03,1,.08,1.39h-.83c.05-.39,.08-.84,.08-1.39v-4.36c-.48,.04-.95,.07-1.52,.11-.39,.01-.5,.03-.77,.07l-.12-.75Zm1.56,1.58c-.29,2.08-.46,2.84-.91,3.97l-.65-.3c.49-1.01,.69-1.86,.92-3.8l.64,.14Zm2.79-.15c.45,1.13,.71,1.93,1.01,3.33l-.62,.23c-.31-1.67-.46-2.19-.95-3.37l.57-.19Zm2.47,3.41c0,.24,.07,.35,.27,.41,.26,.07,.88,.09,2.02,.09,.76,0,1.29-.05,1.56-.15,.31-.11,.43-.33,.54-.94,.08-.41,.12-.83,.16-1.43,.26,.19,.45,.28,.73,.39-.18,1.55-.38,2.2-.8,2.49-.34,.24-1.01,.31-2.85,.31-1.11,0-1.7-.07-2.02-.24-.23-.12-.33-.37-.33-.83v-4.67c0-.64-.01-.94-.07-1.29,.42,.04,.76,.06,1.3,.06h3.23v-3.51h-3.79c-.5,0-.9,.03-1.22,.07v-.79c.37,.05,.76,.08,1.22,.08h3.26c.54,0,.91-.01,1.28-.06-.04,.33-.04,.56-.04,1.32v2.31c0,.54,.01,.87,.05,1.25-.38-.04-.76-.06-1.32-.06h-3.21v5.18Z"/>
        <path class="cls-4" d="M181.22,104.41c.31,.05,.57,.07,1.09,.07h2.35c.56,0,.79-.01,1.09-.07v.75c-.3-.04-.5-.06-.98-.06h-2.46c-.48,0-.75,.01-1.09,.06v-.75Zm1.17,9.8h-.73c.04-.38,.07-.87,.07-1.3v-1.78c0-.45-.01-.75-.05-1.13,.23,.04,.41,.06,.86,.06h1.87c.46,0,.67-.01,.83-.04-.03,.23-.04,.43-.04,1.09v1.58c0,.45,.03,.92,.07,1.3h-.71v-.56h-2.16v.79Zm-.69-7.89c.29,.04,.48,.06,.94,.06h1.64c.46,0,.65-.01,.92-.06v.71c-.31-.04-.5-.06-.92-.06h-1.64c-.43,0-.65,.01-.94,.06v-.71Zm0,1.86c.26,.04,.48,.06,.94,.06h1.64c.46,0,.68-.01,.92-.06v.71c-.29-.04-.52-.05-.92-.05h-1.64c-.43,0-.65,.01-.94,.05v-.71Zm.01-5.62c.3,.05,.5,.07,.95,.07h1.66c.43,0,.65-.01,.95-.07v.73c-.33-.04-.57-.06-.95-.06h-1.66c-.38,0-.65,.01-.95,.06v-.73Zm.67,10.27h2.19v-2.17h-2.19v2.17Zm9.78-9.96c-.52,.62-.87,.98-1.47,1.51,.23,.31,.42,.54,.73,.87,.67-.61,1.01-.98,1.28-1.41l.57,.42c-.6,.63-.91,.92-1.44,1.37,.65,.58,1.09,.9,1.87,1.33-.2,.22-.29,.33-.42,.6-.88-.56-1.45-1.02-2.11-1.7-.86-.88-1.36-1.63-1.9-2.79-.42,1.06-.91,1.83-1.74,2.74-.54,.61-1.1,1.1-1.77,1.62-.12-.22-.23-.34-.43-.54,.73-.46,1.3-.96,1.93-1.67-.35-.49-.73-.88-1.29-1.39l.49-.35c.52,.52,.84,.87,1.17,1.29,.5-.62,.75-1.05,1.07-1.79h-1.4c-.35,0-.64,.01-.88,.05v-.66c.29,.04,.52,.05,.94,.05h1.13c.75,0,.94,0,1.18-.04,.04,.39,.23,.77,.72,1.55,.52-.5,.88-.94,1.18-1.47l.58,.41Zm-2.26,10.31c.34-.64,.58-1.29,.86-2.22l.67,.26c-.33,.86-.57,1.39-.88,1.96h1.51c.54,0,.98-.03,1.28-.08v.76c-.39-.06-.87-.08-1.3-.08h-5.05c-.52,0-.98,.03-1.29,.08v-.76c.3,.06,.73,.08,1.28,.08h2.95Zm-3.29-4.51c0-.39-.01-.68-.05-.96,.31,.05,.68,.07,1.41,.07h2.77c.72,0,1.09-.01,1.4-.07-.04,.3-.05,.54-.05,.99v.98c0,.47,.01,.73,.05,1-.29-.03-.57-.04-1.4-.04h-2.81c-.8,0-1.03,0-1.37,.04,.04-.27,.05-.53,.05-.95v-1.06Zm1.11,2.27c.37,.68,.54,1.14,.76,1.82l-.62,.25c-.18-.68-.34-1.1-.73-1.82l.6-.25Zm-.48-.88h4.18v-1.7h-4.18v1.7Zm.31-4.06c.22,.04,.49,.06,.96,.06h1.64c.48,0,.73-.01,.95-.06v.68c-.24-.04-.5-.05-.95-.05h-1.66c-.42,0-.65,.01-.95,.05v-.68Z"/>
        <path class="cls-4" d="M196.29,107.73c-.53,0-.91,.03-1.29,.08v-.75c.37,.05,.73,.08,1.29,.08h2.2c.65,0,1.02-.01,1.3-.07v.72c-.34-.05-.65-.07-1.3-.07h-1.32q-.19,.8-.38,1.44h.87c.82,0,1.2-.01,1.52-.06-.05,.31-.07,.37-.12,.95-.15,1.52-.43,2.83-.75,3.38-.22,.39-.46,.5-1.13,.5-.24,0-.56-.01-.95-.04-.01-.3-.04-.45-.14-.73,.46,.08,.73,.11,1.1,.11,.46,0,.62-.16,.82-.88,.19-.67,.33-1.47,.43-2.66h-1.83c-.11,.31-.16,.46-.37,.92l-.71-.07c.45-.83,.69-1.55,.98-2.87h-.23Zm1.83-5.24c.67,0,.99-.01,1.34-.06-.04,.33-.05,.53-.05,.9v1.81c0,.34,.01,.54,.05,.87-.41-.04-.69-.06-1.28-.06h-1.41c-.54,0-.9,.01-1.28,.06,.04-.34,.05-.56,.05-.87v-1.81c0-.34-.01-.56-.05-.9,.39,.04,.73,.06,1.35,.06h1.28Zm-1.94,.57v2.34h2.61v-2.34h-2.61Zm6.75,.05c0-.49-.03-.79-.08-1.11h.8c-.05,.31-.08,.54-.08,1.05h1.67c.56,0,.98-.03,1.33-.08v.71c-.34-.05-.67-.07-1.3-.07h-1.7v.98h2.11c.54,0,.82-.01,1.03-.07l.41,.42q-.12,.18-.2,.37c-.2,.44-.48,.95-.71,1.29-.19-.18-.27-.22-.52-.34,.3-.37,.46-.66,.64-1.09h-5.24v1c0,4.39-.38,6.25-1.6,7.83-.19-.19-.3-.26-.61-.39,.52-.6,.83-1.18,1.07-2.05,.34-1.13,.5-2.87,.5-5.18,0-.9-.01-1.32-.07-1.86,.38,.06,.69,.07,1.33,.07h1.22v-1.47Zm.19,6.15c-.04,.15-.05,.33-.08,.68-.15,2.16-.64,3.13-2.08,4.08-.16-.25-.26-.37-.52-.56,.73-.38,1.11-.72,1.41-1.29,.35-.64,.52-1.44,.52-2.5,0-.2,0-.27-.03-.44l.77,.03Zm.35-1.48c0,.35,.15,.41,1.15,.41,.86,0,1.18-.04,1.29-.18,.08-.11,.14-.46,.16-.91,.22,.14,.35,.19,.61,.27-.22,1.32-.29,1.36-2.13,1.36-1.45,0-1.7-.12-1.7-.87v-.83h-.26c-.57,.04-.83,.07-1.15,.14l-.03-.68c.2,.03,.37,.04,.54,.04,.11,0,.43-.01,.64-.03h.26c0-.61-.01-.8-.07-1.13h.75c-.05,.34-.07,.5-.07,1.07l1.05-.06c.41-.03,.69-.07,.95-.15l.04,.67q-.15-.01-.41-.01c-.1,0-.3,.01-.58,.03l-1.05,.07v.79Zm1.56,1.55c-.05,.34-.08,.65-.08,1.05v2.44c0,.33,.07,.35,.77,.35,.45,0,.62-.08,.71-.3,.08-.22,.14-.71,.14-1.21v-.23c.24,.14,.39,.19,.65,.23-.16,1.97-.27,2.11-1.64,2.11-1.06,0-1.25-.14-1.25-.9v-2.5c0-.38-.03-.71-.08-1.05h.79Z"/>
        <path class="cls-4" d="M212.19,105.65h-1.18v-1.18h1.18v1.18Zm-1.18,6.02v-1.18h1.18v1.18h-1.18Z"/>
        <path class="cls-4" d="M217.55,102.81c.34,.06,.57,.07,1.06,.07h.75c.38,0,.64-.01,1.06-.07-.08,.84-.12,1.55-.12,2.27v6.54c0,.63,.03,.98,.11,1.47h-1.09c.08-.46,.11-.87,.11-1.47v-7.98h-.76c-.39,0-.73,.03-1.11,.08v-.91Z"/>
        <path class="cls-4" d="M226.35,112.35c-.35-.37-.62-.79-.79-1.21-.34-.95-.52-2.02-.52-3.14,0-1.44,.31-2.92,.77-3.68,.64-1.06,1.64-1.62,2.93-1.62,.96,0,1.79,.31,2.39,.92,.37,.38,.64,.79,.79,1.21,.34,.94,.52,2.02,.52,3.15,0,1.64-.34,3.1-.94,3.91-.67,.92-1.58,1.37-2.77,1.37-.98,0-1.78-.31-2.39-.92Zm.65-8.18c-.3,.3-.52,.64-.62,.98-.3,.84-.45,1.81-.45,2.84,0,1.29,.27,2.65,.65,3.29,.49,.82,1.22,1.22,2.16,1.22,.71,0,1.3-.23,1.74-.67,.3-.3,.52-.65,.64-1.02,.3-.87,.45-1.79,.45-2.84,0-1.24-.27-2.62-.64-3.26-.48-.82-1.22-1.24-2.19-1.24-.72,0-1.3,.23-1.74,.69Z"/>
        <path class="cls-4" d="M235.41,112.35c-.35-.37-.62-.79-.79-1.21-.34-.95-.52-2.02-.52-3.14,0-1.44,.31-2.92,.77-3.68,.64-1.06,1.64-1.62,2.93-1.62,.96,0,1.79,.31,2.39,.92,.37,.38,.64,.79,.79,1.21,.34,.94,.52,2.02,.52,3.15,0,1.64-.34,3.1-.94,3.91-.67,.92-1.58,1.37-2.77,1.37-.98,0-1.78-.31-2.39-.92Zm.65-8.18c-.3,.3-.52,.64-.62,.98-.3,.84-.45,1.81-.45,2.84,0,1.29,.27,2.65,.65,3.29,.49,.82,1.22,1.22,2.16,1.22,.71,0,1.3-.23,1.74-.67,.3-.3,.52-.65,.64-1.02,.3-.87,.45-1.79,.45-2.84,0-1.24-.27-2.62-.64-3.26-.48-.82-1.22-1.24-2.19-1.24-.72,0-1.3,.23-1.74,.69Z"/>
        <path class="cls-4" d="M248.52,103.31c0-.64-.03-.98-.1-1.39h.91c-.07,.42-.1,.8-.1,1.39v1.26h4.06c.41,0,.65-.01,.95-.05-.05,.34-.07,.62-.07,1.05v3.6c0,.42,.03,.79,.08,1.17h-.8v-.95h-4.23v3.27c0,.76,.01,1.07,.1,1.51h-.91c.07-.45,.1-.78,.1-1.51v-3.27h-4.02v.95h-.8c.05-.39,.08-.79,.08-1.17v-3.6c0-.39-.01-.69-.07-1.05,.31,.04,.53,.05,.95,.05h3.86v-1.26Zm-4.02,1.91v3.51h4.02v-3.51h-4.02Zm8.97,3.51v-3.51h-4.23v3.51h4.23Z"/>
        <path class="cls-4" d="M262,103.17c0-.45-.03-.87-.1-1.2h.91c-.07,.35-.1,.73-.1,1.18v.88h4.36c.67,0,1.1-.03,1.51-.1v.83c-.33-.05-.72-.08-1.49-.08h-9.08c-.69,0-1.13,.03-1.48,.08v-.83c.42,.07,.84,.1,1.48,.1h3.98v-.87Zm0,2.99c0-.45-.01-.76-.07-1.1h.86c-.04,.27-.07,.61-.07,1.1v.52h3.22c.54,0,.87-.01,1.26-.05-.04,.34-.05,.65-.05,1.09v3.89c0,.8-.24,1-1.18,1-.53,0-.9-.01-1.49-.07-.05-.31-.1-.46-.2-.76,.65,.1,1.17,.15,1.59,.15,.46,0,.57-.07,.57-.38v-4.23h-3.71v5.49c0,.53,.03,.96,.1,1.43h-.91c.07-.47,.1-.92,.1-1.43v-5.49h-3.38v4.13c0,.62,.03,1.03,.08,1.43h-.9c.05-.41,.08-.81,.08-1.43v-3.72c0-.43-.01-.76-.05-1.1,.39,.04,.73,.05,1.29,.05h2.88v-.52Z"/>
        <path class="cls-4" d="M270.32,107.87c.19,.01,.34,.03,.54,.03h.42c.53-.71,.6-.8,1.02-1.41-.8-1.07-1.26-1.6-1.92-2.27l.39-.49c.29,.31,.33,.35,.54,.61,.71-1.02,1.15-1.86,1.33-2.45l.67,.33q-.08,.12-.48,.8c-.45,.76-.71,1.17-1.14,1.75,.31,.38,.6,.75,.94,1.2,.77-1.2,1.24-2.05,1.4-2.55l.65,.35q-.04,.07-.14,.22s-.04,.08-.11,.18c-.01,.04-.05,.11-.88,1.44-.65,1.06-.76,1.21-1.6,2.27,1.1-.07,1.74-.12,2.32-.2-.19-.46-.3-.72-.64-1.35l.53-.2c.56,1.1,.79,1.67,1.1,2.65l-.6,.22c-.1-.39-.12-.5-.22-.82q-.64,.09-1.21,.16v4.52c0,.58,.03,1.01,.08,1.39h-.82c.05-.44,.08-.83,.08-1.39v-4.46q-.5,.05-1.7,.14c-.18,.01-.3,.04-.46,.08l-.12-.75Zm1.47,1.64c-.18,1.91-.33,2.68-.71,3.75l-.64-.27c.42-1.06,.6-1.94,.72-3.61l.62,.14Zm2.61-.25c.37,1.2,.52,1.83,.69,2.98l-.61,.22c-.14-1.2-.26-1.77-.63-3.02l.54-.18Zm2.09,.99c-.56,0-.83,.01-1.18,.07v-.75c.33,.06,.64,.07,1.17,.07h4.51c.54,0,.79-.01,1.14-.07v.75c-.35-.05-.61-.07-1.14-.07h-2.08v2.94h2.54c.54,0,.82-.01,1.14-.07v.75c-.35-.06-.62-.07-1.14-.07h-5.48c-.56,0-.82,.01-1.18,.07v-.75c.35,.06,.61,.07,1.17,.07h2.27v-2.94h-1.74Zm.68-6.28c-.1,.16-.12,.22-.37,.73-.31,.65-.64,1.21-.98,1.72,.6,.83,.94,1.4,1.47,2.45l-.58,.42c-.57-1.32-.96-2.01-1.66-2.88,.58-.72,.95-1.4,1.3-2.34,.07-.19,.1-.3,.14-.45l.68,.34Zm5.15-.68c-.35-.05-.63-.07-1.15-.07h-4.8c-.52,0-.83,.01-1.17,.07v-.75c.34,.05,.61,.07,1.17,.07h4.8c.54,0,.8-.01,1.15-.07v.75Zm-2.84,.68c-.08,.16-.1,.16-.35,.71-.41,.83-.56,1.1-.99,1.75,.6,.83,.91,1.36,1.48,2.47l-.61,.39c-.57-1.34-.96-2.05-1.59-2.88,.61-.82,1.14-1.88,1.39-2.79l.68,.34Zm2.4,.01c-.07,.11-.11,.18-.46,.84-.3,.57-.58,1.03-.95,1.58,.61,.75,1.06,1.4,1.63,2.39l-.57,.43c-.64-1.3-1.07-1.97-1.82-2.83,.49-.6,.9-1.3,1.26-2.15,.12-.27,.19-.44,.24-.63l.67,.35Z"/>
        <path class="cls-4" d="M284.36,107.87c.3,.03,.43,.03,.65,.03,.11,0,.15,0,.49-.01,.42-.49,.54-.64,1.06-1.33-.72-.84-1.1-1.22-2.09-2.06l.39-.53c.34,.3,.45,.41,.68,.62,.83-1.28,1.3-2.13,1.45-2.68l.72,.34c-.14,.18-.19,.29-.6,.99-.29,.5-.71,1.14-1.15,1.75,.41,.41,.61,.65,.96,1.06,.84-1.14,1.36-1.97,1.56-2.49l.68,.41c-.12,.15-.2,.26-.37,.52-.95,1.4-1.73,2.42-2.55,3.38,.95-.01,1.71-.08,2.5-.19-.19-.43-.29-.61-.58-1.11l.53-.22c.5,.88,.84,1.62,1.21,2.61l-.57,.24c-.16-.49-.22-.65-.35-.99-.23,.03-.49,.05-.76,.08q-.49,.06-.77,.08v4.43c0,.57,.03,1,.08,1.39h-.83c.05-.39,.08-.84,.08-1.39v-4.36c-.48,.04-.95,.07-1.52,.11-.39,.01-.5,.03-.77,.07l-.12-.75Zm1.56,1.58c-.29,2.08-.46,2.84-.91,3.97l-.65-.3c.49-1.01,.69-1.86,.92-3.8l.64,.14Zm2.79-.15c.45,1.13,.71,1.93,1.01,3.33l-.63,.23c-.31-1.67-.46-2.19-.95-3.37l.57-.19Zm2.47,3.41c0,.24,.07,.35,.27,.41,.26,.07,.88,.09,2.02,.09,.76,0,1.29-.05,1.56-.15,.31-.11,.43-.33,.54-.94,.08-.41,.12-.83,.16-1.43,.26,.19,.45,.28,.73,.39-.18,1.55-.38,2.2-.8,2.49-.34,.24-1.01,.31-2.85,.31-1.11,0-1.7-.07-2.02-.24-.23-.12-.33-.37-.33-.83v-4.67c0-.64-.01-.94-.07-1.29,.42,.04,.76,.06,1.3,.06h3.23v-3.51h-3.79c-.5,0-.9,.03-1.22,.07v-.79c.37,.05,.76,.08,1.22,.08h3.26c.54,0,.91-.01,1.28-.06-.04,.33-.04,.56-.04,1.32v2.31c0,.54,.01,.87,.05,1.25-.38-.04-.76-.06-1.32-.06h-3.21v5.18Z"/>
        <path class="cls-4" d="M303.88,109.07c0-.52-.01-.82-.07-1.14h.65c1.06-.5,1.6-.86,2.53-1.67h-5.45c-.5,0-.9,.03-1.3,.09v-.8c.35,.05,.71,.08,1.3,.08h5.35c.5,0,.76-.01,.99-.05l.39,.47c-.18,.14-.19,.14-.5,.41-1.06,.9-1.89,1.44-3.17,2.08v.53h4.16c.58,0,1.01-.03,1.37-.08v.8c-.38-.05-.8-.08-1.37-.08h-4.16v3.26c0,.75-.34,1.02-1.28,1.02-.54,0-1.13-.04-1.74-.11-.04-.28-.08-.46-.2-.76,.53,.11,1.37,.2,1.93,.2,.42,0,.56-.1,.56-.39v-3.22h-3.99c-.56,0-.98,.03-1.37,.08v-.8c.37,.05,.8,.08,1.37,.08h3.99Zm-.08-6.01c0-.46-.03-.81-.08-1.15h.9c-.05,.37-.08,.69-.08,1.14v.43h3.99c.52,0,.95-.01,1.44-.07-.05,.31-.07,.61-.07,1.03v.69c0,.33,.03,.63,.07,.94h-.76v-1.96h-9.74v1.96h-.76c.04-.3,.07-.64,.07-.94v-.69c0-.39-.01-.71-.07-1.03,.48,.04,.91,.07,1.43,.07h3.67v-.42Z"/>
        <path class="cls-4" d="M313.37,112.35c-.35-.37-.62-.79-.79-1.21-.34-.95-.52-2.02-.52-3.14,0-1.44,.31-2.92,.77-3.68,.64-1.06,1.64-1.62,2.93-1.62,.96,0,1.79,.31,2.39,.92,.37,.38,.64,.79,.79,1.21,.34,.94,.52,2.02,.52,3.15,0,1.64-.34,3.1-.94,3.91-.67,.92-1.58,1.37-2.77,1.37-.98,0-1.78-.31-2.39-.92Zm.65-8.18c-.3,.3-.52,.64-.62,.98-.3,.84-.45,1.81-.45,2.84,0,1.29,.27,2.65,.65,3.29,.49,.82,1.22,1.22,2.16,1.22,.71,0,1.3-.23,1.74-.67,.3-.3,.52-.65,.64-1.02,.3-.87,.45-1.79,.45-2.84,0-1.24-.27-2.62-.64-3.26-.48-.82-1.22-1.24-2.19-1.24-.72,0-1.3,.23-1.74,.69Z"/>
        <path class="cls-4" d="M322.43,112.35c-.35-.37-.62-.79-.79-1.21-.34-.95-.52-2.02-.52-3.14,0-1.44,.31-2.92,.77-3.68,.64-1.06,1.64-1.62,2.93-1.62,.96,0,1.79,.31,2.39,.92,.37,.38,.64,.79,.79,1.21,.34,.94,.52,2.02,.52,3.15,0,1.64-.34,3.1-.94,3.91-.67,.92-1.58,1.37-2.77,1.37-.98,0-1.78-.31-2.39-.92Zm.65-8.18c-.3,.3-.52,.64-.62,.98-.3,.84-.45,1.81-.45,2.84,0,1.29,.27,2.65,.65,3.29,.49,.82,1.22,1.22,2.16,1.22,.71,0,1.3-.23,1.74-.67,.3-.3,.52-.65,.64-1.02,.3-.87,.45-1.79,.45-2.84,0-1.24-.27-2.62-.64-3.26-.48-.82-1.22-1.24-2.19-1.24-.72,0-1.3,.23-1.74,.69Z"/>
        <path class="cls-4" d="M337.37,103.65c-.22,.15-.43,.42-.9,1.14-1.32,2.05-1.85,3.07-2.39,4.67-.39,1.18-.56,1.92-.79,3.61h-1.07c.41-2.46,.77-3.67,1.64-5.45,.65-1.36,1.24-2.3,2.47-3.97h-4.48c-.6,0-.98,.03-1.47,.1v-.98c.5,.07,.86,.09,1.48,.09h4.01c.72,0,1.05-.01,1.49-.07v.84Z"/>
        <path class="cls-4" d="M340.13,110.69c.24,.72,.45,1.02,.9,1.33,.45,.33,1.06,.49,1.77,.49,1.64,0,2.68-.84,2.68-2.2s-1.01-2.16-2.87-2.16c-.41,0-.67,.01-1.02,.05v-.9c.31,.04,.63,.07,.96,.07,1.66,0,2.57-.75,2.57-2.13,0-1.1-.88-1.82-2.26-1.82-.86,0-1.47,.24-1.85,.73-.22,.24-.31,.48-.46,1.01l-.91-.23c.22-.65,.35-.94,.65-1.28,.58-.65,1.47-.98,2.62-.98,1.03,0,1.87,.3,2.42,.84,.43,.45,.68,1.03,.68,1.67,0,.72-.2,1.32-.6,1.75-.39,.43-.83,.65-1.62,.77,.79,.08,1.21,.23,1.66,.58,.6,.45,.92,1.17,.92,2.05,0,1.81-1.36,2.93-3.56,2.93-1.32,0-2.3-.35-2.93-1.07-.29-.31-.43-.6-.68-1.26l.92-.26Z"/>
        <path class="cls-4" d="M355.48,103.65c-.22,.15-.43,.42-.9,1.14-1.32,2.05-1.85,3.07-2.39,4.67-.39,1.18-.56,1.92-.79,3.61h-1.07c.41-2.46,.77-3.67,1.64-5.45,.65-1.36,1.24-2.3,2.47-3.97h-4.48c-.6,0-.98,.03-1.47,.1v-.98c.5,.07,.86,.09,1.48,.09h4.01c.72,0,1.05-.01,1.49-.07v.84Z"/>
        <path class="cls-4" d="M358.7,107.73c-.53,0-.91,.03-1.29,.08v-.75c.37,.05,.73,.08,1.29,.08h2.2c.65,0,1.02-.01,1.3-.07v.72c-.34-.05-.65-.07-1.3-.07h-1.32q-.19,.8-.38,1.44h.87c.82,0,1.2-.01,1.52-.06-.05,.31-.07,.37-.12,.95-.15,1.52-.43,2.83-.75,3.38-.22,.39-.46,.5-1.13,.5-.24,0-.56-.01-.95-.04-.01-.3-.04-.45-.14-.73,.46,.08,.73,.11,1.1,.11,.46,0,.63-.16,.82-.88,.19-.67,.33-1.47,.43-2.66h-1.83c-.11,.31-.16,.46-.37,.92l-.71-.07c.45-.83,.69-1.55,.98-2.87h-.23Zm1.83-5.24c.67,0,.99-.01,1.34-.06-.04,.33-.05,.53-.05,.9v1.81c0,.34,.01,.54,.05,.87-.41-.04-.69-.06-1.28-.06h-1.41c-.54,0-.9,.01-1.28,.06,.04-.34,.05-.56,.05-.87v-1.81c0-.34-.01-.56-.05-.9,.39,.04,.73,.06,1.34,.06h1.28Zm-1.94,.57v2.34h2.61v-2.34h-2.61Zm6.75,.05c0-.49-.03-.79-.08-1.11h.8c-.05,.31-.08,.54-.08,1.05h1.67c.56,0,.98-.03,1.33-.08v.71c-.34-.05-.67-.07-1.3-.07h-1.7v.98h2.11c.54,0,.82-.01,1.03-.07l.41,.42q-.12,.18-.2,.37c-.2,.44-.48,.95-.71,1.29-.19-.18-.27-.22-.52-.34,.3-.37,.46-.66,.64-1.09h-5.24v1c0,4.39-.38,6.25-1.6,7.83-.19-.19-.3-.26-.61-.39,.52-.6,.83-1.18,1.07-2.05,.34-1.13,.5-2.87,.5-5.18,0-.9-.01-1.32-.07-1.86,.38,.06,.69,.07,1.33,.07h1.22v-1.47Zm.19,6.15c-.04,.15-.05,.33-.08,.68-.15,2.16-.64,3.13-2.08,4.08-.16-.25-.26-.37-.52-.56,.73-.38,1.11-.72,1.41-1.29,.35-.64,.52-1.44,.52-2.5,0-.2,0-.27-.03-.44l.77,.03Zm.35-1.48c0,.35,.15,.41,1.15,.41,.86,0,1.18-.04,1.29-.18,.08-.11,.14-.46,.16-.91,.22,.14,.35,.19,.61,.27-.22,1.32-.29,1.36-2.13,1.36-1.45,0-1.7-.12-1.7-.87v-.83h-.26c-.57,.04-.83,.07-1.15,.14l-.03-.68c.2,.03,.37,.04,.54,.04,.11,0,.43-.01,.64-.03h.26c0-.61-.01-.8-.07-1.13h.75c-.05,.34-.07,.5-.07,1.07l1.05-.06c.41-.03,.69-.07,.95-.15l.04,.67q-.15-.01-.41-.01c-.1,0-.3,.01-.58,.03l-1.05,.07v.79Zm1.56,1.55c-.05,.34-.08,.65-.08,1.05v2.44c0,.33,.07,.35,.77,.35,.45,0,.62-.08,.71-.3,.08-.22,.14-.71,.14-1.21v-.23c.24,.14,.39,.19,.65,.23-.16,1.97-.27,2.11-1.64,2.11-1.06,0-1.25-.14-1.25-.9v-2.5c0-.38-.03-.71-.08-1.05h.79Z"/>
      </g>
      <g>
        <path class="cls-3" d="M367.1,.75c-.24-.03-.77,0-1.16,0h-2.69c-.47,0-1.03,.02-1.42-.05-.01,.02-.11,.11-.11,.11-.04,.1,.05,.16,.05,.16V56.89c0,.25,.08,.8-.05,.95,.01,.12,.02,.13,.05,.21h3.69c.51,0,1.27,.1,1.69-.05V2.38c0-.5,.09-1.23-.05-1.63Zm-143.38,.79v-.05c-.19-.04-.39-.07-.58-.11v-.05c-.19-.02-.39-.04-.58-.05v-.05c-.28-.02-.56-.04-.84-.05v-.05h-.79v-.05c-.28-.08-1.1,.02-1.32,.05h-.84v.05h-.42v.05h-.47v.05c-.19,.02-.39,.04-.58,.05v.05c-.12,.02-.25,.04-.37,.05v.05h-.21v.05h-.16v.05h-.21v.05h-.16v.05h-.16v.05h-.16v.05h-.16v.05l-.21,.05v.05h-.11v.05h-.16v.05l-.21,.05v.05l-.21,.05-.05,.11c-.11,.04-.21,.07-.32,.11l-.05,.11-.21,.05s-.04,.07-.05,.11h-.11l-.05,.11h-.11l-.05,.11h-.11l-.05,.11h-.11l-.05,.11h-.05l-.05,.11h-.11l-.16,.21h-.11c-.16,.18-.32,.35-.47,.53-.18,.16-.35,.32-.53,.47v.11l-.21,.16v.11l-.16,.11-.05,.16-.11,.05v.11s-.07,.04-.11,.05l-.05,.16h-.05v.11l-.11,.05-.05,.16h-.05c-.02,.07-.04,.14-.05,.21h-.05v.11l-.11,.05v.11l-.11,.11v.11h-.05v.11h-.05v.11h-.05v.11h-.05v.11h-.05v.11h-.05l-.11,.32h-.05v.16h-.05v.11h-.05l-.05,.26h-.05v.16h-.05v.11h-.05c-.02,.11-.04,.21-.05,.32h-.05v.16h-.05v.16h-.05v.16h-.05v.26h-.05v.16h-.05v.16h-.05c-.02,.12-.04,.25-.05,.37h-.05c-.16,.95-.32,1.9-.47,2.85v.69h-.05c-.09,.33,.14,.93-.05,1.16v4.38c0,.55,.1,1.52-.05,1.95h-3.16c-.45,0-1.12-.08-1.48,.05v4.85c0,.57-.1,1.79,.05,2.21h3.16c.45,0,1.12-.08,1.48,.05v30.05c.85,.14,2.28,.05,3.37,.05h2.85c.47,0,1.09,.04,1.48-.05h.21v.05c.07-.02,.14-.04,.21-.05V28.9c0-.31-.03-.72,.05-.95h4.01c.52,0,1.44,.1,1.85-.05v-4.59c0-.8,.07-1.77-.05-2.48h-3.95c-.63,0-1.49,.05-1.95,0v-5.01c.02-.7,.04-1.41,.05-2.11h.05v-.53h.05v-.26h.05v-.26h.05v-.37h.05v-.21h.05v-.26h.05c.02-.12,.04-.25,.05-.37h.05l.11-.47h.05v-.11h.05c.02-.09,.04-.18,.05-.26h.05l.11-.32h.05l.11-.32,.11-.05v-.11h.05c.02-.05,.04-.11,.05-.16l.11-.05v-.11c.14-.12,.28-.25,.42-.37,.11-.12,.21-.25,.32-.37h.11l.05-.11c.05-.02,.11-.04,.16-.05v-.05h.11l.05-.11h.11v-.05h.11v-.05h.16v-.05h.16v-.05h.16v-.05h.16v-.05h.37v-.05c.37-.02,.74-.04,1.11-.05v.05h.58v.05h.42c.26,.08,.5,.2,.84,.21,.11-.6,.05-1.43,.21-2v-.74h.05v-.74h.05v-.58c.01-.07,.03,.02,.05-.05v-.79h.05c.02-.33,.04-.67,.05-1,0-.17-.02-.38,.05-.47-.01-.52-.17-.3-.53-.42Zm13.65,6.75h-.05v-.16h-.05v-.16h-.05v-.16h-.05v-.16h-.05l-.05-.21h-.05v-.16h-.05v-.11l-.11-.05-.05-.21-.11-.05v-.11h-.05l-.05-.16s-.07-.04-.11-.05v-.11c-.07-.05-.14-.11-.21-.16v-.11l-.26-.21c-.11-.12-.21-.25-.32-.37h-.11l-.11-.16-.16-.05-.05-.11-.32-.11-.05-.11h-.11v-.05h-.11v-.05h-.16v-.05h-.11v-.05l-.32-.05v-.05h-.26c-.5-.16-1.05-.17-1.74-.16-.14,.12-.38,.04-.58,.11-.26,.09-.53,.18-.79,.26v.05h-.11v.05h-.11l-.11,.11h-.11l-.05,.11c-.07,.02-.14,.04-.21,.05l-.16,.21h-.11c-.14,.16-.28,.32-.42,.47l-.32,.26v.11l-.16,.11v.11l-.16,.11v.11h-.05v.11s-.07,.04-.11,.05v.11l-.11,.11v.11h-.05v.11h-.05l-.11,.32h-.05v.21h-.05v.11h-.05v.21h-.05v.21h-.05v.21h-.05v.42h-.05c-.02,.33-.04,.67-.05,1h.05v.47h.05v.42h.05l.05,.42h.05v.16h.05v.16h.05v.21h.05v.11h.05v.16l.11,.05v.11h.05v.11l.11,.11v.11s.07,.04,.11,.05v.11l.11,.05v.11l.16,.11v.11c.16,.14,.32,.28,.47,.42,.12,.14,.25,.28,.37,.42h.11l.05,.11,.16,.05v.05c.07,.02,.14,.04,.21,.05l.05,.11,.21,.05v.05l.21,.05v.05h.21v.05h.11v.05h.16v.05h.21v.05h.21v.05h.47c.18,.05,.9,.13,1.16,.05v-.05h.37v-.05h.16v-.05h.26v-.05h.11v-.05h.16v-.05h.16v-.05h.16v-.05h.11s.04-.07,.05-.11h.16l.05-.11,.16-.05v-.05l.21-.05,.11-.16h.11l.21-.26h.11v-.05l.21-.16v-.11c.09-.07,.18-.14,.26-.21v-.11l.16-.11v-.11l.11-.05v-.11l.11-.05v-.11l.11-.05,.05-.21h.05c.04-.11,.07-.21,.11-.32h.05v-.16h.05v-.16h.05v-.21h.05v-.11h.05v-.21h.05v-.32h.05v-.42c.15-.52,.03-1.47-.11-1.9v-.21Zm19.66,12.55c-.56,0-1.56,.11-2-.05v-.21h.05V12.08c0-.31,.03-.72-.05-.95h-6.91c-.28,0-.64-.02-.84,.05v9.65l-.16,.05v-.05h-3.11c-.44,0-1.08-.07-1.42,.05v7.06h4.69v19.98c0,.36-.02,.83,.05,1.11v.74h.05v.58h.05v.58h.05v.37h.05v.32h.05v.21h.05v.37h.05v.21h.05v.16h.05c.04,.23,.07,.46,.11,.69h.05v.16h.05v.16h.05v.16h.05v.11h.05v.16h.05v.11h.05v.16h.05v.16h.05v.11h.05l.05,.26,.11,.05v.11h.05v.11h.05v.11h.05v.11h.05v.11l.11,.11v.11l.11,.05v.11l.11,.05v.11l.11,.05v.11l.11,.05v.11l.21,.16v.11c.09,.07,.18,.14,.26,.21l.05,.16h.11l.11,.21h.11c.11,.12,.21,.25,.32,.37h.11l.11,.16h.11l.05,.11h.11l.05,.11,.16,.05v.05c.11,.04,.21,.07,.32,.11v.05h.11v.05h.11v.05h.11v.05c.11,.04,.21,.07,.32,.11v.05h.16v.05h.11v.05h.21v.05h.16v.05h.16v.05h.16v.05c.14,.02,.28,.04,.42,.05v.05c.47,.07,.95,.14,1.42,.21h.58v.05c.25,.07,1.29,0,1.48-.05h.58v-.05h.47v-.05c.26-.02,.53-.04,.79-.05v-.05h.26v-.05h.21v-.05c.16-.02,.32-.04,.47-.05v-.05h.26v-.05c.12-.02,.25-.04,.37-.05,.37-.13,.76-.32,1.11-.47-.05-2.13-.11-4.25-.16-6.38-.22,.03-.23,.1-.37,.16h-.16v.05h-.11v.05h-.21v.05h-.21v.05h-.21v.05h-.26v.05h-.32c-.86,.25-1.96-.08-2.48-.37h-.11l-.05-.11h-.11c-.05-.07-.11-.14-.16-.21h-.11l-.16-.21-.11-.05v-.11l-.21-.16v-.11l-.11-.05c-.04-.11-.07-.21-.11-.32h-.05v-.11h-.05c-.04-.11-.07-.21-.11-.32h-.05c-.05-.25-.11-.49-.16-.74-.38-1.13-.32-2.75-.32-4.27v-15.29c0-.57-.07-1.33,0-1.74h6.48v-4.9c0-.57,.1-1.79-.05-2.21h-4.48Zm99.53,16.61v-1.16h-.05v-.47h-.05v-.42h-.05v-.37h-.05v-.47h-.05v-.26h-.05v-.26h-.05v-.26h-.05v-.21h-.05v-.21h-.05v-.26h-.05v-.21h-.05v-.21h-.05v-.21h-.05v-.21h-.05v-.16h-.05v-.16h-.05v-.16h-.05v-.16h-.05v-.21h-.05l-.05-.32h-.05v-.11h-.05v-.16h-.05v-.11h-.05l-.05-.32h-.05v-.11h-.05v-.16h-.05v-.11h-.05v-.16h-.05l-.11-.32h-.05v-.11h-.05v-.11h-.05v-.16h-.05l-.11-.32h-.05l-.05-.21-.11-.05v-.11l-.11-.11v-.11h-.05v-.11h-.05v-.11l-.11-.05c-.04-.11-.07-.21-.11-.32l-.11-.05v-.11l-.11-.05v-.11l-.11-.05v-.11l-.11-.05v-.11h-.05l-.05-.16-.11-.05v-.11c-.05-.04-.11-.07-.16-.11v-.11l-.16-.11v-.11l-.16-.11v-.11l-.26-.21v-.11c-.07-.05-.14-.11-.21-.16v-.11c-.18-.16-.35-.32-.53-.47v-.11c-.12-.11-.25-.21-.37-.32-.04-.05-.07-.11-.11-.16h-.11c-.14-.16-.28-.32-.42-.47h-.11l-.26-.32h-.11l-.16-.21h-.11l-.11-.16h-.11l-.05-.11h-.11l-.11-.16h-.11l-.11-.16h-.11l-.05-.11-.21-.05-.05-.11h-.11l-.05-.11h-.11l-.05-.11c-.11-.04-.21-.07-.32-.11l-.05-.11h-.11l-.11-.11h-.11v-.05h-.11l-.05-.11c-.07-.02-.14-.04-.21-.05v-.05l-.32-.11v-.05h-.16v-.05c-.07-.02-.14-.04-.21-.05v-.05h-.11v-.05c-.11-.04-.21-.07-.32-.11v-.05h-.16v-.05h-.11v-.05l-.32-.05v-.05h-.11v-.05l-.26-.05v-.05h-.21v-.05h-.11v-.05h-.21v-.05h-.16v-.05h-.21v-.05h-.11v-.05h-.16v-.05h-.26v-.05h-.21v-.05h-.21v-.05h-.26v-.05h-.21v-.05c-.18-.02-.35-.04-.53-.05v-.05h-.42v-.05h-.26v-.05h-.53v-.05c-.69-.04-1.37-.07-2.06-.11-.83,.02-1.65,.04-2.48,.05-.69,.11-1.37,.21-2.06,.32v.05h-.21v.05h-.21v.05h-.26v.05h-.21v.05h-.21v.05h-.16v.05h-.16v.05h-.21v.05h-.11v.05c-.23,.05-.46,.11-.69,.16v.05h-.11v.05h-.16v.05h-.11v.05h-.16v.05h-.11v.05h-.16v.05h-.11v.05h-.16v.05l-.32,.11v.05h-.11v.05h-.16l-.05,.11c-.16,.05-.32,.11-.47,.16l-.05,.11-.21,.05v.05h-.11v.05h-.11l-.11,.11h-.11l-.05,.11-.21,.05-.05,.11c-.07,.02-.14,.04-.21,.05l-.05,.11h-.11v.05h-.11l-.05,.11h-.11l-.11,.16-.21,.05s-.04,.07-.05,.11h-.11l-.11,.16h-.11l-.11,.16h-.11l-.11,.16h-.11c-.04,.05-.07,.11-.11,.16h-.11l-.16,.21h-.11c-.11,.12-.21,.25-.32,.37h-.11c-.16,.18-.32,.35-.47,.53h-.11c-.12,.14-.25,.28-.37,.42l-.21,.16v.11c-.19,.18-.39,.35-.58,.53v.11l-.32,.26v.11c-.09,.07-.18,.14-.26,.21v.11l-.16,.11v.11l-.11,.05v.11l-.16,.11v.11c-.05,.04-.11,.07-.16,.11v.11l-.11,.05c-.02,.05-.04,.11-.05,.16h-.05v.11l-.11,.05-.05,.16h-.05v.11s-.07,.04-.11,.05l-.05,.21-.11,.05-.05,.16h-.05v.11l-.11,.11v.11s-.07,.04-.11,.05v.11l-.11,.11v.11h-.05v.11l-.11,.05-.21,.58h-.05v.11h-.05v.11h-.05v.11h-.05v.11h-.05c-.04,.11-.07,.21-.11,.32h-.05v.16h-.05l-.05,.26h-.05c-.02,.07-.04,.14-.05,.21h-.05v.16h-.05v.11h-.05l-.11,.47h-.05v.16h-.05v.16h-.05v.11h-.05l-.11,.53h-.05c-.02,.12-.04,.25-.05,.37h-.05c-.04,.23-.07,.46-.11,.69h-.05v.16h-.05v.21c-.09,.26-.13,.63-.21,.9l-.05,.69h-.05v.37h-.05v.26h-.05v.95c-.09,.31,.04,.84-.05,1.16-.04,.16-.12,.77-.05,1h.05v.9h.05v.9c.17,.58,.2,1.33,.37,1.9v.32h.05v.21h.05v.16h.05l.05,.47h.05v.16h.05v.16h.05v.26h.05v.16h.05v.16h.05v.16h.05v.11h.05v.21h.05v.11h.05v.21h.05v.11h.05v.16h.05v.11h.05v.16h.05l.05,.21h.05v.16h.05v.11h.05v.16h.05l.05,.21h.05v.11h.05v.16s.07,.04,.11,.05v.11h.05v.16h.05l.11,.32h.05l.05,.21,.11,.05v.11l.11,.11v.11h.05v.11s.07,.04,.11,.05l.11,.32h.05l.05,.16,.11,.05c.02,.07,.04,.14,.05,.21l.11,.05v.11l.11,.05v.11l.11,.05v.11s.07,.04,.11,.05v.11h.05l.05,.16,.11,.05v.11l.16,.11v.11l.16,.11v.11l.16,.11v.11c.07,.05,.14,.11,.21,.16v.11l.21,.16v.11c.12,.11,.25,.21,.37,.32,.16,.22,.29,.44,.53,.58v.11c.27,.08,.6,.55,.79,.74l.16,.11v.05h.11c.11,.12,.21,.25,.32,.37h.11l.11,.16h.11l.11,.16h.11l.16,.21,.16,.05,.05,.11h.11l.05,.11h.11c.04,.05,.07,.11,.11,.16h.11l.05,.11,.21,.05,.05,.11h.11l.05,.11h.11l.05,.11h.11v.05h.11l.05,.11,.32,.11s.04,.07,.05,.11c.11,.04,.21,.07,.32,.11l.05,.11,.26,.05,.05,.11,.21,.05v.05c.07,.02,.14,.04,.21,.05v.05h.16v.05l.32,.11v.05h.11v.05h.11v.05h.16v.05l.21,.05v.05c.16,.04,.32,.07,.47,.11v.05h.11v.05h.16v.05h.11v.05h.16v.05h.16v.05h.16v.05h.21v.05c.12,.02,.25,.04,.37,.05v.05h.16v.05h.16v.05c.21,.04,.42,.07,.63,.11v.05h.26v.05h.26v.05h.26v.05h.26v.05c.23,.02,.46,.04,.69,.05v.05c.3,.02,.6,.04,.9,.05v.05h.79c.41,.12,2.12,.11,2.53,0h.84v-.05h.53v-.05h.37v-.05c.23-.02,.46-.04,.69-.05v-.05h.26v-.05h.26v-.05h.26v-.05c.18-.02,.35-.04,.53-.05v-.05h.16v-.05h.21v-.05c.19-.04,.39-.07,.58-.11v-.05h.16v-.05h.16v-.05c.18-.04,.35-.07,.53-.11v-.05h.11v-.05h.16v-.05h.16v-.05h.16v-.05h.16v-.05c.07-.02,.14-.04,.21-.05v-.05h.16v-.05l.21-.05v-.05l.26-.05v-.05h.16v-.05l.32-.11v-.05h.11v-.05h.11v-.05h.11v-.05h.11v-.05h.11v-.05h.11v-.05h.11l.11-.11h.11l.05-.11c.07-.02,.14-.04,.21-.05l.05-.11,.21-.05,.05-.11,.21-.05,.05-.11h.11l.05-.11h.11l.05-.11h.11l.05-.11h.11c.04-.05,.07-.11,.11-.16h.11l.05-.11h.11l.11-.16h.11l.11-.16h.11l.16-.21c.05-.02,.11-.04,.16-.05l.05-.11h.11l.26-.32h.11c.14-.16,.28-.32,.42-.47h.11c.18-.19,.35-.39,.53-.58,.18-.16,.35-.32,.53-.47v-.11c.25-.23,.49-.46,.74-.69v-.11c.09-.07,.18-.14,.26-.21,.15-.21,.25-.45,.47-.58-.06-.22-.16-.2-.32-.32l-.16-.21h-.11l-.11-.16h-.11l-.16-.21h-.11c-.05-.07-.11-.14-.16-.21h-.11l-.11-.16h-.11l-.16-.21-.16-.05-.05-.11h-.11l-.05-.11h-.05s-.04-.07-.05-.11h-.11l-.16-.21h-.11l-.16-.21c-.05-.02-.11-.04-.16-.05l-.05-.11h-.11l-.05-.11-.16-.05-.21-.26h-.11c-.04-.05-.07-.11-.11-.16h-.11l-.16-.21c-.1,.02-.16,0-.21,.05v.11l-.11,.05v.11l-.11,.05v.11c-.05,.04-.11,.07-.16,.11v.11l-.11,.05v.11l-.16,.11v.11l-.26,.21v.11c-.18,.16-.35,.32-.53,.47v.11l-.16,.11c-.11,.12-.21,.25-.32,.37h-.11c-.18,.19-.35,.39-.53,.58h-.11l-.21,.26h-.11l-.11,.16h-.11l-.16,.21h-.11l-.05,.11h-.11l-.11,.16h-.11l-.05,.11h-.11l-.11,.16h-.11s-.04,.07-.05,.11l-.21,.05-.05,.11h-.11l-.05,.11h-.11s-.04,.07-.05,.11h-.11l-.11,.11h-.11v.05h-.11v.05h-.11l-.05,.11-.21,.05v.05c-.07,.02-.14,.04-.21,.05v.05h-.16v.05l-.21,.05v.05h-.11v.05c-.63,.21-1.27,.42-1.9,.63h-.26v.05h-.21v.05h-.37v.05h-.26v.05c-.25,.02-.49,.04-.74,.05v.05h-.47c-.26,.07-.71,.05-1.05,.05-.78,0-1.57,.01-2.16-.16h-.37v-.05h-.32v-.05c-.18-.02-.35-.04-.53-.05v-.05c-.21-.04-.42-.07-.63-.11v-.05h-.16v-.05h-.16v-.05h-.16v-.05h-.16v-.05l-.32-.05v-.05c-.09-.02-.18-.04-.26-.05v-.05h-.11v-.05h-.16v-.05c-.07-.02-.14-.04-.21-.05v-.05h-.11v-.05h-.16v-.05l-.32-.11v-.05h-.11v-.05c-.11-.04-.21-.07-.32-.11l-.05-.11-.32-.11s-.04-.07-.05-.11l-.21-.05-.05-.11c-.07-.02-.14-.04-.21-.05v-.05l-.16-.05-.05-.11h-.11l-.11-.16h-.11l-.05-.11h-.11l-.11-.16h-.11l-.11-.16h-.11l-.21-.26h-.11l-.32-.37h-.11l-.21-.26c-.18-.16-.35-.32-.53-.47v-.11c-.16-.14-.32-.28-.47-.42v-.11s-.07-.04-.11-.05v-.05l-.16-.11v-.11l-.16-.11v-.11l-.11-.05v-.11c-.05-.04-.11-.07-.16-.11v-.11l-.11-.05-.05-.16h-.05v-.11l-.11-.05-.05-.16h-.05l-.11-.32-.11-.05v-.11l-.11-.11v-.11h-.05v-.11h-.05v-.11l-.11-.05c-.02-.09-.04-.18-.05-.26h-.05l-.05-.21h-.05v-.11h-.05v-.16s-.07-.04-.11-.05v-.16h-.05l-.05-.21h-.05c-.04-.16-.07-.32-.11-.47h-.05v-.11h-.05c-.18-.63-.35-1.27-.53-1.9v-.32h-.05v-.26h-.05v-.42h-.05v-.42h-.05c-.07-.26,.09-.67-.05-.84,0-.15,.02-.23,.05-.32h30.68c.12-.67,.11-1.47,.11-2.27,0-.38,.03-.87-.05-1.16Zm-5.48-.84h-24.41c-.27,0-.6,.02-.79-.05,0-.84,.15-1.58,.37-2.21,.02-.14,.04-.28,.05-.42h.05v-.16h.05v-.21h.05v-.11h.05v-.21h.05l.05-.21h.05c.02-.11,.04-.21,.05-.32h.05l.05-.26h.05l.05-.21h.05v-.11h.05v-.16l.11-.05c.05-.16,.11-.32,.16-.47l.11-.05c.04-.11,.07-.21,.11-.32l.11-.05,.05-.21,.11-.05c.02-.07,.04-.14,.05-.21l.11-.05v-.11l.11-.05v-.11l.11-.05v-.11l.11-.05v-.11c.07-.05,.14-.11,.21-.16v-.11l.16-.11v-.11l.26-.21c1.16-1.61,2.87-2.74,4.69-3.69h.16v-.05h.11v-.05h.16v-.05h.11v-.05h.16v-.05h.11v-.05c.11-.02,.21-.04,.32-.05v-.05h.11v-.05l.32-.05v-.05c.14-.02,.28-.04,.42-.05v-.05h.21v-.05h.26v-.05h.21v-.05h.26v-.05h.26v-.05c.39-.04,.77-.07,1.16-.11,.21,0,.56,.05,.69-.05,2.89,.02,5.18,.56,6.96,1.69l.21,.05,.05,.11h.11l.05,.11h.11l.11,.16h.11l.05,.11h.11l.11,.16h.11l.16,.21h.11c.25,.26,.49,.53,.74,.79,.11,.09,.21,.18,.32,.26v.11c.11,.09,.21,.18,.32,.26v.11l.11,.05v.11c.07,.05,.14,.11,.21,.16l.05,.16,.11,.05v.11l.11,.05,.05,.16h.05v.11l.11,.05,.05,.16h.05l.11,.32s.07,.04,.11,.05l.05,.21,.11,.05,.05,.21h.05c.02,.07,.04,.14,.05,.21h.05v.16h.05v.11h.05v.11h.05l.11,.32h.05v.16h.05v.11h.05l.05,.32h.05v.11h.05v.16h.05v.16h.05v.16h.05v.16h.05l.05,.37h.05c.02,.16,.04,.32,.05,.47h.05v.21h.05v.16h.05v.32h.05v.26h.05c.02,.26,.04,.53,.05,.79h.05c.06,.2-.06,.45,.05,.58,0,.24,0,.52-.05,.69Zm-114.23,16.82V20.83h-5.8c-.65,0-2.06-.11-2.48,.11,.07,.81,0,2.02,0,3V57.2c0,.23,.08,.54,0,.63,.02,.18,0,.17,.16,.21,.12,.09,1.28,.05,1.69,.05h5.75c.21,0,.36-.1,.47,0,.17-.02,.15-.05,.26-.11-.13-1.42-.05-3.08-.05-4.59Zm83.08-32.47h-3.85c-.51,0-1.39-.09-1.79,.05-.07,.21-.14,.42-.21,.63v.16h-.05v.11h-.05c-.04,.21-.07,.42-.11,.63h-.05c-.02,.12-.04,.25-.05,.37h-.05l-.11,.53h-.05v.11h-.05v.21h-.05v.16h-.05c-.04,.21-.07,.42-.11,.63h-.05v.16h-.05v.16h-.05v.16h-.05v.16h-.05v.16h-.05c-.02,.14-.04,.28-.05,.42h-.05l-.11,.53h-.05c-.04,.18-.07,.35-.11,.53h-.05l-.05,.37h-.05v.16h-.05v.21h-.05v.16h-.05v.21h-.05v.11h-.05c-.02,.12-.04,.25-.05,.37h-.05v.21h-.05v.21h-.05v.16h-.05v.21h-.05v.11h-.05c-.09,.37-.18,.74-.26,1.11h-.05c-.02,.12-.04,.25-.05,.37h-.05c-.02,.12-.04,.25-.05,.37h-.05v.16h-.05v.16h-.05v.21h-.05v.16h-.05v.21h-.05v.16h-.05v.16h-.05v.16h-.05v.16h-.05v.26h-.05v.11h-.05c-.04,.21-.07,.42-.11,.63h-.05v.16h-.05v.16h-.05v.16h-.05v.16h-.05c-.02,.12-.04,.25-.05,.37h-.05c-.02,.12-.04,.25-.05,.37h-.05v.21h-.05v.16h-.05v.21h-.05v.16h-.05v.11h-.05c-.07,.33-.14,.67-.21,1-.63,1.76-1.05,3.72-1.69,5.48v.21h-.05v.21h-.05v.16h-.05v.21h-.05v.11h-.05c-.04,.19-.07,.39-.11,.58h-.05v.16h-.05v.16h-.05c-.02,.14-.04,.28-.05,.42-.47,1.3-.79,2.76-1.27,4.06v.21h-.05v.16h-.05v.21h-.05v.16h-.05v.16h-.05v.16h-.05c-.04,.19-.07,.39-.11,.58h-.05v.21h-.05v.16h-.05v.11h-.05v.26h-.05l-.05,.11h-.11l-.05-.16h-.05v-.16h-.05v-.16h-.05v-.11h-.05v-.21h-.05v-.11h-.05c-.05-.23-.11-.46-.16-.69h-.05c-.02-.11-.04-.21-.05-.32h-.05v-.11h-.05l-.05-.32h-.05v-.21h-.05v-.11h-.05l-.11-.53h-.05v-.11h-.05v-.16h-.05v-.16h-.05v-.16h-.05v-.16h-.05v-.21h-.05l-.05-.32h-.05v-.11h-.05c-.02-.11-.04-.21-.05-.32h-.05v-.16h-.05v-.16h-.05v-.16h-.05v-.16h-.05v-.16h-.05v-.21c-.75-1.88-1.3-3.97-2.06-5.85l-.16-.69h-.05v-.11h-.05c-.04-.18-.07-.35-.11-.53h-.05v-.11h-.05c-.02-.12-.04-.25-.05-.37h-.05l-.05-.32h-.05v-.11h-.05v-.16h-.05v-.16h-.05v-.16h-.05v-.16h-.05c-.05-.23-.11-.46-.16-.69h-.05v-.11h-.05v-.16h-.05v-.16h-.05v-.16h-.05v-.16h-.05v-.16h-.05v-.16h-.05v-.16h-.05v-.16h-.05v-.11h-.05v-.21h-.05v-.16h-.05v-.16h-.05v-.16h-.05l-.05-.32h-.05v-.11h-.05v-.21h-.05v-.11h-.05v-.16h-.05v-.16h-.05v-.16h-.05v-.21h-.05l-.05-.32h-.05v-.11h-.05v-.21h-.05v-.11h-.05c-.05-.23-.11-.46-.16-.69h-.05v-.11h-.05v-.16h-.05v-.16h-.05v-.16h-.05v-.16h-.05c-.11-.37-.21-.74-.32-1.11h-.05v-.11h-.05v-.21h-.05v-.16h-.05v-.16h-.05v-.16h-.05v-.16h-.05v-.16h-.05c-.02-.11-.04-.21-.05-.32h-.05v-.11h-.05v-.21h-.05v-.11h-.05v-.21h-.05v-.16h-.05v-.16h-.05v-.16h-.05v-.16h-.05v-.11h-.05l-.05-.37h-.05v-.11h-.05v-.21h-.05v-.11h-.05v-.21h-.05v-.11h-.05l-.05-.32h-.05v-.16h-.05v-.16h-.05v-.16h-.05v-.21h-.05v-.11h-.05l-.11-.47h-.05v-.16h-.05v-.16h-.05v-.16h-.05v-.16h-.05l-.05-.32h-.05v-.11h-.05v-.21h-.05v-.11h-.05v-.21h-.05v-.11h-.05v-.21h-.05c-.04-.16-.07-.32-.11-.47h-.05v-.11s-.07-.04-.11-.11h-5.17l-.05,.21h-.05v.21h-.05v.11h-.05l-.05,.32h-.05c-.05,.23-.11,.46-.16,.69h-.05v.11h-.05v.21h-.05v.11h-.05v.16h-.05v.21h-.05v.16h-.05v.16h-.05v.16h-.05v.16h-.05v.11h-.05v.16h-.05v.21h-.05v.16h-.05v.16h-.05v.16h-.05v.16h-.05v.16h-.05c-.02,.11-.04,.21-.05,.32h-.05v.11h-.05v.21h-.05v.16h-.05v.16h-.05v.16h-.05v.16h-.05v.16h-.05v.16h-.05v.16h-.05v.16h-.05v.16h-.05v.16h-.05v.21h-.05v.11h-.05v.21h-.05v.11h-.05l-.05,.32h-.05c-.02,.12-.04,.25-.05,.37h-.05v.11h-.05v.21h-.05v.11h-.05v.21h-.05v.11h-.05c-.09,.33-.18,.67-.26,1h-.05v.11h-.05c-.02,.12-.04,.25-.05,.37h-.05v.11h-.05c-.04,.18-.07,.35-.11,.53h-.05v.16h-.05v.16h-.05v.16h-.05v.11h-.05v.21h-.05v.11h-.05v.21h-.05v.16h-.05v.16h-.05v.16h-.05l-.05,.32c-.28,.64-.48,1.41-.74,2.06l-.05,.37h-.05v.11h-.05l-.05,.32h-.05v.16h-.05v.16h-.05v.16h-.05v.16h-.05v.16h-.05v.16h-.05v.21h-.05v.11h-.05c-.05,.23-.11,.46-.16,.69h-.05l-.05,.32h-.05v.11h-.05v.21h-.05v.11h-.05l-.16,.69h-.05l-.05,.32h-.05v.11h-.05c-.04,.16-.07,.32-.11,.47h-.05v.21h-.05v.16h-.05v.16h-.05v.16h-.05c-.02,.11-.04,.21-.05,.32h-.05v.11h-.05v.21h-.05v.11h-.05v.21h-.05v.16h-.05v.16h-.05v.16h-.05l-.05,.32h-.05v.11h-.05c-.07,.3-.14,.6-.21,.9h-.05v.11h-.05l-.05,.32h-.05v.16h-.05v.16h-.05v.16h-.05v.16h-.05v.16h-.05v.21h-.05v.11h-.05l-.05,.32h-.05v.16h-.05v.16h-.05v.16h-.05v.21h-.05v.11h-.05l-.05,.32h-.05v.16h-.05v.16h-.05v.16h-.05v.21h-.05v.16h-.05v.11h-.05v.21h-.05v.11h-.05v.21h-.05v.11h-.05l-.05,.37h-.05l-.05,.32h-.05c-.02,.11-.04,.21-.05,.32h-.05v.11h-.05v.21h-.05v.11h-.05c-.02,.12-.04,.25-.05,.37h-.05v.16h-.05v.16h-.05v.16h-.05l-.05,.26h-.05v.05h-.16c-.11-.39-.21-.77-.32-1.16h-.05v-.21h-.05v-.16h-.05v-.21h-.05c-.02-.12-.04-.25-.05-.37h-.05v-.16h-.05v-.16h-.05v-.16h-.05v-.16h-.05v-.21h-.05v-.16h-.05l-.05-.37h-.05v-.26h-.05v-.11h-.05c-.02-.12-.04-.25-.05-.37h-.05c-.02-.12-.04-.25-.05-.37h-.05c-.02-.12-.04-.25-.05-.37h-.05v-.16h-.05v-.16h-.05v-.16h-.05c-.09-.37-.18-.74-.26-1.11h-.05c-.04-.18-.07-.35-.11-.53h-.05v-.11h-.05v-.26h-.05c-.04-.18-.07-.35-.11-.53h-.05c-.05-.23-.11-.46-.16-.69h-.05v-.16h-.05v-.16h-.05l-.05-.42h-.05v-.16h-.05v-.16h-.05v-.21h-.05v-.11h-.05v-.21h-.05v-.16h-.05v-.21h-.05c-.02-.12-.04-.25-.05-.37h-.05c-.04-.18-.07-.35-.11-.53h-.05v-.16h-.05v-.16h-.05v-.21h-.05v-.21h-.05v-.16h-.05v-.16h-.05v-.21h-.05v-.16h-.05v-.16h-.05v-.16h-.05c-.02-.12-.04-.25-.05-.37h-.05v-.21h-.05v-.21h-.05v-.16h-.05v-.16h-.05v-.16h-.05v-.16h-.05c-.02-.12-.04-.25-.05-.37h-.05v-.21h-.05l-.05-.37h-.05v-.11h-.05v-.26h-.05v-.11h-.05v-.21h-.05v-.16h-.05v-.16h-.05v-.21h-.05c-.02-.12-.04-.25-.05-.37h-.05v-.16h-.05v-.16h-.05v-.16h-.05v-.16h-.05l-.05-.42h-.05l-.05-.37h-.05v-.16h-.05v-.16h-.05v-.16h-.05v-.21h-.05v-.16h-.05v-.21h-.05c-.02-.12-.04-.25-.05-.37h-.05v-.16h-.05v-.16h-.05v-.16h-.05v-.16h-.05c-.02-.12-.04-.25-.05-.37h-.05v-.21h-.05v-.16h-.05v-.21h-.05l-.11-.53h-.05c-.02-.12-.04-.25-.05-.37h-.05v-.16h-.05v-.21h-.05c-.02-.12-.04-.25-.05-.37h-.05v-.11h-.05c-.05-.25-.11-.49-.16-.74h-.05l-.16-.74h-.05v-.16h-.05v-.16h-.05v-.16h-.05v-.16h-.05c-.02-.14-.04-.28-.05-.42h-.05v-.16h-.05v-.21h-.05v-.11h-.05v-.26h-.05v-.11h-.05c-.04-.19-.07-.39-.11-.58h-.05l-.11-.53h-.05v-.11h-.05v-.21h-.05v-.16h-.05v-.21h-.05v-.16h-.05v-.21h-.05c-.02-.12-.04-.25-.05-.37-.09-.25-.24-.52-.26-.84-.06-.05,0,0-.05-.05h-5.75c.05,.39,.25,.78,.37,1.11v.21h.05v.16h.05v.21h.05v.11h.05v.21h.05v.11h.05v.21h.05l.16,.69h.05v.16h.05v.16h.05v.16h.05v.16h.05v.16h.05v.16h.05c.02,.12,.04,.25,.05,.37h.05v.16h.05v.16h.05v.16h.05v.16h.05v.21h.05v.16h.05v.16h.05v.16h.05l.05,.37h.05v.11h.05v.21h.05v.11h.05v.21h.05v.16h.05v.21h.05v.11h.05v.26h.05v.11h.05v.16h.05v.16h.05v.16h.05v.21h.05v.16h.05v.16h.05v.16h.05l.16,.69h.05v.11h.05v.21h.05v.16h.05v.21h.05l.05,.32h.05v.16h.05v.16h.05v.16h.05v.16h.05l.16,.69h.05l.05,.37h.05v.11h.05c.07,.3,.14,.6,.21,.9h.05v.16h.05v.11h.05c.02,.12,.04,.25,.05,.37h.05c.04,.18,.07,.35,.11,.53h.05v.16h.05v.16h.05v.16h.05v.16h.05v.21h.05v.11h.05v.21h.05v.16h.05v.21c.78,2.13,1.38,4.46,2.16,6.59v.21h.05v.16h.05v.16h.05v.21h.05v.11h.05c.02,.12,.04,.25,.05,.37h.05v.16h.05v.16h.05v.16h.05l.16,.69h.05v.11h.05c.07,.32,.14,.63,.21,.95h.05v.11h.05v.21h.05v.16h.05v.11h.05v.21h.05v.16h.05v.21h.05v.11h.05v.21h.05l.05,.32h.05v.16h.05v.16h.05v.16h.05v.16h.05c.02,.12,.04,.25,.05,.37h.05v.21h.05v.11h.05c.05,.23,.11,.46,.16,.69h.05v.16h.05v.16h.05v.16h.05v.16h.05v.21h.05v.11h.05v.21h.05v.16h.05v.16h.05c.04,.18,.07,.35,.11,.53h.05v.11h.05v.21h.05c.05,.23,.11,.46,.16,.69h.05v.16h.05v.16h.05v.21h.05v.11h.05l.11,.53h.05l.11,.53h.05l.05,.32h.05v.16h.05v.16h.05v.16h.05v.16h.05v.21h.05c.02,.11,.04,.21,.05,.32h.05v.16h.05v.16h.05v.16h.05v.16h.05v.21h.05v.16h.05v.21h.05l.05,.21h5.9c.02-.17,.04-.28,.11-.42h.05l.05-.37h.05v-.21h.05v-.11h.05v-.21h.05v-.11h.05v-.16h.05v-.16h.05v-.16h.05c.04-.18,.07-.35,.11-.53h.05c.02-.12,.04-.25,.05-.37h.05l.05-.21h.05l.21-.9h.05v-.16h.05v-.11h.05c.07-.3,.14-.6,.21-.9h.05v-.16h.05v-.16h.05v-.16h.05v-.11h.05v-.21h.05v-.11h.05v-.21h.05v-.16h.05v-.16h.05v-.16h.05v-.16h.05v-.16h.05v-.16h.05l.05-.32h.05c.02-.12,.04-.25,.05-.37h.05c.02-.11,.04-.21,.05-.32h.05v-.16h.05v-.16h.05v-.16h.05v-.16h.05v-.16h.05l.05-.32h.05l.11-.53h.05v-.11h.05c.07-.3,.14-.6,.21-.9h.05v-.11h.05v-.21h.05v-.11h.05v-.16h.05v-.16h.05v-.16h.05v-.21h.05c.05-.23,.11-.46,.16-.69h.05v-.11h.05l.16-.69h.05v-.16h.05v-.16h.05v-.16h.05v-.16h.05v-.16h.05v-.16h.05c.04-.18,.07-.35,.11-.53,.76-2.09,1.4-4.34,2.16-6.43v-.21h.05l.05-.32h.05v-.16h.05v-.16h.05v-.16h.05v-.16h.05v-.16h.05l.05-.32h.05v-.21h.05v-.16h.05v-.16h.05v-.16h.05v-.16h.05v-.11h.05v-.21h.05v-.16h.05v-.16h.05v-.21h.05l.05-.32h.05v-.11h.05l.05-.37h.05v-.11h.05v-.21h.05v-.16h.05v-.21h.05v-.11h.05v-.16h.05v-.16h.05v-.16h.05c.09-.33,.18-.67,.26-1h.05v-.16h.05v-.16h.05v-.16h.05v-.16h.05v-.16h.05l.16-.69h.05v-.11h.05v-.21h.05v-.11h.05c.04-.18,.07-.35,.11-.53h.16c.11,.24,.22,.55,.32,.79v.16h.05l.05,.37h.05v.11h.05v.16h.05v.16h.05v.16h.05c.05,.23,.11,.46,.16,.69h.05v.11h.05v.21h.05v.11h.05v.21h.05v.11h.05c.05,.23,.11,.46,.16,.69h.05v.11h.05l.11,.53h.05l.05,.32h.05l.05,.32h.05v.16h.05v.16h.05v.16h.05v.16h.05v.16h.05l.05,.32h.05v.21h.05v.16h.05v.11h.05v.16h.05v.16h.05v.16h.05v.16h.05l.05,.37h.05l.05,.32h.05v.16h.05v.11h.05v.16h.05c.02,.12,.04,.25,.05,.37h.05v.21h.05v.11h.05v.21h.05v.11h.05c.02,.11,.04,.21,.05,.32h.05v.16h.05v.16h.05v.16h.05v.21h.05v.11h.05v.21h.05v.11h.05l.05,.32h.05c.04,.18,.07,.35,.11,.53h.05c.02,.11,.04,.21,.05,.32h.05v.11h.05c.04,.18,.07,.35,.11,.53h.05v.11h.05c.05,.23,.11,.46,.16,.69h.05v.11h.05v.21h.05v.11h.05v.21h.05c.05,.23,.11,.46,.16,.69h.05v.11h.05v.16h.05v.16h.05c.02,.12,.04,.25,.05,.37h.05v.11h.05c.04,.18,.07,.35,.11,.53h.05v.11h.05l.05,.37h.05v.16h.05v.16h.05v.16h.05v.16h.05v.16h.05l.05,.32h.05v.11h.05v.16h.05c.07,.3,.14,.6,.21,.9h.05v.11h.05v.16h.05v.16h.05v.16h.05v.16h.05v.21h.05v.16h.05v.11h.05v.21c.63,1.57,1.06,3.33,1.69,4.9v.21h.05l.05,.32h.05v.11h.05v.16h.05v.21h.05l.16,.69h.05v.11h.05l.05,.32h.05v.16h.05v.16h.05v.16h.05v.21h.05v.11h.05c.04,.16,.07,.32,.11,.47h.05v.16h.05v.16h.05v.16h.05v.16h.05v.21c.05,.14,.14,.22,.16,.42h4.01c.61,0,1.45,.07,1.9,0,3.9-12.35,7.8-24.71,11.7-37.06h-.05v-.05Z"/>
        <rect class="cls-9" x="184.7" y=".69" width="11.95" height="11.95"/>
        <rect class="cls-8" x="184.7" y="15.6" width="11.95" height="11.95"/>
        <rect class="cls-5" x="184.7" y="30.51" width="11.95" height="11.95"/>
        <rect class="cls-7" x="184.7" y="45.42" width="11.95" height="11.95"/>
        <rect class="cls-1" x="169.54" y="30.51" width="11.95" height="11.95"/>
        <rect class="cls-6" x="169.54" y="45.42" width="11.95" height="11.95"/>
        <rect class="cls-2" x="154.37" y="45.42" width="11.95" height="11.95"/>
        <g>
          <path class="cls-4" d="M377.94,7.62c-.02-.23-.13-.54-.45-1.3-.44-1.04-.74-1.34-1.34-1.34h-1.41v1.78c0,.39,.02,.58,.06,.86h-.71c.04-.27,.06-.48,.06-.85V2.69c0-.33-.02-.57-.06-.87,.27,.01,.48,.02,.83,.02h1.67c1.1,0,1.71,.52,1.71,1.46,0,.49-.14,.85-.45,1.12-.22,.2-.41,.29-.82,.38,.31,.09,.5,.3,.78,.84,.18,.36,.36,.75,.6,1.28,.13,.3,.24,.52,.34,.71h-.8Zm-1.4-3.16c.34,0,.65-.12,.86-.33,.2-.19,.29-.44,.29-.77,0-.65-.38-1-1.1-1h-1.85v2.09h1.8Z"/>
          <path class="cls-4" d="M376.12,9.35c-2.58,0-4.67-2.1-4.67-4.67s2.1-4.67,4.67-4.67,4.67,2.1,4.67,4.67-2.1,4.67-4.67,4.67Zm0-8.83c-2.29,0-4.16,1.87-4.16,4.16s1.87,4.16,4.16,4.16,4.16-1.87,4.16-4.16-1.87-4.16-4.16-4.16Z"/>
        </g>
      </g>
    </g>
  </g>
</svg>