<?xml version="1.0" encoding="UTF-8"?>
<svg id="_圖層_2" data-name="圖層 2" xmlns="http://www.w3.org/2000/svg" viewBox="0 0 520.9 92.54">
  <defs>
    <style>
      .cls-1 {
        fill: #42b049;
      }

      .cls-2 {
        fill: #e3007f;
      }

      .cls-3 {
        fill-rule: evenodd;
      }

      .cls-3, .cls-4 {
        fill: #231815;
      }

      .cls-5 {
        fill: #459ea5;
      }

      .cls-6 {
        fill: #91308c;
      }

      .cls-7 {
        fill: #541b85;
      }

      .cls-8 {
        fill: #004097;
      }

      .cls-9 {
        fill: #00aeeb;
      }
    </style>
  </defs>
  <g id="_圖層_1-2" data-name="圖層 1">
    <g>
      <g>
        <path class="cls-4" d="M1.21,70.25c.12,.61,.29,1.03,.7,1.72,.32-.74,.46-1.27,.66-2.59h-.91c-.29,0-.72,.01-1.01,.02l.26-.37c.74-1.11,1.08-1.71,1.53-2.66H1.08c-.33,0-.5,.01-.75,.05v-.6c.23,.04,.41,.05,.75,.05h1c.4,0,.63-.01,.8-.04l.26,.35c-.07,.11-.14,.25-.27,.53-.28,.58-.9,1.61-1.33,2.19h.76c.48,0,.68-.01,.88-.04-.03,.14-.04,.18-.08,.45-.2,1.37-.43,2.23-.87,3.15,.92,1.24,2.12,1.69,4.37,1.69,1.11,0,2.43-.05,3.42-.15-.13,.26-.17,.38-.22,.63-.84,.02-2.16,.04-2.98,.04-2.57,0-3.77-.42-4.85-1.74-.41,.72-.81,1.23-1.54,1.98-.15-.18-.27-.3-.45-.41,.81-.74,1.22-1.24,1.64-2.02-.24-.36-.4-.65-.53-.93q-.38-.91-.48-1.11l.58-.2Zm4.81-3.74h-1.41c-.33,0-.54,.01-.79,.04v-.54c.23,.04,.42,.05,.8,.05h1.4c0-.39-.02-.61-.05-.86h.63c-.03,.23-.05,.45-.05,.86h1.75c.37,0,.59-.01,.79-.03q-.01,.05-.02,.18c0,.13-.01,.34-.01,.5v.76h.07c.36,0,.58-.02,.84-.07v.55c-.24-.03-.47-.04-.84-.04h-.07v.9c0,.25,.01,.52,.03,.62-.32-.02-.5-.02-.79-.02h-1.75v1.03h1.75c.38,0,.67-.01,.98-.05v.54c-.28-.03-.56-.04-.99-.04h-1.74v1.04h2.27c.46,0,.73-.02,1.02-.07v.57c-.26-.03-.56-.04-1.02-.04h-2.27v.36c0,.48,.01,.74,.05,1.02h-.63c.04-.29,.05-.58,.05-1.01v-.37h-1.78c-.39,0-.67,.02-.97,.07v-.59c.26,.04,.55,.07,.98,.07h1.77v-1.04h-1.49c-.36,0-.63,.02-.9,.07v-.57c.27,.04,.54,.05,.9,.05h1.49v-1.03h-1.44c-.32,0-.53,.01-.77,.04v-.54c.22,.04,.43,.05,.79,.05h1.42v-1.05h-1.85c-.43,0-.74,.02-1.02,.07v-.59c.28,.05,.54,.08,1.02,.08h1.85v-.97Zm2.51,.97v-.97h-1.99v.97h1.99Zm-1.99,1.5h1.99v-1.05h-1.99v1.05Z"/>
        <path class="cls-4" d="M19.73,71.85c.61,0,.91-.02,1.22-.07v.59c-.37-.04-.72-.07-1.22-.07h-3.11c1.3,1.02,2.63,1.62,4.5,2.02-.2,.22-.27,.33-.38,.55-1.92-.55-3.14-1.18-4.47-2.3,.02,.41,.04,.65,.04,.86v.57c0,.56,.01,.87,.07,1.13h-.66c.04-.29,.07-.59,.07-1.13v-.58c0-.24,.01-.52,.03-.87-1.23,1.03-2.49,1.68-4.35,2.27-.11-.23-.21-.38-.38-.53,.97-.23,1.69-.48,2.59-.9,.67-.3,1.12-.59,1.79-1.09h-2.84c-.48,0-.83,.02-1.18,.07v-.59c.29,.04,.59,.07,1.18,.07h3.15v-.22c0-.21-.01-.36-.04-.56h.62c-.03,.15-.04,.29-.04,.42v.12c-.01,.1-.01,.15-.01,.18,0,0,0,.02,.01,.05h3.41Zm-6.87-5.14c-.38,.54-.68,.89-1.13,1.31-.14-.16-.25-.25-.45-.36,.46-.38,.79-.73,1.1-1.15,.34-.47,.58-.92,.71-1.34l.58,.21c-.17,.33-.26,.48-.49,.86h1.79c.51,0,.8-.02,1.09-.06v.58c-.29-.03-.62-.04-1.05-.04h-.74c.22,.33,.36,.56,.61,1.02l-.48,.21c-.25-.54-.39-.81-.65-1.23h-.88Zm-.23,1.98c-.43,0-.64,.01-.9,.05v-.56c.26,.04,.45,.05,.9,.05h1.87c.46,0,.64-.01,.9-.05v.56c-.27-.04-.48-.05-.89-.05h-.66v1.42c.6-.17,.87-.25,1.59-.49l.05,.45c-1.2,.4-1.91,.61-3.26,.95-.29,.08-.38,.1-.62,.17l-.2-.56c.47-.03,.73-.09,1.9-.38v-1.55h-.68Zm6.74,1.69c0,.17,.04,.2,.46,.2,.45,0,.55-.03,.61-.15,.05-.15,.09-.66,.09-1.23,.2,.14,.3,.2,.5,.26-.03,.65-.1,1.11-.21,1.3-.14,.23-.36,.29-1.05,.29-.76,0-.91-.1-.91-.59v-1.92h-2.22c-.01,.85-.09,1.24-.28,1.65-.23,.46-.58,.79-1.23,1.16-.13-.18-.21-.27-.4-.4,1.09-.51,1.41-1.01,1.41-2.26,0-.27-.01-.43-.04-.65,.23,.03,.48,.04,.9,.04h1.49c.39,0,.7-.01,.93-.04-.03,.33-.04,.61-.04,1.06v1.27Zm-2.46-3.67c-.27,.43-.46,.68-.8,1.08-.14-.13-.23-.2-.45-.3,.7-.68,1.11-1.39,1.4-2.33l.53,.2c-.17,.4-.26,.59-.42,.89h2.63c.51,0,.83-.02,1.15-.06v.59c-.35-.03-.7-.05-1.14-.05h-1.33c.24,.34,.41,.59,.59,.89l-.45,.27c-.21-.41-.37-.7-.67-1.16h-1.04Zm.34,2.23c.47,.52,.71,.82,1.06,1.36l-.4,.34c-.34-.6-.6-.95-1.03-1.42l.37-.27Z"/>
        <path class="cls-4" d="M24.01,70.21c0-.53,.01-.88,.04-1.38-.41,.72-.7,1.06-1.5,1.85-.18-.26-.22-.28-.42-.45,.65-.58,1.05-1.02,1.44-1.6,.85-1.24,1.42-2.47,1.55-3.31l.65,.23c-.08,.17-.27,.62-.43,1.02-.18,.43-.49,1.03-.76,1.5v5.75c0,.5,.02,.89,.07,1.28h-.72c.05-.36,.08-.72,.08-1.31v-3.57Zm4.43-1.3c.27,1.74,.74,3.06,1.47,4.15,.49,.73,1.09,1.28,1.37,1.28,.14,0,.22-.09,.3-.35,.11-.31,.2-.77,.27-1.43,.22,.2,.37,.32,.54,.4-.26,1.5-.53,2.02-1.08,2.02-.72,0-1.83-1.22-2.55-2.79-.4-.86-.72-1.99-.9-3.22l-1.55,.16c-.46,.05-.79,.1-1.08,.16l-.04-.65h.12s.07,.01,.08,.01c.18,0,.59-.03,.89-.07l1.52-.16c-.09-.72-.13-1.29-.15-2.01-.01-.43-.03-.7-.08-.88h.71c-.03,.17-.04,.38-.04,.68,0,.65,.03,1.3,.14,2.14l2.63-.28c.62-.06,.79-.1,1.06-.17l.07,.66c-.07-.01-.11-.01-.14-.01-.18,0-.59,.03-.93,.07l-2.62,.28Zm1.05-3.36c.72,.57,1.12,.92,1.76,1.59l-.41,.4c-.48-.59-.97-1.05-1.72-1.64l.37-.35Z"/>
        <path class="cls-4" d="M36.19,65.46c.32,.75,.67,1.24,1.39,1.9-.16,.18-.17,.21-.33,.46-.63-.66-1-1.17-1.36-1.93-.58,1.15-1.02,1.75-1.99,2.74-.09-.16-.15-.24-.35-.41,.6-.54,.84-.8,1.23-1.35,.38-.53,.53-.81,.77-1.4h.63Zm-.7,4.82h-.79c-.41,0-.62,.01-.89,.07v-.59c.26,.05,.47,.07,.89,.07h.79v-1.29h-.38c-.25,0-.42,.01-.62,.04v-.53c.2,.03,.33,.04,.62,.04h1.34c.29,0,.47-.01,.63-.04v.53c-.18-.03-.37-.04-.64-.04h-.43v1.29h.56c.45,0,.66-.01,.88-.07v.56c-.26-.03-.5-.04-.88-.04h-.56v3.55c.59-.17,.88-.26,1.65-.53v.51c-1.26,.44-1.93,.63-3.11,.92-.3,.07-.4,.1-.63,.16l-.13-.6c.36-.02,.89-.12,1.71-.33v-3.69Zm-1.01,3.16c-.13-.92-.25-1.41-.54-2.31l.47-.13c.29,.9,.38,1.26,.56,2.3l-.49,.14Zm2.01-.54c.24-.68,.33-1.06,.48-1.93l.47,.14c-.17,.88-.27,1.21-.52,1.92l-.42-.13Zm2.82-6.69c-.45,1.1-.77,1.64-1.48,2.43-.17-.16-.26-.23-.46-.32,.42-.42,.59-.63,.86-1.05,.26-.43,.39-.7,.61-1.27l.47,.21Zm.79,.04c0-.35-.02-.59-.07-.9h.66c-.04,.29-.07,.54-.07,.9v2.22h1.16c.39,0,.74-.02,.98-.05-.03,.27-.04,.53-.04,.92v5c0,.52-.2,.67-.87,.67-.34,0-.77-.02-1.3-.08-.02-.2-.05-.33-.13-.58,.58,.1,1,.14,1.36,.14,.34,0,.41-.04,.41-.24v-1.62h-3.54v1.29c0,.51,.02,.93,.07,1.21h-.64c.03-.27,.05-.72,.05-1.2v-4.6c0-.51,0-.63-.03-.92,.22,.03,.53,.04,.98,.04h1.02v-2.22Zm2.1,2.69h-3.54v1.35h3.54v-1.35Zm-3.54,3.21h3.54v-1.37h-3.54v1.37Zm3.24-6.26c.52,1.09,.93,1.68,1.73,2.43-.15,.09-.29,.2-.45,.36-.83-.89-1.23-1.48-1.73-2.58l.45-.22Z"/>
        <path class="cls-4" d="M47.33,68.23h-.95v-.95h.95v.95Zm-.95,4.81v-.95h.95v.95h-.95Z"/>
        <path class="cls-4" d="M52.54,66.63c-.62,.15-.87,.22-1.67,.38-.05-.2-.13-.33-.28-.51,1.28-.17,2.32-.43,3.3-.84,.3-.12,.5-.22,.65-.34l.41,.47c-.1,.03-.12,.04-.23,.1-.46,.2-1.11,.42-1.63,.59v1.73h.87c.46,0,.7-.01,.95-.05v.6c-.26-.04-.51-.05-.93-.05h-.86c.15,.37,.23,.53,.46,.88,.4,.63,.72,1.01,1.3,1.53-.15,.13-.24,.24-.37,.45-.7-.74-1.08-1.31-1.47-2.25,.03,.68,.05,1.45,.05,1.97v2.43c0,.67,.02,1.01,.07,1.31h-.7c.05-.31,.07-.63,.07-1.31v-2.38c0-.49,.02-1.22,.05-1.92-.39,1.4-.99,2.49-1.96,3.54-.12-.18-.24-.33-.39-.46,1.08-1.09,1.73-2.23,2.19-3.79h-.85c-.42,0-.72,.02-1.04,.06v-.62c.3,.04,.59,.07,1.05,.07h.95v-1.58Zm3.43,8.02h-.6c.04-.32,.05-.66,.05-1.26v-5.92c0-.5-.01-.8-.05-1.14,.32,.04,.54,.05,1.01,.05h2.3c.47,0,.73-.01,1.01-.05-.04,.3-.05,.62-.05,1.14v5.86c0,.56,.02,1.02,.07,1.33h-.63v-.78h-3.11v.78Zm.01-1.3h3.1v-6.44h-3.1v6.44Z"/>
        <path class="cls-4" d="M64.95,74.04c0,.42,.02,.8,.05,1.06h-.66c.04-.27,.07-.66,.07-1.11v-3.54c-.41,.49-.7,.78-1.31,1.34-.11-.22-.16-.31-.29-.47,.76-.6,1.35-1.23,1.92-2.06,.39-.56,.61-.96,.87-1.59h-1.72c-.3,0-.59,.02-.81,.05v-.6c.24,.03,.51,.05,.84,.05h.5v-1.04c0-.39-.01-.7-.04-.9h.64c-.03,.2-.04,.48-.04,.89v1.05h.25c.38,0,.59-.01,.76-.03l.29,.33c-.07,.12-.09,.17-.2,.39-.3,.66-.6,1.15-1.11,1.87v.13c.2,.24,.25,.3,.43,.48,.4-.45,.62-.76,.91-1.3l.43,.31c-.38,.53-.67,.9-1.04,1.27,.27,.23,.38,.3,.72,.53-.14,.16-.2,.24-.3,.42-.56-.46-.88-.76-1.15-1.12v3.57Zm2.49-2.4c0-.22-.01-.42-.02-.65-.17,.14-.28,.23-.65,.52-.11-.21-.18-.3-.36-.42,1.34-.93,2.16-1.97,2.86-3.57h.53c.66,1.41,1.67,2.52,3.14,3.43-.16,.16-.25,.3-.35,.51-.41-.29-.54-.39-.86-.65-.01,.24-.02,.46-.02,.81v2.39c0,.38,.01,.67,.05,.98h-.6v-.66h-3.18v.64h-.6c.03-.27,.05-.59,.05-.97v-2.36Zm1.54-5.91c-.65,1.22-1.14,1.85-2.03,2.63-.23-.23-.24-.24-.45-.38,.93-.76,1.38-1.31,1.96-2.51l.52,.26Zm1.99,5.04c.43,0,.55,0,.71-.01-.53-.47-.77-.72-1.13-1.15-.46-.58-.72-.97-1.01-1.56-.48,1.1-1.11,2-1.87,2.73h3.3Zm-3,3.06h3.19v-2.59h-3.19v2.59Zm2.61-8.41c.37,.63,.56,.9,.96,1.33,.39,.42,.64,.64,1.21,1.04-.17,.17-.24,.25-.37,.48-1.08-.88-1.55-1.43-2.24-2.6l.45-.25Z"/>
        <path class="cls-4" d="M80.48,65.93c0-.27-.02-.51-.07-.72h.67c-.04,.23-.07,.45-.07,.73v.09h2.93c.48,0,.86-.02,1.15-.07v.59c-.34-.04-.64-.05-1.15-.05h-7v1.55c-.02,1.9-.09,3.38-.22,4.35-.15,1.09-.35,1.71-.84,2.64-.16-.18-.25-.26-.46-.38,.79-1.39,.97-2.66,.97-6.91,0-1.08-.01-1.4-.04-1.77,.34,.03,.67,.05,1.09,.05h3.02v-.1Zm-.48,8.23c-1.03,.49-1.65,.68-2.81,.89-.08-.17-.16-.28-.35-.46,.6-.08,.87-.13,1.43-.28,.59-.16,.83-.26,1.28-.51l.45,.36Zm3.34-3.51c.46,0,.66-.01,.93-.04-.03,.18-.04,.4-.04,.78v1.46c0,.35,.01,.58,.04,.74-.29-.03-.49-.04-.97-.04h-4.17c-.46,0-.71,.01-.98,.04,.03-.3,.03-.42,.03-.77v-1.43c0-.27-.01-.49-.03-.77,.27,.03,.51,.04,.97,.04h1.77v-.71h-2.49c-.5,0-.76,.01-1.05,.05v-.55c.33,.04,.55,.05,1.05,.05h5.79c.48,0,.79-.02,1.08-.07v.58c-.32-.04-.6-.07-1.05-.07h-2.84v.71h1.96Zm-4.94-2.78c-.43,0-.68,.01-.95,.05v-.54c.24,.04,.49,.05,.96,.05h.97v-.02c0-.29-.01-.42-.04-.6h.61c-.03,.16-.04,.32-.04,.6v.02h2.66v-.02c0-.27-.01-.42-.04-.6h.61c-.03,.16-.04,.3-.04,.62h1.08c.45,0,.7-.01,.95-.05v.54c-.27-.04-.51-.05-.93-.05h-1.09v.58c0,.21,.01,.35,.03,.55-.23-.02-.5-.03-.84-.03h-2.14c-.3,0-.54,.01-.79,.03,.02-.21,.03-.37,.03-.58v-.55h-.98Zm.3,3.21v.8h2.19v-.8h-2.19Zm0,1.22v.83h2.19v-.83h-2.19Zm1.2-3.74h2.66v-.68h-2.66v.68Zm1.49,3.32h2.34v-.8h-2.34v.8Zm0,1.24h2.34v-.83h-2.34v.83Zm1.34,.7c.85,.46,1.51,.65,2.64,.78-.18,.22-.23,.27-.35,.49-1.06-.21-1.68-.42-2.72-.95l.42-.33Z"/>
        <path class="cls-4" d="M90.44,67.41c-.45,.65-.73,.97-1.35,1.51-.11-.13-.23-.23-.48-.37,.9-.7,1.38-1.29,1.83-2.25,.15-.34,.27-.67,.32-.88l.61,.24c-.11,.18-.12,.22-.26,.53-.14,.3-.22,.47-.36,.73h2.18v-.61c0-.51-.01-.72-.07-1.01h.71c-.05,.29-.08,.55-.08,1.03v.59h2.34c.5,0,.78-.02,1.09-.07v.62c-.29-.04-.61-.07-1.08-.07h-2.35v2.02h3.27c.47,0,.78-.02,1.08-.07v.64c-.3-.04-.63-.07-1.08-.07h-7.28c-.41,0-.72,.02-1.08,.07v-.64c.34,.04,.63,.07,1.08,.07h3.44v-2.02h-2.49Zm-.68,7.62c.04-.29,.07-.62,.07-1.06v-1.96c0-.4-.01-.63-.04-.89,.34,.03,.62,.04,1.06,.04h4.54c.45,0,.73-.01,1.06-.04-.03,.26-.04,.49-.04,.89v1.96c0,.47,.02,.77,.07,1.06h-.63v-.54h-5.45v.54h-.63Zm.63-1.04h5.45v-2.34h-5.45v2.34Z"/>
        <path class="cls-4" d="M106.01,65.4c.5,.83,1.05,1.43,1.96,2.16,.92,.75,1.78,1.27,2.82,1.74-.21,.23-.26,.3-.39,.55-1.01-.51-2.09-1.22-2.9-1.92-.75-.64-1.23-1.17-1.76-1.96-1.2,1.74-2.53,2.91-4.53,3.99-.12-.22-.2-.3-.41-.51,1.03-.49,2.03-1.16,2.9-1.97,.77-.7,1.26-1.29,1.72-2.09h.6Zm3.31,8.7c.54,0,.85-.02,1.2-.08v.68c-.33-.05-.67-.08-1.2-.08h-7.19c-.53,0-.88,.02-1.21,.08v-.68c.33,.05,.65,.08,1.2,.08h.85v-2.83c0-.5-.02-.84-.08-1.17h.73c-.05,.35-.08,.65-.08,1.17v2.83h2.13v-4.75c0-.5-.02-.84-.08-1.17h.74c-.05,.35-.08,.64-.08,1.17v1.28h1.94c.52,0,.83-.02,1.09-.07v.66c-.27-.04-.58-.07-1.09-.07h-1.94v2.93h3.06Z"/>
        <path class="cls-4" d="M116.31,66.33h-1.34c-.4,0-.66,.01-.91,.05v-.54c.24,.05,.48,.07,.93,.07h1.31c-.01-.39-.02-.52-.07-.75h.62c-.04,.23-.05,.36-.07,.75h1.16c.54,0,.84-.01,1.1-.04-.03,.23-.03,.39-.03,.88v.22c.47,0,.62-.01,.86-.05v.54c-.25-.04-.38-.05-.86-.05v.2c0,.49,0,.66,.03,.9-.28-.03-.59-.04-1.09-.04h-1.17v.58h1.48c.48,0,.7-.01,.97-.05v.53c-.28-.04-.53-.05-.97-.05h-1.48v.62h1.74c.54,0,.8-.01,1.03-.06v.56c-.28-.04-.58-.07-1.03-.07h-4.17c-.42,0-.72,.02-.99,.07v-.56c.22,.04,.48,.06,.97,.06h1.97v-.62h-1.34c-.43,0-.67,.01-.97,.05v-.53c.28,.04,.51,.05,.97,.05h1.34v-.58h-1.33c-.43,0-.68,.01-.95,.05v-.52c.25,.04,.48,.05,.93,.05h1.34v-.64h-1.87c-.4,0-.71,.02-.98,.06v-.56c.23,.04,.49,.07,.99,.07h1.86v-.63Zm3.43,8.07c-1.31,.16-3.77,.38-5.23,.48-.66,.04-.68,.05-1,.11l-.12-.61h.27c.33,0,1.78-.09,3.01-.17,1.43-.1,1.93-.14,3.09-.28l-.02,.48Zm-.66-1.64c0,.53,0,.66,.02,.86-.3-.02-.46-.02-1.12-.02h-2.78c-.51,0-.9,.01-1.17,.03,.02-.17,.03-.39,.03-.87v-.9c0-.47-.01-.68-.03-.86,.27,.02,.66,.03,1.17,.03h2.78c.53,0,.84-.01,1.13-.03-.02,.26-.03,.46-.03,.87v.89Zm-4.52-.68h1.76v-.64h-1.76v.64Zm0,1.12h1.76v-.71h-1.76v.71Zm2.23-1.12h1.8v-.64h-1.8v.64Zm0,1.12h1.8v-.71h-1.8v.71Zm1.76-6.24v-.63h-1.75v.63h1.75Zm-1.75,1.08h1.75v-.64h-1.75v.64Zm4.04-2.12c-.05,.27-.07,.58-.07,1.19v4.23c0,.73,.01,.97,.05,1.24h-.65c.04-.3,.05-.53,.05-1.24v-4.23c0-.58-.02-.88-.07-1.19h.67Zm2-.54c-.05,.29-.08,.71-.08,1.31v7.24c0,.72-.22,.89-1.11,.89-.37,0-.71-.02-1.22-.07-.04-.23-.08-.35-.16-.58,.58,.09,1.04,.13,1.43,.13s.5-.08,.5-.34v-7.3c0-.66-.02-.98-.08-1.29h.71Z"/>
        <path class="cls-4" d="M128.36,69.47c-.67,.78-1.22,1.28-2.08,1.92-.13-.21-.25-.33-.42-.46,.88-.55,1.5-1.1,2.22-1.93,.53-.6,.86-1.09,1.22-1.8h-1.98c-.48,0-.83,.02-1.18,.07v-.65c.35,.04,.68,.06,1.18,.06h2.23c.23-.54,.36-1,.41-1.46l.68,.12q-.07,.13-.22,.59c-.1,.28-.16,.46-.29,.75h4.42c.48,0,.81-.02,1.16-.06v.65c-.33-.04-.72-.07-1.16-.07h-4.67c-.25,.51-.47,.88-.78,1.34h3.99c.53,0,.85-.01,1.16-.05-.03,.33-.04,.68-.04,1.27v4.31c0,.32-.09,.52-.26,.65-.15,.1-.33,.13-.76,.13-.35,0-.81-.01-1.3-.04-.02-.25-.05-.36-.13-.58,.52,.07,.95,.1,1.4,.1,.41,0,.5-.05,.5-.34v-1.44h-4.73v1.22c0,.55,.01,.88,.05,1.22h-.68c.04-.39,.07-.75,.07-1.22v-4.29Zm5.29-.43h-4.73v1.25h4.73v-1.25Zm-4.73,1.74v1.28h4.73v-1.28h-4.73Z"/>
        <path class="cls-4" d="M139.21,66.39c0-.28-.01-.52-.03-.77,.14,.02,.4,.03,.72,.03h1.58c.35,0,.53-.01,.66-.04l.33,.36c-.05,.09-.1,.17-.16,.35-.4,.96-.71,1.59-1.23,2.53,.58,.65,.79,.98,.98,1.46,.13,.36,.21,.75,.21,1.15,0,.52-.14,.84-.42,.99-.17,.09-.48,.13-.88,.13-.17,0-.3-.01-.59-.02-.02-.24-.05-.37-.14-.56,.3,.05,.55,.08,.84,.08,.48,0,.64-.14,.64-.59,0-.4-.09-.82-.24-1.18-.2-.47-.42-.77-1-1.37,.61-1.12,.89-1.73,1.3-2.78h-2v7.95c0,.37,.01,.65,.05,.96h-.67c.04-.28,.07-.57,.07-.96v-7.7Zm4.2,3.82v3.8c.86-.23,1.21-.33,2.06-.62l.03,.52c-1.21,.38-1.9,.58-3.45,.95-.26,.06-.35,.1-.49,.15l-.16-.59c.34-.03,.49-.07,1.47-.28v-7.26c0-.39-.01-.78-.04-1.13,.29,.03,.6,.04,1.08,.04h2.74c.54,0,.84-.01,1.05-.05-.02,.29-.03,.51-.03,1.2v2.18c0,.66,.01,.86,.03,1.12-.36-.02-.66-.03-1.09-.03h-1.5c.22,.86,.35,1.18,.71,1.8,.87-.57,1.73-1.25,1.99-1.61l.43,.43c-.07,.04-.08,.05-.15,.12-.46,.38-1.02,.78-2.01,1.46,.65,.89,1.37,1.48,2.57,2.06-.18,.17-.26,.26-.41,.49-1.2-.71-1.91-1.33-2.55-2.23-.52-.74-.79-1.37-1.1-2.53h-1.17Zm0-2.47h3.73v-1.46h-3.73v1.46Zm0,1.99h3.73v-1.51h-3.73v1.51Z"/>
        <path class="cls-4" d="M155.23,65.9c-.11,.15-.15,.23-.3,.55-.43,.89-1.14,1.89-1.85,2.63-.49,.52-.93,.91-1.59,1.4-.14-.21-.26-.33-.45-.47,1.28-.86,2.19-1.79,2.89-2.97,.36-.6,.54-1.03,.6-1.39l.7,.24Zm4.49,9.04c-.29-.57-.41-.78-.65-1.18-1.89,.28-4.01,.5-6,.61-.76,.04-.89,.05-1.24,.12l-.16-.71c.26,.01,.53,.02,.7,.02,.21,0,.34,0,.75-.01,.66-1.14,1.15-2.13,1.69-3.5,.37-.91,.54-1.42,.63-1.86l.68,.21c-.09,.18-.1,.2-.22,.51-.6,1.54-1.48,3.46-2.14,4.61,2.24-.12,3.14-.2,5.02-.46-.47-.76-.92-1.38-1.69-2.31l.48-.3c1.09,1.35,1.96,2.61,2.67,3.91l-.52,.35Zm-2.19-9.3c.17,.6,.64,1.41,1.23,2.17,.64,.81,1.36,1.46,2.44,2.17-.21,.19-.3,.3-.43,.53-1.71-1.29-2.68-2.42-3.6-4.16-.14-.26-.18-.34-.25-.46l.61-.26Z"/>
        <path class="cls-4" d="M172.35,74.08c0,.67-.24,.86-1.1,.86-.47,0-1.03-.04-1.58-.11-.02-.27-.03-.38-.1-.63,.68,.14,1.2,.2,1.79,.2,.32,0,.41-.08,.41-.33v-7.76h-6.89c-.55,0-.85,.02-1.18,.08v-.66c.33,.05,.62,.08,1.18,.08h6.46c.45,0,.73-.01,1.03-.04-.03,.29-.04,.52-.04,.95v7.38Zm-8.04-6.49c.33,.04,.6,.07,1.01,.07h4.07c.41,0,.7-.02,1.02-.07v.64c-.34-.04-.62-.06-1-.06h-4.1c-.39,0-.67,.02-1.01,.06v-.64Zm5.23,4.38c0,.32,.01,.55,.03,.82-.25-.02-.4-.03-.9-.03h-3.12v1.07h-.61c.04-.29,.05-.58,.05-1.02v-2.43c0-.4-.01-.65-.04-.9,.26,.02,.52,.03,.91,.03h2.9c.45,0,.59-.01,.8-.03-.02,.27-.03,.5-.03,.82v1.69Zm-3.98,.29h3.42v-2.28h-3.42v2.28Z"/>
        <path class="cls-4" d="M.14,86.3c.15,.01,.27,.02,.43,.02h.34c.42-.57,.48-.64,.81-1.13-.64-.86-1.01-1.28-1.53-1.81l.32-.39c.23,.25,.26,.28,.43,.49,.56-.81,.92-1.49,1.06-1.96l.53,.26q-.07,.1-.38,.64c-.36,.61-.57,.93-.91,1.4,.25,.3,.48,.6,.75,.96,.62-.96,.99-1.64,1.12-2.04l.52,.28q-.03,.05-.11,.17s-.03,.07-.09,.14c-.01,.03-.04,.09-.71,1.15-.52,.85-.61,.97-1.28,1.81,.88-.05,1.39-.1,1.86-.16-.15-.37-.24-.58-.51-1.08l.42-.16c.45,.88,.63,1.34,.88,2.12l-.48,.17c-.08-.32-.1-.4-.17-.65q-.51,.08-.97,.13v3.62c0,.47,.02,.8,.07,1.11h-.65c.04-.35,.07-.66,.07-1.11v-3.56q-.4,.04-1.36,.11c-.14,.01-.24,.03-.37,.06l-.1-.6Zm1.17,1.31c-.14,1.53-.26,2.14-.56,3l-.51-.22c.34-.85,.48-1.55,.58-2.89l.5,.11Zm2.09-.2c.29,.96,.41,1.47,.55,2.38l-.49,.17c-.11-.96-.21-1.41-.5-2.41l.43-.14Zm1.67,.79c-.45,0-.66,.01-.95,.05v-.6c.26,.04,.51,.05,.93,.05h3.61c.43,0,.63-.01,.91-.05v.6c-.28-.04-.49-.05-.91-.05h-1.66v2.35h2.03c.43,0,.65-.01,.91-.05v.6c-.28-.04-.5-.05-.91-.05H4.66c-.45,0-.65,.01-.95,.05v-.6c.28,.04,.49,.05,.93,.05h1.81v-2.35h-1.39Zm.54-5.02c-.08,.13-.1,.17-.29,.59-.25,.52-.51,.97-.78,1.38,.48,.66,.75,1.12,1.17,1.96l-.47,.34c-.46-1.05-.77-1.61-1.33-2.3,.47-.58,.76-1.12,1.04-1.87,.05-.15,.08-.24,.11-.36l.54,.27Zm4.12-.54c-.28-.04-.5-.05-.92-.05h-3.84c-.41,0-.66,.01-.93,.05v-.6c.27,.04,.49,.05,.93,.05h3.84c.43,0,.64-.01,.92-.05v.6Zm-2.27,.54c-.07,.13-.08,.13-.28,.56-.33,.66-.45,.88-.79,1.4,.48,.66,.73,1.09,1.18,1.98l-.49,.32c-.46-1.08-.77-1.64-1.27-2.3,.49-.65,.91-1.5,1.11-2.23l.54,.27Zm1.92,.01c-.05,.09-.09,.14-.37,.67-.24,.46-.47,.83-.76,1.26,.49,.6,.85,1.12,1.3,1.91l-.46,.35c-.51-1.04-.86-1.58-1.46-2.26,.39-.48,.72-1.04,1.01-1.72,.1-.22,.15-.35,.2-.5l.53,.28Z"/>
        <path class="cls-4" d="M11.37,86.3c.24,.02,.35,.02,.52,.02,.09,0,.12,0,.39-.01,.34-.39,.43-.51,.85-1.06-.58-.67-.88-.98-1.67-1.65l.32-.42c.27,.24,.36,.33,.54,.5,.66-1.02,1.04-1.71,1.16-2.14l.58,.27c-.11,.14-.15,.23-.48,.79-.23,.4-.56,.91-.92,1.4,.33,.33,.49,.52,.77,.85,.67-.91,1.09-1.58,1.25-1.99l.54,.33c-.1,.12-.16,.21-.29,.41-.76,1.12-1.38,1.93-2.04,2.71,.76-.01,1.37-.07,2-.15-.15-.35-.23-.49-.47-.89l.42-.17c.4,.71,.67,1.29,.97,2.09l-.46,.2c-.13-.39-.17-.52-.28-.79-.18,.02-.39,.04-.61,.07q-.39,.04-.62,.06v3.54c0,.46,.02,.8,.07,1.11h-.66c.04-.32,.07-.67,.07-1.11v-3.49c-.38,.03-.76,.05-1.22,.09-.32,.01-.4,.02-.62,.05l-.1-.6Zm1.25,1.26c-.23,1.66-.37,2.27-.73,3.17l-.52-.24c.39-.8,.55-1.49,.74-3.04l.51,.11Zm2.23-.12c.36,.9,.56,1.54,.8,2.66l-.5,.19c-.25-1.34-.37-1.75-.76-2.7l.46-.15Zm1.98,2.73c0,.2,.05,.28,.22,.33,.21,.05,.71,.08,1.62,.08,.61,0,1.03-.04,1.25-.12,.25-.09,.35-.26,.43-.75,.07-.33,.1-.66,.13-1.14,.21,.15,.36,.23,.59,.31-.14,1.24-.3,1.76-.64,1.99-.27,.2-.8,.25-2.28,.25-.89,0-1.36-.05-1.62-.2-.18-.1-.26-.29-.26-.66v-3.74c0-.51-.01-.75-.05-1.03,.34,.03,.61,.04,1.04,.04h2.59v-2.8h-3.03c-.4,0-.72,.02-.98,.05v-.63c.29,.04,.61,.07,.98,.07h2.61c.43,0,.73-.01,1.02-.04-.03,.26-.03,.45-.03,1.05v1.85c0,.43,.01,.7,.04,1-.3-.03-.61-.04-1.05-.04h-2.56v4.14Z"/>
        <path class="cls-4" d="M22.55,83.54c.25,.04,.46,.05,.87,.05h1.88c.45,0,.63-.01,.87-.05v.6c-.24-.03-.4-.04-.78-.04h-1.97c-.38,0-.6,.01-.87,.04v-.6Zm.93,7.83h-.59c.03-.3,.05-.7,.05-1.04v-1.42c0-.36-.01-.6-.04-.9,.18,.03,.33,.04,.68,.04h1.5c.37,0,.53-.01,.66-.03-.02,.19-.03,.35-.03,.87v1.26c0,.36,.02,.74,.05,1.04h-.56v-.45h-1.73v.63Zm-.55-6.31c.23,.03,.38,.04,.75,.04h1.31c.37,0,.52-.01,.74-.04v.57c-.25-.03-.4-.04-.74-.04h-1.31c-.35,0-.52,.01-.75,.04v-.57Zm0,1.49c.21,.03,.38,.04,.75,.04h1.31c.37,0,.54-.01,.74-.04v.57c-.23-.03-.41-.04-.74-.04h-1.31c-.35,0-.52,.01-.75,.04v-.57Zm.01-4.5c.24,.04,.4,.05,.76,.05h1.33c.35,0,.52-.01,.76-.05v.59c-.26-.03-.46-.04-.76-.04h-1.33c-.3,0-.52,.01-.76,.04v-.59Zm.53,8.21h1.75v-1.74h-1.75v1.74Zm7.82-7.96c-.41,.5-.7,.78-1.17,1.21,.18,.25,.34,.43,.59,.7,.53-.49,.8-.78,1.02-1.13l.46,.34c-.48,.5-.73,.74-1.15,1.1,.52,.47,.87,.72,1.5,1.06-.16,.17-.23,.26-.34,.48-.71-.45-1.16-.82-1.68-1.36-.68-.71-1.09-1.3-1.52-2.23-.34,.85-.73,1.47-1.39,2.19-.43,.49-.88,.88-1.41,1.29-.1-.17-.18-.27-.35-.43,.59-.37,1.04-.77,1.54-1.34-.28-.39-.59-.71-1.03-1.11l.39-.28c.41,.41,.67,.7,.93,1.03,.4-.5,.6-.84,.86-1.43h-1.12c-.28,0-.51,.01-.71,.04v-.53c.23,.03,.41,.04,.75,.04h.9c.6,0,.75,0,.95-.03,.03,.32,.18,.62,.58,1.24,.41-.4,.71-.75,.95-1.17l.47,.33Zm-1.8,8.25c.27-.51,.47-1.03,.68-1.77l.53,.21c-.26,.68-.46,1.11-.71,1.56h1.21c.43,0,.78-.02,1.02-.06v.61c-.32-.04-.7-.07-1.04-.07h-4.04c-.41,0-.78,.02-1.03,.07v-.61c.24,.04,.59,.06,1.02,.06h2.36Zm-2.63-3.61c0-.32-.01-.54-.04-.77,.25,.04,.54,.05,1.13,.05h2.22c.58,0,.87-.01,1.12-.05-.03,.24-.04,.43-.04,.79v.78c0,.38,.01,.59,.04,.8-.23-.02-.46-.03-1.12-.03h-2.25c-.64,0-.83,0-1.1,.03,.03-.22,.04-.42,.04-.76v-.85Zm.89,1.81c.29,.54,.43,.91,.61,1.46l-.5,.2c-.14-.54-.27-.88-.59-1.46l.48-.2Zm-.38-.71h3.35v-1.36h-3.35v1.36Zm.25-3.25c.17,.03,.39,.04,.77,.04h1.31c.38,0,.59-.01,.76-.04v.54c-.2-.03-.4-.04-.76-.04h-1.33c-.34,0-.52,.01-.76,.04v-.54Z"/>
        <path class="cls-4" d="M34.61,86.19c-.42,0-.73,.02-1.03,.07v-.6c.29,.04,.59,.07,1.03,.07h1.76c.52,0,.81-.01,1.04-.05v.58c-.27-.04-.52-.05-1.04-.05h-1.05q-.15,.64-.3,1.15h.7c.65,0,.96-.01,1.22-.04-.04,.25-.05,.29-.1,.76-.12,1.22-.35,2.26-.6,2.71-.17,.32-.37,.4-.9,.4-.2,0-.45-.01-.76-.03-.01-.24-.03-.36-.11-.59,.37,.07,.59,.09,.88,.09,.37,0,.5-.13,.65-.71,.15-.53,.26-1.17,.35-2.13h-1.47c-.09,.25-.13,.37-.29,.74l-.56-.05c.36-.66,.55-1.24,.78-2.29h-.18Zm1.47-4.19c.53,0,.79-.01,1.08-.04-.03,.26-.04,.42-.04,.72v1.44c0,.27,.01,.44,.04,.7-.33-.03-.55-.04-1.02-.04h-1.13c-.43,0-.72,.01-1.02,.04,.03-.27,.04-.45,.04-.7v-1.44c0-.27-.01-.45-.04-.72,.31,.03,.59,.04,1.08,.04h1.02Zm-1.55,.46v1.87h2.09v-1.87h-2.09Zm5.4,.04c0-.39-.02-.63-.07-.89h.64c-.04,.25-.07,.43-.07,.84h1.34c.45,0,.78-.02,1.06-.07v.57c-.27-.04-.53-.05-1.04-.05h-1.36v.78h1.68c.43,0,.65-.01,.83-.05l.33,.34q-.1,.14-.16,.29c-.16,.35-.38,.76-.56,1.03-.15-.14-.22-.17-.41-.27,.24-.29,.37-.53,.51-.87h-4.19v.8c0,3.51-.3,5-1.28,6.26-.15-.15-.24-.21-.49-.32,.41-.48,.66-.94,.86-1.64,.27-.9,.4-2.29,.4-4.14,0-.72-.01-1.05-.05-1.49,.3,.04,.55,.05,1.06,.05h.98v-1.17Zm.15,4.92c-.03,.12-.04,.26-.07,.54-.12,1.73-.51,2.5-1.66,3.26-.13-.2-.21-.29-.41-.45,.59-.3,.89-.58,1.13-1.03,.28-.51,.41-1.15,.41-2,0-.16,0-.22-.02-.35l.62,.02Zm.28-1.18c0,.28,.12,.33,.92,.33,.68,0,.95-.03,1.03-.14,.07-.09,.11-.37,.13-.73,.17,.11,.28,.15,.49,.22-.17,1.05-.23,1.09-1.71,1.09-1.16,0-1.36-.1-1.36-.7v-.66h-.21c-.46,.03-.66,.05-.92,.11l-.02-.54c.16,.02,.29,.03,.43,.03,.09,0,.35-.01,.51-.02h.21c0-.49-.01-.64-.05-.9h.6c-.04,.27-.05,.4-.05,.86l.84-.04c.33-.02,.55-.05,.76-.12l.03,.53q-.12-.01-.33-.01c-.08,0-.24,.01-.47,.02l-.84,.05v.63Zm1.25,1.24c-.04,.27-.07,.52-.07,.84v1.96c0,.26,.05,.28,.62,.28,.36,0,.5-.06,.56-.24,.07-.17,.11-.57,.11-.97v-.19c.2,.11,.32,.15,.52,.19-.13,1.58-.22,1.68-1.31,1.68-.85,0-1-.11-1-.72v-2c0-.3-.02-.57-.07-.84h.63Z"/>
        <path class="cls-4" d="M47.33,84.52h-.95v-.95h.95v.95Zm-.95,4.81v-.95h.95v.95h-.95Z"/>
        <path class="cls-4" d="M51.62,82.25c.27,.04,.46,.05,.85,.05h.6c.3,0,.51-.01,.85-.05-.07,.67-.1,1.24-.1,1.81v5.23c0,.5,.02,.78,.09,1.17h-.87c.07-.37,.09-.7,.09-1.17v-6.38h-.61c-.32,0-.59,.02-.89,.07v-.73Z"/>
        <path class="cls-4" d="M58.66,89.88c-.28-.29-.5-.63-.63-.97-.27-.76-.41-1.62-.41-2.51,0-1.15,.25-2.34,.62-2.94,.51-.85,1.31-1.29,2.35-1.29,.77,0,1.43,.25,1.91,.74,.29,.3,.51,.63,.63,.97,.27,.75,.41,1.62,.41,2.52,0,1.31-.27,2.48-.75,3.13-.53,.74-1.26,1.1-2.22,1.1-.78,0-1.42-.25-1.91-.74Zm.52-6.54c-.24,.24-.41,.51-.5,.78-.24,.67-.36,1.44-.36,2.27,0,1.03,.22,2.12,.52,2.63,.39,.65,.98,.98,1.73,.98,.56,0,1.04-.18,1.39-.53,.24-.24,.41-.52,.51-.81,.24-.7,.36-1.43,.36-2.27,0-.99-.22-2.1-.51-2.61-.38-.65-.98-.99-1.75-.99-.58,0-1.04,.18-1.39,.55Z"/>
        <path class="cls-4" d="M65.91,89.88c-.28-.29-.5-.63-.63-.97-.27-.76-.41-1.62-.41-2.51,0-1.15,.25-2.34,.62-2.94,.51-.85,1.31-1.29,2.35-1.29,.77,0,1.43,.25,1.91,.74,.29,.3,.51,.63,.63,.97,.27,.75,.41,1.62,.41,2.52,0,1.31-.27,2.48-.75,3.13-.53,.74-1.26,1.1-2.22,1.1-.78,0-1.42-.25-1.91-.74Zm.52-6.54c-.24,.24-.41,.51-.5,.78-.24,.67-.36,1.44-.36,2.27,0,1.03,.22,2.12,.52,2.63,.39,.65,.98,.98,1.73,.98,.56,0,1.04-.18,1.39-.53,.24-.24,.41-.52,.51-.81,.24-.7,.36-1.43,.36-2.27,0-.99-.22-2.1-.51-2.61-.38-.65-.98-.99-1.75-.99-.58,0-1.04,.18-1.39,.55Z"/>
        <path class="cls-4" d="M76.39,82.66c0-.51-.02-.78-.08-1.11h.73c-.05,.34-.08,.64-.08,1.11v1.01h3.25c.33,0,.52-.01,.76-.04-.04,.27-.05,.5-.05,.84v2.88c0,.34,.02,.63,.07,.93h-.64v-.76h-3.38v2.62c0,.61,.01,.86,.08,1.21h-.73c.05-.36,.08-.62,.08-1.21v-2.62h-3.22v.76h-.64c.04-.31,.07-.63,.07-.93v-2.88c0-.31-.01-.55-.05-.84,.25,.03,.42,.04,.76,.04h3.09v-1.01Zm-3.22,1.53v2.8h3.22v-2.8h-3.22Zm7.17,2.8v-2.8h-3.38v2.8h3.38Z"/>
        <path class="cls-4" d="M87.18,82.54c0-.36-.02-.7-.08-.96h.73c-.05,.28-.08,.59-.08,.95v.71h3.49c.53,0,.88-.02,1.21-.08v.66c-.26-.04-.58-.07-1.2-.07h-7.26c-.55,0-.9,.02-1.18,.07v-.66c.34,.05,.67,.08,1.18,.08h3.18v-.7Zm0,2.39c0-.36-.01-.61-.05-.88h.68c-.03,.22-.05,.49-.05,.88v.41h2.57c.43,0,.7-.01,1.01-.04-.03,.27-.04,.52-.04,.87v3.11c0,.64-.2,.8-.95,.8-.42,0-.72-.01-1.2-.05-.04-.25-.08-.37-.16-.61,.52,.08,.93,.12,1.27,.12,.37,0,.46-.05,.46-.3v-3.38h-2.97v4.39c0,.42,.02,.77,.08,1.14h-.73c.05-.38,.08-.74,.08-1.14v-4.39h-2.71v3.3c0,.5,.02,.83,.07,1.14h-.72c.04-.33,.07-.65,.07-1.14v-2.98c0-.35-.01-.61-.04-.88,.32,.03,.59,.04,1.03,.04h2.3v-.41Z"/>
        <path class="cls-4" d="M93.84,86.3c.15,.01,.27,.02,.43,.02h.34c.42-.57,.48-.64,.81-1.13-.64-.86-1.01-1.28-1.53-1.81l.32-.39c.23,.25,.26,.28,.43,.49,.56-.81,.92-1.49,1.06-1.96l.53,.26q-.07,.1-.38,.64c-.36,.61-.57,.93-.91,1.4,.25,.3,.48,.6,.75,.96,.62-.96,.99-1.64,1.12-2.04l.52,.28q-.03,.05-.11,.17s-.03,.07-.09,.14c-.01,.03-.04,.09-.71,1.15-.52,.85-.61,.97-1.28,1.81,.88-.05,1.39-.1,1.86-.16-.15-.37-.24-.58-.51-1.08l.42-.16c.45,.88,.63,1.34,.88,2.12l-.48,.17c-.08-.32-.1-.4-.17-.65q-.51,.08-.97,.13v3.62c0,.47,.02,.8,.07,1.11h-.65c.04-.35,.07-.66,.07-1.11v-3.56q-.4,.04-1.36,.11c-.14,.01-.24,.03-.37,.06l-.1-.6Zm1.17,1.31c-.14,1.53-.26,2.14-.56,3l-.51-.22c.34-.85,.48-1.55,.58-2.89l.5,.11Zm2.09-.2c.29,.96,.41,1.47,.55,2.38l-.49,.17c-.11-.96-.21-1.41-.5-2.41l.43-.14Zm1.67,.79c-.45,0-.66,.01-.95,.05v-.6c.26,.04,.51,.05,.93,.05h3.61c.43,0,.63-.01,.91-.05v.6c-.28-.04-.49-.05-.91-.05h-1.66v2.35h2.03c.43,0,.65-.01,.91-.05v.6c-.28-.04-.5-.05-.91-.05h-4.38c-.45,0-.65,.01-.95,.05v-.6c.28,.04,.49,.05,.93,.05h1.81v-2.35h-1.39Zm.54-5.02c-.08,.13-.1,.17-.29,.59-.25,.52-.51,.97-.78,1.38,.48,.66,.75,1.12,1.17,1.96l-.47,.34c-.46-1.05-.77-1.61-1.33-2.3,.47-.58,.76-1.12,1.04-1.87,.05-.15,.08-.24,.11-.36l.54,.27Zm4.12-.54c-.28-.04-.5-.05-.92-.05h-3.84c-.41,0-.66,.01-.93,.05v-.6c.27,.04,.49,.05,.93,.05h3.84c.43,0,.64-.01,.92-.05v.6Zm-2.27,.54c-.07,.13-.08,.13-.28,.56-.33,.66-.45,.88-.79,1.4,.48,.66,.73,1.09,1.18,1.98l-.49,.32c-.46-1.08-.77-1.64-1.27-2.3,.49-.65,.91-1.5,1.11-2.23l.54,.27Zm1.92,.01c-.05,.09-.09,.14-.37,.67-.24,.46-.47,.83-.76,1.26,.49,.6,.85,1.12,1.3,1.91l-.46,.35c-.51-1.04-.86-1.58-1.46-2.26,.39-.48,.72-1.04,1.01-1.72,.1-.22,.15-.35,.2-.5l.53,.28Z"/>
        <path class="cls-4" d="M105.07,86.3c.24,.02,.35,.02,.52,.02,.09,0,.12,0,.39-.01,.34-.39,.43-.51,.85-1.06-.58-.67-.88-.98-1.67-1.65l.32-.42c.27,.24,.36,.33,.54,.5,.66-1.02,1.04-1.71,1.16-2.14l.58,.27c-.11,.14-.15,.23-.48,.79-.23,.4-.56,.91-.92,1.4,.33,.33,.49,.52,.77,.85,.67-.91,1.09-1.58,1.25-1.99l.54,.33c-.1,.12-.16,.21-.29,.41-.76,1.12-1.38,1.93-2.04,2.71,.76-.01,1.37-.07,2-.15-.15-.35-.23-.49-.47-.89l.42-.17c.4,.71,.67,1.29,.97,2.09l-.46,.2c-.13-.39-.17-.52-.28-.79-.18,.02-.39,.04-.61,.07q-.39,.04-.62,.06v3.54c0,.46,.02,.8,.07,1.11h-.66c.04-.32,.07-.67,.07-1.11v-3.49c-.38,.03-.76,.05-1.22,.09-.32,.01-.4,.02-.62,.05l-.1-.6Zm1.25,1.26c-.23,1.66-.37,2.27-.73,3.17l-.52-.24c.39-.8,.55-1.49,.74-3.04l.51,.11Zm2.23-.12c.36,.9,.56,1.54,.8,2.66l-.5,.19c-.25-1.34-.37-1.75-.76-2.7l.46-.15Zm1.98,2.73c0,.2,.05,.28,.22,.33,.21,.05,.71,.08,1.62,.08,.61,0,1.03-.04,1.25-.12,.25-.09,.35-.26,.43-.75,.07-.33,.1-.66,.13-1.14,.21,.15,.36,.23,.59,.31-.14,1.24-.3,1.76-.64,1.99-.27,.2-.8,.25-2.28,.25-.89,0-1.36-.05-1.62-.2-.18-.1-.26-.29-.26-.66v-3.74c0-.51-.01-.75-.05-1.03,.34,.03,.61,.04,1.04,.04h2.59v-2.8h-3.03c-.4,0-.72,.02-.98,.05v-.63c.29,.04,.61,.07,.98,.07h2.61c.43,0,.73-.01,1.02-.04-.03,.26-.03,.45-.03,1.05v1.85c0,.43,.01,.7,.04,1-.3-.03-.61-.04-1.05-.04h-2.56v4.14Z"/>
        <path class="cls-4" d="M120.68,87.26c0-.41-.01-.65-.05-.91h.52c.85-.4,1.28-.68,2.02-1.34h-4.36c-.4,0-.72,.02-1.04,.08v-.64c.28,.04,.56,.07,1.04,.07h4.28c.4,0,.61-.01,.79-.04l.32,.38c-.14,.11-.15,.11-.4,.33-.85,.72-1.51,1.15-2.53,1.66v.42h3.32c.47,0,.8-.02,1.1-.07v.64c-.3-.04-.64-.06-1.1-.06h-3.32v2.61c0,.6-.27,.81-1.02,.81-.43,0-.9-.03-1.39-.09-.03-.23-.07-.37-.16-.61,.42,.09,1.1,.16,1.54,.16,.34,0,.45-.08,.45-.32v-2.57h-3.19c-.45,0-.78,.02-1.1,.06v-.64c.29,.04,.64,.07,1.1,.07h3.19Zm-.07-4.8c0-.37-.02-.65-.07-.92h.72c-.04,.29-.07,.55-.07,.91v.35h3.19c.41,0,.76-.01,1.15-.05-.04,.25-.05,.49-.05,.83v.55c0,.26,.02,.5,.05,.75h-.61v-1.56h-7.79v1.56h-.61c.03-.24,.05-.51,.05-.75v-.55c0-.31-.01-.56-.05-.83,.38,.03,.73,.05,1.14,.05h2.93v-.34Z"/>
        <path class="cls-4" d="M128.28,89.88c-.28-.29-.5-.63-.63-.97-.27-.76-.41-1.62-.41-2.51,0-1.15,.25-2.34,.62-2.94,.51-.85,1.31-1.29,2.35-1.29,.77,0,1.43,.25,1.91,.74,.29,.3,.51,.63,.63,.97,.27,.75,.41,1.62,.41,2.52,0,1.31-.27,2.48-.75,3.13-.53,.74-1.26,1.1-2.22,1.1-.78,0-1.42-.25-1.91-.74Zm.52-6.54c-.24,.24-.41,.51-.5,.78-.24,.67-.36,1.44-.36,2.27,0,1.03,.22,2.12,.52,2.63,.39,.65,.98,.98,1.73,.98,.56,0,1.04-.18,1.39-.53,.24-.24,.41-.52,.51-.81,.24-.7,.36-1.43,.36-2.27,0-.99-.22-2.1-.51-2.61-.38-.65-.98-.99-1.75-.99-.58,0-1.04,.18-1.39,.55Z"/>
        <path class="cls-4" d="M135.52,89.88c-.28-.29-.5-.63-.63-.97-.27-.76-.41-1.62-.41-2.51,0-1.15,.25-2.34,.62-2.94,.51-.85,1.31-1.29,2.35-1.29,.77,0,1.43,.25,1.91,.74,.29,.3,.51,.63,.63,.97,.27,.75,.41,1.62,.41,2.52,0,1.31-.27,2.48-.75,3.13-.53,.74-1.26,1.1-2.22,1.1-.78,0-1.42-.25-1.91-.74Zm.52-6.54c-.24,.24-.41,.51-.5,.78-.24,.67-.36,1.44-.36,2.27,0,1.03,.22,2.12,.52,2.63,.39,.65,.98,.98,1.73,.98,.56,0,1.04-.18,1.39-.53,.24-.24,.41-.52,.51-.81,.24-.7,.36-1.43,.36-2.27,0-.99-.22-2.1-.51-2.61-.38-.65-.98-.99-1.75-.99-.58,0-1.04,.18-1.39,.55Z"/>
        <path class="cls-4" d="M147.47,82.93c-.17,.12-.35,.34-.72,.91-1.05,1.64-1.48,2.46-1.91,3.74-.31,.95-.45,1.53-.63,2.89h-.86c.33-1.97,.62-2.93,1.31-4.36,.52-1.09,.99-1.84,1.98-3.17h-3.59c-.48,0-.78,.02-1.17,.08v-.78c.4,.05,.68,.08,1.18,.08h3.21c.58,0,.84-.01,1.2-.05v.67Z"/>
        <path class="cls-4" d="M149.69,88.56c.2,.58,.36,.81,.72,1.06,.36,.26,.85,.39,1.41,.39,1.31,0,2.14-.67,2.14-1.76s-.8-1.73-2.29-1.73c-.33,0-.53,.01-.81,.04v-.72c.25,.03,.5,.05,.77,.05,1.33,0,2.05-.6,2.05-1.71,0-.88-.71-1.46-1.8-1.46-.68,0-1.17,.2-1.48,.59-.17,.2-.25,.38-.37,.8l-.73-.18c.17-.52,.28-.75,.52-1.02,.47-.52,1.17-.78,2.1-.78,.83,0,1.5,.24,1.93,.67,.35,.36,.54,.83,.54,1.34,0,.58-.16,1.05-.48,1.4-.32,.35-.66,.52-1.29,.62,.63,.07,.97,.18,1.33,.47,.48,.36,.74,.93,.74,1.64,0,1.45-1.09,2.35-2.85,2.35-1.05,0-1.84-.28-2.35-.86-.23-.25-.35-.48-.54-1.01l.74-.21Z"/>
        <path class="cls-4" d="M161.97,82.93c-.17,.12-.35,.34-.72,.91-1.05,1.64-1.48,2.46-1.91,3.74-.32,.95-.45,1.53-.63,2.89h-.86c.33-1.97,.62-2.93,1.31-4.36,.52-1.09,.99-1.84,1.98-3.17h-3.59c-.48,0-.78,.02-1.17,.08v-.78c.4,.05,.68,.08,1.18,.08h3.2c.58,0,.84-.01,1.2-.05v.67Z"/>
        <path class="cls-4" d="M164.54,86.19c-.42,0-.73,.02-1.03,.07v-.6c.29,.04,.59,.07,1.03,.07h1.76c.52,0,.81-.01,1.04-.05v.58c-.27-.04-.52-.05-1.04-.05h-1.05q-.15,.64-.3,1.15h.7c.65,0,.96-.01,1.22-.04-.04,.25-.05,.29-.1,.76-.12,1.22-.35,2.26-.6,2.71-.17,.32-.37,.4-.9,.4-.2,0-.45-.01-.76-.03-.01-.24-.03-.36-.11-.59,.37,.07,.59,.09,.88,.09,.37,0,.5-.13,.65-.71,.15-.53,.26-1.17,.35-2.13h-1.47c-.09,.25-.13,.37-.29,.74l-.56-.05c.36-.66,.55-1.24,.78-2.29h-.18Zm1.47-4.19c.53,0,.79-.01,1.08-.04-.03,.26-.04,.42-.04,.72v1.44c0,.27,.01,.44,.04,.7-.33-.03-.55-.04-1.02-.04h-1.13c-.43,0-.72,.01-1.02,.04,.03-.27,.04-.45,.04-.7v-1.44c0-.27-.01-.45-.04-.72,.31,.03,.59,.04,1.08,.04h1.02Zm-1.55,.46v1.87h2.09v-1.87h-2.09Zm5.4,.04c0-.39-.02-.63-.07-.89h.64c-.04,.25-.07,.43-.07,.84h1.34c.45,0,.78-.02,1.06-.07v.57c-.27-.04-.53-.05-1.04-.05h-1.36v.78h1.68c.43,0,.65-.01,.83-.05l.33,.34q-.1,.14-.16,.29c-.16,.35-.38,.76-.56,1.03-.15-.14-.22-.17-.41-.27,.24-.29,.37-.53,.51-.87h-4.19v.8c0,3.51-.3,5-1.28,6.26-.15-.15-.24-.21-.49-.32,.41-.48,.66-.94,.86-1.64,.27-.9,.4-2.29,.4-4.14,0-.72-.01-1.05-.05-1.49,.3,.04,.55,.05,1.06,.05h.98v-1.17Zm.15,4.92c-.03,.12-.04,.26-.07,.54-.12,1.73-.51,2.5-1.66,3.26-.13-.2-.21-.29-.41-.45,.59-.3,.89-.58,1.13-1.03,.28-.51,.41-1.15,.41-2,0-.16,0-.22-.02-.35l.62,.02Zm.28-1.18c0,.28,.12,.33,.92,.33,.68,0,.95-.03,1.03-.14,.07-.09,.11-.37,.13-.73,.17,.11,.28,.15,.49,.22-.17,1.05-.23,1.09-1.71,1.09-1.16,0-1.36-.1-1.36-.7v-.66h-.21c-.46,.03-.66,.05-.92,.11l-.02-.54c.16,.02,.29,.03,.43,.03,.09,0,.35-.01,.51-.02h.21c0-.49-.01-.64-.05-.9h.6c-.04,.27-.05,.4-.05,.86l.84-.04c.33-.02,.55-.05,.76-.12l.03,.53q-.12-.01-.33-.01c-.08,0-.24,.01-.47,.02l-.84,.05v.63Zm1.25,1.24c-.04,.27-.07,.52-.07,.84v1.96c0,.26,.05,.28,.62,.28,.36,0,.5-.06,.56-.24,.07-.17,.11-.57,.11-.97v-.19c.2,.11,.32,.15,.52,.19-.13,1.58-.22,1.68-1.31,1.68-.85,0-1-.11-1-.72v-2c0-.3-.02-.57-.07-.84h.63Z"/>
      </g>
      <g>
        <path class="cls-4" d="M197.76,7.72c.95,.17,2.3,.26,4.06,.26h.23v-1.88c0-1.97-.12-3.7-.35-5.19,.91,.06,2.06,.2,3.45,.44,.95,.12,1.42,.32,1.42,.61,0,.31-.27,.56-.81,.75-.37,.16-.55,.41-.55,.75V7.98s.26-.26,.67-.73c.46-.54,.73-.81,.81-.81,.25,0,.62,.28,1.1,.84,.52,.58,.78,.93,.78,1.04,0,.29-.13,.43-.38,.43h-2.99v1.88c1.26,.41,2.13,.84,2.61,1.3,.5,.46,.75,1.03,.75,1.68,0,.46-.2,.9-.61,1.31-.25,.31-.6,.46-1.04,.46-.29,0-.54-.4-.75-1.19-.21-.79-.53-1.57-.96-2.32v15.22c0,.39-.47,.67-1.42,.84-.43,.06-.73,.09-.93,.09-.7,0-1.04-.31-1.04-.93,.15-1.86,.23-3.56,.23-5.1v-6.44c-.6,1.22-1.16,2.17-1.68,2.84-.68,1.01-1.43,1.88-2.26,2.64l-.43-.2c2.07-4.17,3.5-8.21,4.29-12.09h-.15c-1.68,0-2.88,.04-3.6,.12l-.46-1.16Zm13.8-6.5c1.04,.15,1.99,.32,2.84,.49,1.14,.17,1.71,.4,1.71,.67,0,.29-.24,.54-.72,.75-.44,.16-.67,.37-.67,.64,0,8.64-.25,13.78-.75,15.42-.58,1.84-1.34,3.35-2.29,4.55-1.24,1.53-2.94,3-5.1,4.41l-.32-.46c1.28-1.24,2.31-2.59,3.1-4.06,.75-1.16,1.35-2.66,1.8-4.49,.1-.56,.18-1.39,.26-2.49-.29,.37-.59,.7-.9,.99-.52,.5-.78,.79-.78,.87v.78c-.02,.41-.11,.61-.26,.61-.25,0-.71-.51-1.36-1.54-.35-.54-.78-1.27-1.3-2.17,1.33-.31,2.91-.86,4.73-1.65,.04-1.16,.08-2.5,.12-4.03-.1,.21-.23,.42-.41,.61-.41,.54-.87,.81-1.39,.81-.14,0-.27-.09-.41-.26-.1-.19-.2-.81-.32-1.86-.14-1.18-.52-2.6-1.16-4.26l.49-.38c1.29,.85,2.2,1.6,2.73,2.26,.21,.29,.38,.55,.49,.78V4.15c0-.79-.04-1.77-.12-2.93Zm4.78,0c.91,.08,2.03,.23,3.36,.46,.93,.16,1.39,.35,1.39,.58,0,.35-.3,.62-.9,.81-.41,.14-.61,.37-.61,.7v5.65c.08-.17,.16-.36,.26-.55,.6-1.18,1.09-2.45,1.48-3.83,.97,.64,1.87,1.23,2.73,1.77,.79,.56,1.19,.99,1.19,1.28s-.14,.43-.43,.43l-1.77-.2c-.83,.95-1.98,1.91-3.45,2.9v2.73c1.76,.46,3.02,.95,3.77,1.45,.73,.56,1.1,1.21,1.1,1.94,0,.44-.18,.85-.55,1.22-.23,.29-.56,.43-.99,.43-.56,0-1.05-.44-1.48-1.33-.39-.89-1.01-1.76-1.86-2.61v7.89c0,.71,.14,1.16,.43,1.33,.25,.19,.65,.29,1.19,.29,.62,0,1.01-.08,1.19-.23,.19-.15,.33-.53,.41-1.13,.12-.68,.28-1.61,.49-2.81h.7c.06,1.26,.1,2.15,.12,2.67,.04,.58,.17,1.02,.41,1.33,.42,.37,.64,.7,.64,.99,0,.44-.15,.81-.46,1.1-.27,.25-.71,.45-1.3,.61-.66,.15-1.38,.23-2.17,.23-1.14,0-2.04-.06-2.7-.17-.62-.12-1.02-.29-1.22-.52-.5-.37-.75-1.13-.75-2.29V5.28c0-1.8-.07-3.15-.2-4.06Z"/>
        <path class="cls-4" d="M228.64,1.57c1.35,.33,2.62,.76,3.8,1.3h16.47c.37-.33,.69-.63,.96-.9,.42-.42,.73-.64,.93-.64,.31,0,.89,.3,1.74,.9,.99,.77,1.48,1.29,1.48,1.54,0,.27-.18,.57-.55,.9-.31,.33-.46,.66-.46,.99v15.63l.23,5.94c0,.39-.54,.67-1.62,.84-.48,.06-.83,.09-1.04,.09-.54,0-.81-.31-.81-.93v-1.28h-17.63v1.28c0,.39-.49,.67-1.48,.84-.46,.06-.78,.09-.96,.09-.7,0-1.04-.31-1.04-.93,.14-2.26,.2-4.24,.2-5.94V6.93c0-1.47-.07-3.26-.2-5.36Zm3.48,23.57h3.57c-.21-.27-.44-.73-.7-1.36-.12-.29-.3-.77-.55-1.45,.87-.08,1.72-.18,2.55-.32v-1.74c-.19,.06-.37,.13-.52,.2-1.14,.46-2.41,.86-3.8,1.19l-.23-.49c1.31-.54,2.54-1.24,3.68-2.09,1.02-.81,1.89-1.74,2.61-2.78h-1.3v.26c0,.33-.44,.57-1.33,.72-.37,.04-.66,.06-.87,.06-.6,0-.9-.26-.9-.78,.08-.52,.12-1.11,.12-1.77v-1.71c0-.66-.04-1.43-.12-2.32,1.04,.27,2.11,.66,3.19,1.16h6.18c.35-.39,.63-.7,.84-.93,.23-.23,.45-.35,.67-.35,.33,0,.89,.3,1.68,.9,.91,.6,1.36,1.03,1.36,1.3,0,.19-.17,.39-.52,.58-.31,.17-.48,.37-.52,.58v2.29c0,.25-.24,.45-.72,.61,.48,.29,.94,.58,1.36,.87,.56,.39,.84,.67,.84,.84,0,.16-.11,.23-.32,.23h-1.16c-.54,.42-1.26,.87-2.15,1.33,.13,.1,.3,.18,.49,.26,1.22,.71,2.58,1.28,4.09,1.68l-.23,.58c-.77,.31-1.28,.71-1.51,1.19-.27,.58-.5,.87-.7,.87-.21,0-.61-.2-1.19-.61-.66-.42-1.36-1.03-2.12-1.83-.54-.56-1.05-1.34-1.54-2.35-.35-.68-.66-1.6-.93-2.78-.64,.66-1.23,1.18-1.77,1.57v2.75c.83-.21,1.64-.43,2.44-.67l.23,.44c-1.76,1.49-3.63,2.57-5.62,3.25-.21,.02-.32,.1-.32,.23-.02,.08-.04,.17-.06,.29l-.03,.09h13.45V3.66h-17.63V25.14Zm1.71-18.82c.95,.17,2.3,.26,4.06,.26h1.16c0-.79-.08-1.6-.23-2.44,1.28,.12,2.49,.28,3.65,.49,.75,.02,1.13,.19,1.13,.52,0,.15-.22,.33-.67,.52-.48,.21-.72,.46-.72,.75v.15h1.83c.1-.04,.4-.37,.9-.99,.62-.73,.99-1.1,1.1-1.1,.29,0,.76,.37,1.42,1.1,.68,.74,1.01,1.18,1.01,1.33,0,.29-.15,.43-.46,.43h-5.8v2.23h2.87c.08-.04,.38-.37,.9-.99,.62-.75,.99-1.13,1.1-1.13,.29,0,.76,.37,1.42,1.1,.68,.74,1.01,1.18,1.01,1.33,0,.33-.16,.49-.49,.49h-12.64c-1.68,0-2.88,.04-3.6,.12l-.43-1.16c.93,.16,2.27,.23,4.03,.23h2.67v-2.23h-1.16c-1.68,0-2.87,.04-3.57,.12l-.49-1.16Zm3.6,9.19h6.76v-2.81h-6.76v2.81Zm4.61,1.07c.29,.62,.66,1.21,1.1,1.77,.33,.48,.73,.91,1.22,1.28,.15-.23,.31-.49,.46-.78,.35-.54,.65-1.13,.9-1.77-.33,.04-.58,.06-.75,.06-.52,0-.78-.24-.78-.72v-.12h-1.91c-.08,.12-.15,.21-.23,.29Z"/>
        <path class="cls-4" d="M274.33,.99c.99,.33,1.93,.67,2.84,1.01,.87,.35,1.3,.72,1.3,1.1,0,.19-.21,.31-.64,.35-.44,.06-.69,.13-.72,.2-.91,1.12-1.96,2.14-3.16,3.04h4.32c.08-.04,.46-.48,1.16-1.33,.85-1.06,1.34-1.59,1.48-1.59,.44,0,1.12,.49,2.03,1.48,.91,.99,1.36,1.59,1.36,1.8,0,.29-.2,.43-.61,.43h-11.25c-.72,1.31-1.57,2.47-2.55,3.48h6.52c.35-.33,.65-.64,.9-.93,.44-.44,.76-.67,.96-.67,.35,0,.96,.31,1.83,.93,1.02,.81,1.54,1.35,1.54,1.62,0,.25-.24,.54-.72,.87-.37,.35-.55,.67-.55,.96v7.54l.23,6.03c0,.39-.56,.68-1.68,.87-.5,.06-.87,.09-1.1,.09-.54,0-.81-.32-.81-.96v-1.28h-12.09v1.28c0,.41-.51,.7-1.54,.87-.46,.06-.8,.09-1.01,.09-.62,0-.93-.32-.93-.96,.1-1.06,.14-2.14,.14-3.22V13.86c0-1.51-.09-2.97-.26-4.38,1.35,.35,2.74,.84,4.15,1.48h2.81c.23-.97,.42-2.13,.55-3.48h-7.63c-1.68,0-2.88,.04-3.6,.12l-.46-1.16c.95,.17,2.3,.26,4.06,.26h11.71c.6-1.78,1.07-3.68,1.42-5.71Zm-10.09,0c1.74,.48,2.95,.98,3.62,1.48,.58,.52,.87,1.12,.87,1.8,0,.56-.24,1.11-.72,1.65-.35,.35-.79,.52-1.33,.52-.37,0-.69-.43-.96-1.3-.33-1.22-.95-2.41-1.86-3.57l.38-.58Zm.67,14.64h12.09v-3.83h-12.09v3.83Zm0,4.75h12.09v-3.97h-12.09v3.97Zm0,4.87h12.09v-4.09h-12.09v4.09Z"/>
        <path class="cls-4" d="M299.7,.99c1.28,.14,2.49,.3,3.65,.49,.73,.04,1.1,.23,1.1,.58,0,.12-.21,.28-.64,.49-.5,.21-.75,.47-.75,.78v1.59h4.55s.38-.37,1.01-1.1c.85-1.04,1.4-1.57,1.65-1.57s1,.57,2.23,1.71c.75,.7,1.13,1.13,1.13,1.31,0,.33-.23,.49-.7,.49h-20.53v6.58c0,2.65-.14,4.98-.41,6.99-.31,1.8-.86,3.47-1.65,5.02-.7,1.22-1.63,2.45-2.81,3.68l-.61-.23c.83-2.03,1.38-3.92,1.65-5.68,.39-2.18,.58-5.44,.58-9.77s-.12-7.2-.35-9.02c1.8,.54,3.19,1.07,4.18,1.59h6.96v-1.48c0-.79-.09-1.61-.26-2.46Zm-4.61,6.73c.99,.27,1.93,.53,2.84,.78,.89,.27,1.33,.56,1.33,.87,0,.29-.26,.48-.78,.58-.5,.08-.78,.19-.84,.35-.17,.58-.36,1.14-.55,1.68,1.28,.62,2.19,1.18,2.75,1.68,.31,.29,.54,.55,.7,.78v-4.84c0-.83-.08-1.68-.23-2.55,1.28,.12,2.52,.27,3.74,.46,.75,.04,1.13,.23,1.13,.58,0,.13-.23,.31-.7,.52-.46,.23-.7,.52-.7,.87v10.29h2.55c.08-.02,.41-.42,.99-1.19,.68-.91,1.08-1.36,1.22-1.36,.37,0,.96,.45,1.77,1.33,.83,.85,1.25,1.37,1.25,1.57,0,.33-.19,.49-.58,.49h-7.19v5.42h4.49c.1-.04,.45-.46,1.07-1.28,.79-.99,1.25-1.48,1.36-1.48,.42,0,1.07,.46,1.94,1.39,.89,.95,1.33,1.53,1.33,1.74,0,.31-.2,.46-.61,.46h-18.67c-1.68,0-2.88,.04-3.6,.12l-.46-1.16c.95,.14,2.3,.2,4.06,.2h5.83v-5.42h-3.51c-1.68,0-2.88,.04-3.6,.12l-.44-1.16c.93,.14,2.27,.2,4.03,.2h3.51v-3.42c-.12,.27-.25,.5-.41,.7-.39,.52-.83,.78-1.33,.78-.23,0-.43-.09-.58-.26-.14-.15-.3-.71-.49-1.65-.15-.81-.51-1.74-1.07-2.78-.29,.68-.6,1.29-.93,1.86-.7,1.28-1.6,2.56-2.73,3.86l-.35-.35c.68-1.78,1.18-3.43,1.51-4.96,.37-1.62,.68-3.57,.93-5.83Zm11.25-.23c1.04,.29,2.04,.58,2.99,.87,.93,.27,1.39,.57,1.39,.9,0,.31-.24,.5-.72,.58-.52,.08-.81,.18-.87,.32-.15,.52-.31,1.02-.46,1.51,1.55,.7,2.64,1.33,3.28,1.91,.75,.64,1.13,1.21,1.13,1.71,0,.66-.2,1.23-.61,1.71-.35,.48-.76,.72-1.25,.72-.29,0-.54-.09-.75-.26-.19-.17-.41-.75-.64-1.74-.23-.87-.75-1.88-1.57-3.02-.29,.75-.6,1.44-.93,2.06-.66,1.24-1.54,2.48-2.64,3.74l-.44-.44c.58-1.76,1.01-3.38,1.3-4.87,.31-1.6,.57-3.51,.78-5.71Z"/>
        <path class="cls-4" d="M322.58,1.72c2.03,.37,3.45,.77,4.26,1.22,.7,.41,1.04,.89,1.04,1.45,0,.52-.23,1.04-.7,1.57-.1,.12-.22,.2-.38,.26h4.26c.62-1.39,.96-3.13,1.01-5.22,1.39,.23,2.52,.46,3.39,.67,1.22,.23,1.83,.51,1.83,.84,0,.21-.32,.41-.96,.58-.52,.08-.83,.2-.93,.38-.83,.93-1.99,1.85-3.48,2.75h4.32c.08-.04,.45-.46,1.13-1.28,.81-.99,1.29-1.48,1.42-1.48,.41,0,1.05,.46,1.94,1.39,.87,.95,1.3,1.53,1.3,1.74,0,.31-.19,.46-.58,.46h-9.89v3.36h3.28c.08-.04,.42-.45,1.01-1.25,.73-.97,1.17-1.45,1.3-1.45,.39,0,1,.46,1.83,1.39,.85,.91,1.28,1.46,1.28,1.65,0,.29-.18,.43-.55,.43h-8.15v3.51h6.15c.1-.04,.46-.47,1.1-1.3,.77-.99,1.23-1.48,1.36-1.48,.41,0,1.05,.46,1.94,1.39,.87,.95,1.3,1.52,1.3,1.71,0,.33-.2,.49-.61,.49h-13.08c.19,.04,.38,.07,.55,.09,1.26,.25,1.88,.52,1.88,.81,0,.27-.24,.48-.72,.64-.44,.17-.72,.43-.81,.78-.12,.52-.25,1.02-.41,1.51h7.39c.08-.04,.44-.47,1.1-1.31,.81-.99,1.29-1.48,1.45-1.48,.41,0,1.05,.47,1.94,1.42,.87,.93,1.3,1.5,1.3,1.71,0,.29-.2,.43-.61,.43h-11.13c1.12,1.14,2.17,1.92,3.16,2.35,.79,.43,1.92,.83,3.39,1.22,1.68,.44,3.49,.77,5.42,.99l-.35,.7c-.79,.37-1.34,.92-1.65,1.65-.17,.68-.32,1.01-.43,1.01-.37,0-1.26-.26-2.67-.78-1.37-.46-2.56-1.05-3.57-1.77-1.06-.74-1.89-1.54-2.49-2.41-.64-.77-1.26-1.76-1.86-2.96h-.67c-.5,1.35-1.06,2.4-1.68,3.13-1.04,1.18-2.33,2.16-3.86,2.93-1.89,.89-4.43,1.58-7.6,2.09l-.23-.35c2.73-.97,4.85-2,6.38-3.1,1.29-.83,2.32-1.91,3.07-3.25,.27-.41,.49-.89,.67-1.45h-5.57c-1.68,0-2.88,.05-3.6,.15l-.49-1.16c.95,.16,2.31,.23,4.09,.23h5.8c.27-1.06,.42-2.34,.46-3.83h-6.38c-1.68,0-2.88,.04-3.6,.12l-.49-1.16c.95,.16,2.31,.23,4.09,.23h7.16v-3.51h-3.94c-1.68,0-2.88,.04-3.6,.12l-.43-1.16c.93,.17,2.27,.26,4.03,.26h3.94v-3.36h-5.77c-1.68,0-2.88,.04-3.6,.12l-.46-1.19c.93,.16,2.28,.23,4.06,.23h2.87c-.23-.17-.43-.46-.61-.87-.46-1.1-1.26-2.16-2.38-3.16l.23-.46Z"/>
        <path class="cls-4" d="M347.17,.99c1.37,.35,2.66,.81,3.86,1.39h17.37c.35-.31,.66-.6,.93-.87,.42-.41,.72-.61,.9-.61,.35,0,.95,.29,1.8,.87,.99,.77,1.48,1.29,1.48,1.57,0,.25-.21,.54-.64,.87-.35,.35-.52,.67-.52,.96v15.8l.2,5.91c0,.37-.54,.65-1.62,.84-.46,.06-.8,.09-1.01,.09-.56,0-.84-.31-.84-.93v-.46h-18.56v.58c0,.37-.47,.65-1.42,.84-.41,.06-.7,.09-.87,.09-.7,0-1.04-.31-1.04-.93,.15-2.13,.23-3.98,.23-5.57V6.09c0-1.39-.08-3.09-.23-5.1Zm3.33,24.62h18.56V8.76h-6.32c.1,2.34,.36,4.45,.78,6.32,.52-1.24,.99-2.75,1.39-4.55,.85,.41,1.71,.83,2.58,1.28,.89,.43,1.33,.77,1.33,1.04,0,.29-.35,.43-1.04,.43-.43,0-.69,.12-.78,.35-.83,1.91-1.66,3.5-2.49,4.76,.68,1.72,1.34,2.58,2,2.58,.23,0,.71-1.39,1.42-4.17l.58,.23c-.31,2.75-.46,4.29-.46,4.64,0,.15,.1,.52,.29,1.1,.19,.45,.29,.76,.29,.96-.08,.7-.4,1.08-.96,1.16-1.26,0-2.56-.68-3.91-2.03-.52-.56-1-1.22-1.42-1.97-.5,.48-1.02,.93-1.57,1.33-1.47,1.18-3.1,2.07-4.9,2.67l-.23-.43c1.57-.95,3.07-2.21,4.52-3.8,.48-.56,.93-1.16,1.33-1.8-.12-.35-.22-.71-.32-1.07-.56-2.11-1-5.11-1.3-9.02h-4.93c-1.7,0-2.91,.04-3.62,.12l-.43-1.16c.93,.17,2.28,.26,4.06,.26h4.87c-.1-1.33-.17-2.77-.23-4.32,.97,.15,1.87,.32,2.73,.49,.71,.12,1.25,.24,1.59,.38-.08-.17-.16-.35-.26-.52l.32-.35c1.06,.29,1.79,.53,2.17,.72,.5,.25,.75,.47,.75,.67,0,.62-.15,1.09-.44,1.42-.37,.39-.77,.58-1.22,.58-.23,0-.4-.05-.49-.15-.14-.08-.24-.38-.32-.9-.04-.19-.08-.38-.12-.55-.19,.1-.45,.19-.78,.29-.56,.15-.84,.39-.84,.7,0,.52,0,1.03,.03,1.54h3.25c.06-.02,.3-.28,.72-.78,.5-.58,.79-.87,.87-.87,.29,0,.71,.3,1.25,.9,.1,.12,.18,.21,.26,.29V3.22h-18.56V25.61Zm10-7.1l.12,.35c-2.18,1.89-4.49,3.26-6.93,4.09-.25,.06-.38,.17-.38,.35-.04,.08-.07,.19-.09,.35-.06,.23-.15,.35-.29,.35-.37,0-.82-.65-1.36-1.94-.14-.35-.37-.94-.7-1.77,3.5-.35,6.71-.94,9.63-1.77Zm-8.7-8.09c1.06,.27,2.16,.66,3.28,1.16h.9c.31-.41,.61-.74,.9-1.01,.21-.27,.41-.41,.58-.41,.19,0,.62,.21,1.28,.64,.79,.54,1.19,.92,1.19,1.13s-.12,.43-.35,.67c-.15,.21-.23,.45-.23,.72v1.16c0,.75,.04,1.79,.12,3.1,0,.35-.43,.6-1.28,.75-.37,.06-.64,.09-.81,.09-.48,0-.72-.28-.72-.84h-1.94v.49c0,.33-.4,.57-1.19,.72-.37,.04-.64,.06-.81,.06-.52,0-.78-.26-.78-.78,.08-.85,.12-1.7,.12-2.55v-1.65c0-1.18-.08-2.33-.23-3.45Zm2.9,6.38h1.94v-4.44h-1.94v4.44Z"/>
        <path class="cls-4" d="M381.81,14.67c0,1.7,.26,3.22,.77,4.57,.51,1.35,1.22,2.49,2.12,3.43,.9,.93,1.96,1.65,3.18,2.15,1.22,.5,2.55,.74,3.98,.74,.86,0,1.68-.17,2.48-.5,.79-.33,1.53-.76,2.21-1.29,.68-.53,1.29-1.13,1.82-1.8,.54-.67,.98-1.34,1.32-2.03l1.72,1.1c-.5,.82-1.09,1.6-1.78,2.36-.68,.75-1.48,1.42-2.37,2-.9,.58-1.91,1.04-3.04,1.38-1.13,.34-2.39,.51-3.79,.51-2.02,0-3.85-.34-5.49-1.01-1.64-.67-3.05-1.58-4.23-2.73-1.17-1.15-2.08-2.49-2.72-4.03-.64-1.53-.96-3.16-.96-4.87,0-1.14,.15-2.25,.44-3.33,.29-1.08,.72-2.1,1.27-3.04,.56-.95,1.23-1.81,2.04-2.6,.8-.79,1.71-1.47,2.71-2.04,1.01-.57,2.11-1.01,3.31-1.32,1.2-.31,2.48-.47,3.83-.47s2.49,.17,3.58,.52c1.09,.35,2.09,.81,2.99,1.38,.9,.57,1.7,1.24,2.4,1.99,.7,.75,1.3,1.54,1.81,2.36l-1.78,1.17c-1.01-1.97-2.15-3.41-3.41-4.32-1.26-.91-2.71-1.37-4.35-1.37-1.41,0-2.72,.26-3.94,.77-1.22,.51-2.29,1.25-3.2,2.2-.91,.95-1.63,2.11-2.15,3.47-.52,1.36-.78,2.9-.78,4.61Z"/>
        <path class="cls-4" d="M407.09,2.42h8.11c2.49,0,4.64,.23,6.44,.7,1.8,.46,3.29,1.21,4.49,2.24,1.37,1.17,2.4,2.52,3.09,4.03,.69,1.52,1.04,3.17,1.04,4.97s-.31,3.32-.93,4.82c-.62,1.5-1.52,2.81-2.71,3.93-1.19,1.12-2.67,2-4.42,2.65-1.75,.65-3.76,.97-6.02,.97h-9.08V2.42Zm4.09,22.54h4.35c1.37,0,2.66-.23,3.87-.68,1.21-.45,2.26-1.12,3.16-2.02,.9-.89,1.61-1.99,2.13-3.29,.52-1.3,.78-2.81,.78-4.52,0-1.5-.24-2.88-.73-4.13-.49-1.25-1.17-2.33-2.05-3.24s-1.93-1.61-3.14-2.11c-1.22-.5-2.55-.75-3.99-.75h-4.36V24.96Z"/>
        <path class="cls-4" d="M439.61,14.67c0,1.7,.26,3.22,.77,4.57,.51,1.35,1.22,2.49,2.12,3.43,.9,.93,1.96,1.65,3.18,2.15,1.22,.5,2.55,.74,3.98,.74,.86,0,1.68-.17,2.48-.5,.79-.33,1.53-.76,2.21-1.29,.68-.53,1.29-1.13,1.82-1.8,.54-.67,.98-1.34,1.32-2.03l1.72,1.1c-.5,.82-1.09,1.6-1.78,2.36-.68,.75-1.48,1.42-2.37,2-.9,.58-1.91,1.04-3.04,1.38-1.13,.34-2.39,.51-3.79,.51-2.02,0-3.85-.34-5.49-1.01-1.64-.67-3.05-1.58-4.23-2.73-1.17-1.15-2.08-2.49-2.72-4.03-.64-1.53-.96-3.16-.96-4.87,0-1.14,.15-2.25,.44-3.33,.29-1.08,.72-2.1,1.27-3.04,.56-.95,1.23-1.81,2.04-2.6,.8-.79,1.71-1.47,2.71-2.04,1.01-.57,2.11-1.01,3.31-1.32,1.2-.31,2.48-.47,3.83-.47s2.49,.17,3.58,.52c1.09,.35,2.09,.81,2.99,1.38,.9,.57,1.7,1.24,2.4,1.99,.7,.75,1.3,1.54,1.81,2.36l-1.78,1.17c-1.01-1.97-2.15-3.41-3.41-4.32-1.26-.91-2.71-1.37-4.35-1.37-1.41,0-2.72,.26-3.94,.77-1.22,.51-2.29,1.25-3.2,2.2-.91,.95-1.63,2.11-2.15,3.47-.52,1.36-.78,2.9-.78,4.61Z"/>
        <path class="cls-4" d="M462.84,6.44c.95,.17,2.3,.26,4.06,.26h2.2c.08-.04,.41-.43,.99-1.19,.72-.91,1.13-1.36,1.25-1.36,.37,0,.96,.43,1.77,1.3,.81,.87,1.22,1.4,1.22,1.59,0,.29-.18,.43-.55,.43h-6.87c-1.68,0-2.88,.04-3.6,.12l-.46-1.16Zm1.19-3.71c.93,.17,2.27,.26,4.03,.26h.61c.06-.04,.34-.37,.84-.99,.64-.73,1-1.1,1.1-1.1,.33,0,.81,.37,1.45,1.1,.66,.74,.99,1.18,.99,1.33,0,.29-.15,.44-.44,.44h-4.55c-1.68,0-2.88,.04-3.6,.12l-.43-1.16Zm0,14.61c1.22,.37,2.47,.83,3.77,1.39h.87c.41-.46,.8-.88,1.19-1.25,.29-.31,.54-.46,.75-.46,.25,0,.8,.27,1.65,.81,1,.66,1.51,1.12,1.51,1.39,0,.25-.21,.51-.64,.78-.27,.25-.41,.53-.41,.84v1.54c.14-.17,.33-.36,.58-.55,.68-.54,1.21-1.14,1.59-1.8,.39-.62,.71-1.56,.96-2.81l.7,.12c0,2.61-.08,4.41-.23,5.39-.15,1.02-.44,1.75-.87,2.17-.23,.23-.48,.35-.75,.35-.68,0-1.25-.2-1.71-.61-.1-.1-.18-.18-.26-.26,.02,.66,.05,1.41,.09,2.26,0,.37-.48,.64-1.45,.81-.44,.06-.77,.09-.99,.09-.54,0-.81-.3-.81-.9v-1.04h-2.17v1.28c0,.37-.46,.65-1.39,.84-.43,.06-.73,.09-.93,.09-.64,0-.96-.31-.96-.93,.08-1,.12-2.02,.12-3.04v-2.29c0-1.43-.07-2.83-.2-4.2Zm.09-7.05c.95,.16,2.3,.23,4.06,.23h.49c.06-.04,.34-.39,.84-1.04,.64-.77,1-1.16,1.1-1.16,.35,0,.86,.38,1.54,1.13,.68,.77,1.01,1.25,1.01,1.42,0,.29-.15,.43-.43,.43h-4.55c-1.68,0-2.88,.04-3.6,.12l-.46-1.13Zm0,4.06c.95,.15,2.3,.23,4.06,.23h.38c.06-.04,.34-.39,.84-1.04,.64-.79,1-1.19,1.1-1.19,.35,0,.85,.39,1.51,1.16,.7,.77,1.04,1.24,1.04,1.39,0,.33-.15,.49-.44,.49h-4.44c-1.68,0-2.88,.04-3.6,.12l-.46-1.16Zm3.28,10.41h2.17v-5.19h-2.17v5.19Zm6.61-22.38c1.12,.23,2.32,.35,3.6,.35h7.19c.29-.33,.55-.58,.78-.75,.44-.42,.79-.64,1.04-.64,.33,0,.91,.33,1.74,.99,.87,.7,1.3,1.18,1.3,1.45,0,.15-.17,.36-.52,.61-.35,.31-.52,.57-.52,.78-.08,1.89-.25,3.8-.52,5.71-.25,1.45-.53,2.41-.84,2.87-.27,.58-.84,1.01-1.71,1.3-.83,.23-1.47,.35-1.91,.35-.23,0-.42-.32-.55-.96-.16-.93-.95-1.77-2.38-2.52l.14-.49c1.53,.48,2.49,.72,2.9,.72,.37,0,.64-.13,.81-.41,.19-.33,.38-1.42,.55-3.28,.15-1.72,.23-3.36,.23-4.93h-2.58c-.21,1.97-.56,3.62-1.04,4.96-.45,1.45-1.01,2.59-1.68,3.42-.54,.71-1.3,1.37-2.29,1.97-1.08,.68-2.48,1.18-4.2,1.51l-.12-.49c1.12-.56,1.98-1.12,2.58-1.68,.54-.54,1.09-1.24,1.65-2.09,.41-.71,.77-1.69,1.1-2.93,.33-1.31,.58-2.87,.75-4.67h-1.91c-1.55,0-2.6,.08-3.16,.23l-.43-1.39Zm.7,2.9c1.43,.5,2.43,.95,2.99,1.33,.56,.39,.84,.72,.84,.99,0,.7-.2,1.28-.61,1.74-.35,.46-.77,.7-1.28,.7-.17,0-.33-.06-.46-.17-.14-.12-.29-.54-.46-1.28-.17-.81-.68-1.79-1.51-2.93l.49-.38Zm2.17,11.02c.91,.08,2.03,.23,3.36,.46,.25,.04,.48,.09,.7,.15-.39-.72-.84-1.42-1.36-2.12l.23-.43c1.95,.6,3.31,1.23,4.09,1.88,.68,.66,1.01,1.41,1.01,2.26,0,.56-.24,1.08-.72,1.57-.31,.37-.73,.55-1.28,.55-.43,0-.8-.51-1.13-1.54-.12-.42-.25-.83-.41-1.22-.15,.12-.35,.21-.58,.29-.43,.14-.64,.37-.64,.7v4.75c0,.62,.22,1,.67,1.16,.37,.15,.97,.23,1.8,.23,.75,0,1.25-.08,1.48-.23,.23-.16,.42-.54,.55-1.16,.15-.73,.36-1.73,.61-2.99h.58c.1,1.28,.16,2.18,.2,2.73,.08,.6,.27,1.05,.58,1.36,.64,.41,.96,.74,.96,1.01,0,.43-.19,.77-.58,1.04-.35,.23-.91,.42-1.68,.55-.81,.16-1.71,.23-2.7,.23-1.37,0-2.45-.05-3.22-.14-.7-.12-1.17-.27-1.42-.46-.56-.31-.84-1-.84-2.06v-4.49c0-1.82-.09-3.18-.26-4.09Zm9.19,1.04c1.57,.87,2.65,1.64,3.25,2.32,.62,.68,.93,1.27,.93,1.77,0,.81-.23,1.49-.7,2.03-.44,.58-.96,.87-1.54,.87-.17,0-.34-.09-.49-.26-.12-.19-.25-.83-.41-1.91-.19-1.24-.71-2.72-1.54-4.44l.49-.38Z"/>
        <path class="cls-4" d="M492.33,6.7c.93,.16,2.27,.23,4.03,.23h2.67c.08-.04,.38-.39,.9-1.04,.62-.77,.99-1.16,1.1-1.16,.31,0,.81,.38,1.51,1.13,.7,.77,1.04,1.24,1.04,1.39,0,.31-.15,.46-.46,.46h-6.76c-1.68,0-2.88,.05-3.6,.14l-.43-1.16Zm1.16-3.83c.99,.16,2.41,.23,4.26,.23,.06-.02,.32-.31,.78-.87,.56-.68,.89-1.01,.99-1.01,.29,0,.74,.34,1.36,1.01,.64,.66,.96,1.06,.96,1.22,0,.29-.16,.43-.49,.43h-3.6c-1.8,0-3.07,.04-3.83,.12l-.43-1.13Zm0,7.54c.93,.15,2.27,.23,4.03,.23h.61c.06-.04,.34-.37,.84-.99,.64-.75,1-1.13,1.1-1.13,.31,0,.79,.38,1.45,1.13,.66,.71,.99,1.15,.99,1.3,0,.31-.14,.46-.43,.46h-4.55c-1.68,0-2.88,.05-3.6,.14l-.43-1.16Zm.12,3.94c.93,.15,2.27,.23,4.03,.23h.35c.1-.04,.39-.37,.87-.99,.64-.75,1.01-1.13,1.13-1.13,.29,0,.76,.37,1.42,1.1,.68,.74,1.01,1.18,1.01,1.33,0,.33-.16,.49-.46,.49h-4.32c-1.68,0-2.88,.04-3.6,.12l-.44-1.16Zm0,3.1c1.1,.33,2.24,.75,3.42,1.28h1.33c.37-.41,.71-.77,1.04-1.1,.25-.27,.47-.41,.67-.41,.21,0,.71,.24,1.48,.72,.87,.6,1.3,1.03,1.3,1.28,0,.23-.17,.47-.52,.72-.25,.25-.38,.51-.38,.78v2.32c0,.81,.04,1.93,.12,3.36,0,.33-.46,.57-1.39,.72-.43,.06-.73,.09-.93,.09-.48,0-.72-.27-.72-.81v-.58h-2.32v.93c0,.33-.45,.57-1.33,.73-.39,.04-.67,.06-.84,.06-.54,0-.81-.26-.81-.78,.06-.93,.09-1.86,.09-2.78v-2.7c0-1.29-.07-2.57-.2-3.83Zm3.1,7.54h2.32v-5.42h-2.32v5.42Zm6.76-22.27c.89,.17,1.62,.26,2.2,.26h2.17c.29-.41,.53-.71,.72-.93,.37-.56,.68-.84,.93-.84,.19,0,.73,.35,1.62,1.04,.99,.75,1.48,1.26,1.48,1.51,0,.23-.18,.41-.55,.55,.19,.41,.39,.77,.58,1.1,.41-.5,.75-1.04,1.04-1.62,.44-.83,.75-1.61,.93-2.35,.73,.43,1.36,.78,1.88,1.07,.73,.41,1.1,.71,1.1,.93,0,.16-.18,.24-.55,.26-.48,0-.75,.06-.81,.17-.39,.41-.81,.76-1.28,1.07-.45,.33-1.1,.66-1.97,.99,.31,.46,.61,.83,.9,1.1,.15,.17,.34,.34,.55,.49,.41-.35,.78-.73,1.13-1.16,.58-.7,1-1.36,1.25-2,.73,.41,1.37,.76,1.91,1.07,.73,.37,1.1,.66,1.1,.87,0,.19-.19,.3-.58,.32-.48,0-.75,.06-.81,.17-.5,.27-1.02,.52-1.57,.75-.41,.19-.98,.39-1.71,.58,.33,.21,.68,.42,1.04,.61,1.18,.64,2.43,1.1,3.74,1.39l-.23,.61c-.75,.35-1.27,.87-1.54,1.57-.17,.66-.33,.99-.46,.99-.21,0-.77-.32-1.68-.96-.87-.62-1.63-1.36-2.29-2.23-.7-.91-1.23-1.9-1.59-2.99-.31-.7-.6-1.53-.87-2.49-.14,.1-.22,.19-.26,.29-.89,2.28-2.08,4.09-3.57,5.42-.17,.16-.35,.3-.52,.44,.91,.12,2.16,.17,3.74,.17h.12c.06-.02,.27-.24,.64-.67,.48-.54,.77-.81,.87-.81,.23,0,.62,.28,1.16,.84,.54,.54,.81,.87,.81,.99,0,.33-.13,.49-.38,.49h-3.22c-1.68,0-2.88,.04-3.6,.12l-.41-.96c-1.3,1-2.82,1.86-4.58,2.55l-.23-.32c1.24-.93,2.25-1.86,3.04-2.78,.77-.89,1.43-1.9,1.97-3.04,.56-1.08,.98-2.28,1.25-3.59-2.36,0-3.76,.04-4.2,.12l-.44-1.16Zm9.25,18.32c.91,.33,1.78,.65,2.61,.96,.81,.33,1.22,.68,1.22,1.04,0,.16-.19,.25-.58,.29-.41,.04-.64,.09-.7,.14-.91,1.02-1.98,1.95-3.22,2.78h2.99c.08-.02,.39-.35,.93-.99,.68-.79,1.07-1.19,1.19-1.19,.33,0,.85,.39,1.57,1.16,.73,.75,1.1,1.22,1.1,1.39,0,.31-.16,.46-.46,.46h-12.9c-1.68,0-2.88,.04-3.6,.12l-.43-1.19c.93,.15,2.27,.23,4.03,.23h4.58c.75-1.59,1.31-3.33,1.68-5.22Zm-9.6-16.32c1.33,.21,2.26,.46,2.78,.73,.44,.25,.67,.54,.67,.87,0,.46-.19,.9-.58,1.3-.23,.31-.57,.46-1.01,.46-.27,0-.51-.26-.72-.78-.25-.73-.72-1.45-1.39-2.15l.26-.44Zm1.51,8.7c1.1,.29,2.25,.71,3.45,1.28h5.25c.31-.39,.57-.72,.78-1.01,.25-.25,.49-.38,.73-.38,.31,0,.86,.29,1.65,.87,.89,.6,1.33,1.04,1.33,1.33,0,.19-.16,.39-.49,.58-.29,.17-.46,.37-.52,.58v3.45c0,.35-.44,.6-1.33,.75-.41,.06-.7,.09-.87,.09-.56,0-.84-.23-.84-.7v-.38h-6.03v.49c0,.33-.44,.57-1.33,.73-.37,.04-.65,.06-.84,.06-.62,0-.93-.26-.93-.78,.08-.52,.12-1.11,.12-1.77v-2.87c0-.66-.04-1.43-.12-2.32Zm1.04,8c1.18,.33,2.08,.66,2.7,.99,.75,.44,1.13,.84,1.13,1.19,0,.77-.28,1.4-.84,1.88-.33,.31-.74,.46-1.25,.46-.21,0-.4-.09-.55-.26-.17-.14-.31-.49-.41-1.07-.16-.85-.54-1.84-1.16-2.96l.38-.23Zm2.06-2.32h6.03v-3.6h-6.03v3.6Z"/>
      </g>
      <g>
        <path class="cls-4" d="M203.71,39.76c1.91,.53,3.76,1.07,5.56,1.63,1.72,.52,2.58,1.09,2.58,1.68,0,.56-.47,.92-1.4,1.07-.9,.11-1.42,.3-1.57,.56-.04,.19-.09,.38-.17,.56,1.95,.19,3.82,.28,5.61,.28h.22c.64-.56,1.27-1.1,1.91-1.63,.75-.71,1.22-1.07,1.4-1.07,.45,0,1.31,.51,2.58,1.52,1.72,1.35,2.58,2.28,2.58,2.81,0,.37-.51,.66-1.52,.84-1.01,.11-1.68,.5-2.02,1.18l-4.83,11.45h1.4c.41-.45,.82-.86,1.24-1.23,.67-.52,1.18-.79,1.52-.79,.49,0,1.46,.5,2.92,1.52,1.5,1.31,2.25,2.23,2.25,2.75,0,.37-.52,.77-1.57,1.18-.82,.38-1.27,.73-1.35,1.07-.82,5.28-1.8,9.66-2.92,13.14-.26,.9-.58,1.74-.95,2.53,.9,1.16,2.08,2.02,3.54,2.58,2.28,1.16,6.59,1.74,12.91,1.74,5.05,0,10.14-.47,15.27-1.4l.17,1.4c-1.98,1.12-3.09,2.49-3.31,4.1-.34,1.42-.86,2.13-1.57,2.13-10.89,0-18.04-.6-21.45-1.8-3.22-1.09-5.69-2.77-7.41-5.05-.34,.56-.67,1.12-1.01,1.68-2.1,2.77-4.14,4.88-6.12,6.34l-.62-.67c2.28-3.44,4.17-7.26,5.67-11.45-.79-2.43-1.27-5.3-1.46-8.59,.07-1.01-.08-1.52-.45-1.52-.04,0-.13,.51-.28,1.52-.11,1.46-.36,2.86-.73,4.21-.19,.97-.28,1.54-.28,1.68,.11,.38,.21,.73,.28,1.07,.07,.41,.11,.73,.11,.95,0,.45-.13,.67-.39,.67-.56,0-1.44-.64-2.64-1.91-.22-.26-.47-.5-.73-.73v13.14c0,.67-.88,1.16-2.64,1.46-.75,.11-1.29,.17-1.63,.17-1.2,0-1.8-.54-1.8-1.63,.26-3.78,.39-7.58,.39-11.4v-16.67c-1.31,1.98-2.81,4.02-4.49,6.12l-.84-.9c2.21-4.72,3.89-9.08,5.05-13.08,1.2-4.27,2.19-9.34,2.98-15.21Zm2.98,33.52c.86-1.2,1.68-2.51,2.47-3.93,.79-1.16,1.52-1.74,2.19-1.74,1.35,0,2.02,.9,2.02,2.69,.37,1.8,.79,3.44,1.24,4.94,.79-3.78,1.37-8.14,1.74-13.08h-2.3l-.45,.95c-.26,.6-.64,.94-1.12,1.01-.52,.04-1.12,.06-1.8,.06-.34,0-.97-.11-1.91-.34-.52-.19-.79-.43-.79-.73l6.79-15.94h-.45c-2.17,0-4.21,.06-6.12,.17l-.06-.11c-.79,2.69-1.67,5.15-2.64,7.35,.37,.11,.71,.22,1.01,.34,1.12,.41,1.68,.75,1.68,1.01,0,.52-.3,.94-.9,1.23-.41,.22-.62,.64-.62,1.24v14.88Zm16.84-27.23c1.53,.19,3.24,.32,5.11,.39-.08-2.43-.3-4.6-.67-6.51,1.65,.15,3.72,.41,6.23,.79,1.72,.22,2.58,.58,2.58,1.07,0,.56-.51,1.01-1.52,1.35-.64,.22-.95,.67-.95,1.35v2.02h2.25c.6-.67,1.16-1.29,1.68-1.85,.75-.9,1.29-1.35,1.63-1.35,.6,0,1.57,.58,2.92,1.74,1.53,1.2,2.3,1.96,2.3,2.3,0,.45-.37,.88-1.12,1.29-.75,.52-1.12,.99-1.12,1.4v3.42h.45c.22-.67,.52-1.35,.9-2.02,.52-.94,.97-1.4,1.35-1.4,.34,0,.79,.43,1.35,1.29,.9,1.27,1.35,2.21,1.35,2.81,0,.56-.22,.84-.67,.84h-4.66c0,2.55,.06,4.25,.17,5.11v2.08c0,.67-.82,1.16-2.47,1.46-.75,.11-1.27,.17-1.57,.17-.82,0-1.29-.47-1.4-1.4h-3.31v5.89h2.25c.11-.08,.67-.75,1.68-2.02,1.16-1.5,1.87-2.25,2.13-2.25,.6,0,1.57,.73,2.92,2.19,1.35,1.5,2.02,2.41,2.02,2.75,0,.56-.32,.84-.95,.84h-10.05v5.89h4.04c.15-.07,.73-.75,1.74-2.02,1.27-1.53,2.02-2.3,2.25-2.3,.67,0,1.72,.75,3.14,2.25,1.38,1.5,2.08,2.4,2.08,2.69,0,.64-.3,.95-.9,.95h-12.29c.04,1.61,.09,3.18,.17,4.72,0,.64-.92,1.1-2.75,1.4-.79,.08-1.39,.11-1.8,.11-1.01,0-1.52-.51-1.52-1.52,.07-1.65,.13-3.22,.17-4.72h-.67c-3.26,0-5.56,.08-6.9,.22l-.95-2.25c1.83,.3,4.45,.45,7.86,.45h.67c.04-1.12,.06-2.17,.06-3.14v-2.75c-2.58,.08-4.47,.17-5.67,.28l-.84-2.25c1.57,.26,3.74,.41,6.51,.45v-5.84c-1.57,0-2.92,.06-4.04,.17l-.9-2.19c1.42,.22,3.07,.36,4.94,.39v-5.84h-3.2c-1.68,0-3.48,.08-5.39,.22l-.84-2.25c2.81,.34,4.88,.5,6.23,.5h3.2v-5.39c-1.87,.04-3.29,.09-4.27,.17l-.9-2.19Zm10.78,1.96v5.45h3.31v-5.45h-3.31Zm0,6.96v5.89h3.31v-5.89h-3.31Z"/>
        <path class="cls-4" d="M277.59,39.93c2.54,.26,4.98,.58,7.3,.95,1.46,.08,2.19,.45,2.19,1.12,0,.26-.43,.6-1.29,1.01-.94,.49-1.4,1.05-1.4,1.68v1.8h10.27c.07,0,.67-.62,1.8-1.85,1.53-1.76,2.51-2.64,2.92-2.64,.49,0,1.8,.95,3.93,2.86,1.31,1.2,1.97,1.96,1.97,2.3,0,.56-.37,.84-1.12,.84h-19.14v5.67h6.12c.64-.67,1.23-1.29,1.8-1.85,.82-.9,1.4-1.35,1.74-1.35,.67,0,1.76,.64,3.26,1.91,1.76,1.35,2.64,2.21,2.64,2.58,0,.56-.37,1.09-1.12,1.57-.71,.49-1.09,1.03-1.12,1.63v1.8c.26-.26,.58-.62,.95-1.07,1.24-1.38,2.04-2.08,2.41-2.08s1.46,.81,3.26,2.41c1.09,.97,1.63,1.59,1.63,1.85,0,.56-.28,.84-.84,.84h-7.35c0,.52,.02,1.03,.06,1.52,.07,3.18,.11,5.02,.11,5.5,0,.75-.92,1.29-2.75,1.63-.82,.11-1.4,.17-1.74,.17-1.09,0-1.63-.6-1.63-1.8h-5.89c.75,1.91,1.76,3.71,3.03,5.39,.94,1.31,2.1,2.51,3.48,3.59,1.24-2.02,2.1-4.21,2.58-6.57,1.65,.56,3.16,1.18,4.55,1.85,1.91,.67,2.86,1.35,2.86,2.02,0,.38-.45,.66-1.35,.84-.9,.15-1.42,.38-1.57,.67-1.27,.97-2.86,1.89-4.77,2.75,.04,.04,.07,.08,.11,.11,2.99,1.76,6.34,3.12,10.05,4.1l-.45,1.18c-1.65,.64-2.73,1.48-3.26,2.53-.56,1.31-1.05,1.96-1.46,1.96-.56,0-1.57-.51-3.03-1.52-1.65-1.01-3.41-2.47-5.28-4.38-1.46-1.38-2.77-3.24-3.93-5.56-1.16-2.1-2.13-5.09-2.92-8.98h-.17v15.94c0,3.11-.92,5.09-2.75,5.95-1.72,.97-3.05,1.46-3.99,1.46-.49,0-.88-.62-1.18-1.85-.49-1.76-2.49-3.26-6.01-4.49l.28-1.07c2.47,.15,4.55,.22,6.23,.22,.79,0,1.18-.6,1.18-1.8v-14.37h-4.49c-2.69,0-4.87,.06-6.51,.17l-.9-2.25c2.02,.3,4.49,.45,7.41,.45h4.49v-5.39h-13.92c-.08,4.53-.36,8.55-.84,12.07-.64,3.74-1.78,7.22-3.42,10.44-1.46,2.54-3.41,5.09-5.84,7.63l-.95-.45c1.83-4.19,3.09-8.12,3.76-11.79,.79-4.53,1.18-11.32,1.18-20.38,0-7.37-.21-12.67-.62-15.89,3.33,.94,5.93,1.91,7.8,2.92h12.13v-1.63c0-1.57-.15-3.22-.45-4.94Zm-.17,35.09l.39,.67c-2.43,3.26-4.9,5.86-7.41,7.8-1.65,1.16-2.47,1.85-2.47,2.08v1.52c-.04,.79-.17,1.18-.39,1.18-.49,0-1.37-1.01-2.64-3.03-.75-1.05-1.59-2.45-2.53-4.21,4.04-1.08,9.06-3.09,15.05-6.01Zm1.35-21.33v-5.67h-13.92v12.41h13.92v-5.22h-5.45c-2.43,0-4.43,.08-6.01,.22l-.95-2.19c2.39,.3,4.72,.45,6.96,.45h5.45Zm-12.41,16.11c2.96,.49,5.01,.97,6.18,1.46,1.01,.49,1.52,1.07,1.52,1.74,0,.97-.45,1.93-1.35,2.86-.52,.6-1.29,.9-2.3,.9-.56,0-1.05-.52-1.46-1.57-.6-1.53-1.61-3.01-3.03-4.43l.45-.95Zm18.64-14.6v5.22h7.41v-5.22h-7.41Zm0,6.74v5.39h7.41v-5.39h-7.41Z"/>
        <path class="cls-4" d="M347.43,58.85c-3.74,.79-7.39,1.48-10.95,2.08v9.71l15.21-1.52c.56-1.38,1.14-2.62,1.74-3.71,.75-1.53,1.29-2.3,1.63-2.3,.82,0,2.32,.9,4.49,2.69,2.13,1.57,3.2,2.62,3.2,3.14,0,.56-.24,.84-.73,.84l-25.54,2.41v9.99c0,1.68,.43,2.75,1.29,3.2,.94,.26,3.57,.39,7.92,.39,3.07-.15,5.16-.32,6.29-.5,1.76-.08,2.88-1.03,3.37-2.86l1.96-6.96,1.4,.22c.19,4.75,.34,7.13,.45,7.13,.19,.86,.56,1.53,1.12,2.02,1.01,.64,1.52,1.25,1.52,1.85,0,1.35-.54,2.38-1.63,3.09-1.57,.75-3.69,1.2-6.34,1.35-1.91,.34-4.62,.5-8.14,.5-4.94,0-8.48-.11-10.61-.34-1.83-.34-2.98-.77-3.42-1.29-1.27-.97-1.91-2.75-1.91-5.33v-11.73l-14.82,1.35c-.94,.15-1.83,.39-2.69,.73l-1.4-2.47c1.61,.15,2.83,.22,3.65,.22l15.27-1.52v-9.32c-5.16,.71-10.11,1.18-14.82,1.4l-.45-1.4c7.75-1.35,13.53-2.75,17.35-4.21,4-1.24,8.1-3.12,12.29-5.67,1.98,1.5,3.56,2.68,4.72,3.54,1.8,1.27,2.69,2.21,2.69,2.81,0,.45-.3,.67-.9,.67l-3.2-.22Zm-14.6-18.69c2.81,.3,5.54,.71,8.2,1.24,1.61,.08,2.41,.49,2.41,1.23,0,.3-.47,.67-1.4,1.12-1.05,.45-1.57,.97-1.57,1.57v3.87h12.13c.82-.71,1.53-1.29,2.13-1.74,.9-.79,1.55-1.18,1.96-1.18,.6,0,1.95,.9,4.04,2.69,1.95,1.57,2.92,2.68,2.92,3.31,0,.6-.52,.97-1.57,1.12-1.12,0-1.8,.09-2.02,.28-2.06,1.01-4.62,2.06-7.69,3.14l-1.07-.45c.86-1.83,1.61-3.71,2.25-5.61h-33.57c-.08,1.61-.19,2.83-.34,3.65-.37,1.61-.97,2.75-1.8,3.42-.49,.38-1.03,.56-1.63,.56-1.35,0-2.49-.43-3.42-1.29-.86-.67-1.29-1.67-1.29-2.98,0-.52,.65-1.16,1.96-1.91,1.42-.71,2.54-1.55,3.37-2.53,.75-.82,1.37-2.13,1.85-3.93l1.4,.28c0,1.12-.02,2.17-.06,3.14h13.47v-3.42c0-1.8-.22-3.67-.67-5.61Z"/>
        <path class="cls-4" d="M368.96,89.83v-1.25c3.49-3.32,6.51-6.24,9.07-8.77,2.56-2.53,4.74-4.76,6.53-6.7,1.79-1.94,3.24-3.65,4.36-5.1,1.11-1.46,1.98-2.77,2.6-3.93,.62-1.16,1.04-2.22,1.26-3.18,.23-.96,.34-1.93,.34-2.9,0-1.4-.22-2.76-.66-4.07-.44-1.32-1.08-2.48-1.94-3.49-.85-1.01-1.92-1.81-3.2-2.42-1.28-.6-2.77-.91-4.48-.91-1.3,0-2.59,.23-3.86,.68-1.27,.45-2.42,1.06-3.45,1.83s-1.9,1.67-2.61,2.7c-.71,1.03-1.16,2.13-1.35,3.29h-1.35c.14-1.92,.65-3.73,1.51-5.44,.87-1.71,1.99-3.19,3.36-4.46,1.37-1.27,2.95-2.27,4.71-3,1.77-.73,3.61-1.1,5.53-1.1,2.44,0,4.58,.35,6.42,1.05,1.84,.7,3.38,1.64,4.62,2.83,1.24,1.19,2.18,2.57,2.81,4.14,.63,1.58,.94,3.23,.94,4.96,0,1.21-.18,2.42-.53,3.65-.36,1.22-.91,2.5-1.65,3.84-.75,1.34-1.72,2.77-2.92,4.29-1.2,1.52-2.64,3.18-4.32,4.98-1.68,1.8-3.63,3.79-5.83,5.96-2.21,2.17-4.69,4.56-7.47,7.17h25.18l-3.49,5.37h-30.13Z"/>
        <path class="cls-4" d="M424.87,70.76v4.16h-17.32v-4.16h17.32Z"/>
        <path class="cls-4" d="M439.28,65.28c1.8-.21,3.44-.63,4.93-1.25,1.48-.62,2.76-1.4,3.82-2.37,1.07-.96,1.9-2.09,2.49-3.38,.59-1.29,.89-2.71,.89-4.25,0-1.04-.21-2.02-.62-2.93-.41-.91-1-1.71-1.74-2.38s-1.64-1.21-2.67-1.6c-1.03-.39-2.18-.59-3.43-.59-.9,0-1.83,.15-2.79,.46-.96,.31-1.89,.73-2.77,1.26-.89,.53-1.71,1.16-2.45,1.88-.75,.72-1.36,1.49-1.83,2.29l-1.42-.53c.5-1.42,1.17-2.76,2.01-4.02,.84-1.26,1.85-2.35,3.02-3.29,1.17-.94,2.51-1.67,4-2.21,1.49-.53,3.15-.8,4.98-.8,1.73,0,3.35,.25,4.85,.76,1.51,.51,2.82,1.21,3.95,2.1,1.13,.89,2.02,1.94,2.67,3.15,.65,1.21,.98,2.53,.98,3.95,0,.73-.19,1.55-.57,2.45-.38,.9-.9,1.81-1.55,2.74-.65,.92-1.41,1.83-2.28,2.72-.87,.89-1.78,1.68-2.76,2.37,1.35,.4,2.61,1.03,3.79,1.87,1.17,.84,2.2,1.83,3.08,2.97,.88,1.14,1.57,2.37,2.08,3.68,.51,1.32,.76,2.63,.76,3.93,0,2.8-.55,5.24-1.64,7.33-1.09,2.09-2.6,3.82-4.52,5.19-1.92,1.38-4.19,2.41-6.79,3.09-2.61,.69-5.43,1.03-8.46,1.03-1.28,0-2.43-.09-3.45-.28-1.02-.19-1.89-.46-2.6-.8-.71-.34-1.26-.75-1.64-1.23-.38-.47-.57-1-.57-1.57,0-.5,.12-.92,.37-1.26,.25-.34,.56-.62,.94-.82,.38-.2,.79-.34,1.24-.43,.45-.08,.88-.12,1.28-.12,.85,0,1.58,.08,2.19,.25,.6,.17,1.14,.37,1.62,.62,.47,.25,.91,.52,1.32,.8,.4,.28,.83,.55,1.28,.8,.45,.25,.95,.46,1.51,.62,.56,.17,1.23,.25,2.01,.25,1.64,0,3.08-.27,4.34-.8,1.26-.53,2.31-1.26,3.17-2.17,.85-.91,1.5-1.96,1.94-3.13,.44-1.17,.66-2.4,.66-3.68,0-1.64-.31-3.15-.94-4.55-.63-1.4-1.58-2.61-2.86-3.65-1.28-1.03-2.9-1.84-4.87-2.42-1.97-.58-4.28-.87-6.94-.87v-1.21Z"/>
        <path class="cls-4" d="M513.94,45.55c-6.21,1.2-11.94,1.95-17.18,2.25-4.12,.15-9.26,.22-15.44,.22v2.98h29.92c.64-.86,1.2-1.55,1.68-2.08,.49-.6,.97-.9,1.46-.9,.64,0,1.78,.6,3.42,1.8,1.91,1.27,2.86,2.17,2.86,2.69,0,.45-.36,.9-1.07,1.35-.67,.37-1.07,.75-1.18,1.12v5.45c0,.64-.9,1.1-2.69,1.4-.82,.08-1.42,.11-1.8,.11-1.05,0-1.57-.43-1.57-1.29v-.95h-31.05c-.04,5.02-.3,9.47-.79,13.36-.67,3.86-1.87,7.47-3.59,10.83-1.42,2.66-3.39,5.31-5.89,7.97l-1.18-.5c1.95-4.34,3.26-8.44,3.93-12.29,.86-4.72,1.29-11.75,1.29-21.11,0-6.81-.24-11.7-.73-14.65,3.37,1.01,6.01,2.04,7.92,3.09,4.79-.52,9.06-1.16,12.8-1.91,5.09-.86,10.48-2.43,16.17-4.72,1.72,1.09,3.29,2.12,4.72,3.09,1.5,1.09,2.25,1.98,2.25,2.7-.15,.34-.67,.5-1.57,.5l-2.69-.5Zm-17.8,15.1c2.51,.22,4.94,.54,7.3,.96,1.42,.04,2.13,.37,2.13,1.01,0,.3-.41,.67-1.23,1.12-.97,.45-1.46,.99-1.46,1.63v2.25h7.86c.19-.08,.82-.84,1.91-2.3,1.35-1.8,2.13-2.7,2.36-2.7,.79,0,1.96,.86,3.54,2.58,1.57,1.68,2.36,2.71,2.36,3.09,0,.56-.37,.84-1.12,.84h-21c-.19,2.36-.49,4.4-.9,6.12h12.01c.82-.75,1.38-1.27,1.68-1.57,.94-.75,1.57-1.12,1.91-1.12,.56,0,1.67,.66,3.31,1.96,1.68,1.27,2.53,2.19,2.53,2.75,0,.49-.47,.94-1.4,1.35-.86,.38-1.29,.75-1.29,1.12-1.12,5.01-2.02,8.12-2.69,9.32-.6,1.12-1.48,1.96-2.64,2.53-1.09,.49-2,.73-2.75,.73-.56,0-1.1-.67-1.63-2.02-.64-1.54-3.01-3.18-7.13-4.94l.22-1.18c3.41,.49,5.88,.73,7.41,.73,.79,0,1.33-.32,1.63-.95,.37-.79,.93-3.18,1.68-7.19h-13.25c-.26,.79-.52,1.48-.79,2.08-.97,2.32-2.15,4.17-3.54,5.56-1.5,1.57-3.41,2.94-5.73,4.1-2.99,1.61-6.38,2.96-10.16,4.04l-.67-1.18c2.25-.94,4.38-2.1,6.4-3.48,1.98-1.27,3.74-2.96,5.28-5.05,1.16-1.65,2.02-3.52,2.58-5.61,.71-2.51,1.12-5.2,1.24-8.08h-2.19c-3.26,0-5.58,.08-6.96,.22l-.95-2.25c1.83,.34,4.47,.51,7.92,.51h6.74v-2.02c0-1.61-.17-3.26-.5-4.94Zm-14.82-2.47h31.05v-5.67h-31.05v5.67Z"/>
      </g>
      <g>
        <path class="cls-3" d="M171.27,.6c-.19-.02-.61,0-.93,0h-2.15c-.38,0-.83,.01-1.14-.04,0,.02-.08,.08-.08,.08-.03,.08,.04,.13,.04,.13V45.51c0,.2,.06,.64-.04,.76,.01,.1,.02,.1,.04,.17h2.95c.41,0,1.02,.08,1.35-.04V1.9c0-.4,.07-.99-.04-1.31ZM56.56,1.23v-.04c-.15-.03-.31-.06-.46-.08v-.04c-.15-.01-.31-.03-.46-.04v-.04c-.22-.01-.45-.03-.67-.04v-.04h-.63v-.04c-.22-.06-.88,.01-1.05,.04h-.67v.04h-.34v.04h-.38v.04c-.15,.01-.31,.03-.46,.04v.04c-.1,.01-.2,.03-.3,.04v.04h-.17v.04h-.13v.04h-.17v.04h-.13v.04h-.13v.04h-.13v.04h-.13v.04l-.17,.04v.04h-.08v.04h-.13v.04l-.17,.04v.04l-.17,.04-.04,.08c-.08,.03-.17,.06-.25,.08l-.04,.08-.17,.04s-.03,.06-.04,.08h-.08l-.04,.08h-.08l-.04,.08h-.08l-.04,.08h-.08l-.04,.08h-.04l-.04,.08h-.08l-.13,.17h-.08c-.13,.14-.25,.28-.38,.42-.14,.13-.28,.25-.42,.38v.08l-.17,.13v.08l-.13,.08-.04,.13-.08,.04v.08s-.06,.03-.08,.04l-.04,.13h-.04v.08l-.08,.04-.04,.13h-.04c-.01,.06-.03,.11-.04,.17h-.04v.08l-.08,.04v.08l-.08,.08v.08h-.04v.08h-.04v.08h-.04v.08h-.04v.08h-.04v.08h-.04l-.08,.25h-.04v.13h-.04v.08h-.04l-.04,.21h-.04v.13h-.04v.08h-.04c-.01,.08-.03,.17-.04,.25h-.04v.13h-.04v.13h-.04v.13h-.04v.21h-.04v.13h-.04v.13h-.04c-.01,.1-.03,.2-.04,.3h-.04c-.13,.76-.25,1.52-.38,2.28v.55h-.04c-.08,.26,.11,.74-.04,.93v3.5c0,.44,.08,1.22-.04,1.56h-2.53c-.36,0-.89-.06-1.18,.04v3.88c0,.46-.08,1.43,.04,1.77h2.53c.36,0,.89-.06,1.18,.04v24.04c.68,.11,1.82,.04,2.7,.04h2.28c.38,0,.87,.04,1.18-.04h.17v.04c.06-.01,.11-.03,.17-.04V23.12c0-.25-.02-.58,.04-.76h3.21c.42,0,1.15,.08,1.48-.04v-3.67c0-.64,.06-1.41-.04-1.98h-3.16c-.5,0-1.19,.04-1.56,0v-4.01c.01-.56,.03-1.12,.04-1.69h.04v-.42h.04v-.21h.04v-.21h.04v-.3h.04v-.17h.04v-.21h.04c.01-.1,.03-.2,.04-.3h.04l.08-.38h.04v-.08h.04c.01-.07,.03-.14,.04-.21h.04l.08-.25h.04l.08-.25,.08-.04v-.08h.04s.03-.08,.04-.13l.08-.04v-.08c.11-.1,.22-.2,.34-.3,.08-.1,.17-.2,.25-.3h.08l.04-.08s.08-.03,.13-.04v-.04h.08l.04-.08h.08v-.04h.08v-.04h.13v-.04h.13v-.04h.13v-.04h.13v-.04h.3v-.04c.3-.01,.59-.03,.89-.04v.04h.46v.04h.34c.21,.06,.4,.16,.67,.17,.09-.48,.04-1.14,.17-1.6v-.59h.04v-.59h.04v-.46c0-.06,.03,.02,.04-.04v-.63h.04c.01-.27,.03-.53,.04-.8,0-.14-.02-.31,.04-.38-.01-.41-.13-.24-.42-.34Zm10.92,5.4h-.04v-.13h-.04v-.13h-.04v-.13h-.04v-.13h-.04l-.04-.17h-.04v-.13h-.04v-.08l-.08-.04-.04-.17-.08-.04v-.08h-.04l-.04-.13s-.06-.03-.08-.04v-.08c-.06-.04-.11-.08-.17-.13v-.08l-.21-.17c-.08-.1-.17-.2-.25-.3h-.08l-.08-.13-.13-.04-.04-.08-.25-.08-.04-.08h-.08v-.04h-.08v-.04h-.13v-.04h-.08v-.04l-.25-.04v-.04h-.21c-.4-.13-.84-.13-1.39-.13-.11,.09-.3,.03-.46,.08-.21,.07-.42,.14-.63,.21v.04h-.08v.04h-.08l-.08,.08h-.08l-.04,.08c-.06,.01-.11,.03-.17,.04l-.13,.17h-.08c-.11,.13-.22,.25-.34,.38l-.25,.21v.08l-.13,.08v.08l-.13,.08v.08h-.04v.08s-.06,.03-.08,.04v.08l-.08,.08v.08h-.04v.08h-.04l-.08,.25h-.04v.17h-.04v.08h-.04v.17h-.04v.17h-.04v.17h-.04v.34h-.04c-.01,.27-.03,.53-.04,.8h.04v.38h.04v.34h.04l.04,.34h.04v.13h.04v.13h.04v.17h.04v.08h.04v.13l.08,.04v.08h.04v.08l.08,.08v.08s.06,.03,.08,.04v.08l.08,.04v.08l.13,.08v.08c.13,.11,.25,.22,.38,.34,.1,.11,.2,.22,.3,.34h.08l.04,.08,.13,.04v.04c.06,.01,.11,.03,.17,.04l.04,.08,.17,.04v.04l.17,.04v.04h.17v.04h.08v.04h.13v.04h.17v.04h.17v.04h.38c.15,.04,.72,.1,.93,.04v-.04h.3v-.04h.13v-.04h.21v-.04h.08v-.04h.13v-.04h.13v-.04h.13v-.04h.08s.03-.06,.04-.08h.13l.04-.08,.13-.04v-.04l.17-.04,.08-.13h.08l.17-.21h.08v-.04l.17-.13v-.08c.07-.06,.14-.11,.21-.17v-.08l.13-.08v-.08l.08-.04v-.08l.08-.04v-.08l.08-.04,.04-.17h.04c.03-.08,.06-.17,.08-.25h.04v-.13h.04v-.13h.04v-.17h.04v-.08h.04v-.17h.04v-.25h.04v-.34c.12-.42,.03-1.17-.08-1.52v-.17Zm15.73,10.04c-.45,0-1.25,.09-1.6-.04v-.17h.04v-6.79c0-.25,.02-.58-.04-.76h-5.52c-.23,0-.51-.02-.67,.04v7.72l-.13,.04v-.04h-2.49c-.35,0-.86-.06-1.14,.04v5.65h3.75v15.98c0,.29-.02,.66,.04,.89v.59h.04v.46h.04v.46h.04v.3h.04v.25h.04v.17h.04v.3h.04v.17h.04v.13h.04c.03,.18,.06,.37,.08,.55h.04v.13h.04v.13h.04v.13h.04v.08h.04v.13h.04v.08h.04v.13h.04v.13h.04v.08h.04l.04,.21,.08,.04v.08h.04v.08h.04v.08h.04v.08h.04v.08l.08,.08v.08l.08,.04v.08l.08,.04v.08l.08,.04v.08l.08,.04v.08l.17,.13v.08c.07,.06,.14,.11,.21,.17l.04,.13h.08l.08,.17h.08c.08,.1,.17,.2,.25,.3h.08l.08,.13h.08l.04,.08h.08l.04,.08,.13,.04v.04c.08,.03,.17,.06,.25,.08v.04h.08v.04h.08v.04h.08v.04c.08,.03,.17,.06,.25,.08v.04h.13v.04h.08v.04h.17v.04h.13v.04h.13v.04h.13v.04c.11,.01,.22,.03,.34,.04v.04c.38,.06,.76,.11,1.14,.17h.46v.04c.2,.06,1.03,0,1.18-.04h.46v-.04h.38v-.04c.21-.01,.42-.03,.63-.04v-.04h.21v-.04h.17v-.04c.13-.01,.25-.03,.38-.04v-.04h.21v-.04c.1-.01,.2-.03,.3-.04,.3-.11,.61-.26,.89-.38-.04-1.7-.08-3.4-.13-5.1-.18,.02-.18,.08-.3,.13h-.13v.04h-.08v.04h-.17v.04h-.17v.04h-.17v.04h-.21v.04h-.25c-.69,.2-1.57-.06-1.98-.3h-.08l-.04-.08h-.08c-.04-.06-.08-.11-.13-.17h-.08l-.13-.17-.08-.04v-.08l-.17-.13v-.08l-.08-.04c-.03-.08-.06-.17-.08-.25h-.04v-.08h-.04c-.03-.08-.06-.17-.08-.25h-.04c-.04-.2-.08-.39-.13-.59-.3-.91-.25-2.2-.25-3.42v-12.23c0-.46-.05-1.06,0-1.39h5.19v-3.92c0-.46,.08-1.43-.04-1.77h-3.58Zm79.62,13.28v-.93h-.04v-.38h-.04v-.34h-.04v-.3h-.04v-.38h-.04v-.21h-.04v-.21h-.04v-.21h-.04v-.17h-.04v-.17h-.04v-.21h-.04v-.17h-.04v-.17h-.04v-.17h-.04v-.17h-.04v-.13h-.04v-.13h-.04v-.13h-.04v-.13h-.04v-.17h-.04l-.04-.25h-.04v-.08h-.04v-.13h-.04v-.08h-.04l-.04-.25h-.04v-.08h-.04v-.13h-.04v-.08h-.04v-.13h-.04l-.08-.25h-.04v-.08h-.04v-.08h-.04v-.13h-.04l-.08-.25h-.04l-.04-.17-.08-.04v-.08l-.08-.08v-.08h-.04v-.08h-.04v-.08l-.08-.04c-.03-.08-.06-.17-.08-.25l-.08-.04v-.08l-.08-.04v-.08l-.08-.04v-.08l-.08-.04v-.08h-.04l-.04-.13-.08-.04v-.08l-.13-.08v-.08l-.13-.08v-.08l-.13-.08v-.08l-.21-.17v-.08c-.06-.04-.11-.08-.17-.13v-.08c-.14-.13-.28-.25-.42-.38v-.08c-.1-.08-.2-.17-.3-.25-.03-.04-.06-.08-.08-.13h-.08c-.11-.13-.22-.25-.34-.38h-.08l-.21-.25h-.08l-.13-.17h-.08l-.08-.13h-.08l-.04-.08h-.08l-.08-.13h-.08l-.08-.13h-.08l-.04-.08-.17-.04-.04-.08h-.08l-.04-.08h-.08l-.04-.08c-.08-.03-.17-.06-.25-.08l-.04-.08h-.08l-.08-.08h-.08v-.04h-.08l-.04-.08c-.06-.01-.11-.03-.17-.04v-.04l-.25-.08v-.04h-.13v-.04c-.06-.01-.11-.03-.17-.04v-.04h-.08v-.04c-.08-.03-.17-.06-.25-.08v-.04h-.13v-.04h-.08v-.04l-.25-.04v-.04h-.08v-.04l-.21-.04v-.04h-.17v-.04h-.08v-.04h-.17v-.04h-.13v-.04h-.17v-.04h-.08v-.04h-.13v-.04h-.21v-.04h-.17v-.04h-.17v-.04h-.21v-.04h-.17v-.04c-.14-.01-.28-.03-.42-.04v-.04h-.34v-.04h-.21v-.04h-.42v-.04c-.55-.03-1.1-.06-1.64-.08-.66,.01-1.32,.03-1.98,.04-.55,.08-1.1,.17-1.64,.25v.04h-.17v.04h-.17v.04h-.21v.04h-.17v.04h-.17v.04h-.13v.04h-.13v.04h-.17v.04h-.08v.04c-.18,.04-.37,.08-.55,.13v.04h-.08v.04h-.13v.04h-.08v.04h-.13v.04h-.08v.04h-.13v.04h-.08v.04h-.13v.04l-.25,.08v.04h-.08v.04h-.13l-.04,.08c-.13,.04-.25,.08-.38,.13l-.04,.08-.17,.04v.04h-.08v.04h-.08l-.08,.08h-.08l-.04,.08-.17,.04-.04,.08c-.06,.01-.11,.03-.17,.04l-.04,.08h-.08v.04h-.08l-.04,.08h-.08l-.08,.13-.17,.04s-.03,.06-.04,.08h-.08l-.08,.13h-.08l-.08,.13h-.08l-.08,.13h-.08s-.06,.08-.08,.13h-.08l-.13,.17h-.08c-.08,.1-.17,.2-.25,.3h-.08c-.13,.14-.25,.28-.38,.42h-.08l-.3,.34-.17,.13v.08c-.15,.14-.31,.28-.46,.42v.08l-.25,.21v.08c-.07,.06-.14,.11-.21,.17v.08l-.13,.08v.08l-.08,.04v.08l-.13,.08v.08s-.08,.06-.13,.08v.08l-.08,.04s-.03,.08-.04,.13h-.04v.08l-.08,.04-.04,.13h-.04v.08s-.06,.03-.08,.04l-.04,.17-.08,.04-.04,.13h-.04v.08l-.08,.08v.08s-.06,.03-.08,.04v.08l-.08,.08v.08h-.04v.08l-.08,.04-.17,.46h-.04v.08h-.04v.08h-.04v.08h-.04v.08h-.04c-.03,.08-.06,.17-.08,.25h-.04v.13h-.04l-.04,.21h-.04c-.01,.06-.03,.11-.04,.17h-.04v.13h-.04v.08h-.04l-.08,.38h-.04v.13h-.04v.13h-.04v.08h-.04l-.08,.42h-.04c-.01,.1-.03,.2-.04,.3h-.04c-.03,.18-.06,.37-.08,.55h-.04v.13h-.04v.17c-.07,.21-.11,.51-.17,.72l-.04,.55h-.04v.3h-.04v.21h-.04v.76c-.07,.25,.03,.67-.04,.93-.04,.13-.1,.61-.04,.8h.04v.72h.04v.72c.13,.46,.16,1.07,.3,1.52v.25h.04v.17h.04v.13h.04l.04,.38h.04v.13h.04v.13h.04v.21h.04v.13h.04v.13h.04v.13h.04v.08h.04v.17h.04v.08h.04v.17h.04v.08h.04v.13h.04v.08h.04v.13h.04l.04,.17h.04v.13h.04v.08h.04v.13h.04l.04,.17h.04v.08h.04v.13s.06,.03,.08,.04v.08h.04v.13h.04l.08,.25h.04l.04,.17,.08,.04v.08l.08,.08v.08h.04v.08s.06,.03,.08,.04l.08,.25h.04l.04,.13,.08,.04c.01,.06,.03,.11,.04,.17l.08,.04v.08l.08,.04v.08l.08,.04v.08s.06,.03,.08,.04v.08h.04l.04,.13,.08,.04v.08l.13,.08v.08l.13,.08v.08l.13,.08v.08c.06,.04,.11,.08,.17,.13v.08l.17,.13v.08c.1,.08,.2,.17,.3,.25,.13,.18,.23,.35,.42,.46v.08c.21,.06,.48,.44,.63,.59l.13,.08v.04h.08c.08,.1,.17,.2,.25,.3h.08l.08,.13h.08l.08,.13h.08l.13,.17,.13,.04,.04,.08h.08l.04,.08h.08s.06,.08,.08,.13h.08l.04,.08,.17,.04,.04,.08h.08l.04,.08h.08l.04,.08h.08v.04h.08l.04,.08,.25,.08s.03,.06,.04,.08c.08,.03,.17,.06,.25,.08l.04,.08,.21,.04,.04,.08,.17,.04v.04c.06,.01,.11,.03,.17,.04v.04h.13v.04l.25,.08v.04h.08v.04h.08v.04h.13v.04l.17,.04v.04l.38,.08v.04h.08v.04h.13v.04h.08v.04h.13v.04h.13v.04h.13v.04h.17v.04c.1,.01,.2,.03,.3,.04v.04h.13v.04h.13v.04l.51,.08v.04h.21v.04h.21v.04h.21v.04h.21v.04c.18,.01,.37,.03,.55,.04v.04c.24,.01,.48,.03,.72,.04v.04h.63c.33,.09,1.69,.09,2.02,0h.67v-.04h.42v-.04h.3v-.04c.18-.01,.37-.03,.55-.04v-.04h.21v-.04h.21v-.04h.21v-.04c.14-.01,.28-.03,.42-.04v-.04h.13v-.04h.17v-.04c.15-.03,.31-.06,.46-.08v-.04h.13v-.04h.13v-.04c.14-.03,.28-.06,.42-.08v-.04h.08v-.04h.13v-.04h.13v-.04h.13v-.04h.13v-.04c.06-.01,.11-.03,.17-.04v-.04h.13v-.04l.17-.04v-.04l.21-.04v-.04h.13v-.04l.25-.08v-.04h.08v-.04h.08v-.04h.08v-.04h.08v-.04h.08v-.04h.08v-.04h.08l.08-.08h.08l.04-.08c.06-.01,.11-.03,.17-.04l.04-.08,.17-.04,.04-.08,.17-.04,.04-.08h.08l.04-.08h.08l.04-.08h.08l.04-.08h.08s.06-.08,.08-.13h.08l.04-.08h.08l.08-.13h.08l.08-.13h.08l.13-.17s.08-.03,.13-.04l.04-.08h.08l.21-.25h.08c.11-.13,.22-.25,.34-.38h.08c.14-.15,.28-.31,.42-.46,.14-.13,.28-.25,.42-.38v-.08c.2-.18,.39-.37,.59-.55v-.08c.07-.06,.14-.11,.21-.17,.12-.17,.2-.36,.38-.46-.05-.17-.13-.16-.25-.25l-.13-.17h-.08l-.08-.13h-.08l-.13-.17h-.08c-.04-.06-.08-.11-.13-.17h-.08l-.08-.13h-.08l-.13-.17-.13-.04-.04-.08h-.08l-.04-.08h-.04s-.03-.06-.04-.08h-.08l-.13-.17h-.08l-.13-.17s-.08-.03-.13-.04l-.04-.08h-.08l-.04-.08-.13-.04-.17-.21h-.08s-.06-.08-.08-.13h-.08l-.13-.17c-.08,.01-.13,0-.17,.04v.08l-.08,.04v.08l-.08,.04v.08s-.08,.06-.13,.08v.08l-.08,.04v.08l-.13,.08v.08l-.21,.17v.08c-.14,.13-.28,.25-.42,.38v.08l-.13,.08c-.08,.1-.17,.2-.25,.3h-.08c-.14,.15-.28,.31-.42,.46h-.08l-.17,.21h-.08l-.08,.13h-.08l-.13,.17h-.08l-.04,.08h-.08l-.08,.13h-.08l-.04,.08h-.08l-.08,.13h-.08s-.03,.06-.04,.08l-.17,.04-.04,.08h-.08l-.04,.08h-.08s-.03,.06-.04,.08h-.08l-.08,.08h-.08v.04h-.08v.04h-.08l-.04,.08-.17,.04v.04c-.06,.01-.11,.03-.17,.04v.04h-.13v.04l-.17,.04v.04h-.08v.04c-.51,.17-1.01,.34-1.52,.51h-.21v.04h-.17v.04h-.3v.04h-.21v.04c-.2,.01-.39,.03-.59,.04v.04h-.38c-.21,.06-.57,.04-.84,.04-.62,0-1.26,.01-1.73-.13h-.3v-.04h-.25v-.04c-.14-.01-.28-.03-.42-.04v-.04l-.51-.08v-.04h-.13v-.04h-.13v-.04h-.13v-.04h-.13v-.04l-.25-.04v-.04c-.07-.01-.14-.03-.21-.04v-.04h-.08v-.04h-.13v-.04c-.06-.01-.11-.03-.17-.04v-.04h-.08v-.04h-.13v-.04l-.25-.08v-.04h-.08v-.04c-.08-.03-.17-.06-.25-.08l-.04-.08-.25-.08s-.03-.06-.04-.08l-.17-.04-.04-.08c-.06-.01-.11-.03-.17-.04v-.04l-.13-.04-.04-.08h-.08l-.08-.13h-.08l-.04-.08h-.08l-.08-.13h-.08l-.08-.13h-.08l-.17-.21h-.08l-.25-.3h-.08l-.17-.21c-.14-.13-.28-.25-.42-.38v-.08c-.13-.11-.25-.23-.38-.34v-.08l-.08-.04v-.04l-.13-.08v-.08l-.13-.08v-.08l-.08-.04v-.08s-.08-.06-.13-.08v-.08l-.08-.04-.04-.13h-.04v-.08l-.08-.04-.04-.13h-.04l-.08-.25-.08-.04v-.08l-.08-.08v-.08h-.04v-.08h-.04v-.08l-.08-.04c-.01-.07-.03-.14-.04-.21h-.04l-.04-.17h-.04v-.08h-.04v-.13l-.08-.04v-.13h-.04l-.04-.17h-.04c-.03-.13-.06-.25-.08-.38h-.04v-.08h-.04c-.14-.51-.28-1.01-.42-1.52v-.25h-.04v-.21h-.04v-.34h-.04v-.34h-.04c-.06-.21,.07-.53-.04-.67,0-.12,.01-.18,.04-.25h24.54c.1-.54,.08-1.18,.08-1.81,0-.3,.02-.69-.04-.93Zm-4.39-.67h-19.53c-.22,0-.48,.01-.63-.04,0-.67,.12-1.26,.3-1.77,.01-.11,.03-.22,.04-.34h.04v-.13h.04v-.17h.04v-.08h.04v-.17h.04l.04-.17h.04c.01-.08,.03-.17,.04-.25h.04l.04-.21h.04l.04-.17h.04v-.08h.04v-.13l.08-.04c.04-.13,.08-.25,.13-.38l.08-.04c.03-.08,.06-.17,.08-.25l.08-.04,.04-.17,.08-.04c.01-.06,.03-.11,.04-.17l.08-.04v-.08l.08-.04v-.08l.08-.04v-.08l.08-.04v-.08c.06-.04,.11-.08,.17-.13v-.08l.13-.08v-.08l.21-.17c.93-1.29,2.29-2.19,3.75-2.95h.13v-.04h.08v-.04h.13v-.04h.08v-.04h.13v-.04h.08v-.04c.08-.01,.17-.03,.25-.04v-.04h.08v-.04l.25-.04v-.04c.11-.01,.22-.03,.34-.04v-.04h.17v-.04h.21v-.04h.17v-.04h.21v-.04h.21v-.04c.31-.03,.62-.06,.93-.08,.17,0,.45,.04,.55-.04,2.31,.02,4.14,.45,5.57,1.35l.17,.04,.04,.08h.08l.04,.08h.08l.08,.13h.08l.04,.08h.08l.08,.13h.08l.13,.17h.08c.2,.21,.39,.42,.59,.63,.08,.07,.17,.14,.25,.21v.08c.08,.07,.17,.14,.25,.21v.08l.08,.04v.08c.06,.04,.11,.08,.17,.13l.04,.13,.08,.04v.08l.08,.04,.04,.13h.04v.08l.08,.04,.04,.13h.04l.08,.25s.06,.03,.08,.04l.04,.17,.08,.04,.04,.17h.04c.01,.06,.03,.11,.04,.17h.04v.13h.04v.08h.04v.08h.04l.08,.25h.04v.13h.04v.08h.04l.04,.25h.04v.08h.04v.13h.04v.13h.04v.13h.04v.13h.04l.04,.3h.04c.01,.13,.03,.25,.04,.38h.04v.17h.04v.13h.04v.25h.04v.21h.04c.01,.21,.03,.42,.04,.63h.04c.05,.16-.04,.36,.04,.46,0,.19,0,.42-.04,.55Zm-91.39,13.45V16.67h-4.64c-.52,0-1.65-.09-1.98,.08,.05,.65,0,1.62,0,2.4v26.61c0,.18,.06,.43,0,.51,.02,.14,0,.14,.13,.17,.1,.07,1.02,.04,1.35,.04h4.6c.17,0,.29-.08,.38,0,.14-.02,.12-.04,.21-.08-.1-1.14-.04-2.46-.04-3.67Zm66.46-25.98h-3.08c-.41,0-1.12-.07-1.43,.04-.06,.17-.11,.34-.17,.51v.13h-.04v.08h-.04l-.08,.51h-.04c-.01,.1-.03,.2-.04,.3h-.04l-.08,.42h-.04v.08h-.04v.17h-.04v.13h-.04l-.08,.51h-.04v.13h-.04v.13h-.04v.13h-.04v.13h-.04v.13h-.04c-.01,.11-.03,.22-.04,.34h-.04l-.08,.42h-.04c-.03,.14-.06,.28-.08,.42h-.04l-.04,.3h-.04v.13h-.04v.17h-.04v.13h-.04v.17h-.04v.08h-.04c-.01,.1-.03,.2-.04,.3h-.04v.17h-.04v.17h-.04v.13h-.04v.17h-.04v.08h-.04c-.07,.3-.14,.59-.21,.89h-.04c-.01,.1-.03,.2-.04,.3h-.04c-.01,.1-.03,.2-.04,.3h-.04v.13h-.04v.13h-.04v.17h-.04v.13h-.04v.17h-.04v.13h-.04v.13h-.04v.13h-.04v.13h-.04v.21h-.04v.08h-.04c-.03,.17-.06,.34-.08,.51h-.04v.13h-.04v.13h-.04v.13h-.04v.13h-.04c-.01,.1-.03,.2-.04,.3h-.04c-.01,.1-.03,.2-.04,.3h-.04v.17h-.04v.13h-.04v.17h-.04v.13h-.04v.08h-.04l-.17,.8c-.51,1.4-.84,2.98-1.35,4.39v.17h-.04v.17h-.04v.13h-.04v.17h-.04v.08h-.04c-.03,.15-.06,.31-.08,.46h-.04v.13h-.04v.13h-.04c-.01,.11-.03,.22-.04,.34-.37,1.04-.63,2.21-1.01,3.25v.17h-.04v.13h-.04v.17h-.04v.13h-.04v.13h-.04v.13h-.04c-.03,.15-.06,.31-.08,.46h-.04v.17h-.04v.13h-.04v.08h-.04v.21h-.04l-.04,.08h-.08l-.04-.13h-.04v-.13h-.04v-.13h-.04v-.08h-.04v-.17h-.04v-.08h-.04c-.04-.18-.08-.37-.13-.55h-.04c-.01-.08-.03-.17-.04-.25h-.04v-.08h-.04l-.04-.25h-.04v-.17h-.04v-.08h-.04l-.08-.42h-.04v-.08h-.04v-.13h-.04v-.13h-.04v-.13h-.04v-.13h-.04v-.17h-.04l-.04-.25h-.04v-.08h-.04c-.01-.08-.03-.17-.04-.25h-.04v-.13h-.04v-.13h-.04v-.13h-.04v-.13h-.04v-.13h-.04v-.17c-.6-1.5-1.04-3.17-1.64-4.68l-.13-.55h-.04v-.08h-.04c-.03-.14-.06-.28-.08-.42h-.04v-.08h-.04c-.01-.1-.03-.2-.04-.3h-.04l-.04-.25h-.04v-.08h-.04v-.13h-.04v-.13h-.04v-.13h-.04v-.13h-.04c-.04-.18-.08-.37-.13-.55h-.04v-.08h-.04v-.13h-.04v-.13h-.04v-.13h-.04v-.13h-.04v-.13h-.04v-.13h-.04v-.13h-.04v-.13h-.04v-.08h-.04v-.17h-.04v-.13h-.04v-.13h-.04v-.13h-.04l-.04-.25h-.04v-.08h-.04v-.17h-.04v-.08h-.04v-.13h-.04v-.13h-.04v-.13h-.04v-.17h-.04l-.04-.25h-.04v-.08h-.04v-.17h-.04v-.08h-.04c-.04-.18-.08-.37-.13-.55h-.04v-.08h-.04v-.13h-.04v-.13h-.04v-.13h-.04v-.13h-.04c-.08-.3-.17-.59-.25-.89h-.04v-.08h-.04v-.17h-.04v-.13h-.04v-.13h-.04v-.13h-.04v-.13h-.04v-.13h-.04c-.01-.08-.03-.17-.04-.25h-.04v-.08h-.04v-.17h-.04v-.08h-.04v-.17h-.04v-.13h-.04v-.13h-.04v-.13h-.04v-.13h-.04v-.08h-.04l-.04-.3h-.04v-.08h-.04v-.17h-.04v-.08h-.04v-.17h-.04v-.08h-.04l-.04-.25h-.04v-.13h-.04v-.13h-.04v-.13h-.04v-.17h-.04v-.08h-.04l-.08-.38h-.04v-.13h-.04v-.13h-.04v-.13h-.04v-.13h-.04l-.04-.25h-.04v-.08h-.04v-.17h-.04v-.08h-.04v-.17h-.04v-.08h-.04v-.17h-.04c-.03-.13-.06-.25-.08-.38h-.04v-.08s-.06-.03-.08-.08h-4.13l-.04,.17h-.04v.17h-.04v.08h-.04l-.04,.25h-.04c-.04,.18-.08,.37-.13,.55h-.04v.08h-.04v.17h-.04v.08h-.04v.13h-.04v.17h-.04v.13h-.04v.13h-.04v.13h-.04v.13h-.04v.08h-.04v.13h-.04v.17h-.04v.13h-.04v.13h-.04v.13h-.04v.13h-.04v.13h-.04c-.01,.08-.03,.17-.04,.25h-.04v.08h-.04v.17h-.04v.13h-.04v.13h-.04v.13h-.04v.13h-.04v.13h-.04v.13h-.04v.13h-.04v.13h-.04v.13h-.04v.13h-.04v.17h-.04v.08h-.04v.17h-.04v.08h-.04l-.04,.25h-.04c-.01,.1-.03,.2-.04,.3h-.04v.08h-.04v.17h-.04v.08h-.04v.17h-.04v.08h-.04c-.07,.27-.14,.53-.21,.8h-.04v.08h-.04c-.01,.1-.03,.2-.04,.3h-.04v.08h-.04c-.03,.14-.06,.28-.08,.42h-.04v.13h-.04v.13h-.04v.13h-.04v.08h-.04v.17h-.04v.08h-.04v.17h-.04v.13h-.04v.13h-.04v.13h-.04l-.04,.25c-.22,.51-.38,1.12-.59,1.64l-.04,.3h-.04v.08h-.04l-.04,.25h-.04v.13h-.04v.13h-.04v.13h-.04v.13h-.04v.13h-.04v.13h-.04v.17h-.04v.08h-.04c-.04,.18-.08,.37-.13,.55h-.04l-.04,.25h-.04v.08h-.04v.17h-.04v.08h-.04l-.13,.55h-.04l-.04,.25h-.04v.08h-.04c-.03,.13-.06,.25-.08,.38h-.04v.17h-.04v.13h-.04v.13h-.04v.13h-.04c-.01,.08-.03,.17-.04,.25h-.04v.08h-.04v.17h-.04v.08h-.04v.17h-.04v.13h-.04v.13h-.04v.13h-.04l-.04,.25h-.04v.08h-.04c-.06,.24-.11,.48-.17,.72h-.04v.08h-.04l-.04,.25h-.04v.13h-.04v.13h-.04v.13h-.04v.13h-.04v.13h-.04v.17h-.04v.08h-.04l-.04,.25h-.04v.13h-.04v.13h-.04v.13h-.04v.17h-.04v.08h-.04l-.04,.25h-.04v.13h-.04v.13h-.04v.13h-.04v.17h-.04v.13h-.04v.08h-.04v.17h-.04v.08h-.04v.17h-.04v.08h-.04l-.04,.3h-.04l-.04,.25h-.04c-.01,.08-.03,.17-.04,.25h-.04v.08h-.04v.17h-.04v.08h-.04c-.01,.1-.03,.2-.04,.3h-.04v.13h-.04v.13h-.04v.13h-.04l-.04,.21h-.04v.04h-.13c-.08-.31-.17-.62-.25-.93h-.04v-.17h-.04v-.13h-.04v-.17h-.04c-.01-.1-.03-.2-.04-.3h-.04v-.13h-.04v-.13h-.04v-.13h-.04v-.13h-.04v-.17h-.04v-.13h-.04l-.04-.3h-.04v-.21h-.04v-.08h-.04c-.01-.1-.03-.2-.04-.3h-.04c-.01-.1-.03-.2-.04-.3h-.04c-.01-.1-.03-.2-.04-.3h-.04v-.13h-.04v-.13h-.04v-.13h-.04c-.07-.3-.14-.59-.21-.89h-.04c-.03-.14-.06-.28-.08-.42h-.04v-.08h-.04v-.21h-.04c-.03-.14-.06-.28-.08-.42h-.04c-.04-.18-.08-.37-.13-.55h-.04v-.13h-.04v-.13h-.04l-.04-.34h-.04v-.13h-.04v-.13h-.04v-.17h-.04v-.08h-.04v-.17h-.04v-.13h-.04v-.17h-.04c-.01-.1-.03-.2-.04-.3h-.04c-.03-.14-.06-.28-.08-.42h-.04v-.13h-.04v-.13h-.04v-.17h-.04v-.17h-.04v-.13h-.04v-.13h-.04v-.17h-.04v-.13h-.04v-.13h-.04v-.13h-.04c-.01-.1-.03-.2-.04-.3h-.04v-.17h-.04v-.17h-.04v-.13h-.04v-.13h-.04v-.13h-.04v-.13h-.04c-.01-.1-.03-.2-.04-.3h-.04v-.17h-.04l-.04-.3h-.04v-.08h-.04v-.21h-.04v-.08h-.04v-.17h-.04v-.13h-.04v-.13h-.04v-.17h-.04c-.01-.1-.03-.2-.04-.3h-.04v-.13h-.04v-.13h-.04v-.13h-.04v-.13h-.04l-.04-.34h-.04l-.04-.3h-.04v-.13h-.04v-.13h-.04v-.13h-.04v-.17h-.04v-.13h-.04v-.17h-.04c-.01-.1-.03-.2-.04-.3h-.04v-.13h-.04v-.13h-.04v-.13h-.04v-.13h-.04c-.01-.1-.03-.2-.04-.3h-.04v-.17h-.04v-.13h-.04v-.17h-.04l-.08-.42h-.04c-.01-.1-.03-.2-.04-.3h-.04v-.13h-.04v-.17h-.04c-.01-.1-.03-.2-.04-.3h-.04v-.08h-.04c-.04-.2-.08-.39-.13-.59h-.04l-.13-.59h-.04v-.13h-.04v-.13h-.04v-.13h-.04v-.13h-.04c-.01-.11-.03-.22-.04-.34h-.04v-.13h-.04v-.17h-.04v-.08h-.04v-.21h-.04v-.08h-.04c-.03-.15-.06-.31-.08-.46h-.04l-.08-.42h-.04v-.08h-.04v-.17h-.04v-.13h-.04v-.17h-.04v-.13h-.04v-.17h-.04c-.01-.1-.03-.2-.04-.3-.07-.2-.2-.41-.21-.67-.05-.04,0,0-.04-.04h-4.6c.04,.31,.2,.62,.3,.89v.17h.04v.13h.04v.17h.04v.08h.04v.17h.04v.08h.04v.17h.04l.13,.55h.04v.13h.04v.13h.04v.13h.04v.13h.04v.13h.04v.13h.04c.01,.1,.03,.2,.04,.3h.04v.13h.04v.13h.04v.13h.04v.13h.04v.17h.04v.13h.04v.13h.04v.13h.04l.04,.3h.04v.08h.04v.17h.04v.08h.04v.17h.04v.13h.04v.17h.04v.08h.04v.21h.04v.08h.04v.13h.04v.13h.04v.13h.04v.17h.04v.13h.04v.13h.04v.13h.04l.13,.55h.04v.08h.04v.17h.04v.13h.04v.17h.04l.04,.25h.04v.13h.04v.13h.04v.13h.04v.13h.04l.13,.55h.04l.04,.3h.04v.08h.04c.06,.24,.11,.48,.17,.72h.04v.13h.04v.08h.04c.01,.1,.03,.2,.04,.3h.04c.03,.14,.06,.28,.08,.42h.04v.13h.04v.13h.04v.13h.04v.13h.04v.17h.04v.08h.04v.17h.04v.13h.04v.17c.62,1.7,1.11,3.57,1.73,5.27v.17h.04v.13h.04v.13h.04v.17h.04v.08h.04c.01,.1,.03,.2,.04,.3h.04v.13h.04v.13h.04v.13h.04l.13,.55h.04v.08h.04c.06,.25,.11,.51,.17,.76h.04v.08h.04v.17h.04v.13h.04v.08h.04v.17h.04v.13h.04v.17h.04v.08h.04v.17h.04l.04,.25h.04v.13h.04v.13h.04v.13h.04v.13h.04c.01,.1,.03,.2,.04,.3h.04v.17h.04v.08h.04c.04,.18,.08,.37,.13,.55h.04v.13h.04v.13h.04v.13h.04v.13h.04v.17h.04v.08h.04v.17h.04v.13h.04v.13h.04l.08,.42h.04v.08h.04v.17h.04c.04,.18,.08,.37,.13,.55h.04v.13h.04v.13h.04v.17h.04v.08h.04l.08,.42h.04l.08,.42h.04l.04,.25h.04v.13h.04v.13h.04v.13h.04v.13h.04v.17h.04c.01,.08,.03,.17,.04,.25h.04v.13h.04v.13h.04v.13h.04v.13h.04v.17h.04v.13h.04v.17h.04l.04,.17h4.72c.02-.14,.03-.23,.08-.34h.04l.04-.3h.04v-.17h.04v-.08h.04v-.17h.04v-.08h.04v-.13h.04v-.13h.04v-.13h.04c.03-.14,.06-.28,.08-.42h.04c.01-.1,.03-.2,.04-.3h.04l.04-.17h.04l.17-.72h.04v-.13h.04v-.08h.04l.17-.72h.04v-.13h.04v-.13h.04v-.13h.04v-.08h.04v-.17h.04v-.08h.04v-.17h.04v-.13h.04v-.13h.04v-.13h.04v-.13h.04v-.13h.04v-.13h.04l.04-.25h.04c.01-.1,.03-.2,.04-.3h.04c.01-.08,.03-.17,.04-.25h.04v-.13h.04v-.13h.04v-.13h.04v-.13h.04v-.13h.04l.04-.25h.04l.08-.42h.04v-.08h.04c.06-.24,.11-.48,.17-.72h.04v-.08h.04v-.17h.04v-.08h.04v-.13h.04v-.13h.04v-.13h.04v-.17h.04c.04-.18,.08-.37,.13-.55h.04v-.08h.04l.13-.55h.04v-.13h.04v-.13h.04v-.13h.04v-.13h.04v-.13h.04v-.13h.04c.03-.14,.06-.28,.08-.42,.61-1.67,1.12-3.47,1.73-5.15v-.17h.04l.04-.25h.04v-.13h.04v-.13h.04v-.13h.04v-.13h.04v-.13h.04l.04-.25h.04v-.17h.04v-.13h.04v-.13h.04v-.13h.04v-.13h.04v-.08h.04v-.17h.04v-.13h.04v-.13h.04v-.17h.04l.04-.25h.04v-.08h.04l.04-.3h.04v-.08h.04v-.17h.04v-.13h.04v-.17h.04v-.08h.04v-.13h.04v-.13h.04v-.13h.04c.07-.27,.14-.53,.21-.8h.04v-.13h.04v-.13h.04v-.13h.04v-.13h.04v-.13h.04l.13-.55h.04v-.08h.04v-.17h.04v-.08h.04c.03-.14,.06-.28,.08-.42h.13c.09,.19,.18,.44,.25,.63v.13h.04l.04,.3h.04v.08h.04v.13h.04v.13h.04v.13h.04c.04,.18,.08,.37,.13,.55h.04v.08h.04v.17h.04v.08h.04v.17h.04v.08h.04c.04,.18,.08,.37,.13,.55h.04v.08h.04l.08,.42h.04l.04,.25h.04l.04,.25h.04v.13h.04v.13h.04v.13h.04v.13h.04v.13h.04l.04,.25h.04v.17h.04v.13h.04v.08h.04v.13h.04v.13h.04v.13h.04v.13h.04l.04,.3h.04l.04,.25h.04v.13h.04v.08h.04v.13h.04c.01,.1,.03,.2,.04,.3h.04v.17h.04v.08h.04v.17h.04v.08h.04c.01,.08,.03,.17,.04,.25h.04v.13h.04v.13h.04v.13h.04v.17h.04v.08h.04v.17h.04v.08h.04l.04,.25h.04c.03,.14,.06,.28,.08,.42h.04c.01,.08,.03,.17,.04,.25h.04v.08h.04c.03,.14,.06,.28,.08,.42h.04v.08h.04c.04,.18,.08,.37,.13,.55h.04v.08h.04v.17h.04v.08h.04v.17h.04c.04,.18,.08,.37,.13,.55h.04v.08h.04v.13h.04v.13h.04c.01,.1,.03,.2,.04,.3h.04v.08h.04l.08,.42h.04v.08h.04l.04,.3h.04v.13h.04v.13h.04v.13h.04v.13h.04v.13h.04l.04,.25h.04v.08h.04v.13h.04c.06,.24,.11,.48,.17,.72h.04v.08h.04v.13h.04v.13h.04v.13h.04v.13h.04v.17h.04v.13h.04v.08h.04v.17c.5,1.25,.85,2.67,1.35,3.92v.17h.04l.04,.25h.04v.08h.04v.13h.04v.17h.04l.13,.55h.04v.08h.04l.04,.25h.04v.13h.04v.13h.04v.13h.04v.17h.04v.08h.04c.03,.13,.06,.25,.08,.38h.04v.13h.04v.13h.04v.13h.04v.13h.04v.17c.04,.11,.11,.18,.13,.34h3.21c.49,0,1.16,.05,1.52,0,3.12-9.88,6.24-19.77,9.36-29.65h-.04v-.04Z"/>
        <rect class="cls-9" x="25.34" y=".56" width="9.56" height="9.56"/>
        <rect class="cls-8" x="25.34" y="12.48" width="9.56" height="9.56"/>
        <rect class="cls-5" x="25.34" y="24.41" width="9.56" height="9.56"/>
        <rect class="cls-7" x="25.34" y="36.34" width="9.56" height="9.56"/>
        <rect class="cls-1" x="13.21" y="24.41" width="9.56" height="9.56"/>
        <rect class="cls-6" x="13.21" y="36.34" width="9.56" height="9.56"/>
        <rect class="cls-2" x="1.08" y="36.34" width="9.56" height="9.56"/>
        <g>
          <path class="cls-4" d="M179.94,6.09c-.02-.18-.1-.43-.36-1.04-.35-.83-.59-1.07-1.08-1.07h-1.13v1.42c0,.31,.01,.47,.05,.69h-.56c.04-.22,.05-.38,.05-.68V2.15c0-.26-.01-.46-.05-.7,.21,.01,.38,.02,.66,.02h1.34c.88,0,1.37,.41,1.37,1.17,0,.39-.11,.68-.36,.89-.18,.16-.33,.23-.66,.3,.25,.07,.4,.24,.62,.67,.15,.29,.29,.6,.48,1.02,.1,.24,.19,.42,.27,.57h-.64Zm-1.12-2.53c.27,0,.52-.1,.69-.26,.16-.15,.23-.35,.23-.61,0-.52-.3-.8-.88-.8h-1.48v1.67h1.44Z"/>
          <path class="cls-4" d="M178.48,7.48c-2.06,0-3.74-1.68-3.74-3.74s1.68-3.74,3.74-3.74,3.74,1.68,3.74,3.74-1.68,3.74-3.74,3.74Zm0-7.07c-1.84,0-3.33,1.49-3.33,3.33s1.49,3.33,3.33,3.33,3.33-1.49,3.33-3.33-1.49-3.33-3.33-3.33Z"/>
        </g>
      </g>
    </g>
  </g>
</svg>