<?xml version="1.0" encoding="UTF-8"?>
<svg id="_圖層_2" data-name="圖層 2" xmlns="http://www.w3.org/2000/svg" viewBox="0 0 279.95 91.64">
  <defs>
    <style>
      .cls-1 {
        fill: #c9a063;
      }
    </style>
  </defs>
  <g id="_圖層_1-2" data-name="圖層 1">
    <g>
      <path class="cls-1" d="M6.47,26.73v-1.1c1.41-.08,2.39-.39,2.95-.93,.55-.54,.83-1.46,.83-2.77V1.63h-3.04c-1.53,0-2.77,.38-3.71,1.14-.94,.76-1.73,2.02-2.37,3.8H0L.89,.52H23.35l.89,6.04h-1.1c-.64-1.76-1.43-3.02-2.38-3.79-.95-.76-2.19-1.15-3.73-1.15h-3.15V21.93c0,1.31,.27,2.24,.81,2.78,.54,.54,1.51,.85,2.91,.92v1.1H6.47Z"/>
      <path class="cls-1" d="M25.94,26.73v-1.1c1.41-.08,2.39-.39,2.95-.93,.55-.54,.83-1.46,.83-2.77V5.3c0-1.3-.28-2.22-.83-2.75-.55-.53-1.54-.84-2.95-.92V.52h11.06V1.63c-1.41,.08-2.39,.39-2.95,.92-.55,.53-.83,1.45-.83,2.75v7.37h12.85V5.3c0-1.3-.27-2.22-.82-2.75-.55-.53-1.53-.84-2.96-.92V.52h11.06V1.63c-1.41,.08-2.39,.39-2.95,.92-.55,.53-.83,1.45-.83,2.75V21.93c0,1.3,.28,2.22,.83,2.76,.55,.54,1.54,.86,2.95,.94v1.1h-11.06v-1.1c1.41-.08,2.39-.39,2.95-.93,.55-.54,.83-1.46,.83-2.77V13.88h-12.85v8.04c0,1.31,.28,2.24,.83,2.77,.55,.54,1.54,.85,2.95,.93v1.1h-11.06Z"/>
      <path class="cls-1" d="M56.12,26.73v-1.1c1.41-.08,2.39-.39,2.95-.93,.55-.54,.83-1.46,.83-2.77V5.3c0-1.3-.28-2.22-.83-2.75-.55-.53-1.54-.84-2.95-.92V.52h20.28l.11,5.51h-1.03c-.34-1.7-.95-2.85-1.84-3.45-.93-.64-2.54-.96-4.83-.96h-4.48c-.61,0-.92,.25-.92,.74V12.25h2.86c2.73,0,4.5-.26,5.31-.78,.74-.46,1.12-1.46,1.14-3h1.03v8.97h-1.03c-.02-1.63-.4-2.68-1.12-3.15-.8-.54-2.57-.81-5.33-.81h-2.86v8.44c0,1.42,.33,2.39,.98,2.92,.66,.52,1.89,.79,3.71,.79,2.23,0,3.98-.42,5.26-1.26,1.28-.84,2.37-2.29,3.29-4.35l1.12,.27-1.59,6.43h-20.06Z"/>
      <path class="cls-1" d="M89.82,26.73v-1.1c1.41-.08,2.39-.39,2.95-.93,.55-.54,.83-1.46,.83-2.77V5.3c0-1.3-.28-2.22-.83-2.75-.55-.53-1.54-.84-2.95-.92V.52h9.96c3.06,0,5.45,.55,7.16,1.64,1.71,1.09,2.57,2.61,2.57,4.55,0,1.64-.56,3-1.68,4.09-1.12,1.09-2.66,1.76-4.61,2.02v.11c2.27,.18,4.07,.89,5.42,2.11s2.02,2.77,2.02,4.63c0,2.27-.87,4.01-2.6,5.23-1.73,1.22-4.22,1.83-7.46,1.83h-10.77Zm7.28-14.48h2.44c1.87,0,3.36-.48,4.47-1.44,1.11-.96,1.67-2.23,1.67-3.82s-.66-2.82-1.99-3.84c-1.33-1.02-3.01-1.53-5.04-1.53h-.29c-.57,0-.92,.05-1.06,.14-.14,.09-.21,.29-.21,.61V12.25Zm0,9.67c0,1.3,.29,2.24,.87,2.81s1.52,.86,2.84,.86c1.65,0,3.05-.58,4.18-1.73,1.14-1.15,1.71-2.56,1.71-4.24,0-1.88-.75-3.37-2.25-4.48-1.5-1.11-3.53-1.66-6.08-1.66h-1.27v8.44Z"/>
      <path class="cls-1" d="M117.9,5.3c0-1.27-.26-2.16-.77-2.69-.51-.53-1.43-.86-2.76-.98V.52h10.63V1.63c-1.36,.12-2.3,.44-2.82,.97s-.78,1.43-.78,2.7v14.15c0,1.77,.61,3.17,1.83,4.19,1.22,1.02,2.88,1.54,4.99,1.54,4.66,0,6.99-2.77,6.99-8.3V6c0-1.57-.29-2.68-.88-3.34s-1.58-1.01-2.97-1.03V.52h8.86V1.63c-1.42,.08-2.41,.39-2.96,.92-.55,.53-.82,1.45-.82,2.75v11.37c0,7.06-3.19,10.59-9.56,10.59-2.75,0-4.93-.7-6.55-2.1-1.62-1.4-2.43-3.27-2.43-5.6V5.3Z"/>
      <path class="cls-1" d="M142.92,26.73v-1.1c1.41-.08,2.39-.39,2.95-.93,.55-.54,.83-1.46,.83-2.77V5.3c0-1.3-.27-2.22-.82-2.75-.55-.53-1.53-.84-2.96-.92V.52h11.13V1.63c-1.41,.08-2.39,.39-2.94,.92-.55,.53-.82,1.45-.82,2.75V21.93c0,1.31,.28,2.24,.83,2.77,.55,.54,1.53,.85,2.93,.93v1.1h-11.13Z"/>
      <path class="cls-1" d="M157.13,26.73v-1.1c1.41-.08,2.39-.39,2.95-.93,.55-.54,.83-1.46,.83-2.77V5.3c0-1.3-.27-2.22-.82-2.75-.55-.53-1.53-.84-2.96-.92V.52h11.03V1.63c-1.41,.08-2.39,.39-2.95,.92-.55,.53-.83,1.45-.83,2.75V21.93c0,1.4,.33,2.36,.98,2.9,.65,.54,1.82,.8,3.51,.8,2.6,0,4.57-.44,5.91-1.31,1.34-.87,2.43-2.42,3.27-4.65l1.08,.25-1.55,6.81h-20.44Z"/>
      <path class="cls-1" d="M181.8,26.73v-1.1c1.41-.08,2.39-.39,2.95-.93,.55-.54,.83-1.46,.83-2.77V5.3c0-1.3-.28-2.22-.83-2.75-.55-.53-1.54-.84-2.95-.92V.52h11.1c4.83,0,8.59,1.14,11.27,3.41s4.02,5.44,4.02,9.52-1.42,7.22-4.27,9.76c-2.63,2.35-6.03,3.52-10.21,3.52h-11.91Zm7.28-4.84c0,2.49,1.49,3.74,4.48,3.74s5.65-1.14,7.67-3.43c2.02-2.29,3.03-5.2,3.03-8.75s-1.14-6.41-3.43-8.58c-2.28-2.16-5.32-3.24-9.12-3.24-1.14,0-2.02,.1-2.64,.31V21.89Z"/>
      <path class="cls-1" d="M212.13,26.73v-1.1c1.41-.08,2.39-.39,2.95-.93,.55-.54,.83-1.46,.83-2.77V5.3c0-1.3-.27-2.22-.82-2.75-.55-.53-1.53-.84-2.96-.92V.52h11.13V1.63c-1.41,.08-2.39,.39-2.94,.92-.55,.53-.82,1.45-.82,2.75V21.93c0,1.31,.28,2.24,.83,2.77,.55,.54,1.53,.85,2.93,.93v1.1h-11.13Z"/>
      <path class="cls-1" d="M231.02,6.48v14.78c0,1.57,.29,2.68,.89,3.35,.59,.66,1.59,1.01,3,1.03v1.1h-8.84v-1.1c1.41-.08,2.39-.4,2.95-.94,.55-.54,.83-1.46,.83-2.76V4.83c-1.65-2.13-3.05-3.2-4.19-3.2h-.25V.52h5.1l17.33,20.59V6c0-1.57-.3-2.68-.89-3.34-.6-.66-1.59-1.01-2.99-1.03V.52h8.84V1.63c-1.41,.08-2.39,.39-2.95,.92-.55,.53-.83,1.45-.83,2.75V21.78c0,1.95,.16,3.78,.49,5.48h-.98s-17.49-20.78-17.49-20.78Z"/>
      <path class="cls-1" d="M277.16,25.81c-.35,.04-1.75,.3-4.19,.8-2.17,.43-3.66,.65-4.46,.65-3.13,0-5.68-.78-7.63-2.33-3.55-2.83-5.33-6.53-5.33-11.08,0-2.74,.68-5.26,2.04-7.57,1.33-2.23,3.04-3.89,5.13-4.97,1.71-.87,3.63-1.3,5.75-1.3,2.75,0,5.3,.56,7.66,1.68l.51,5.66h-1.1c-.53-1.96-1.46-3.49-2.77-4.56-1.32-1.08-2.91-1.62-4.78-1.62-2.61,0-4.69,1.08-6.22,3.23-1.53,2.15-2.3,5.09-2.3,8.8s.85,6.92,2.54,9.34c1.69,2.42,3.86,3.63,6.5,3.63,1.7,0,3.42-.44,5.15-1.32v-6.61c0-1.23-.25-2.12-.76-2.68-.51-.55-1.33-.85-2.46-.89v-1.14h9.51v1.1c-1.02,.14-1.74,.49-2.16,1.04-.42,.55-.62,1.44-.62,2.67v7.48Z"/>
      <path class="cls-1" d="M.92,58.92v-1.1c1.41-.08,2.39-.39,2.95-.93,.55-.54,.83-1.46,.83-2.77v-16.63c0-1.3-.28-2.22-.83-2.75-.55-.53-1.54-.84-2.95-.92v-1.1H11.98v1.1c-1.41,.08-2.39,.39-2.95,.92-.55,.53-.83,1.45-.83,2.75v7.37h12.85v-7.37c0-1.3-.27-2.22-.82-2.75-.55-.53-1.53-.84-2.96-.92v-1.1h11.06v1.1c-1.41,.08-2.39,.39-2.95,.92-.55,.53-.83,1.45-.83,2.75v16.63c0,1.3,.28,2.22,.83,2.76,.55,.54,1.54,.86,2.95,.94v1.1h-11.06v-1.1c1.41-.08,2.39-.39,2.95-.93,.55-.54,.83-1.46,.83-2.77v-8.04H8.21v8.04c0,1.31,.28,2.24,.83,2.77,.55,.54,1.54,.85,2.95,.93v1.1H.92Z"/>
      <path class="cls-1" d="M31.27,58.92v-1.1c1.41-.08,2.39-.39,2.95-.93,.55-.54,.83-1.46,.83-2.77v-16.63c0-1.3-.27-2.22-.82-2.75-.55-.53-1.53-.84-2.96-.92v-1.1h11.13v1.1c-1.41,.08-2.39,.39-2.94,.92-.55,.53-.82,1.45-.82,2.75v16.63c0,1.31,.28,2.24,.83,2.77,.55,.54,1.53,.85,2.93,.93v1.1h-11.13Z"/>
      <path class="cls-1" d="M67.17,58c-.35,.04-1.75,.3-4.19,.8-2.17,.43-3.66,.65-4.46,.65-3.13,0-5.68-.78-7.63-2.33-3.55-2.83-5.33-6.53-5.33-11.08,0-2.74,.68-5.26,2.04-7.57,1.33-2.23,3.04-3.89,5.13-4.97,1.71-.87,3.63-1.3,5.75-1.3,2.75,0,5.3,.56,7.66,1.68l.51,5.66h-1.1c-.53-1.96-1.46-3.49-2.77-4.56-1.32-1.08-2.91-1.62-4.78-1.62-2.61,0-4.69,1.08-6.22,3.23-1.53,2.15-2.3,5.09-2.3,8.8s.85,6.92,2.54,9.34c1.69,2.42,3.86,3.63,6.5,3.63,1.7,0,3.42-.44,5.15-1.32v-6.61c0-1.23-.25-2.12-.76-2.68-.51-.55-1.33-.85-2.46-.89v-1.14h9.51v1.1c-1.02,.14-1.74,.49-2.16,1.04-.42,.55-.62,1.44-.62,2.67v7.48Z"/>
      <path class="cls-1" d="M72.73,58.92v-1.1c1.41-.08,2.39-.39,2.95-.93,.55-.54,.83-1.46,.83-2.77v-16.63c0-1.3-.28-2.22-.83-2.75-.55-.53-1.54-.84-2.95-.92v-1.1h11.06v1.1c-1.41,.08-2.39,.39-2.95,.92-.55,.53-.83,1.45-.83,2.75v7.37h12.85v-7.37c0-1.3-.27-2.22-.82-2.75-.55-.53-1.53-.84-2.96-.92v-1.1h11.06v1.1c-1.41,.08-2.39,.39-2.95,.92-.55,.53-.83,1.45-.83,2.75v16.63c0,1.3,.28,2.22,.83,2.76,.55,.54,1.54,.86,2.95,.94v1.1h-11.06v-1.1c1.41-.08,2.39-.39,2.95-.93,.55-.54,.83-1.46,.83-2.77v-8.04h-12.85v8.04c0,1.31,.28,2.24,.83,2.77,.55,.54,1.54,.85,2.95,.93v1.1h-11.06Z"/>
      <path class="cls-1" d="M133.76,51.33h.99l-.52,5.78c-2.63,1.58-5.52,2.37-8.69,2.37-3.87,0-7.01-1.23-9.43-3.71-2.42-2.47-3.63-5.68-3.63-9.63,0-3.39,.9-6.37,2.71-8.95,2.37-3.39,5.78-5.08,10.21-5.08,2.95,0,5.75,.67,8.41,2.01l.63,5.51h-1.01c-1.65-4.28-4.49-6.42-8.51-6.42-2.58,0-4.64,1.08-6.19,3.25-1.55,2.17-2.32,5.07-2.32,8.72,0,3.95,.83,7.13,2.49,9.56,1.66,2.43,3.83,3.64,6.51,3.64,1.98,0,3.71-.63,5.21-1.89,1.5-1.26,2.55-2.98,3.15-5.16Z"/>
      <path class="cls-1" d="M138.91,58.92v-1.1c1.41-.08,2.39-.39,2.95-.93,.55-.54,.83-1.46,.83-2.77v-16.63c0-1.3-.27-2.22-.82-2.75-.55-.53-1.53-.84-2.96-.92v-1.1h11.03v1.1c-1.41,.08-2.39,.39-2.95,.92-.55,.53-.83,1.45-.83,2.75v16.63c0,1.4,.33,2.36,.98,2.9,.65,.54,1.82,.8,3.51,.8,2.6,0,4.57-.44,5.91-1.31,1.34-.87,2.43-2.42,3.27-4.65l1.08,.25-1.55,6.81h-20.44Z"/>
      <path class="cls-1" d="M162.51,58.92v-1.1c.93-.16,1.63-.51,2.11-1.07,.55-.61,1.14-1.81,1.77-3.6l6.89-19.46-.33-.98h3.43l7.37,20.8c.52,1.47,1.05,2.52,1.6,3.15s1.24,1.02,2.07,1.15v1.1h-9.71v-1.1c1.15-.18,1.91-.39,2.29-.64,.38-.25,.57-.64,.57-1.18,0-.63-.15-1.38-.46-2.26l-2-5.91h-8.57l-1.74,5.03c-.22,.63-.33,1.3-.33,2.01,0,.82,.21,1.44,.61,1.86,.41,.42,1.18,.79,2.31,1.1v1.1h-7.9Zm11.44-23.47l-3.96,11.18h7.71l-3.75-11.18Z"/>
      <path class="cls-1" d="M190.62,50.77h1c1,4.96,3.21,7.45,6.62,7.45,1.34,0,2.42-.43,3.24-1.29,.82-.86,1.23-2,1.23-3.41,0-1.13-.29-2.08-.87-2.84-.65-.87-1.99-1.97-4.01-3.31-.04-.02-.1-.07-.18-.13-4.69-3.08-7.03-5.82-7.03-8.21,0-1.83,.7-3.47,2.1-4.92,1.24-1.29,2.91-1.93,5.01-1.93,1.8,0,4.07,.67,6.81,2.01v5.4h-1.01c-.45-4.15-2.31-6.22-5.58-6.22-1.28,0-2.36,.43-3.24,1.29-.88,.86-1.32,1.91-1.32,3.15,0,1.57,1.92,3.63,5.77,6.18,.65,.43,1.2,.8,1.64,1.1,1.82,1.23,3.1,2.37,3.84,3.43,.74,1.05,1.11,2.23,1.11,3.53,0,2.18-.76,3.96-2.27,5.34-1.52,1.38-3.48,2.07-5.88,2.07s-4.74-.76-6.98-2.3v-6.42Z"/>
      <path class="cls-1" d="M211.21,50.77h1c1,4.96,3.21,7.45,6.62,7.45,1.34,0,2.42-.43,3.24-1.29,.82-.86,1.23-2,1.23-3.41,0-1.13-.29-2.08-.87-2.84-.65-.87-1.99-1.97-4.01-3.31-.04-.02-.1-.07-.18-.13-4.69-3.08-7.03-5.82-7.03-8.21,0-1.83,.7-3.47,2.1-4.92,1.24-1.29,2.91-1.93,5.01-1.93,1.8,0,4.07,.67,6.81,2.01v5.4h-1.01c-.45-4.15-2.31-6.22-5.58-6.22-1.28,0-2.36,.43-3.24,1.29-.88,.86-1.32,1.91-1.32,3.15,0,1.57,1.92,3.63,5.77,6.18,.65,.43,1.2,.8,1.64,1.1,1.82,1.23,3.1,2.37,3.84,3.43,.74,1.05,1.11,2.23,1.11,3.53,0,2.18-.76,3.96-2.27,5.34-1.52,1.38-3.48,2.07-5.88,2.07s-4.74-.76-6.98-2.3v-6.42Z"/>
      <path class="cls-1" d="M230.46,58.92v-1.1c1.41-.08,2.39-.39,2.95-.93,.55-.54,.83-1.46,.83-2.77v-16.63c0-1.3-.27-2.22-.82-2.75-.55-.53-1.53-.84-2.96-.92v-1.1h11.13v1.1c-1.41,.08-2.39,.39-2.94,.92-.55,.53-.82,1.45-.82,2.75v16.63c0,1.31,.28,2.24,.83,2.77,.55,.54,1.53,.85,2.93,.93v1.1h-11.13Z"/>
      <path class="cls-1" d="M266.08,51.33h.99l-.52,5.78c-2.63,1.58-5.52,2.37-8.69,2.37-3.87,0-7.01-1.23-9.43-3.71-2.42-2.47-3.63-5.68-3.63-9.63,0-3.39,.9-6.37,2.71-8.95,2.37-3.39,5.78-5.08,10.21-5.08,2.95,0,5.75,.67,8.41,2.01l.63,5.51h-1.01c-1.65-4.28-4.49-6.42-8.51-6.42-2.58,0-4.64,1.08-6.19,3.25-1.55,2.17-2.32,5.07-2.32,8.72,0,3.95,.83,7.13,2.49,9.56,1.66,2.43,3.83,3.64,6.51,3.64,1.98,0,3.71-.63,5.21-1.89,1.5-1.26,2.55-2.98,3.15-5.16Z"/>
      <path class="cls-1" d="M1.1,91.11v-1.1c1.41-.08,2.39-.39,2.95-.93,.55-.54,.83-1.46,.83-2.77v-16.63c0-1.3-.27-2.22-.82-2.75-.55-.53-1.53-.84-2.96-.92v-1.1H12.13v1.1c-1.41,.08-2.39,.39-2.95,.92-.55,.53-.83,1.45-.83,2.75v16.63c0,1.4,.33,2.36,.98,2.9,.65,.54,1.82,.8,3.51,.8,2.6,0,4.57-.44,5.91-1.31,1.34-.87,2.43-2.42,3.27-4.65l1.08,.25-1.55,6.81H1.1Z"/>
      <path class="cls-1" d="M25.94,91.11v-1.1c1.41-.08,2.39-.39,2.95-.93,.55-.54,.83-1.46,.83-2.77v-16.63c0-1.3-.27-2.22-.82-2.75-.55-.53-1.53-.84-2.96-.92v-1.1h11.13v1.1c-1.41,.08-2.39,.39-2.94,.92-.55,.53-.82,1.45-.82,2.75v16.63c0,1.31,.28,2.24,.83,2.77,.55,.54,1.53,.85,2.93,.93v1.1h-11.13Z"/>
      <path class="cls-1" d="M50.61,91.64c-.51-1.49-1.2-3.39-2.08-5.69l-.63-1.65-4.92-13c-.86-2.26-1.55-3.74-2.1-4.41-.47-.59-1.09-.89-1.86-.89h-.34v-1.1h9.44v1.1h-.22c-1.68,0-2.51,.47-2.51,1.41,0,.3,.11,.75,.33,1.34l6.63,18.09,5.33-14.93c.81-2.22,1.21-3.59,1.21-4.12,0-1.19-.99-1.79-2.96-1.79h-.43v-1.1h7.84v1.1h-.22c-1.37,0-2.74,1.87-4.08,5.62l-.02,.07-4.68,13.01c-1.45,3.96-2.21,6.27-2.3,6.92h-1.43Z"/>
      <path class="cls-1" d="M64.98,91.11v-1.1c1.41-.08,2.39-.39,2.95-.93,.55-.54,.83-1.46,.83-2.77v-16.63c0-1.3-.27-2.22-.82-2.75-.55-.53-1.53-.84-2.96-.92v-1.1h11.13v1.1c-1.41,.08-2.39,.39-2.94,.92-.55,.53-.82,1.45-.82,2.75v16.63c0,1.31,.28,2.24,.83,2.77,.55,.54,1.53,.85,2.93,.93v1.1h-11.13Z"/>
      <path class="cls-1" d="M83.87,70.86v14.78c0,1.57,.29,2.68,.89,3.35,.59,.66,1.59,1.01,3,1.03v1.1h-8.84v-1.1c1.41-.08,2.39-.4,2.95-.94,.55-.54,.83-1.46,.83-2.76v-17.1c-1.65-2.13-3.05-3.2-4.19-3.2h-.25v-1.1h5.1l17.33,20.59v-15.11c0-1.57-.3-2.68-.89-3.34-.6-.66-1.59-1.01-2.99-1.03v-1.1h8.84v1.1c-1.41,.08-2.39,.39-2.95,.92-.55,.53-.83,1.45-.83,2.75v16.48c0,1.95,.16,3.78,.49,5.48h-.98s-17.49-20.78-17.49-20.78Z"/>
      <path class="cls-1" d="M130.01,90.19c-.35,.04-1.75,.3-4.19,.8-2.17,.43-3.66,.65-4.46,.65-3.13,0-5.68-.78-7.63-2.33-3.55-2.83-5.33-6.53-5.33-11.08,0-2.74,.68-5.26,2.04-7.57,1.33-2.23,3.04-3.89,5.13-4.97,1.71-.87,3.63-1.3,5.75-1.3,2.75,0,5.3,.56,7.66,1.68l.51,5.66h-1.1c-.53-1.96-1.46-3.49-2.77-4.56-1.32-1.08-2.91-1.62-4.78-1.62-2.61,0-4.69,1.08-6.22,3.23-1.53,2.15-2.3,5.09-2.3,8.8s.85,6.92,2.54,9.34c1.69,2.42,3.86,3.63,6.5,3.63,1.7,0,3.42-.44,5.15-1.32v-6.61c0-1.23-.25-2.12-.76-2.68-.51-.55-1.33-.85-2.46-.89v-1.14h9.51v1.1c-1.02,.14-1.74,.49-2.16,1.04-.42,.55-.62,1.44-.62,2.67v7.48Z"/>
    </g>
  </g>
</svg>