<?xml version="1.0" encoding="UTF-8"?>
<svg id="_圖層_2" data-name="圖層 2" xmlns="http://www.w3.org/2000/svg" viewBox="0 0 395.29 98.28">
  <defs>
    <style>
      .cls-1 {
        fill: none;
        stroke: #c30d23;
        stroke-miterlimit: 10;
        stroke-width: 2.01px;
      }

      .cls-2 {
        fill: #c30d23;
      }

      .cls-3 {
        fill: #231815;
      }
    </style>
  </defs>
  <g id="_圖層_1-2" data-name="圖層 1">
    <g>
      <g>
        <path class="cls-2" d="M12.47,40.3c-1.84,0-3.52-.44-5.04-1.31-1.52-.87-2.82-2.09-3.9-3.65-1.08-1.56-1.92-3.42-2.5-5.58-.59-2.16-.88-4.53-.88-7.09,0-2.36,.29-4.59,.88-6.69,.59-2.09,1.42-3.93,2.5-5.49,1.08-1.57,2.38-2.8,3.9-3.71,1.52-.91,3.2-1.36,5.04-1.36s3.52,.45,5.03,1.36c1.51,.91,2.8,2.14,3.89,3.71,1.08,1.57,1.92,3.4,2.5,5.49,.59,2.1,.88,4.33,.88,6.69,0,2.57-.29,4.93-.88,7.09-.59,2.16-1.42,4.02-2.5,5.58-1.08,1.56-2.38,2.77-3.89,3.65-1.51,.87-3.19,1.31-5.03,1.31Zm0-1.66c1.12,0,2.1-.44,2.94-1.31,.84-.87,1.53-2.04,2.09-3.52,.55-1.47,.97-3.17,1.24-5.09,.28-1.92,.42-3.94,.42-6.05s-.14-4.12-.42-6.01c-.28-1.89-.69-3.55-1.24-4.97-.55-1.42-1.25-2.54-2.09-3.38-.84-.84-1.82-1.26-2.94-1.26s-2.13,.42-2.97,1.26c-.84,.84-1.53,1.97-2.09,3.38-.55,1.42-.96,3.07-1.23,4.97-.27,1.89-.4,3.9-.4,6.01s.13,4.13,.4,6.05c.27,1.92,.68,3.62,1.23,5.09,.55,1.48,1.25,2.65,2.09,3.52,.84,.87,1.83,1.31,2.97,1.31Z"/>
        <path class="cls-2" d="M35.48,22.17c1.27-.15,2.43-.44,3.48-.88,1.05-.44,1.95-.99,2.7-1.67s1.34-1.47,1.76-2.39c.42-.91,.63-1.92,.63-3,0-.74-.15-1.43-.44-2.08-.29-.64-.7-1.21-1.23-1.68-.53-.48-1.16-.85-1.89-1.13-.73-.28-1.54-.42-2.43-.42-.64,0-1.3,.11-1.97,.33-.68,.22-1.33,.52-1.96,.89-.63,.38-1.21,.82-1.74,1.33-.53,.51-.96,1.05-1.29,1.62l-1.01-.38c.35-1.01,.83-1.95,1.42-2.84,.59-.89,1.31-1.66,2.14-2.33,.83-.66,1.77-1.18,2.83-1.56s2.23-.57,3.52-.57c1.22,0,2.37,.18,3.43,.54,1.06,.36,1.99,.86,2.79,1.48,.8,.63,1.42,1.37,1.89,2.23,.46,.86,.69,1.79,.69,2.79,0,.52-.13,1.1-.4,1.74-.27,.64-.63,1.28-1.09,1.94-.46,.65-1,1.29-1.61,1.92-.61,.63-1.26,1.19-1.95,1.67,.96,.29,1.85,.72,2.68,1.32,.83,.59,1.55,1.29,2.18,2.1,.62,.8,1.11,1.67,1.47,2.6,.36,.93,.54,1.86,.54,2.78,0,1.98-.39,3.71-1.16,5.18-.77,1.48-1.84,2.7-3.19,3.67-1.36,.97-2.96,1.7-4.8,2.19-1.84,.49-3.84,.73-5.98,.73-.91,0-1.72-.07-2.44-.2-.72-.13-1.33-.32-1.84-.57s-.89-.53-1.16-.87c-.27-.34-.4-.7-.4-1.11,0-.35,.09-.65,.26-.89s.4-.44,.67-.58c.27-.14,.56-.24,.88-.3,.32-.06,.62-.09,.91-.09,.6,0,1.12,.06,1.55,.18,.43,.12,.81,.26,1.14,.44,.34,.18,.65,.36,.93,.57,.28,.2,.59,.39,.91,.57,.32,.18,.67,.32,1.07,.44,.39,.12,.87,.18,1.42,.18,1.16,0,2.18-.19,3.07-.57,.89-.38,1.63-.89,2.24-1.53,.6-.65,1.06-1.38,1.37-2.21,.31-.83,.47-1.7,.47-2.6,0-1.16-.22-2.23-.67-3.22-.44-.99-1.12-1.85-2.02-2.58-.91-.73-2.05-1.3-3.45-1.71-1.39-.41-3.03-.62-4.9-.62v-.86Z"/>
        <path class="cls-2" d="M58.27,55.17v-1.42c3.99-3.8,7.45-7.14,10.38-10.03,2.93-2.89,5.42-5.45,7.47-7.67,2.05-2.22,3.71-4.17,4.98-5.84,1.27-1.67,2.26-3.17,2.97-4.5,.71-1.33,1.19-2.54,1.44-3.64,.26-1.1,.39-2.2,.39-3.32,0-1.6-.25-3.15-.75-4.66-.5-1.5-1.24-2.83-2.22-3.99-.98-1.15-2.2-2.08-3.66-2.77s-3.17-1.04-5.13-1.04c-1.49,0-2.96,.26-4.41,.77-1.45,.52-2.77,1.21-3.95,2.1-1.18,.88-2.18,1.91-2.99,3.09-.81,1.18-1.33,2.44-1.55,3.76h-1.55c.16-2.2,.74-4.27,1.73-6.22,.99-1.95,2.27-3.66,3.84-5.11,1.57-1.45,3.37-2.6,5.39-3.44,2.02-.84,4.13-1.26,6.33-1.26,2.79,0,5.24,.4,7.34,1.2,2.1,.8,3.87,1.88,5.29,3.23,1.42,1.36,2.5,2.94,3.21,4.74,.72,1.8,1.08,3.7,1.08,5.68,0,1.38-.2,2.77-.61,4.17-.41,1.4-1.04,2.86-1.89,4.39-.85,1.53-1.97,3.17-3.34,4.9-1.37,1.74-3.02,3.63-4.94,5.7-1.93,2.06-4.15,4.33-6.67,6.81-2.52,2.48-5.37,5.22-8.54,8.2h28.81l-3.99,6.14H58.27Z"/>
        <path class="cls-2" d="M122.55,0c2.44,0,4.69,.3,6.75,.92,2.06,.61,3.84,1.46,5.33,2.54,1.49,1.08,2.66,2.37,3.5,3.84,.84,1.48,1.26,3.09,1.26,4.82,0,1.11-.35,2.31-1.06,3.58-.71,1.28-1.64,2.52-2.81,3.72-1.17,1.21-2.5,2.32-4.01,3.34-1.51,1.02-3.06,1.82-4.66,2.42,2.33,1.36,4.37,2.8,6.12,4.33s3.2,3.05,4.35,4.56c1.15,1.51,2.01,2.96,2.58,4.35,.57,1.4,.85,2.64,.85,3.72,0,1.98-.45,3.84-1.36,5.57-.91,1.74-2.15,3.25-3.72,4.54-1.57,1.29-3.4,2.31-5.49,3.05-2.09,.75-4.33,1.12-6.71,1.12-2.52,0-4.84-.34-6.96-1.02s-3.93-1.61-5.45-2.79c-1.52-1.18-2.71-2.58-3.56-4.19-.85-1.61-1.28-3.36-1.28-5.23,0-1.74,.27-3.3,.81-4.7,.54-1.4,1.32-2.7,2.34-3.91,1.02-1.21,2.25-2.35,3.7-3.44,1.45-1.08,3.07-2.17,4.86-3.25-1.95-1.46-3.62-2.79-5-3.99-1.38-1.19-2.52-2.37-3.4-3.52-.88-1.15-1.53-2.34-1.93-3.56-.41-1.22-.61-2.58-.61-4.07,0-1.74,.41-3.38,1.22-4.94,.81-1.56,1.93-2.92,3.34-4.07,1.41-1.15,3.06-2.07,4.94-2.75,1.89-.68,3.9-1.02,6.04-1.02Zm-2.52,29.38c-1.28,1-2.35,2.08-3.23,3.23-.88,1.15-1.6,2.31-2.16,3.48-.56,1.17-.96,2.31-1.22,3.42-.26,1.11-.39,2.13-.39,3.05,0,1.55,.28,3,.85,4.35,.57,1.36,1.34,2.54,2.3,3.56,.96,1.02,2.09,1.82,3.38,2.4,1.29,.58,2.67,.88,4.13,.88s2.85-.2,4.17-.61c1.32-.41,2.47-.96,3.46-1.67,.99-.71,1.77-1.53,2.34-2.48,.57-.95,.85-1.97,.85-3.05s-.2-2.13-.61-3.13c-.41-1-1.15-2.12-2.22-3.34-1.07-1.22-2.55-2.63-4.43-4.23-1.89-1.6-4.29-3.55-7.22-5.86Zm4.84-5.7c1.17-.92,2.24-1.88,3.21-2.87s1.81-2.03,2.5-3.13c.69-1.1,1.23-2.26,1.61-3.48,.38-1.22,.57-2.52,.57-3.91,0-1.06-.23-2.05-.69-2.99-.46-.94-1.12-1.75-1.97-2.44-.85-.69-1.9-1.23-3.13-1.63-1.23-.39-2.62-.59-4.17-.59-1.38,0-2.64,.22-3.78,.67-1.14,.45-2.12,1.04-2.93,1.79-.81,.75-1.45,1.59-1.91,2.52-.46,.94-.69,1.89-.69,2.87,0,1.33,.35,2.6,1.06,3.8,.7,1.21,1.61,2.36,2.71,3.46,1.1,1.1,2.33,2.14,3.68,3.13,1.36,.99,2.67,1.92,3.95,2.79Z"/>
        <path class="cls-2" d="M187.17,2.64l-19.73,53.79h-5.17L180,7.85h-28.44l3.09-6.63h32.51v1.42Z"/>
        <path class="cls-2" d="M208.53,27.83v4.76h-19.81v-4.76h19.81Z"/>
        <path class="cls-2" d="M258.14,1.38c-2.17,.19-4.27,.63-6.31,1.32-2.03,.69-3.97,1.59-5.8,2.69-1.83,1.1-3.54,2.38-5.13,3.84s-3.01,3.07-4.27,4.8-2.35,3.57-3.25,5.51c-.91,1.94-1.59,3.93-2.05,5.96,.87-.6,1.77-1.17,2.71-1.71,.94-.54,1.93-1,2.97-1.38,1.04-.38,2.15-.68,3.32-.92,1.17-.23,2.43-.35,3.78-.35,2.17,0,4.22,.42,6.14,1.26,1.93,.84,3.6,1.99,5.02,3.46,1.42,1.46,2.55,3.18,3.38,5.15,.83,1.97,1.24,4.06,1.24,6.29,0,2.63-.51,5.11-1.53,7.43-1.02,2.32-2.39,4.35-4.13,6.08-1.74,1.74-3.78,3.11-6.12,4.11-2.35,1-4.84,1.51-7.47,1.51-2.82,0-5.41-.56-7.75-1.69-2.35-1.13-4.36-2.65-6.04-4.58-1.68-1.93-3-4.19-3.95-6.79-.95-2.6-1.42-5.4-1.42-8.38,0-3.15,.39-6.21,1.18-9.18,.79-2.97,1.92-5.75,3.4-8.34,1.48-2.59,3.3-4.96,5.45-7.1,2.16-2.14,4.59-3.98,7.3-5.51,2.71-1.53,5.69-2.73,8.93-3.58,3.24-.85,6.71-1.28,10.4-1.28V1.38Zm-26.89,26.53c-.22,1.19-.39,2.42-.51,3.68-.12,1.26-.18,2.48-.18,3.64,0,2.47,.22,4.82,.67,7.06,.45,2.24,1.13,4.21,2.05,5.9,.92,1.7,2.09,3.04,3.5,4.05,1.41,1,3.08,1.51,5,1.51,1.33,0,2.58-.33,3.76-1,1.18-.66,2.2-1.58,3.07-2.75,.87-1.17,1.56-2.52,2.08-4.07,.51-1.55,.77-3.21,.77-5,0-2.25-.3-4.37-.9-6.35-.6-1.98-1.42-3.71-2.46-5.19-1.04-1.48-2.26-2.64-3.64-3.5-1.38-.85-2.86-1.28-4.43-1.28-.65,0-1.36,.08-2.14,.24-.77,.16-1.55,.39-2.34,.67-.79,.28-1.55,.63-2.3,1.04-.75,.41-1.42,.85-2.01,1.34Z"/>
        <path class="cls-2" d="M291.1,41.22h-25.8v-4.92L293.58,0h5.13V35.36h7.69v5.86h-7.69v13.96h-7.61v-13.96Zm-20.43-5.86h20.43V8.75l-20.43,26.61Z"/>
        <path class="cls-2" d="M349.44,1.38c-2.17,.19-4.27,.63-6.31,1.32-2.03,.69-3.97,1.59-5.8,2.69-1.83,1.1-3.54,2.38-5.13,3.84s-3.01,3.07-4.27,4.8-2.35,3.57-3.25,5.51c-.91,1.94-1.59,3.93-2.05,5.96,.87-.6,1.77-1.17,2.71-1.71,.94-.54,1.93-1,2.97-1.38,1.04-.38,2.15-.68,3.32-.92,1.17-.23,2.43-.35,3.78-.35,2.17,0,4.22,.42,6.14,1.26,1.93,.84,3.6,1.99,5.02,3.46,1.42,1.46,2.55,3.18,3.38,5.15,.83,1.97,1.24,4.06,1.24,6.29,0,2.63-.51,5.11-1.53,7.43-1.02,2.32-2.39,4.35-4.13,6.08-1.74,1.74-3.78,3.11-6.12,4.11-2.35,1-4.84,1.51-7.47,1.51-2.82,0-5.41-.56-7.75-1.69-2.35-1.13-4.36-2.65-6.04-4.58-1.68-1.93-3-4.19-3.95-6.79-.95-2.6-1.42-5.4-1.42-8.38,0-3.15,.39-6.21,1.18-9.18,.79-2.97,1.92-5.75,3.4-8.34,1.48-2.59,3.3-4.96,5.45-7.1,2.16-2.14,4.59-3.98,7.3-5.51,2.71-1.53,5.69-2.73,8.93-3.58,3.24-.85,6.71-1.28,10.4-1.28V1.38Zm-26.89,26.53c-.22,1.19-.39,2.42-.51,3.68-.12,1.26-.18,2.48-.18,3.64,0,2.47,.22,4.82,.67,7.06,.45,2.24,1.13,4.21,2.05,5.9,.92,1.7,2.09,3.04,3.5,4.05,1.41,1,3.08,1.51,5,1.51,1.33,0,2.58-.33,3.76-1,1.18-.66,2.2-1.58,3.07-2.75,.87-1.17,1.56-2.52,2.08-4.07,.51-1.55,.77-3.21,.77-5,0-2.25-.3-4.37-.9-6.35-.6-1.98-1.42-3.71-2.46-5.19-1.04-1.48-2.26-2.64-3.64-3.5-1.38-.85-2.86-1.28-4.43-1.28-.65,0-1.36,.08-2.14,.24-.77,.16-1.55,.39-2.34,.67-.79,.28-1.55,.63-2.3,1.04-.75,.41-1.42,.85-2.01,1.34Z"/>
        <path class="cls-2" d="M391.76,7.85h-17.5l-4.03,7.36c2.22,0,4.38,.24,6.47,.71,2.09,.47,4.05,1.15,5.9,2.03,1.84,.88,3.53,1.95,5.05,3.21,1.52,1.26,2.82,2.67,3.91,4.23,1.08,1.56,1.93,3.25,2.54,5.09s.92,3.76,.92,5.8c0,2.77-.62,5.37-1.87,7.81-1.25,2.44-2.95,4.58-5.11,6.41-2.16,1.83-4.69,3.28-7.61,4.33-2.92,1.06-6.04,1.59-9.38,1.59-1.52,0-2.9-.14-4.15-.43-1.25-.29-2.32-.67-3.21-1.16-.9-.49-1.59-1.06-2.07-1.71-.49-.65-.73-1.34-.73-2.08,0-.95,.37-1.66,1.12-2.14,.75-.47,1.62-.71,2.62-.71,1.08,0,2.01,.2,2.77,.61,.76,.41,1.53,.85,2.32,1.34,.79,.49,1.67,.94,2.67,1.34,.99,.41,2.26,.61,3.8,.61,1.76,0,3.42-.35,4.98-1.04,1.56-.69,2.92-1.63,4.09-2.83,1.17-1.19,2.09-2.6,2.77-4.21,.68-1.61,1.02-3.34,1.02-5.19,0-2.5-.63-4.76-1.89-6.79-1.26-2.03-3.05-3.78-5.37-5.23-2.32-1.45-5.13-2.57-8.42-3.36s-6.98-1.18-11.05-1.18l11.64-21.08h21.2l-3.38,6.63Z"/>
      </g>
      <line class="cls-1" x1=".42" y1="48.3" x2="50.24" y2="48.3"/>
    </g>
    <g>
      <path class="cls-3" d="M11.3,88.7c0,5.86,.08,7.67,.08,8.29,0,.68-.45,.99-1.38,.99-.73,0-.99-.28-.99-.82,0-.56,.11-3.38,.11-8.51v-1.38H2.25v.99c0,.65-.45,.9-1.35,.9-.65,0-.9-.23-.9-.73,0-1.04,.11-2.79,.11-9.07,0-3.35,0-4.99-.11-6.74,1.04,.45,1.52,.65,2.51,1.21h15.73c.96-1.04,1.1-1.13,1.3-1.13,.17,0,.34,.08,1.35,.99,.48,.39,.59,.56,.59,.73,0,.2-.2,.39-.87,.87v3.33c0,5.81,.11,8.6,.11,9.41,0,.62-.45,.9-1.3,.9-.62,0-.9-.23-.9-.73v-.93h-7.21v1.44Zm-9.05-14.18v5.52h6.88v-5.52H2.25Zm0,6.23v5.81h6.88v-5.81H2.25Zm9.05-.71h7.21v-5.52h-7.21v5.52Zm0,6.51h7.21v-5.81h-7.21v5.81Z"/>
      <path class="cls-3" d="M31.16,95.69c.93-2.56,1.44-4.65,1.55-6.26,.08-.56,.14-1.13,.11-1.75,2.31,.56,2.48,.68,2.48,1.01,0,.2-.17,.37-.73,.54-.68,2.45-1.38,4.34-3.04,6.62-.11,.14-.42,0-.37-.17Zm4.76-10.37c-.9,.2-1.86,.37-3.04,.56-.2,.62-.37,.82-.59,.82-.25,0-.45-.48-.85-2.65,.59,.06,.9,.06,1.32,.06,.54,0,.99,0,1.44-.03,1.16-1.61,2.56-3.83,3.49-5.72,.45-1.01,.85-1.86,.99-2.48,2.06,.9,2.59,1.18,2.59,1.49,0,.23-.25,.42-1.04,.39-1.78,2.65-3.21,4.4-5.21,6.29,1.32-.06,2.62-.14,4.76-.31-.28-.68-.65-1.3-1.18-2.03-.06-.08,.11-.23,.23-.17,2,1.01,3.24,2.45,3.24,3.72,0,.71-.37,1.24-.9,1.24-.62,0-.76-.25-.96-1.47-.06-.25-.14-.54-.23-.79-.73,.25-1.49,.45-2.25,.65v5.38c0,3.07,.08,5.86,.08,6.71,0,.59-.39,.87-1.16,.87-.65,0-.9-.25-.9-.73,0-.54,.17-2.34,.17-5.78v-6.03Zm-.06-5.67c0,.76-.39,1.3-.99,1.3-.51,0-.65-.17-.99-1.33-.34-1.1-.9-1.97-2-3.02-.08-.08,.06-.28,.17-.25,.76,.28,1.41,.56,1.94,.9,.51-1.04,.93-2.17,1.24-3.24,.25-.76,.42-1.47,.48-2.03,2.03,.71,2.76,1.04,2.76,1.38,0,.28-.25,.42-1.07,.51-1.27,1.78-1.78,2.51-2.93,3.69,.9,.65,1.38,1.38,1.38,2.09Zm3.41,11.5c-.14-1.35-.37-2.4-.93-3.44-.06-.11,.14-.2,.23-.14,1.61,1.04,2.56,2.54,2.56,3.75,0,.82-.39,1.41-1.01,1.41s-.73-.39-.85-1.58Zm14.29-10.29c.79-.93,.96-1.01,1.13-1.01s.34,.08,1.24,.93c.39,.37,.48,.56,.48,.73,0,.2-.14,.37-.79,.65-.9,3.52-2.25,6.42-4.09,8.79,1.78,2.06,3.86,3.47,6.03,4.31,.11,.03,.03,.25-.08,.28-.62,.17-.85,.42-1.21,1.38-.14,.42-.25,.54-.42,.54-.11,0-.54-.25-1.18-.7-1.66-1.13-3.16-2.65-4.37-4.37-2.23,2.31-5.07,4.06-8.68,5.38-.2,.06-.34-.37-.17-.45,3.35-1.78,5.95-3.86,7.95-6.4-.59-.99-1.07-2.03-1.49-3.1-.99-2.31-1.72-4.79-2.14-8.57-.14,4.11-.42,7.24-1.21,9.92-1.04,3.55-2.56,5.98-5.24,8.31-.14,.14-.51-.14-.39-.28,2.11-2.54,3.41-5.24,4.17-8.91,.73-3.44,.93-7.36,.9-13.64h-.34c-.93,0-1.47,.06-2.17,.17l-.25-1.07c.93,.14,1.47,.2,2.34,.2h6.99c.9-.96,1.04-1.04,1.21-1.04,.2,0,.37,.06,1.27,.9,.42,.39,.51,.59,.51,.76,0,.23-.17,.39-.85,.68-.51,1.97-1.04,3.92-1.58,5.61h2.45Zm-7.67-5.86c.2,5.5,1.47,9.44,3.38,12.77,.34,.62,.73,1.21,1.1,1.75,1.49-2.28,2.56-4.9,3.27-7.95h-2.76l-.17,.51c-.23,.65-.56,.85-1.21,.85-.7,0-1.04-.17-1.04-.51,0-.11,.06-.28,.14-.54,.85-2.28,1.44-4.26,2.09-7.21h-4.79v.34Z"/>
      <path class="cls-3" d="M87.27,81.97c.96-.9,1.1-1.01,1.3-1.01s.37,.11,1.41,.99c.7,.56,.79,.76,.79,.99,0,.31-.28,.45-1.1,.48-.34,.03-.51,.11-.76,.34-.68,.59-1.1,.93-1.78,1.35-.11,.08-.34-.06-.28-.2,.25-.65,.54-1.47,.68-2.23h-18.97c-.06,2.23-.96,3.89-2.17,3.89-.68,0-1.18-.54-1.18-1.18,0-.48,.23-.76,.73-1.04,1.35-.65,1.94-1.47,2.17-3.13,.03-.17,.34-.14,.37,.03,.03,.25,.06,.48,.06,.73h18.74Zm-14.8-4.42c3.13,.25,4.45,1.07,4.45,2.25,0,.54-.31,.87-.79,.87-.31,0-.45-.08-.87-.59-1.01-1.04-1.92-1.69-3.02-2.14-1.07,2-3.18,2.99-6.12,3.66-.14,.03-.28-.28-.14-.34,2.17-.79,3.89-1.97,4.73-3.61,.54-1.04,.82-2.45,.82-4.48,0-.42,0-.7-.06-1.18,2.2,.28,2.65,.48,2.65,.82,0,.2-.23,.34-.79,.56-.08,1.01-.2,1.89-.37,2.68,.59-.45,1.24-.93,1.69-1.44,.42-.42,.79-.87,1.01-1.3,1.55,.9,1.92,1.18,1.92,1.41,0,.25-.28,.37-1.16,.28-1.13,.79-2.31,1.3-3.64,1.66-.11,.31-.23,.59-.34,.87Zm-5.92,.03c0-.51,.2-.82,.99-1.18,1.07-.54,1.61-1.13,1.94-2.25,.03-.14,.31-.08,.31,.06-.03,2.71-1.16,4.34-2.31,4.34-.54,0-.93-.42-.93-.96Zm9.19,14.29c.25-.82,.37-1.69,.48-2.54h-3.41v.37c0,.62-.37,.85-1.16,.85-.59,0-.87-.17-.87-.65,0-.37,.08-1.21,.08-3.33,0-1.07,0-1.8-.11-2.79,.99,.4,1.38,.59,2.34,1.13h9.55c.85-.87,.99-.99,1.18-.99s.34,.11,1.18,.82c.45,.37,.54,.54,.54,.7,0,.2-.11,.37-.7,.76v.73c0,1.58,.06,2.45,.06,2.79,0,.45-.34,.7-1.16,.7-.62,0-.87-.2-.87-.68v-.42h-4.4c-.82,1.21-1.3,1.89-1.83,2.54h8.43c.85-.9,1.01-1.01,1.18-1.01,.2,0,.37,.08,1.27,.82,.45,.37,.56,.59,.56,.76,0,.23-.14,.39-.76,.76v.96c0,1.92,.06,3.02,.06,3.27,0,.59-.34,.82-1.21,.82-.7,0-.93-.14-.93-.76v-.73h-14.66v.68c0,.62-.34,.87-1.18,.87-.7,0-.9-.2-.9-.73,0-.28,.08-1.24,.08-3.18,0-1.47-.03-2.34-.14-3.66,.99,.42,1.41,.62,2.34,1.16h4.96Zm9.5,.71h-14.66v3.47h14.66v-3.47Zm-2.37-6.96h-10.06v3.02h10.06v-3.02Zm5.38-5.61c0,.51-.37,.99-.79,.99-.45,0-.62-.14-1.47-1.16-.68-.73-1.69-1.32-3.24-2-.93,1.78-2.85,2.93-5.89,3.52-.14,.03-.23-.25-.08-.31,2.34-1.01,3.64-1.97,4.45-3.55,.59-1.1,.79-2.56,.82-4.4,0-.39-.03-.65-.08-1.13,2.25,.31,2.65,.45,2.65,.79,0,.2-.23,.31-.79,.56-.06,.99-.17,1.86-.37,2.62,.96-.54,1.72-1.07,2.42-1.69,.42-.39,.7-.73,.99-1.21,1.49,.96,2.03,1.44,2.03,1.72,0,.23-.28,.37-1.3,.23-1.18,.65-2.73,1.21-4.31,1.58-.08,.31-.2,.59-.34,.87,3.78,.37,5.3,1.27,5.3,2.56Zm-10.94-2.68c0-.48,.11-.73,.76-1.04,1.1-.54,1.55-1.21,1.86-2.4,.03-.14,.31-.08,.31,.06-.03,2.85-.87,4.28-2,4.28-.56,0-.93-.39-.93-.9Z"/>
      <path class="cls-3" d="M104.93,91.89c.7,1.38,1.47,2.03,2.62,2.45,1.3,.51,3.3,.9,7.41,.9,2.82,0,6.31-.2,10.15-.7,.14-.03,.14,.28,.03,.34-.65,.34-.85,.59-.96,1.24-.06,.62-.17,.73-.85,.79-2.03,.17-4.65,.23-7.02,.23-5.33,0-7.78-.54-9.3-1.52-1.21-.79-2.09-1.97-2.73-3.78-.87,1.38-2,2.71-3.24,3.95,.03,.99-.08,1.27-.42,1.27s-.73-.59-1.83-2.9c.62-.17,1.16-.37,1.83-.68,.62-.28,1.38-.73,2.25-1.49v-7.38h-1.97c-.73,0-1.21,.03-1.89,.23l-.28-1.13c.85,.14,1.38,.2,2.17,.2h1.78c.93-.99,1.07-1.1,1.24-1.1,.2,0,.34,.11,1.3,.9,.42,.39,.51,.54,.51,.73,0,.17-.08,.28-.79,.79v6.68Zm-2.25-15.11c-.37-1.13-1.1-2.51-2.14-3.52-.11-.08,.06-.31,.2-.25,2.85,.9,4.2,2.45,4.2,3.72,0,.79-.45,1.41-1.16,1.41-.51,0-.76-.31-1.1-1.35Zm18.32,5.21c1.16-1.41,1.35-1.55,1.52-1.55,.2,0,.42,.14,1.66,1.18,.56,.45,.7,.62,.7,.79s-.08,.28-.37,.28h-16.18c-.62,0-1.04,.03-1.75,.17l-.28-1.07c.79,.14,1.32,.2,2.03,.2h5.89v-4.42h-4.26c-.82,1.13-1.8,2.14-3.18,3.21-.14,.11-.39-.14-.28-.28,1.18-1.52,2.14-3.3,2.79-5.1,.34-.93,.54-1.8,.68-2.65,2.03,.51,2.82,.82,2.82,1.16,0,.28-.31,.45-1.07,.54-.42,.9-.82,1.69-1.27,2.42h3.78v-1.3c0-1.44-.03-2.4-.17-3.47,2.76,.31,3.07,.51,3.07,.79,0,.23-.2,.45-.87,.73v3.24h3.49c1.07-1.27,1.27-1.41,1.44-1.41,.2,0,.42,.11,1.58,1.07,.54,.39,.65,.62,.65,.79s-.11,.25-.39,.25h-6.76v4.42h4.73Zm-10.12,10.57c0,.56-.39,.79-1.21,.79-.62,0-.85-.17-.85-.68s.08-1.35,.08-4.37c0-1.69,0-2.62-.11-3.89,.96,.39,1.38,.65,2.31,1.13h8.23c.85-.82,1.01-.93,1.18-.93,.2,0,.37,.11,1.21,.76,.39,.34,.51,.51,.51,.71,0,.17-.14,.31-.7,.73v1.33c0,2.62,.11,3.83,.11,4.23,0,.59-.42,.87-1.27,.87-.59,0-.85-.2-.85-.62v-.68h-8.65v.62Zm8.65-6.31h-8.65v4.99h8.65v-4.99Z"/>
      <path class="cls-3" d="M138.83,92.65l-.87-.87,6.85-6.82-6.85-6.79,.87-.9,6.82,6.85,6.82-6.85,.87,.9-6.85,6.79,6.85,6.79-.87,.9-6.82-6.85-6.82,6.85Z"/>
      <path class="cls-3" d="M170.35,79.91c-.62,0-1.04,.06-1.8,.17l-.28-1.07c.85,.14,1.35,.2,2.06,.2h16.97c1.1-1.27,1.3-1.44,1.47-1.44,.2,0,.39,.17,1.55,1.13,.51,.39,.65,.56,.65,.73,0,.2-.11,.28-.37,.28h-4.51v3.86h3.1c1.04-1.32,1.27-1.44,1.47-1.44,.17,0,.39,.11,1.52,1.1,.48,.42,.62,.62,.62,.79s-.08,.25-.37,.25h-6.34v4.26h1.44c1.07-1.3,1.3-1.44,1.47-1.44,.2,0,.39,.14,1.55,1.07,.51,.42,.65,.59,.65,.79s-.11,.28-.37,.28h-10.79c0,.87,.03,1.75,.03,2.62v.51h8c1.1-1.3,1.3-1.44,1.47-1.44,.2,0,.39,.14,1.61,1.13,.54,.39,.68,.56,.68,.76,0,.17-.08,.25-.37,.25h-11.36c.03,1.94,.06,3.38,.06,4.03s-.45,.96-1.35,.96c-.7,0-.96-.23-.96-.82,0-.42,.06-1.66,.08-4.17h-8.65c-.59,0-1.04,.06-1.83,.17l-.28-1.07c.85,.17,1.38,.2,2.09,.2h8.71v-3.13h-7.75c-.65,0-1.13,.06-1.86,.17l-.28-1.07c.85,.17,1.35,.2,2.09,.2h1.94v-4.26h-3.66c-.59,0-1.07,.06-1.83,.17l-.28-1.07c.85,.17,1.35,.2,2.09,.2h3.69v-3.86h-1.72Zm13.36-4.14c.03,.85,.06,1.35,.06,1.55,0,.51-.39,.84-1.21,.84-.65,0-.87-.25-.87-.73,0-.14,.03-.59,.06-1.66h-5.41c0,.87,.03,1.35,.03,1.55,0,.54-.39,.87-1.21,.87-.62,0-.87-.25-.87-.76,0-.2,.06-.65,.06-1.66h-5.35c-.62,0-1.1,.06-1.86,.17l-.31-1.1c.85,.2,1.44,.23,2.14,.23h5.41v-.59c0-1.16,0-1.49-.14-2.48,2.71,.31,3.04,.42,3.04,.79,0,.2-.17,.37-.93,.65v1.63h5.41c0-1.69,0-2.06-.14-3.07,2.59,.31,2.99,.45,2.99,.79,0,.2-.11,.34-.87,.65v1.63h4.54c1.13-1.32,1.35-1.47,1.52-1.47s.45,.11,1.66,1.07c.59,.48,.7,.68,.7,.85s-.08,.25-.37,.25h-8.06Zm-5.78,8v-3.86h-3.92v3.86h3.92Zm0,4.96v-4.26h-3.92v4.26h3.92Zm2.09-8.82v3.86h4.09v-3.86h-4.09Zm0,4.57v4.26h4.09v-4.26h-4.09Z"/>
      <path class="cls-3" d="M221.36,80.08c.85-.99,.99-1.1,1.16-1.1,.2,0,.34,.11,1.35,.9,.48,.37,.54,.56,.54,.73,0,.25-.14,.42-.76,.82v3.75c0,8.12,.08,8.99,.08,10.12,0,.96-.34,1.58-.87,1.97-.39,.31-1.1,.48-1.75,.48-.34,0-.45-.14-.51-.48-.08-.9-.62-1.27-2.93-1.8-.14-.03-.14-.34,0-.34,1.66,.11,2.73,.14,3.35,.14,.42,0,.54-.14,.54-.54v-13.95h-16.63v6.85c0,6.14,.06,7.78,.06,9.38,0,.62-.45,.93-1.27,.93-.7,0-1.01-.2-1.01-.79,0-1.69,.14-4.26,.14-11.98,0-3.58-.03-5.02-.17-6.31,1.07,.42,1.52,.65,2.54,1.21h6.74v-3.33h-9.05c-.73,0-1.27,.06-2.06,.17l-.28-1.07c.87,.14,1.49,.2,2.25,.2h9.13v-.76c0-1.21-.03-2.11-.14-3.16,2.82,.34,3.18,.56,3.18,.87,0,.2-.2,.42-.96,.71v2.34h7.78c1.3-1.52,1.49-1.66,1.66-1.66,.2,0,.39,.14,1.8,1.24,.68,.51,.82,.68,.82,.85,0,.2-.11,.28-.39,.28h-11.67v3.33h7.33Zm-7.33,10.77c0,1.97,.11,4.17,.11,4.82s-.42,.93-1.32,.93c-.65,0-.93-.2-.93-.76,0-.42,.11-2.03,.11-4.85v-.51h-4.14c-.68,0-1.18,.03-1.97,.14l-.28-1.04c.85,.14,1.41,.2,2.17,.2h4.23v-3.33h-3.35c-.65,0-1.18,.06-1.97,.17l-.28-1.07c.85,.17,1.44,.2,2.14,.2h5.5c.56-.99,1.04-2,1.35-2.93,.2-.56,.37-1.13,.45-1.63,2.03,.65,2.56,.93,2.56,1.21s-.2,.39-.99,.48c-1.07,1.35-1.78,2.09-2.65,2.88h2.17c.99-1.16,1.18-1.3,1.35-1.3,.2,0,.37,.14,1.44,.99,.45,.37,.56,.56,.56,.73s-.08,.28-.37,.28h-5.89v3.33h3.38c1.04-1.3,1.24-1.41,1.41-1.41,.2,0,.42,.11,1.52,1.04,.51,.42,.62,.62,.62,.79s-.08,.28-.37,.28h-6.57v.37Zm-4.37-6.68c-.31-1.04-.7-1.69-1.49-2.62-.08-.08,.06-.23,.17-.2,2.28,.79,3.3,1.8,3.3,2.93,0,.65-.39,1.1-.99,1.1-.54,0-.7-.2-.99-1.21Z"/>
      <path class="cls-3" d="M236.77,80.02c-.79,.73-1.61,1.35-2.45,1.86-.14,.08-.39-.2-.28-.31,2.03-1.97,3.58-4.37,4.57-6.45,.45-.96,.76-1.86,.9-2.65,2.11,.59,2.73,.85,2.73,1.18,0,.28-.31,.42-1.01,.51l-.08,.17c2.87,.93,4.62,2.23,4.62,3.44,0,.68-.37,1.07-.93,1.07-.42,0-.65-.2-1.07-1.04-.65-1.27-1.55-2.23-2.82-3.1-1.04,1.89-2.4,3.66-3.97,5.16,.56,.11,.96,.17,1.52,.17h3.41c.82-1.01,1.01-1.16,1.18-1.16,.2,0,.39,.14,1.38,.93,.39,.31,.54,.51,.54,.68s-.11,.25-.37,.25h-3.58v3.75h1.86c.93-1.21,1.16-1.32,1.32-1.32,.2,0,.39,.14,1.38,1.04,.39,.37,.54,.54,.54,.71,0,.2-.11,.28-.37,.28h-4.73v8.62c1.58-.34,3.1-.76,4.48-1.21,.14-.06,.23,.28,.11,.34-2.48,1.35-6.03,2.76-9.13,3.64-.11,.73-.28,.96-.56,.96s-.42-.25-1.32-2.82c.76-.03,1.52-.08,2.2-.17,.79-.11,1.58-.23,2.4-.37v-8.99h-2.62c-.54,0-.99,.03-1.69,.17l-.28-1.07c.76,.14,1.27,.2,1.94,.2h2.65v-3.75h-.65c-.54,0-.96,.08-1.58,.2l-.23-.9Zm-.39,11.56c-.14-1.95-.42-2.9-1.04-4.2-.06-.14,.2-.25,.31-.17,1.61,1.49,2.45,2.99,2.45,4.23,0,.73-.39,1.3-.93,1.3-.51,0-.73-.31-.79-1.16Zm5.58,.73c.54-1.24,.93-2.48,1.16-3.61,.17-.71,.28-1.33,.31-1.97,1.94,.62,2.37,.87,2.37,1.13,0,.28-.25,.42-.82,.48-.82,1.66-1.58,2.87-2.68,4.17-.11,.14-.39-.03-.34-.2Zm10.37-7.53c.37,1.8,.9,3.58,1.78,5.21,.93-.87,1.72-1.78,2.31-2.59,.45-.59,.76-1.16,.96-1.63,1.83,1.13,2.37,1.52,2.37,1.8,0,.25-.31,.4-1.18,.34-1.35,1.01-2.76,1.97-4.14,2.62,.25,.39,.51,.79,.79,1.13,1.38,1.72,3.27,2.96,5.24,3.72,.14,.06,.06,.28-.08,.31-.73,.23-1.01,.56-1.35,1.32-.2,.42-.23,.51-.42,.51-.17,0-.42-.14-.82-.45-1.41-1.13-2.85-2.68-3.83-4.48-1.13-2-1.83-4.42-2.25-7.81h-2.56v9.53c1.47-.34,2.96-.76,4.2-1.18,.14-.06,.25,.25,.14,.34-2.51,1.58-4.28,2.34-7.41,3.52-.17,.76-.28,1.04-.56,1.04s-.45-.25-1.3-2.93c.59,0,1.13-.08,1.69-.17,.42-.06,.87-.14,1.32-.23v-14.66c0-3.44-.03-4.99-.14-6.99,.99,.42,1.41,.62,2.34,1.16h6.17c.87-.93,1.01-1.04,1.18-1.04,.2,0,.34,.11,1.24,.85,.45,.39,.54,.54,.54,.73,0,.23-.11,.4-.76,.82v2.76c0,4.25,.11,5.97,.11,6.54s-.45,.85-1.21,.85c-.56,0-.85-.2-.85-.68v-.25h-3.49Zm3.49-9.86h-6.71v4.11h6.71v-4.11Zm-6.71,9.16h6.71v-4.34h-6.71v4.34Z"/>
      <path class="cls-3" d="M277.62,81.35v.22c0,.59-.34,.85-1.16,.85-.56,0-.79-.2-.79-.73,0-.28,.06-.85,.06-2.68,0-1.24,0-1.97-.14-3.1,.93,.34,1.32,.51,2.23,1.01h2.68v-2.45h-2.99c-.68,0-1.21,.06-2.03,.17l-.28-1.04c-.17,.08-.39,.14-.7,.2-.7,2.51-1.69,4.88-2.9,7.02,1.49,.25,1.75,.37,1.75,.65,0,.23-.14,.39-.79,.68v14.94c0,.68-.37,.96-1.3,.96-.62,0-.87-.2-.87-.79s.2-2.68,.23-9.33c0-1.83,0-3.69,.03-5.52-.96,1.44-2,2.73-3.13,3.89-.11,.11-.37-.11-.28-.25,2.11-3.18,3.86-7.24,4.71-10.77,.28-1.18,.45-2.25,.54-3.3,2.51,.65,3.13,.85,3.13,1.21,0,.17-.08,.31-.31,.39,.87,.17,1.47,.2,2.25,.2h12.34c1.16-1.38,1.38-1.49,1.58-1.49,.17,0,.39,.11,1.63,1.18,.51,.42,.65,.59,.65,.76s-.08,.25-.37,.25h-6.45v2.45h2.82c.68-.79,.85-.9,1.01-.9s.37,.11,1.16,.79c.45,.37,.56,.54,.56,.71,0,.2-.17,.42-.73,.79v.65c0,1.55,.06,2.37,.06,2.56,0,.56-.34,.85-1.16,.85-.54,0-.73-.2-.73-.71v-.31h-12.29Zm-3.64,16.37c2-.73,3.55-1.78,4.9-2.85,.51-.42,.87-.85,1.24-1.32,1.69,.99,2.31,1.44,2.31,1.72,0,.25-.31,.42-1.32,.28-1.92,1.27-4.42,2.14-7.02,2.54-.17,.03-.28-.31-.11-.37Zm4.71-4.76c0,.56-.39,.82-1.16,.82-.62,0-.85-.2-.85-.71,0-.79,.11-2.2,.11-6.59,0-2-.03-2.96-.14-4.06,.96,.37,1.35,.56,2.23,1.04h9.55c.79-.82,.93-.9,1.13-.9,.17,0,.34,.08,1.16,.7,.42,.37,.51,.54,.51,.7,0,.23-.11,.37-.7,.73v1.92c0,3.64,.11,5.55,.11,6.09,0,.62-.37,.9-1.16,.9-.59,0-.85-.22-.85-.7h-9.95v.06Zm1.8-12.32v-3.02h-2.87v3.02h2.87Zm8.14,3.52h-9.95v2.14h9.95v-2.14Zm-9.95,4.99h9.95v-2.14h-9.95v2.14Zm0,3.04h9.95v-2.34h-9.95v2.34Zm6.43-15.27v-2.45h-2.87v2.45h2.87Zm-2.87,3.72h2.87v-3.02h-2.87v3.02Zm7.52,16.49c-1.3-1.24-2.51-2.06-4.45-2.82-.14-.06-.06-.34,.08-.34,4.4,.31,6.74,1.49,6.74,3.1,0,.59-.39,1.04-.96,1.04-.42,0-.56-.06-1.41-.99Zm.14-19.5h-2.99v3.02h2.99v-3.02Z"/>
      <path class="cls-3" d="M308.39,81.54c-1.97,1.52-4.26,2.79-6.79,3.8-.2,.08-.37-.28-.2-.39,4.2-2.45,8-6.14,10.12-9.7,.59-1.07,1.04-2.09,1.32-3.1,2.87,.73,3.35,.93,3.35,1.27,0,.23-.2,.37-.96,.54,1.78,2.4,3.61,4.14,5.78,5.52,2.2,1.38,4.48,2.14,6.71,2.59,.14,.03,.11,.31-.03,.34-.79,.17-1.13,.51-1.49,1.66-.11,.31-.25,.42-.45,.42-.14,0-.48-.11-1.01-.39-1.32-.71-3.1-1.89-4.42-3.02-2.06-1.75-3.8-3.83-5.58-6.88-1.58,2.79-3.69,5.27-6.23,7.24,.76,.11,1.24,.17,1.89,.17h6.45c.99-1.27,1.18-1.38,1.35-1.38,.2,0,.39,.11,1.52,1.07,.48,.39,.59,.56,.59,.73,0,.2-.08,.28-.37,.28h-4.79v4.65h6.2c1.07-1.32,1.3-1.46,1.49-1.46,.17,0,.39,.14,1.52,1.13,.51,.42,.65,.59,.65,.76s-.08,.28-.37,.28h-9.5v8.17h7.47c1.35-1.49,1.55-1.63,1.72-1.63,.2,0,.39,.14,1.69,1.21,.56,.48,.7,.68,.7,.85,0,.2-.08,.28-.37,.28h-21.64c-.65,0-1.13,.06-1.83,.17l-.31-1.07c.85,.14,1.41,.2,2.14,.2h8.31v-8.17h-6.93c-.65,0-1.13,.03-1.83,.17l-.28-1.07c.82,.14,1.35,.2,2.11,.2h6.93v-4.65h-2.59c-.59,0-1.07,.03-1.78,.17l-.28-.96Zm-.31,11.61c-.28-1.58-.82-2.96-1.72-4-.08-.11,.08-.28,.23-.23,2.17,1.04,3.75,2.73,3.75,4.03,0,.87-.48,1.46-1.16,1.46-.54,0-.9-.28-1.1-1.27Zm8.82,1.46c.9-1.1,1.8-2.68,2.4-3.97,.37-.79,.65-1.52,.76-2.06,2.37,1.1,2.65,1.3,2.65,1.58,0,.31-.25,.42-1.1,.51-1.24,1.72-2.68,2.99-4.4,4.23-.14,.11-.42-.14-.31-.28Z"/>
      <path class="cls-3" d="M340.74,96.93c0,.68-.39,.99-1.21,.99-.73,0-.99-.25-.99-.85s.11-2.62,.17-9.13c0-1.89,.03-3.8,.03-5.69-1.04,1.47-2.17,2.82-3.44,4-.14,.14-.45-.14-.34-.31,2.14-2.9,4.03-6.71,5.07-10.03,.39-1.35,.68-2.62,.79-3.8,2.62,.7,3.13,.9,3.13,1.27,0,.31-.2,.39-1.16,.62-.79,2.42-1.86,4.74-3.13,6.82,1.61,.25,1.89,.37,1.89,.68,0,.23-.14,.39-.82,.68v14.77Zm1.83-19.02c.82,.17,1.35,.23,2.06,.23h12.94c1.16-1.41,1.38-1.55,1.55-1.55,.2,0,.39,.14,1.61,1.13,.59,.48,.7,.68,.7,.85,0,.2-.11,.28-.39,.28h-16.32c-.65,0-1.13,.03-1.86,.14l-.28-1.07Zm1.75,3.78c.82,.17,1.3,.2,1.97,.2h9.41c1.07-1.27,1.3-1.38,1.47-1.38s.39,.11,1.49,1.07c.51,.39,.65,.56,.65,.73,0,.2-.08,.28-.39,.28h-12.65c-.54,0-.96,.06-1.63,.17l-.31-1.07Zm.03,3.95c.79,.14,1.27,.2,1.94,.2h9.44c1.07-1.24,1.3-1.38,1.47-1.38s.39,.14,1.49,1.01c.51,.39,.65,.59,.65,.76s-.08,.31-.39,.31h-12.65c-.56,0-.96,.03-1.66,.14l-.28-1.04Zm2.23,11.39c0,.56-.39,.85-1.21,.85-.65,0-.85-.2-.85-.7,0-.59,.06-1.61,.06-5.19,0-1.49,0-2.31-.08-3.52,.96,.39,1.41,.62,2.28,1.16h9.19c.85-.9,.99-.99,1.16-.99,.2,0,.37,.08,1.27,.82,.42,.39,.51,.54,.51,.71,0,.2-.08,.34-.76,.76v1.41c0,2.82,.08,4.2,.08,4.59,0,.62-.42,.87-1.27,.87-.56,0-.82-.2-.82-.62v-.9h-9.55v.76Zm-1.75-23.05c.79,.17,1.27,.23,1.94,.23h8.68c1.1-1.27,1.32-1.38,1.49-1.38s.39,.11,1.52,1.01c.48,.45,.62,.62,.62,.79,0,.2-.11,.28-.37,.28h-11.95c-.56,0-.96,.03-1.63,.17l-.31-1.1Zm11.3,16.35h-9.55v5.24h9.55v-5.24Z"/>
      <path class="cls-3" d="M369.22,77.4c.85,.14,1.35,.2,2.11,.2h5.47c1.07-1.18,1.27-1.32,1.44-1.32,.2,0,.39,.14,1.49,1.01,.45,.37,.59,.54,.59,.73s-.08,.28-.37,.28h-8.62c-.59,0-1.07,.03-1.83,.17l-.28-1.07Zm1.18,3.8c.79,.17,1.32,.23,1.97,.23h3.33c.96-1.21,1.18-1.35,1.35-1.35s.39,.14,1.41,1.04c.45,.37,.56,.59,.56,.76s-.08,.25-.37,.25h-6.28c-.56,0-.99,.06-1.66,.17l-.31-1.1Zm0,3.66c.79,.17,1.27,.23,1.94,.23h3.24c.96-1.16,1.18-1.27,1.35-1.27s.39,.11,1.41,.96c.42,.34,.54,.56,.54,.73,0,.2-.08,.28-.37,.28h-6.17c-.54,0-.96,.03-1.63,.17l-.31-1.1Zm2.11,12.01c0,.56-.37,.85-1.13,.85-.59,0-.9-.17-.9-.71s.08-1.52,.08-4.76c0-1.97,0-3.1-.11-4.48,.96,.39,1.35,.59,2.23,1.1h3.55c.85-.93,.99-1.04,1.18-1.04,.17,0,.34,.11,1.16,.79,.39,.34,.48,.51,.48,.71,0,.23-.11,.37-.7,.79v1.52c0,2.99,.08,4.48,.08,4.9,0,.59-.39,.87-1.16,.87-.56,0-.82-.22-.82-.7v-.73h-3.95v.9Zm-1.94-23.22c.82,.14,1.32,.2,2.03,.2h3.24c1.04-1.21,1.24-1.32,1.41-1.32,.2,0,.39,.11,1.55,1.04,.51,.37,.62,.54,.62,.71s-.08,.28-.39,.28h-6.43c-.59,0-1.01,.03-1.72,.17l-.31-1.07Zm5.89,15.92h-3.95v5.69h3.95v-5.69Zm5.66-4c-.79,.17-.99,.2-1.89,.56l-.48-.96c.99-.06,1.44-.11,2.2-.25l2.79-.59v-7.02c-1.16,.34-2.34,.62-3.55,.84-.17,.03-.28-.34-.11-.39,2.73-1.01,5.35-2.28,7.44-3.72,.99-.68,1.66-1.3,2.06-1.89,2.2,1.49,2.34,1.63,2.34,1.95,0,.28-.48,.39-1.32,.25-1.47,.9-3.1,1.66-4.82,2.28v7.27l4.4-.9c1.13-1.83,1.27-1.94,1.47-1.94s.42,.11,1.94,.96c.59,.34,.7,.45,.7,.62,0,.11-.11,.23-.31,.25l-8.2,1.72v9.05c0,1.35,.28,1.61,2.76,1.61,1.63,0,2.37-.06,2.79-.54,.45-.51,.7-1.27,1.44-4.03,.06-.17,.37-.08,.37,.08-.03,.96-.17,2.51-.17,3.07,0,.42,.11,.56,.48,.71,.39,.14,.54,.45,.54,.82,0,.59-.39,1.04-1.01,1.32-.79,.31-2.11,.51-4.59,.51-3.83,0-4.68-.73-4.68-2.96,0-.68,.06-1.94,.06-5.64v-3.58l-2.62,.54Z"/>
    </g>
  </g>
</svg>