<?xml version="1.0" encoding="UTF-8"?>
<svg id="_圖層_2" data-name="圖層 2" xmlns="http://www.w3.org/2000/svg" viewBox="0 0 654.29 161.13">
  <defs>
    <style>
      .cls-1 {
        fill: #5c5c5c;
      }

      .cls-2 {
        fill: none;
        stroke: #5c5c5c;
        stroke-width: .84px;
      }
    </style>
  </defs>
  <g id="_圖層_1-2" data-name="圖層 1">
    <g>
      <rect class="cls-2" x=".42" y="88.92" width="59.4" height="35.64"/>
      <rect class="cls-2" x="59.82" y="88.92" width="118.81" height="35.64"/>
      <rect class="cls-2" x="178.63" y="88.92" width="118.81" height="35.64"/>
      <rect class="cls-2" x="297.44" y="88.92" width="118.81" height="35.64"/>
      <rect class="cls-2" x="416.25" y="88.92" width="118.81" height="35.64"/>
      <rect class="cls-2" x="535.06" y="88.92" width="118.81" height="35.64"/>
      <g>
        <path class="cls-1" d="M29.36,110.38v1.2h-7.85v4.63h-1.39v-4.63h-7.69v-1.2h7.69v-1.58h1.39v1.58h7.85Zm-1.8-.84c-1.54-.59-3.69-1.16-6.17-1.73-2.05,.87-4.75,1.31-8.25,1.54-.13-.42-.32-.87-.53-1.22,2.6-.11,4.71-.36,6.42-.8-1.29-.25-2.62-.47-4.01-.68,.59-.53,1.23-1.16,1.88-1.84h-4.27v-1.16h5.3c.57-.67,1.08-1.35,1.48-1.96l1.37,.42c-.34,.49-.76,1.03-1.2,1.54h4.67c.23-.4,.42-.84,.57-1.31l1.37,.32c-.11,.36-.23,.67-.38,.99h3.36v1.16h-3.99c-.59,.89-1.33,1.61-2.24,2.2,2.32,.51,4.41,1.06,5.98,1.6l-1.37,.93Zm-8.99,2.91c-1.16,1.29-3.08,2.47-4.75,3.21-.25-.27-.82-.76-1.16-.97,1.71-.63,3.51-1.61,4.52-2.7l1.39,.46Zm-4.29-9.42h-1.33v-2.72h7.31c-.23-.4-.47-.78-.68-1.12l1.41-.34c.29,.42,.68,.99,.95,1.46h6.95v2.72h-1.37v-1.52H14.27v1.52Zm4.24,1.79c-.4,.42-.8,.8-1.16,1.16,1.25,.19,2.49,.42,3.7,.67,.99-.49,1.8-1.08,2.43-1.82h-4.98Zm5.45,6.99c1.71,.76,3.91,2.01,5.03,2.93l-1.03,1.03c-1.06-.93-3.23-2.24-4.96-3.06l.95-.89Z"/>
        <path class="cls-1" d="M46.45,116.21h-1.44v-.99h-8.43v.99h-1.39v-6.25c-1.04,.36-2.11,.67-3.15,.91-.11-.38-.44-.99-.72-1.29,2.41-.49,4.92-1.39,7.16-2.6-.91-.91-2.36-2.05-3.61-2.98-.66,.46-1.37,.89-2.13,1.27-.21-.32-.67-.85-.97-1.06,3.06-1.48,5.21-3.59,6.34-5.4l1.58,.34c-.36,.53-.76,1.08-1.23,1.61h6.72l.23-.08,.95,.59c-1.56,3.02-4.29,5.36-7.45,7.03h7.54v7.9Zm-9.21-14.15c-.4,.4-.84,.76-1.27,1.14,1.29,.91,2.89,2.11,3.82,3,1.82-1.14,3.4-2.55,4.48-4.14h-7.03Zm7.77,11.87v-4.31h-8.43v4.31h8.43Z"/>
      </g>
      <rect class="cls-2" x=".42" y="125.06" width="59.4" height="35.64"/>
      <rect class="cls-2" x="59.82" y="125.06" width="118.81" height="35.64"/>
      <rect class="cls-2" x="178.63" y="125.06" width="118.81" height="35.64"/>
      <rect class="cls-2" x="297.44" y="125.06" width="118.81" height="35.64"/>
      <rect class="cls-2" x="416.25" y="125.06" width="118.81" height="35.64"/>
      <rect class="cls-2" x="535.06" y="125.06" width="118.81" height="35.64"/>
      <g>
        <path class="cls-1" d="M26.01,150.17c1.03,0,2.47-.08,3.15-.21,.06,.4,.15,1.04,.23,1.35-.49,.15-1.94,.17-3.4,.17h-8.36c-2.91,0-4.31-.91-4.31-3.69v-10.64h-.78v-1.27h15.92v1.27H14.71v10.73c0,1.61,.74,2.28,2.77,2.28h8.53Zm-9.8-6.29h4.94v4.86h-4.94v-4.86Zm1.18,3.84h2.53v-2.81h-2.53v2.81Zm7.92-5.13h-7.05v-4.2h7.05v4.2Zm-1.39-3.19h-4.33v2.17h4.33v-2.17Zm3.61,9.35h-5.11v-4.86h5.11v4.86Zm-1.25-3.84h-2.64v2.81h2.64v-2.81Z"/>
        <path class="cls-1" d="M36.7,147.26c-1.73,.89-3.59,1.82-5.05,2.55l-.55-1.39c.61-.25,1.33-.57,2.13-.93v-6.53h-1.99v-1.33h1.99v-4.39h1.33v4.39h1.73v1.33h-1.73v5.91c.57-.27,1.18-.57,1.77-.85l.38,1.25Zm6.08,1.14c-2.26,.67-4.63,1.35-6.44,1.86l-.38-1.33c1.71-.38,4.24-1.08,6.69-1.73l.13,1.2Zm5.19-7.26c-.68,2.49-1.6,4.67-2.77,6.55,.46,2.07,1.03,3.31,1.73,3.31,.36,0,.53-.74,.61-2.72,.28,.32,.7,.59,1.01,.74-.21,2.53-.59,3.32-1.79,3.32s-1.98-1.22-2.56-3.25c-.93,1.22-2.01,2.24-3.21,3.1-.21-.25-.74-.7-1.04-.93,1.54-.97,2.81-2.26,3.86-3.76-.44-2.28-.68-5.19-.8-8.4h-6.38v-1.31h6.34c-.04-.91-.06-1.84-.06-2.77h1.37c0,.95,0,1.88,.02,2.77h2.98c-.47-.57-1.44-1.42-2.26-2.03l.82-.7c.84,.55,1.84,1.37,2.32,1.96l-.84,.78h1.01v1.31h-3.99c.08,2.53,.27,4.81,.53,6.67,.78-1.48,1.37-3.1,1.82-4.88l1.29,.25Zm-6.1-.25v5.47h-4.71v-5.47h4.71Zm-1.16,1.14h-2.45v3.19h2.45v-3.19Z"/>
      </g>
      <g>
        <path class="cls-1" d="M104.67,111.64v1.02h-11.71v-1.02h11.71Zm-.73-9.1v1.01h-10.2v-1.01h10.2Zm-1.06,4.41v1.02h-8.27v-1.02h8.27Z"/>
        <path class="cls-1" d="M108.17,109.39c-.16,1.28-.5,2.62-1.18,3.7-.19-.15-.61-.35-.86-.45,1.06-1.62,1.21-3.86,1.21-5.38v-1.84h5.55v3.97h-4.72Zm2.72-7.7c-.07,.11-.15,.22-.22,.33,1.06,.64,2.33,1.43,2.99,1.97l-.53,.83c-.67-.56-1.92-1.4-3-2.08-.92,1.13-2.19,2.09-3.41,2.76-.11-.23-.38-.71-.56-.92,1.5-.72,3-1.88,3.82-3.24l.91,.35Zm-2.73,8.32h5.04v3.52h-.9v-.53h-3.28v.56h-.87v-3.55Zm3.79-1.37v-.92h-3.66c-.01,.29-.03,.61-.05,.92h3.71Zm-3.66-2.47v.87h3.66v-.87h-3.66Zm3.37-2.09v.67h-2.85v-.67h2.85Zm-2.64,6.7v1.43h3.28v-1.43h-3.28Zm6.35-.58h-.95v-7.45h.95v7.45Zm2.57-8.89v11c0,.64-.16,.95-.54,1.11-.41,.18-1.07,.2-2.17,.2-.05-.27-.2-.72-.34-1.01,.82,.03,1.55,.03,1.77,.01,.23-.01,.31-.08,.31-.31v-11.01h.98Z"/>
        <path class="cls-1" d="M124.35,110.87c.76,.71,1.62,1.71,1.98,2.42l-.8,.41c-.15-.3-.38-.65-.65-1.03-3.48,.72-3.93,.83-4.19,.99-.08-.23-.3-.62-.48-.82,.29-.14,.72-.45,.72-1.02v-4.5h.49s4.12-.01,4.12-.01v3.56h-3.62v1.62l2.41-.48c-.23-.27-.49-.54-.73-.79l.75-.35Zm6.93-8.92c-2.71,.44-7.04,.69-10.6,.76-.01-.23-.11-.56-.19-.76,3.53-.07,7.84-.34,10.21-.73l.58,.73Zm-10.5,2.16h1.67c-.15-.34-.45-.82-.73-1.16l.82-.26c.31,.37,.65,.87,.77,1.21l-.6,.2h5.6c.41-.49,.9-1.24,1.16-1.75l.91,.33c-.34,.49-.75,1.02-1.09,1.43h1.97v2.61h-10.48v-2.61Zm.95,1.9h2.16v-1.2h-2.16v1.2Zm2.87,2h-2.68v.72h2.68v-.72Zm0,2.15v-.76h-2.68v.76h2.68Zm.23-4.15h2.23v-1.2h-2.23v1.2Zm1.02-3.47c.3,.42,.56,.98,.62,1.35l-.87,.22c-.07-.37-.33-.95-.58-1.37l.83-.19Zm6.29,6.54h-1.62v3.33c0,.54-.12,.78-.52,.92-.41,.15-1.06,.16-2.11,.16-.05-.26-.2-.61-.34-.86,.8,.03,1.54,.03,1.73,.01,.22-.01,.29-.07,.29-.25v-3.33h-3.63v-.86h3.63v-1.22h.95v1.22h1.62v.86Zm-4.42,2.8c-.22-.53-.76-1.36-1.28-1.96l.78-.31c.53,.57,1.09,1.39,1.32,1.93l-.82,.34Zm.27-5.87h2.27v-1.2h-2.27v1.2Z"/>
        <path class="cls-1" d="M135.34,107.73h3.29v5.93h-.97v-3.14h-1.77c-.12,1.54-.52,2.62-1.77,3.28-.11-.23-.38-.57-.58-.75,.99-.49,1.32-1.35,1.41-2.53h-1.47v-.87h4.17v-1.07h-3.32v-6.17h.99v5.33Zm7.15-.67h-5.87v-5.4h5.87v5.4Zm-.99-4.69h-3.9v.86h3.9v-.86Zm0,1.54h-3.9v.88h3.9v-.88Zm0,1.56h-3.9v.88h3.9v-.88Zm3.63,4.19v4.02h-.98v-3.13h-2.71v3.1h-.98v-5.93h.38s2.96-.01,2.96-.01v-5.34h.99v6.19h-3.36v1.1h3.68Z"/>
      </g>
      <g>
        <path class="cls-1" d="M337.18,107.45c.95,2.57,2.8,4.46,5.55,5.25-.23,.22-.53,.64-.68,.91-2.71-.9-4.51-2.76-5.59-5.4-.61,1.99-2.09,3.98-5.55,5.41-.12-.26-.44-.64-.65-.84,3.49-1.43,4.81-3.43,5.29-5.33h-4.95v-1.02h5.15c.07-.53,.08-1.06,.08-1.54v-1.59h-4.76v-1.02h10.69v1.02h-4.88v1.6c0,.48-.01,1.01-.07,1.52h5.53v1.02h-5.17Z"/>
        <path class="cls-1" d="M347.28,101.21c.24,.41,.48,.97,.61,1.37h2.08v.86h-1.7v1.26h1.52v3.21h-4.61v.09c0,1.7-.1,4.04-.8,5.53-.14-.14-.46-.37-.65-.45,.65-1.43,.69-3.48,.69-5.08v-5.42h2.42c-.12-.37-.3-.82-.46-1.16l.9-.22Zm-2.09,2.23v1.26h.88v-1.26h-.88Zm0,3.68h.88v-1.63h-.88v1.63Zm4.69,4.5c-.01,.22,.03,.53,.07,.71-1.73,.6-2.05,.73-2.23,.88v-.03c-.04-.18-.15-.45-.24-.63-1.33,.39-1.62,.52-1.77,.65v-.04c-.07-.2-.2-.54-.31-.72,.16-.07,.38-.23,.38-.72v-3.62h.73v1.39h1.01v.77h-1.01v1.79l.95-.25c0,.18,.01,.42,.04,.61,.16-.1,.35-.27,.35-.68v-3.63h.72v1.37h1.16v.77h-1.16v1.74l1.31-.39Zm-2.26-8.18h-.9v1.26h.9v-1.26Zm-.9,3.68h.9v-1.63h-.9v1.63Zm1.55-1.63v1.63h.82v-1.63h-.82Zm4.47,5.45c-.45,1.05-1.22,2.07-1.96,2.72-.16-.15-.52-.45-.72-.6,.73-.58,1.43-1.45,1.82-2.35l.86,.23Zm3.52-1.51v.88h-6.04v-.88h1.02v-5.37h-.96v-.87h.96v-1.93h.88v1.93h2.23v-1.93h.9v1.93h.86v.87h-.86v5.37h1.01Zm-4.13-5.37v1.17h2.23v-1.17h-2.23Zm0,3.24h2.23v-1.24h-2.23v1.24Zm0,2.13h2.23v-1.3h-2.23v1.3Zm2.35,1.24c.61,.78,1.36,1.82,1.69,2.49l-.76,.45c-.34-.67-1.05-1.75-1.67-2.54l.75-.39Z"/>
        <path class="cls-1" d="M369.57,106.04v.96h-7.19c-1.03,2.42-2.41,4.47-4.08,5.93-.18-.2-.63-.58-.86-.76,1.6-1.25,2.87-3.05,3.81-5.17h-3.54v-.96h3.93c.25-.64,.46-1.31,.65-1.99l1.03,.25c-.16,.6-.37,1.18-.58,1.74h6.83Zm-10.69-.79h-.98v-2.54h5.52c-.15-.39-.39-.91-.61-1.31l1.03-.27c.27,.48,.61,1.14,.77,1.55l-.08,.03h4.85v2.54h-1.01v-1.6h-9.5v1.6Zm7.64,4.16c.92,1.17,2.15,2.73,2.73,3.68l-.9,.56c-.16-.3-.38-.64-.64-1.02-5.59,.53-6.2,.58-6.61,.75-.05-.2-.22-.71-.34-.97,.29-.05,.56-.38,.92-.86,.39-.45,1.59-2.22,2.39-3.92l1.05,.35c-.82,1.52-1.79,3.02-2.72,4.2l4.72-.39c-.46-.67-.99-1.35-1.44-1.92l.83-.48Z"/>
        <path class="cls-1" d="M374.83,104.98v8.66h-.99v-8.66h-.65c-.42,.99-.91,1.89-1.43,2.6-.19-.16-.65-.46-.91-.61,1.11-1.37,1.97-3.55,2.47-5.74l1.03,.22c-.22,.87-.48,1.73-.78,2.54h3.67v.99h-2.42Zm8.63,0h-2.05v7.33c0,.65-.14,.96-.57,1.11-.43,.19-1.2,.2-2.26,.2-.05-.3-.19-.76-.34-1.06,.83,.03,1.62,.03,1.86,.01,.23-.01,.29-.07,.29-.27v-7.33h-1.99c-.42,.98-.9,1.88-1.43,2.58-.18-.18-.61-.48-.87-.61,1.1-1.37,1.93-3.52,2.41-5.72l1.01,.2c-.2,.88-.45,1.74-.75,2.56h4.69v.99Z"/>
      </g>
      <g>
        <path class="cls-1" d="M563.82,107.13c-.42-.43-1.35-1.03-2.12-1.43l.57-.72c.76,.35,1.7,.91,2.15,1.35l-.6,.8Zm.96,2.04c-.53,1.41-1.25,3.07-1.88,4.32l-.9-.57c.58-1.05,1.4-2.8,1.99-4.31l.79,.56Zm-.46-5.57c-.41-.45-1.31-1.09-2.05-1.5l.6-.71c.73,.37,1.63,.97,2.07,1.44l-.61,.76Zm3.9,6.12c-1.13,.43-2.28,.86-3.24,1.18l-.33-.9c.38-.11,.83-.25,1.32-.39v-5.45h-1.18v-.92h3.21v.92h-1.09v5.15c.38-.14,.77-.26,1.17-.39l.14,.8Zm-1.78,3.26c.72-.6,1.09-1.66,1.24-2.73l.73,.2c-.18,1.12-.52,2.3-1.3,2.96l-.67-.43Zm2.81-4.88v.79h4.69s-.01,.27-.03,.41c-.19,2.65-.37,3.64-.72,4.02-.22,.22-.42,.3-.76,.33-.29,.01-.84,.01-1.43-.03-.01-.22-.09-.54-.22-.77,.56,.07,1.06,.07,1.26,.07s.3-.01,.41-.12c.22-.23,.41-1.06,.54-3.13h-4.68v-7.15h1.56c.18-.42,.34-.92,.42-1.28l1.07,.23c-.18,.37-.34,.73-.5,1.05h2.47v3.98h-4.11v.8h4.94v.8h-4.94Zm.31,2.35c.12,.72,.18,1.67,.12,2.26l-.68,.07c.05-.6,.03-1.54-.1-2.27l.65-.05Zm-.31-7.21v.91h3.15v-.91h-3.15Zm3.15,2.51v-.9h-3.15v.9h3.15Zm-1.63,4.55c.26,.58,.52,1.36,.61,1.85l-.64,.16c-.1-.5-.34-1.28-.57-1.86l.6-.15Zm1.37,1.4c-.14-.35-.48-.94-.78-1.36l.54-.22c.34,.41,.65,.95,.82,1.32l-.58,.26Z"/>
        <path class="cls-1" d="M587.74,111.71h-3.19v1.93h-.92v-1.93h-3.17v-.73c-1.73,.88-2.03,1.06-2.23,1.25-.07-.24-.26-.76-.41-.99,.2-.15,.54-.48,.54-1.01v-3.34h-1.01c-.05,2.99-.27,5.34-1.46,6.76-.15-.23-.42-.53-.65-.68,1.02-1.24,1.2-3.36,1.24-6.08h-1.1v-.95h2.07v-4.57h.88v4.57h2.2v.95h-1.32v3.79l1.16-.56c.03,.2,.09,.5,.15,.71h3.1v-.99h-2.5v-3.98h2.5v-.95h-2.69v-.83h2.69v-1.05h.92v1.05h2.68v.83h-2.68v.95h2.6v3.98h-2.6v.99h3.19v.88Zm-11.54-6.2c-.12-.84-.42-2.15-.69-3.14l.72-.18c.31,1.01,.61,2.27,.72,3.13l-.75,.19Zm4.21-3.13c-.31,1.05-.73,2.34-1.09,3.14l-.67-.2c.33-.84,.72-2.22,.91-3.17l.84,.23Zm1.12,1.4h-.87v-2.08h6.87v2.08h-.9v-1.26h-5.1v1.26Zm.42,3.72h1.67v-.96h-1.67v.96Zm1.67,1.63v-.97h-1.67v.97h1.67Zm.92-2.6v.96h1.74v-.96h-1.74Zm1.74,1.63h-1.74v.97h1.74v-.97Z"/>
        <path class="cls-1" d="M594.27,109.56h-3.64l-.97,3.05h-1.28l3.38-9.97h1.4l3.39,9.97h-1.33l-.95-3.05Zm-.31-1.01l-.48-1.52c-.37-1.13-.68-2.22-1.01-3.37h-.05c-.31,1.17-.64,2.24-.99,3.37l-.49,1.52h3.02Z"/>
        <path class="cls-1" d="M597.96,102.64h1.26v9.97h-1.26v-9.97Z"/>
        <path class="cls-1" d="M607.99,104.04c-.15,.44-.29,.87-.45,1.25h4.32v8.36h-1.03v-.78h-6.93v.78h-.99v-8.36h3.56c.12-.39,.25-.86,.33-1.25h-5.44v-.94h3.51c-.27-.46-.73-1.07-1.16-1.54l.88-.38c.49,.48,1.03,1.14,1.28,1.6l-.58,.31h3.59c.44-.56,.94-1.33,1.24-1.89l1.1,.29c-.37,.57-.8,1.14-1.21,1.6h3.43v.94h-5.44Zm2.84,2.15h-6.93v1.35h6.93v-1.35Zm0,2.16h-6.93v1.39h6.93v-1.39Zm0,3.63v-1.44h-6.93v1.44h6.93Z"/>
        <path class="cls-1" d="M627.09,102.6v.92h-10.26v2.96c0,2.09-.16,5.17-1.33,7.22-.18-.19-.61-.46-.83-.57,1.1-1.94,1.2-4.69,1.2-6.65v-3.89h5.28c-.16-.38-.38-.83-.58-1.18l.97-.29c.27,.46,.57,1.02,.75,1.47h4.83Zm-2.33,2.53h2.2v.84h-2.2v2.16h-2.2v1.06h3.67v2.8c0,.5-.1,.76-.49,.91-.38,.15-.99,.15-1.97,.15-.04-.27-.18-.61-.29-.88,.73,.03,1.35,.03,1.52,.01,.18,0,.23-.04,.23-.2v-1.9h-2.68v3.6h-.99v-3.6h-2.57v3h-.99v-3.89h3.56v-1.06h-2.24v-2.16h-2.05v-.84h2.05v-1.21h.95v1.21h3.51v-1.21h.98v1.21Zm-.98,.84h-3.51v1.33h3.51v-1.33Z"/>
      </g>
      <g>
        <path class="cls-1" d="M228.96,110.66c-1.35,.37-2.77,.73-3.89,1.02l-.18-1.01c.49-.11,1.09-.24,1.75-.39v-3.59h-1.48v-.95h1.48v-3.11h-1.52v-.95h3.78v.95h-1.33v3.11h1.16v.95h-1.16v3.34l1.29-.31,.09,.94Zm8.47-1.2v.83h-4.17c-.45,1.06-1.52,2.12-3.85,2.88-.11-.22-.38-.54-.57-.72,2.03-.56,2.98-1.35,3.44-2.16h-3.1v-.83h3.38c.07-.3,.08-.61,.08-.88v-.14h-2.73v-.79h2.73v-.95h-3.14v-.8h1.83c-.12-.41-.34-.94-.53-1.36l.8-.22c.24,.49,.52,1.13,.61,1.52l-.16,.05h2.24c.26-.49,.53-1.16,.68-1.63l.92,.26c-.23,.45-.49,.96-.71,1.37h1.88v.8h-3.49v.95h3.03v.79h-3.03v.14c0,.29-.01,.58-.07,.88h3.92Zm-.14-5.19h-8.04v-.84h2.49v-2.65h.86v2.65h1.25v-2.65h.87v2.65h2.57v.84Zm-6.84-1.01c-.14-.48-.52-1.25-.88-1.83l.68-.3c.39,.56,.8,1.31,.94,1.79l-.73,.34Zm3.25,7.36c1.25,.54,2.85,1.4,3.67,2l-.6,.67c-.8-.61-2.41-1.51-3.66-2.09l.58-.57Zm3.29-9.2c-.37,.65-.78,1.36-1.13,1.81l-.67-.29c.33-.5,.75-1.31,.97-1.86l.83,.34Z"/>
        <path class="cls-1" d="M250.9,111.65v.99h-12.1v-.99h5.42v-4.31h-4.19v-.99h4.19v-3.7h-4.76v-.99h10.77v.99h-4.95v3.7h4.42v.99h-4.42v4.31h5.62Zm-3.66-3.67c.84,.76,1.96,1.81,2.52,2.45l-.76,.67c-.54-.65-1.63-1.75-2.47-2.54l.72-.57Z"/>
      </g>
      <g>
        <path class="cls-1" d="M467.22,108.35c.95,.75,1.94,1.73,2.42,2.39l-.69,.67c-.39-.58-1.16-1.43-1.94-2.11v4.32h-.98v-4.08c-.83,1.21-1.92,2.39-2.94,3.13-.12-.26-.39-.67-.61-.87,1.17-.72,2.46-2.11,3.24-3.45h-2.84v-.92h3.15v-1.43h.98v1.43h2.8v.92h-2.58Zm2.6-6.12c-1.77,.5-4.51,.83-6.77,.98-.01-.25-.15-.61-.27-.84,2.23-.18,4.91-.52,6.42-.98l.62,.84Zm-5.46,4.06c-.18-.61-.68-1.52-1.18-2.19l.76-.34c.52,.65,1.03,1.54,1.22,2.13l-.8,.39Zm2.11-.5c-.14-.58-.5-1.5-.88-2.16l.79-.23c.41,.65,.79,1.54,.94,2.11l-.84,.29Zm1.14,.2c.39-.72,.94-1.85,1.21-2.65l.98,.27c-.45,.91-.99,1.98-1.43,2.65l-.76-.27Zm7.6,3.39c-1.11,1.82-3,3.33-5.06,4.27-.15-.27-.45-.62-.72-.86,1.96-.78,3.82-2.18,4.79-3.81l.99,.39Zm-.69-7.5c-.94,1.2-2.38,2.37-3.66,3.09-.19-.22-.48-.54-.76-.73,1.22-.64,2.65-1.73,3.43-2.77l.99,.42Zm.35,3.71c-.99,1.25-2.56,2.46-3.94,3.24-.18-.22-.48-.56-.73-.75,1.29-.67,2.87-1.79,3.73-2.91l.95,.42Z"/>
        <path class="cls-1" d="M488.52,112.12v.99h-12.1v-.99h5.42v-4.31h-4.19v-.99h4.19v-3.7h-4.76v-.99h10.77v.99h-4.95v3.7h4.42v.99h-4.42v4.31h5.62Zm-3.66-3.67c.84,.76,1.96,1.81,2.52,2.45l-.76,.67c-.54-.65-1.63-1.75-2.47-2.54l.72-.57Z"/>
      </g>
      <g>
        <path class="cls-1" d="M86.07,141.83c.95,2.99,2.72,5.45,5.34,6.53-.24,.23-.58,.65-.76,.95-2.61-1.24-4.34-3.64-5.41-6.73-.65,2.61-2.12,5.22-5.42,6.73-.15-.27-.48-.62-.76-.83,3.37-1.47,4.73-4.08,5.29-6.65h-5.02v-1.03h5.18c.2-1.43,.19-2.79,.2-3.86h1.09c-.01,1.09-.03,2.43-.22,3.86h5.62v1.03h-5.13Z"/>
        <path class="cls-1" d="M101.94,143.32c-.38,1.21-.9,2.2-1.59,2.99,1.63,.69,3.14,1.46,4.17,2.12l-.76,.88c-1.01-.68-2.53-1.48-4.21-2.22-1.37,1.16-3.28,1.82-5.82,2.26-.09-.27-.42-.75-.64-1.01,2.34-.3,4.09-.82,5.36-1.73-1.26-.53-2.58-1.01-3.77-1.39,.39-.53,.83-1.2,1.26-1.92h-2.95v-.97h3.48c.45-.82,.84-1.63,1.13-2.37l1.13,.2c-.27,.69-.62,1.43-1.02,2.16h3.3c.1-.42,.18-.87,.25-1.35l1.18,.11c-.07,.44-.15,.86-.24,1.24h2.49v.97h-2.75Zm-7.6-2.12h-1.01v-2.72h5.06c-.19-.43-.43-.96-.67-1.39l1.07-.27c.29,.52,.64,1.18,.84,1.66h4.68v2.72h-1.05v-1.78h-8.93v1.78Zm2.84,2.12c-.31,.53-.61,1.02-.91,1.45,.98,.31,2.01,.71,3.03,1.1,.64-.68,1.12-1.52,1.47-2.56h-3.59Z"/>
        <path class="cls-1" d="M116.11,147.75c.73,0,1.77-.05,2.26-.15,.04,.29,.11,.75,.16,.96-.35,.11-1.39,.12-2.43,.12h-5.98c-2.08,0-3.09-.65-3.09-2.64v-7.61h-.56v-.91h11.39v.91h-9.84v7.68c0,1.16,.53,1.63,1.99,1.63h6.1Zm-7.02-4.5h3.54v3.48h-3.54v-3.48Zm.84,2.75h1.81v-2.01h-1.81v2.01Zm5.67-3.67h-5.04v-3h5.04v3Zm-.99-2.28h-3.1v1.55h3.1v-1.55Zm2.58,6.69h-3.66v-3.48h3.66v3.48Zm-.9-2.75h-1.89v2.01h1.89v-2.01Z"/>
        <path class="cls-1" d="M119.65,143c.31-.91,.54-2.38,.61-3.47l.72,.11c-.04,1.07-.26,2.62-.6,3.63l-.73-.27Zm1.75-6.08h.92v12.4h-.92v-12.4Zm1.74,5c-.1-.65-.33-1.74-.6-2.57l.67-.19c.29,.83,.56,1.89,.64,2.5l-.71,.26Zm8.51,3.87c-.58,.44-1.36,.88-2.04,1.22,.73,.56,1.62,.99,2.62,1.22-.2,.18-.45,.53-.58,.78-1.88-.56-3.34-1.75-4.17-3.39-.44,.29-.9,.56-1.41,.8v1.7l2.08-.57c-.01,.23-.01,.58,0,.78-2.46,.77-2.83,.9-3.03,1.05-.05-.22-.23-.58-.35-.78,.18-.08,.42-.27,.42-.79v-.99c-.6,.23-1.25,.48-1.96,.68-.11-.22-.33-.54-.52-.69,2.15-.56,3.81-1.35,4.75-2.12l.98,.22c-.11,.1-.22,.18-.33,.27,.23,.48,.54,.92,.94,1.32,.69-.37,1.48-.88,1.98-1.26l.63,.56Zm.43-7.04h-8.63v-.76h3.75c-.09-.29-.23-.6-.37-.87l.92-.2c.18,.33,.38,.75,.48,1.07h3.85v.76Zm-8.47,5.76c.76-.2,1.83-.5,2.92-.84l.11,.65c-.98,.31-1.94,.61-2.77,.88l-.26-.69Zm.5-2.16c.77,.18,1.86,.45,2.43,.65l-.26,.63c-.58-.2-1.64-.53-2.45-.73l.27-.54Zm7.42-.31h-7.46v-2.61h7.46v2.61Zm-5.25-2.01h-1.39v1.4h1.39v-1.4Zm2.18,0h-1.43v1.4h1.43v-1.4Zm-1.17,4.54v-2.19h.92v2.19h-.92Zm4.32,.56c-.65-.23-1.88-.6-2.81-.79l.27-.54c.91,.16,2.13,.48,2.8,.72l-.26,.61Zm-2.68-2.2c.68-.11,1.74-.44,2.33-.61l.27,.61c-.71,.24-1.7,.43-2.41,.52l-.19-.52Zm1.74-2.9h-1.46v1.4h1.46v-1.4Z"/>
        <path class="cls-1" d="M145.67,147.92v.98h-12.05v-.98h5.51v-3.45h-4.04v-.98h4.04v-2.96h-3.2c-.43,.86-.91,1.6-1.43,2.22-.19-.16-.64-.46-.91-.6,1.11-1.2,1.98-3.07,2.51-5l1.02,.22c-.22,.75-.46,1.48-.76,2.17h2.76v-2.61h1.03v2.61h4.87v.99h-4.87v2.96h4.36v.98h-4.36v3.45h5.51Z"/>
        <path class="cls-1" d="M152.35,146.23c-1.13,.18-2.26,.38-3.3,.54v2.35h-.98v-2.2l-.98,.16-.15-.95c.33-.04,.72-.09,1.13-.15v-7.87h.03s0,0,0,0c1.26-.33,2.72-.84,3.56-1.28l.82,.76c-.96,.42-2.24,.83-3.43,1.13v1.48h3.04v.9h-3.04v1.86h3.03v.9h-3.03v1.97c1.01-.15,2.15-.31,3.26-.48l.04,.87Zm6.09-2.99c-.39,1.62-1.09,2.86-2,3.79,.84,.64,1.85,1.13,2.99,1.4-.22,.2-.49,.58-.62,.87-1.17-.35-2.2-.9-3.07-1.63-.98,.8-2.15,1.33-3.43,1.71-.09-.27-.33-.67-.52-.87,1.21-.29,2.33-.79,3.24-1.5-.78-.83-1.37-1.82-1.79-2.96l.5-.14h-.95v-.87h4.85l.18-.04,.62,.23Zm-3.77-4.17c0,1.21-.31,2.72-1.78,3.7-.14-.18-.5-.5-.69-.64,1.32-.9,1.54-2.09,1.54-3.09v-1.63h3.77v3.44c0,.35,.04,.46,.23,.46h.91c.18,0,.48-.01,.62-.05,.03,.23,.04,.57,.08,.79-.16,.05-.42,.05-.69,.05h-1.02c-.9,0-1.07-.35-1.07-1.28v-2.53h-1.89v.78Zm-.6,4.85c.38,.95,.92,1.78,1.65,2.49,.65-.67,1.18-1.5,1.52-2.49h-3.17Z"/>
      </g>
      <rect class="cls-2" x=".42" y=".42" width="59.4" height="35.64"/>
      <rect class="cls-2" x="59.82" y=".42" width="118.81" height="35.64"/>
      <rect class="cls-2" x="178.63" y=".42" width="118.81" height="35.64"/>
      <rect class="cls-2" x="297.44" y=".42" width="118.81" height="35.64"/>
      <rect class="cls-2" x="416.25" y=".42" width="118.81" height="35.64"/>
      <rect class="cls-2" x="535.06" y=".42" width="118.81" height="35.64"/>
      <g>
        <path class="cls-1" d="M29.36,21.88v1.2h-7.85v4.63h-1.39v-4.63h-7.69v-1.2h7.69v-1.58h1.39v1.58h7.85Zm-1.8-.84c-1.54-.59-3.69-1.16-6.17-1.73-2.05,.87-4.75,1.31-8.25,1.54-.13-.42-.32-.87-.53-1.22,2.6-.11,4.71-.36,6.42-.8-1.29-.25-2.62-.47-4.01-.68,.59-.53,1.23-1.16,1.88-1.84h-4.27v-1.16h5.3c.57-.67,1.08-1.35,1.48-1.96l1.37,.42c-.34,.49-.76,1.03-1.2,1.54h4.67c.23-.4,.42-.84,.57-1.31l1.37,.32c-.11,.36-.23,.67-.38,.99h3.36v1.16h-3.99c-.59,.89-1.33,1.61-2.24,2.2,2.32,.51,4.41,1.06,5.98,1.6l-1.37,.93Zm-8.99,2.91c-1.16,1.29-3.08,2.47-4.75,3.21-.25-.27-.82-.76-1.16-.97,1.71-.63,3.51-1.61,4.52-2.7l1.39,.46Zm-4.29-9.42h-1.33v-2.72h7.31c-.23-.4-.47-.78-.68-1.12l1.41-.34c.29,.42,.68,.99,.95,1.46h6.95v2.72h-1.37v-1.52H14.27v1.52Zm4.24,1.79c-.4,.42-.8,.8-1.16,1.16,1.25,.19,2.49,.42,3.7,.67,.99-.49,1.8-1.08,2.43-1.82h-4.98Zm5.45,6.99c1.71,.76,3.91,2.01,5.03,2.93l-1.03,1.03c-1.06-.93-3.23-2.24-4.96-3.06l.95-.89Z"/>
        <path class="cls-1" d="M46.45,27.71h-1.44v-.99h-8.43v.99h-1.39v-6.25c-1.04,.36-2.11,.67-3.15,.91-.11-.38-.44-.99-.72-1.29,2.41-.49,4.92-1.39,7.16-2.6-.91-.91-2.36-2.05-3.61-2.98-.66,.46-1.37,.89-2.13,1.27-.21-.32-.67-.85-.97-1.06,3.06-1.48,5.21-3.59,6.34-5.4l1.58,.34c-.36,.53-.76,1.08-1.23,1.61h6.72l.23-.08,.95,.59c-1.56,3.02-4.29,5.36-7.45,7.03h7.54v7.9Zm-9.21-14.15c-.4,.4-.84,.76-1.27,1.14,1.29,.91,2.89,2.11,3.82,3,1.82-1.14,3.4-2.55,4.48-4.14h-7.03Zm7.77,11.87v-4.31h-8.43v4.31h8.43Z"/>
      </g>
      <g>
        <path class="cls-1" d="M95.51,16.53c.34,.48,1.51,2.38,1.77,2.84l-.72,.82c-.2-.5-.65-1.39-1.05-2.13v7.1h-.95v-6.19c-.41,1.37-.94,2.68-1.47,3.52-.12-.3-.38-.68-.57-.92,.79-1.22,1.56-3.41,1.92-5.26h-1.74v-.95h1.86v-2.61h.95v2.61h1.62v.95h-1.62v.23Zm8.78-1.37v9.86h-1.02v-.65h-4.39v.75h-.99V15.16h2.11c.23-.75,.48-1.71,.58-2.41l1.17,.14c-.23,.76-.49,1.6-.75,2.27h3.29Zm-5.41,.97v3.11h4.39v-3.11h-4.39Zm4.39,7.29v-3.21h-4.39v3.21h4.39Z"/>
        <path class="cls-1" d="M111.38,20.26c-.3-.49-.99-1.43-1.55-2.13v7h-.99v-6.63c-.58,1.63-1.4,3.21-2.22,4.16-.12-.3-.37-.69-.54-.94,1.02-1.14,2.07-3.24,2.58-5.11h-2.24v-.96h2.42v-2.91h.99v2.91h1.93v.96h-1.93v.31c.45,.42,1.89,2.08,2.22,2.47l-.67,.87Zm4.66-3.66c.61,2.15,1.65,4.32,2.73,5.51-.24,.18-.6,.52-.77,.79-.83-1.05-1.62-2.71-2.22-4.49v6.72h-.99v-6.68c-.72,1.86-1.74,3.63-2.8,4.69-.14-.27-.41-.65-.6-.88,1.29-1.26,2.56-3.48,3.18-5.66h-2.23v-.96h2.45v-2.91h.99v2.91h2.57v.96h-2.31Z"/>
        <path class="cls-1" d="M130.14,21.14c-.67,.95-1.63,1.7-2.77,2.27,1.43,.41,3.02,.65,4.73,.78-.2,.24-.45,.65-.57,.94-2-.19-3.86-.57-5.46-1.14-1.66,.61-3.58,.98-5.51,1.2-.09-.23-.34-.65-.53-.84,1.7-.15,3.36-.42,4.84-.86-.79-.35-1.51-.79-2.12-1.26-.61,.37-1.24,.71-1.86,.98-.14-.18-.5-.52-.71-.67,.64-.25,1.29-.56,1.9-.9-.37-.34-.68-.71-.97-1.1l.82-.34c.25,.34,.56,.67,.88,.97,.61-.41,1.16-.86,1.58-1.35-.57-.11-.73-.38-.73-1.02v-1.31h.95v1.29c0,.29,.1,.34,.67,.34h1.99c.42,0,.5-.11,.56-.91,.19,.14,.54,.24,.8,.3-.09,1.09-.37,1.36-1.24,1.36h-2.19l.23,.08c-.23,.27-.49,.54-.76,.8h4.66l.19-.04,.62,.43Zm-8.85-2.91h-.95v-2.35h2.46c-.15-.39-.48-.94-.79-1.35l.69-.29c-.58,.03-1.16,.05-1.73,.07-.03-.23-.12-.57-.2-.77,3.32-.1,7.38-.37,9.57-.82l.67,.71c-1.4,.29-3.28,.49-5.22,.64,.34,.45,.65,1.06,.75,1.5l-.87,.31c-.09-.42-.39-1.06-.72-1.52l.78-.29c-.94,.08-1.93,.14-2.88,.18,.38,.42,.73,1.01,.87,1.4l-.52,.23h5.03c.41-.56,.95-1.4,1.25-1.98l.95,.35c-.37,.56-.79,1.16-1.18,1.63h2.46v2.45h-.99v-1.63h-5.15c.64,.3,1.35,.69,1.74,1.02l-.53,.6c-.44-.37-1.29-.88-2.01-1.2l.39-.42h-3.86v1.54Zm-.48,1.22c.73-.44,1.22-1.24,1.47-2.01l.79,.33c-.29,.84-.73,1.73-1.55,2.24l-.71-.56Zm2.68,2.24c.76,.53,1.65,.96,2.67,1.33,.95-.39,1.79-.9,2.41-1.51h-4.83l-.25,.18Zm5.75-4.36c.79,.6,1.71,1.47,2.12,2.09l-.72,.54c-.41-.6-1.3-1.52-2.09-2.15l.69-.49Z"/>
        <path class="cls-1" d="M133.26,18.8c.34-.88,.6-2.37,.69-3.47l.76,.11c-.07,1.1-.31,2.66-.67,3.64l-.79-.29Zm1.82-6.08h.96v12.41h-.96V12.73Zm1.66,2.15c.34,.87,.62,1.97,.71,2.62l-.65,.27c-.08-.69-.35-1.85-.65-2.71l.6-.19Zm7.78,9.12c.33,0,.39-.22,.42-1.7,.22,.16,.63,.33,.9,.39-.08,1.78-.35,2.23-1.22,2.23h-1.36c-1.02,0-1.26-.3-1.26-1.29v-3.3h-1.17c-.25,2.16-.86,3.83-3.06,4.8-.12-.24-.39-.6-.63-.77,1.97-.79,2.47-2.23,2.68-4.02h-1.2v-3.86c-.19,.18-.35,.37-.54,.53-.18-.18-.56-.5-.8-.65,1.07-.84,2.08-2.15,2.68-3.49l.94,.29c-.49,1.07-1.21,2.13-1.97,3h5.42v4.19h-1.36v3.29c0,.34,.07,.38,.39,.38h1.14Zm-4.94-4.58h3.77v-2.37h-3.77v2.37Zm5.32-2.49c-.54-.99-1.81-2.56-2.9-3.68l.71-.46c1.09,1.09,2.37,2.61,2.95,3.6l-.76,.54Z"/>
      </g>
      <rect class="cls-2" x=".42" y="36.56" width="59.4" height="35.64"/>
      <rect class="cls-2" x="59.82" y="36.56" width="118.81" height="35.64"/>
      <rect class="cls-2" x="178.63" y="36.56" width="118.81" height="35.64"/>
      <rect class="cls-2" x="297.44" y="36.56" width="118.81" height="35.64"/>
      <rect class="cls-2" x="416.25" y="36.56" width="118.81" height="35.64"/>
      <rect class="cls-2" x="535.06" y="36.56" width="118.81" height="35.64"/>
      <g>
        <path class="cls-1" d="M26.01,61.66c1.03,0,2.47-.08,3.15-.21,.06,.4,.15,1.04,.23,1.35-.49,.15-1.94,.17-3.4,.17h-8.36c-2.91,0-4.31-.91-4.31-3.69v-10.64h-.78v-1.27h15.92v1.27H14.71v10.73c0,1.61,.74,2.28,2.77,2.28h8.53Zm-9.8-6.29h4.94v4.86h-4.94v-4.86Zm1.18,3.84h2.53v-2.81h-2.53v2.81Zm7.92-5.13h-7.05v-4.2h7.05v4.2Zm-1.39-3.19h-4.33v2.17h4.33v-2.17Zm3.61,9.35h-5.11v-4.86h5.11v4.86Zm-1.25-3.84h-2.64v2.81h2.64v-2.81Z"/>
        <path class="cls-1" d="M36.7,58.76c-1.73,.89-3.59,1.82-5.05,2.55l-.55-1.39c.61-.25,1.33-.57,2.13-.93v-6.53h-1.99v-1.33h1.99v-4.39h1.33v4.39h1.73v1.33h-1.73v5.91c.57-.27,1.18-.57,1.77-.85l.38,1.25Zm6.08,1.14c-2.26,.67-4.63,1.35-6.44,1.86l-.38-1.33c1.71-.38,4.24-1.08,6.69-1.73l.13,1.2Zm5.19-7.26c-.68,2.49-1.6,4.67-2.77,6.55,.46,2.07,1.03,3.31,1.73,3.31,.36,0,.53-.74,.61-2.72,.28,.32,.7,.59,1.01,.74-.21,2.53-.59,3.32-1.79,3.32s-1.98-1.22-2.56-3.25c-.93,1.22-2.01,2.24-3.21,3.1-.21-.25-.74-.7-1.04-.93,1.54-.97,2.81-2.26,3.86-3.76-.44-2.28-.68-5.19-.8-8.4h-6.38v-1.31h6.34c-.04-.91-.06-1.84-.06-2.77h1.37c0,.95,0,1.88,.02,2.77h2.98c-.47-.57-1.44-1.42-2.26-2.03l.82-.7c.84,.55,1.84,1.37,2.32,1.96l-.84,.78h1.01v1.31h-3.99c.08,2.53,.27,4.81,.53,6.67,.78-1.48,1.37-3.1,1.82-4.88l1.29,.25Zm-6.1-.25v5.47h-4.71v-5.47h4.71Zm-1.16,1.14h-2.45v3.19h2.45v-3.19Z"/>
      </g>
      <g>
        <path class="cls-1" d="M206.58,15.73c-.38,1.01-.86,2-1.4,2.94v9.11h-.95v-7.63c-.43,.62-.9,1.18-1.37,1.67-.11-.23-.38-.76-.57-.98,1.33-1.3,2.6-3.33,3.36-5.4l.94,.29Zm6.54,8.27h1.9v.82h-1.9v1.93c0,.54-.12,.8-.54,.94-.41,.14-1.09,.14-2.12,.14-.05-.26-.19-.61-.33-.86,.84,.03,1.54,.03,1.74,0,.22,0,.27-.05,.27-.23v-1.92h-6.16v-.82h6.16v-.88c-2.15,.07-4.24,.14-5.79,.16l-.09-.82c1.03,0,2.38-.01,3.83-.04v-.83h-3.18v-3.6h3.18v-.77h-3.73v-.78h3.73v-.94h.98v.94h3.82v.78h-3.82v.77h3.28v3.6h-1.01c.68,.5,1.37,1.14,1.77,1.6l-.72,.46c-.14-.18-.33-.38-.54-.6l-.72,.03v.91Zm-4,3.13c-.34-.5-1.06-1.29-1.7-1.83l.75-.48c.62,.52,1.37,1.26,1.73,1.77l-.78,.54Zm-1.29-7.65h2.26v-.84h-2.26v.84Zm2.26,1.48v-.87h-2.26v.87h2.26Zm.98-2.32v.84h2.31v-.84h-2.31Zm2.31,1.45h-2.31v.87h2.31v-.87Zm-2.31,2.31l2.01-.04c-.27-.23-.54-.45-.8-.64l.22-.12h-1.43v.8Z"/>
        <path class="cls-1" d="M223.15,21.62c.95,2.57,2.8,4.46,5.55,5.25-.23,.22-.53,.64-.68,.91-2.71-.9-4.51-2.76-5.59-5.4-.61,1.99-2.09,3.98-5.55,5.41-.12-.26-.44-.64-.65-.84,3.49-1.43,4.81-3.43,5.29-5.33h-4.95v-1.02h5.15c.07-.53,.08-1.06,.08-1.54v-1.59h-4.76v-1.02h10.69v1.02h-4.88v1.6c0,.48-.01,1.01-.07,1.52h5.53v1.02h-5.17Z"/>
        <path class="cls-1" d="M232.55,23.41c.49-.22,.99-.42,1.5-.64l.2,.9c-1.43,.67-2.95,1.35-4.13,1.88l-.39-1.01c.52-.18,1.17-.45,1.88-.75v-4.19h-1.63v-.96h1.63v-3.09h.95v3.09h1.47v.96h-1.47v3.81Zm7.8,3.18c.79,0,.92-.37,1.02-1.93,.25,.18,.63,.34,.91,.38-.16,1.86-.48,2.46-1.89,2.46h-3.34c-1.54,0-2-.37-2-1.84v-4.27l-1.07,.45-.39-.88,1.47-.61v-3.7h.97v3.28l1.82-.76v-3.78h.97v3.37l2.07-.87,.78,.26-.05,.16c-.14,1.92-.37,4.42-.71,5.95l-.83-.24c.23-1.24,.41-3.25,.52-4.96l-1.77,.75v4.99h-.97v-4.58l-1.82,.77v4.69c0,.73,.18,.91,1.06,.91h3.28Z"/>
        <path class="cls-1" d="M244.18,16.8h1.31l3.63,6.28,1.06,2.05h.07c-.07-1.01-.16-2.12-.16-3.15v-5.18h1.2v9.97h-1.29l-3.63-6.29-1.07-2.05h-.05c.05,1.01,.15,2.07,.15,3.11v5.23h-1.2v-9.97Z"/>
        <path class="cls-1" d="M253.43,21.75c0-3.2,1.75-5.14,4.26-5.14s4.26,1.94,4.26,5.14-1.75,5.19-4.26,5.19-4.26-2-4.26-5.19Zm7.22,0c0-2.5-1.18-4.04-2.96-4.04s-2.96,1.54-2.96,4.04,1.17,4.09,2.96,4.09,2.96-1.6,2.96-4.09Z"/>
        <path class="cls-1" d="M263.72,26.01c0-.56,.41-.96,.9-.96s.9,.41,.9,.96-.41,.94-.9,.94-.9-.38-.9-.94Z"/>
        <path class="cls-1" d="M267.71,25.74h2.22v-7.44h-1.77v-.79c.88-.16,1.52-.39,2.07-.71h.95v8.93h2v1.03h-5.47v-1.03Z"/>
      </g>
      <g>
        <path class="cls-1" d="M307.89,15.73c-.38,1.01-.86,2-1.4,2.94v9.11h-.95v-7.63c-.43,.62-.9,1.18-1.37,1.67-.11-.23-.38-.76-.57-.98,1.33-1.3,2.6-3.33,3.36-5.4l.94,.29Zm6.54,8.27h1.9v.82h-1.9v1.93c0,.54-.12,.8-.54,.94-.41,.14-1.09,.14-2.12,.14-.05-.26-.19-.61-.33-.86,.84,.03,1.54,.03,1.74,0,.22,0,.27-.05,.27-.23v-1.92h-6.16v-.82h6.16v-.88c-2.15,.07-4.24,.14-5.79,.16l-.09-.82c1.03,0,2.38-.01,3.83-.04v-.83h-3.18v-3.6h3.18v-.77h-3.73v-.78h3.73v-.94h.98v.94h3.82v.78h-3.82v.77h3.28v3.6h-1.01c.68,.5,1.37,1.14,1.77,1.6l-.72,.46c-.14-.18-.33-.38-.54-.6l-.72,.03v.91Zm-4,3.13c-.34-.5-1.06-1.29-1.7-1.83l.75-.48c.62,.52,1.37,1.26,1.73,1.77l-.78,.54Zm-1.29-7.65h2.26v-.84h-2.26v.84Zm2.26,1.48v-.87h-2.26v.87h2.26Zm.98-2.32v.84h2.31v-.84h-2.31Zm2.31,1.45h-2.31v.87h2.31v-.87Zm-2.31,2.31l2.01-.04c-.27-.23-.54-.45-.8-.64l.22-.12h-1.43v.8Z"/>
        <path class="cls-1" d="M324.46,21.62c.95,2.57,2.8,4.46,5.55,5.25-.23,.22-.53,.64-.68,.91-2.71-.9-4.51-2.76-5.59-5.4-.61,1.99-2.09,3.98-5.55,5.41-.12-.26-.44-.64-.65-.84,3.49-1.43,4.81-3.43,5.29-5.33h-4.95v-1.02h5.15c.07-.53,.08-1.06,.08-1.54v-1.59h-4.76v-1.02h10.69v1.02h-4.88v1.6c0,.48-.01,1.01-.07,1.52h5.53v1.02h-5.17Z"/>
        <path class="cls-1" d="M333.85,23.41c.49-.22,.99-.42,1.5-.64l.2,.9c-1.43,.67-2.95,1.35-4.13,1.88l-.39-1.01c.52-.18,1.17-.45,1.88-.75v-4.19h-1.63v-.96h1.63v-3.09h.95v3.09h1.47v.96h-1.47v3.81Zm7.8,3.18c.79,0,.92-.37,1.02-1.93,.25,.18,.63,.34,.91,.38-.16,1.86-.48,2.46-1.89,2.46h-3.34c-1.54,0-2-.37-2-1.84v-4.27l-1.07,.45-.39-.88,1.47-.61v-3.7h.97v3.28l1.82-.76v-3.78h.97v3.37l2.07-.87,.78,.26-.05,.16c-.14,1.92-.37,4.42-.71,5.95l-.83-.24c.23-1.24,.41-3.25,.52-4.96l-1.77,.75v4.99h-.97v-4.58l-1.82,.77v4.69c0,.73,.18,.91,1.06,.91h3.28Z"/>
        <path class="cls-1" d="M345.48,16.8h1.31l3.63,6.28,1.06,2.05h.07c-.07-1.01-.16-2.12-.16-3.15v-5.18h1.2v9.97h-1.29l-3.63-6.29-1.07-2.05h-.05c.05,1.01,.15,2.07,.15,3.11v5.23h-1.2v-9.97Z"/>
        <path class="cls-1" d="M354.73,21.75c0-3.2,1.75-5.14,4.26-5.14s4.26,1.94,4.26,5.14-1.75,5.19-4.26,5.19-4.26-2-4.26-5.19Zm7.22,0c0-2.5-1.18-4.04-2.96-4.04s-2.96,1.54-2.96,4.04,1.17,4.09,2.96,4.09,2.96-1.6,2.96-4.09Z"/>
        <path class="cls-1" d="M365.03,26.01c0-.56,.41-.96,.9-.96s.9,.41,.9,.96-.41,.94-.9,.94-.9-.38-.9-.94Z"/>
        <path class="cls-1" d="M368.41,26.03c3.13-2.73,4.57-4.72,4.57-6.43,0-1.14-.6-1.97-1.83-1.97-.82,0-1.52,.5-2.07,1.16l-.72-.71c.82-.88,1.67-1.47,2.94-1.47,1.78,0,2.9,1.17,2.9,2.95,0,1.99-1.56,4.01-3.9,6.23,.52-.04,1.13-.1,1.63-.1h2.76v1.07h-6.27v-.73Z"/>
        <path class="cls-1" d="M378.64,22.21h-2.76v-.92h2.76v-2.96h.99v2.96h2.76v.92h-2.76v2.98h-.99v-2.98Z"/>
        <path class="cls-1" d="M384.27,16.8h1.31l3.63,6.28,1.06,2.05h.07c-.07-1.01-.16-2.12-.16-3.15v-5.18h1.2v9.97h-1.29l-3.63-6.29-1.07-2.05h-.05c.05,1.01,.15,2.07,.15,3.11v5.23h-1.2v-9.97Z"/>
        <path class="cls-1" d="M393.52,21.75c0-3.2,1.75-5.14,4.26-5.14s4.26,1.94,4.26,5.14-1.75,5.19-4.26,5.19-4.26-2-4.26-5.19Zm7.22,0c0-2.5-1.18-4.04-2.96-4.04s-2.96,1.54-2.96,4.04,1.17,4.09,2.96,4.09,2.96-1.6,2.96-4.09Z"/>
        <path class="cls-1" d="M403.22,25.59l.62-.82c.58,.61,1.35,1.14,2.47,1.14s2.03-.71,2.03-1.85-.8-2-3.1-2v-.95c2.05,0,2.76-.83,2.76-1.9,0-.96-.65-1.58-1.69-1.6-.8,.03-1.51,.43-2.07,.99l-.67-.79c.75-.69,1.63-1.2,2.79-1.2,1.67,0,2.9,.9,2.9,2.5,0,1.21-.72,2.01-1.78,2.41v.05c1.18,.27,2.12,1.17,2.12,2.53,0,1.78-1.43,2.84-3.2,2.84-1.56,0-2.54-.65-3.19-1.36Z"/>
      </g>
      <g>
        <path class="cls-1" d="M475.33,17.1v.8h-11.88v-.8h5.41v-.99h-4.08v-.78h4.08v-.9h-4.54v-.8h4.54v-.91h1.01v.91h4.75v.8h-4.75v.9h4.17v.78h-4.17v.99h5.47Zm-1.78,6.93c0,.56-.14,.8-.56,.94-.42,.15-1.16,.15-2.27,.15-.05-.26-.2-.58-.34-.83,.83,.01,1.66,.01,1.86,.01,.23-.01,.3-.07,.3-.27v-1.1h-6.35c-.12,.86-.41,1.73-.92,2.39-.14-.22-.53-.61-.75-.73,.73-.99,.82-2.34,.82-3.38v-2.46h8.21v5.29Zm-1.01-1.83v-.98h-6.21c0,.3-.01,.64-.04,.98h6.25Zm-6.21-2.68v.98h6.21v-.98h-6.21Z"/>
        <path class="cls-1" d="M489.05,23.62v.99h-12.1v-.99h5.42v-4.31h-4.19v-.99h4.19v-3.7h-4.76v-.99h10.77v.99h-4.95v3.7h4.42v.99h-4.42v4.31h5.62Zm-3.66-3.67c.84,.76,1.96,1.81,2.52,2.45l-.76,.67c-.54-.65-1.63-1.75-2.47-2.54l.72-.57Z"/>
      </g>
      <g>
        <path class="cls-1" d="M565.95,18.61c-.39-.44-1.25-1.05-1.94-1.43l.57-.68c.71,.34,1.56,.92,1.98,1.35l-.61,.76Zm-1.69,5.85c.49-1.05,1.2-2.8,1.7-4.32l.79,.53c-.45,1.41-1.05,3.07-1.58,4.31l-.91-.52Zm1.92-9.37c-.37-.45-1.2-1.09-1.88-1.51l.58-.67c.68,.38,1.52,.99,1.9,1.44l-.61,.73Zm1.51,2.65c-.14,.67-.34,1.4-.6,1.88-.11-.1-.37-.26-.5-.33,.26-.49,.41-1.09,.52-1.69l.58,.14Zm1.82-.54c-.04-.12-.09-.27-.16-.42-1.85,.26-2.16,.33-2.35,.42-.03-.12-.15-.39-.23-.53,.2-.03,.39-.2,.62-.48,.15-.14,.49-.53,.84-1.02-.88,.08-1.12,.14-1.25,.19-.04-.12-.15-.39-.23-.52,.15-.03,.27-.15,.42-.34,.12-.19,.62-.96,.83-1.69l.64,.23c-.23,.57-.58,1.14-.91,1.59l.9-.05c.14-.2,.26-.41,.37-.61l.61,.26c-.48,.77-1.06,1.55-1.67,2.17l1.2-.15c-.08-.16-.18-.3-.26-.45l.52-.18c.27,.42,.54,.99,.65,1.35l-.53,.22Zm6.31,5.23s-.01,.29-.05,.41c-.26,1.17-.53,1.77-.9,2.04-.29,.2-.57,.26-1.02,.26-.41,.01-1.22,0-2.08-.05-.03-.23-.14-.56-.29-.77,.87,.08,1.75,.09,2.09,.09,.3,0,.43-.01,.57-.11,.23-.15,.41-.5,.58-1.17h-7.15c.22-.57,.42-1.36,.58-2.03h6.13v-.71h-6.62v-.65h7.56v2.01h-6.29c-.05,.23-.12,.46-.19,.68h7.07Zm-7.55-3.05c-.01-.43-.14-1.14-.3-1.67l.53-.14c.18,.53,.31,1.2,.33,1.62l-.56,.19Zm1.21-2.03c.22,.48,.42,1.09,.49,1.45l-.52,.23c-.05-.39-.26-1.02-.48-1.52l.5-.16Zm3.62-2.65h-3.26v-.62h1.44c-.09-.33-.34-.76-.53-1.07l.69-.18c.22,.31,.46,.79,.58,1.07l-.6,.18h1.67v.62Zm-2.9,2.54h2.56v2h-2.56v-2Zm2.54-1.5h-2.5v-.57h2.5v.57Zm-2.5,.43h2.5v.56h-2.5v-.56Zm.62,2.5h1.2v-.9h-1.2v.9Zm3.11-1.01c-.12,.67-.34,1.37-.58,1.88-.11-.09-.38-.27-.53-.35,.27-.48,.42-1.07,.53-1.66l.58,.14Zm1.88-.45c-.04-.15-.11-.31-.19-.5-1.86,.26-2.2,.34-2.38,.41-.04-.09-.15-.38-.23-.53,.2-.03,.39-.19,.64-.45,.15-.15,.48-.54,.84-1.03-.9,.09-1.13,.14-1.26,.2-.04-.12-.15-.39-.23-.53,.16-.01,.26-.14,.41-.34,.15-.19,.62-.95,.84-1.67l.64,.23c-.23,.56-.57,1.13-.91,1.58l.9-.05c.14-.2,.26-.41,.37-.61l.62,.27c-.48,.76-1.07,1.52-1.67,2.16l1.18-.15c-.08-.16-.16-.3-.24-.43l.49-.19c.3,.45,.6,1.05,.71,1.43l-.52,.22Zm-1.28,2.26c-.01-.46-.15-1.22-.34-1.81l.54-.14c.19,.58,.33,1.32,.34,1.77l-.54,.18Zm1.18-2.17c.29,.56,.52,1.28,.58,1.71l-.52,.25c-.07-.48-.3-1.21-.56-1.78l.49-.18Z"/>
        <path class="cls-1" d="M579.75,17.87v1.7c0,1.59-.22,3.83-1.36,5.34-.16-.2-.58-.53-.82-.65,1.06-1.39,1.18-3.28,1.18-4.7v-2.6h10.97v.91h-9.98Zm9.26-1.99h-10.17v-2.62h.99v1.71h3.51v-2.24h1.05v2.24h3.59v-1.71h1.03v2.62Zm.92,6.38h-4.46v2.9h-1.05v-2.9h-4.24v-.91h4.24v-1.46h-3.56v-.87h8.35v.87h-3.74v1.46h4.46v.91Z"/>
        <path class="cls-1" d="M590.68,14.14h1.32l1.62,5.4c.35,1.17,.58,2.12,.96,3.29h.05c.37-1.17,.61-2.12,.97-3.29l1.6-5.4h1.28l-3.17,9.97h-1.45l-3.18-9.97Z"/>
        <path class="cls-1" d="M599.84,14.14h1.26v9.97h-1.26V14.14Z"/>
        <path class="cls-1" d="M603.83,14.14h1.26v8.89h4.35v1.07h-5.62V14.14Z"/>
        <path class="cls-1" d="M611.2,14.14h1.26v8.89h4.35v1.07h-5.62V14.14Z"/>
        <path class="cls-1" d="M623.14,21.06h-3.64l-.97,3.04h-1.28l3.38-9.97h1.4l3.39,9.97h-1.33l-.95-3.04Zm-.31-1.01l-.48-1.52c-.37-1.13-.68-2.22-1.01-3.37h-.05c-.31,1.17-.64,2.24-.99,3.37l-.49,1.52h3.02Z"/>
      </g>
      <g>
        <path class="cls-1" d="M88.47,56.07c.76,.9,1.92,1.69,3.06,2.09-.23,.19-.52,.54-.67,.78-1.32-.54-2.64-1.67-3.45-2.87h-4.25c-.86,1.26-2.23,2.43-3.55,3.05-.15-.25-.42-.58-.65-.78,1.13-.45,2.3-1.3,3.07-2.27h-2.94v-.86h2.69v-4.34h-2.07v-.84h2.07v-1.31h.99v1.31h4.94v-1.31h1.02v1.31h2.04v.84h-2.04v4.34h2.62v.86h-2.88Zm-2.77,3.83h4.69v.86h-10.25v-.86h4.55v-1.43h-2.77v-.83h2.77v-1.14h1.01v1.14h2.84v.83h-2.84v1.43Zm-2.92-9.03v.91h4.94v-.91h-4.94Zm0,2.61h4.94v-.94h-4.94v.94Zm0,1.73h4.94v-.96h-4.94v.96Z"/>
        <path class="cls-1" d="M97.03,49.66c-.41,1.12-.91,2.51-1.37,3.62,1.01,1.12,1.24,2.09,1.24,2.92,0,.72-.16,1.31-.53,1.56-.19,.15-.45,.22-.71,.26-.27,.03-.62,.04-.91,.01-.01-.25-.11-.63-.27-.9,.33,.03,.57,.04,.8,.03,.16-.01,.31-.05,.42-.12,.22-.15,.29-.52,.29-.94,0-.73-.24-1.66-1.22-2.73,.39-.98,.8-2.22,1.09-3.15h-1.78v10.9h-.9v-11.83h3.06l.15-.04,.65,.41Zm7.06,.41c-.53,.99-1.35,1.85-2.31,2.53,1.02,.56,2.2,.96,3.48,1.18-.19,.19-.45,.56-.57,.79-1.37-.29-2.64-.78-3.71-1.46-1.2,.72-2.56,1.22-3.86,1.56-.1-.23-.33-.6-.5-.79,1.22-.26,2.49-.71,3.6-1.31-.53-.43-.99-.92-1.36-1.44-.45,.46-.94,.91-1.5,1.31-.15-.22-.46-.52-.68-.65,1.37-.91,2.31-2.13,2.8-3.17l.97,.15c-.16,.34-.34,.65-.56,.99h3.43l.16-.05,.61,.35Zm-2.68,9.88h3.6v.83h-8.4v-.83h3.83v-1.1h-2.45v-.76h2.45v-.95h-2.04c-.24,.46-.52,.87-.79,1.22-.16-.14-.52-.37-.73-.49,.61-.65,1.09-1.65,1.39-2.61l.83,.18c-.09,.31-.2,.61-.33,.92h1.67v-1.29h-2v-.76h5.08v.76h-2.12v1.29h2.87v.78h-2.87v.95h2.69v.76h-2.69v1.1Zm-1.99-9.41c.38,.58,.92,1.1,1.56,1.56,.71-.45,1.29-.98,1.74-1.56h-3.3Z"/>
        <path class="cls-1" d="M112.89,51.69v1.84h4.41v4.76c0,.58-.14,.88-.57,1.06-.46,.16-1.22,.18-2.38,.18-.04-.31-.22-.72-.35-1.01,.92,.03,1.74,.03,1.97,.03,.24-.03,.31-.08,.31-.27v-3.75h-3.39v6.59h-1.02v-6.59h-3.18v5.04h-1.01v-6.04h4.19v-1.84h-5.51v-.99h5.79c-.22-.53-.58-1.24-.9-1.78l.96-.3c.41,.62,.87,1.48,1.06,2.01l-.18,.07h5.4v.99h-5.62Z"/>
        <path class="cls-1" d="M129.14,55.13c-.38,1.21-.9,2.2-1.59,2.99,1.63,.69,3.14,1.46,4.17,2.12l-.76,.88c-1.01-.68-2.53-1.48-4.21-2.22-1.37,1.16-3.28,1.82-5.82,2.26-.09-.27-.42-.75-.64-1.01,2.34-.3,4.09-.82,5.36-1.73-1.26-.53-2.58-1.01-3.77-1.39,.39-.53,.83-1.2,1.26-1.92h-2.95v-.97h3.48c.45-.82,.84-1.63,1.13-2.37l1.13,.2c-.27,.69-.62,1.43-1.02,2.16h3.3c.1-.42,.18-.87,.25-1.35l1.18,.11c-.07,.44-.15,.86-.24,1.24h2.49v.97h-2.75Zm-7.6-2.12h-1.01v-2.72h5.06c-.19-.43-.43-.96-.67-1.39l1.07-.27c.29,.52,.64,1.18,.84,1.66h4.68v2.72h-1.05v-1.78h-8.93v1.78Zm2.84,2.12c-.31,.53-.61,1.02-.91,1.45,.98,.31,2.01,.71,3.03,1.1,.64-.68,1.12-1.52,1.47-2.56h-3.59Z"/>
        <path class="cls-1" d="M138.4,57.96c-.99,1.18-2.81,2.22-4.42,2.73-.15-.27-.45-.64-.67-.84,1.56-.38,3.34-1.26,4.24-2.23l.84,.34Zm7.26-1.64v.86h-5.53v3.94h-1.01v-3.94h-5.53v-.86h5.53v-.83h1.01v.83h5.53Zm-8.78-.8c-.03-.19-.04-.42-.1-.67-2.22,.33-2.57,.41-2.76,.52-.04-.18-.18-.58-.27-.8,.24-.04,.49-.33,.83-.75,.18-.2,.57-.73,1.02-1.41-1.14,.16-1.4,.2-1.56,.3-.04-.16-.18-.58-.27-.8,.18-.04,.35-.23,.53-.54,.2-.29,.84-1.45,1.18-2.54l.8,.3c-.38,.94-.88,1.92-1.39,2.68l1.17-.12c.25-.42,.49-.87,.71-1.3l.73,.41c-.73,1.29-1.62,2.6-2.51,3.63l1.66-.2c-.07-.33-.15-.67-.23-.95l.69-.16c.22,.71,.42,1.65,.5,2.24l-.73,.19Zm4.53-.37h-3.55v-5.14h1.12c.12-.44,.23-.96,.27-1.35l.94,.18c-.12,.38-.27,.82-.41,1.17h1.63v5.14Zm-.9-4.35h-1.77v1.4h1.77v-1.4Zm0,2.15h-1.77v1.41h1.77v-1.41Zm1.1,4.57c1.37,.71,3.14,1.78,4.04,2.5l-.62,.76c-.87-.75-2.61-1.86-4.02-2.6l.61-.67Zm3.33-1.88c-.03-.18-.08-.37-.14-.58-2.22,.29-2.57,.35-2.77,.45-.04-.16-.18-.6-.29-.8,.24-.05,.52-.34,.84-.75,.18-.22,.58-.76,1.05-1.44-1.31,.18-1.59,.24-1.77,.33-.04-.18-.16-.58-.26-.82,.18-.03,.34-.24,.53-.57,.22-.3,.87-1.52,1.21-2.65l.84,.27c-.41,.99-.92,2.03-1.43,2.8l1.35-.12c.25-.41,.46-.83,.67-1.25l.76,.42c-.73,1.3-1.63,2.61-2.53,3.64l1.62-.18c-.09-.31-.19-.61-.27-.88l.68-.2c.23,.68,.5,1.54,.62,2.11l-.72,.23Z"/>
        <path class="cls-1" d="M156.91,59.56c.73,0,1.77-.05,2.26-.15,.04,.29,.11,.75,.16,.96-.35,.11-1.39,.12-2.43,.12h-5.98c-2.08,0-3.09-.65-3.09-2.64v-7.61h-.56v-.91h11.39v.91h-9.84v7.68c0,1.16,.53,1.63,1.99,1.63h6.1Zm-7.02-4.5h3.54v3.48h-3.54v-3.48Zm.84,2.75h1.81v-2.01h-1.81v2.01Zm5.67-3.67h-5.04v-3h5.04v3Zm-.99-2.28h-3.1v1.55h3.1v-1.55Zm2.58,6.69h-3.66v-3.48h3.66v3.48Zm-.9-2.75h-1.89v2.01h1.89v-2.01Z"/>
      </g>
      <g>
        <path class="cls-1" d="M201.61,55.81c-.19-.44-.64-1.21-1.03-1.88v7.19h-.97v-6.24c-.38,1.37-.9,2.68-1.41,3.51-.11-.3-.35-.75-.52-.99,.76-1.14,1.52-3.3,1.86-5.12h-1.66v-.95h1.73v-2.61h.97v2.61h1.32v.95h-1.32v.43c.38,.49,1.43,1.96,1.66,2.34l-.62,.76Zm2.85-7.08h.92v5.57c0,2.43-.3,5.32-3.13,6.88-.12-.2-.42-.57-.64-.75,1.96-.94,2.57-2.58,2.76-4.21-.68,.58-1.37,1.17-2,1.67l-.49-.91c.64-.42,1.6-1.12,2.56-1.81,.01-.3,.01-.6,.01-.87v-5.57Zm-.96,5.15c-.22-.76-.71-1.94-1.2-2.83l.75-.3c.5,.87,1.03,2.01,1.24,2.76l-.79,.37Zm5.66,6.14c.29,0,.34-.35,.37-1.66,.23,.16,.58,.33,.87,.39-.09,1.62-.34,2.17-1.18,2.17h-1.32c-.92,0-1.2-.31-1.2-1.52v-10.69h.95v6.44l.38-.35c.82,.71,1.85,1.69,2.34,2.31l-.64,.64c-.45-.58-1.3-1.5-2.08-2.2v3.86c0,.5,.05,.6,.38,.6h1.13Zm.98-8.99c-.5,.95-1.09,2.07-1.58,2.8l-.72-.35c.46-.76,1.06-1.97,1.37-2.84l.92,.39Z"/>
        <path class="cls-1" d="M223.28,49.31v11.83h-.99v-.57h-9.33v.57h-.97v-11.83h11.29Zm-.99,10.33v-9.41h-9.33v9.41h9.33Zm-4.23-1.71c-.01,.19,0,.49,.03,.65-2.51,.69-2.87,.79-3.07,.92-.04-.19-.18-.49-.29-.64,.2-.07,.53-.23,.53-.72v-1.01c-.49,.19-.98,.35-1.44,.48-.11-.14-.35-.45-.52-.6,1.06-.25,2.26-.64,3.1-1.1h-1.9v-2.03h6.31v2.03h-3.26c-.41,.33-.94,.61-1.5,.88v1.6l2.01-.48Zm3.55-4.54h-7.98v-.65h3.51v-.84h-2.73v-.62h2.73v-.76h.92v.76h2.83v.62h-2.83v.84h3.55v.65Zm-6.25,1.98h4.54v-.94h-4.54v.94Zm6.21,1.25c-.46,.33-1.01,.64-1.52,.88,.61,.42,1.18,.83,1.58,1.16l-.67,.46c-.79-.71-2.39-1.81-3.67-2.54l.62-.38c.49,.27,1.03,.58,1.55,.94,.52-.3,1.1-.65,1.46-.92l.65,.41Z"/>
        <path class="cls-1" d="M231.7,51.69v1.84h4.41v4.76c0,.58-.14,.88-.57,1.06-.46,.16-1.22,.18-2.38,.18-.04-.31-.22-.72-.35-1.01,.92,.03,1.74,.03,1.97,.03,.24-.03,.31-.08,.31-.27v-3.75h-3.39v6.59h-1.02v-6.59h-3.18v5.04h-1.01v-6.04h4.19v-1.84h-5.51v-.99h5.79c-.22-.53-.58-1.24-.9-1.78l.96-.3c.41,.62,.87,1.48,1.06,2.01l-.18,.07h5.4v.99h-5.62Z"/>
        <path class="cls-1" d="M242.82,56.69c-.22-.44-.69-1.25-1.1-1.92v6.33h-.95v-6.32c-.46,1.48-1.07,2.91-1.71,3.79-.11-.27-.35-.67-.53-.9,.86-1.14,1.73-3.26,2.15-5.13h-1.89v-.94h1.98v-2.91h.95v2.91h1.64v.94h-1.64v1.02c.39,.48,1.44,1.97,1.66,2.33l-.56,.79Zm3.13-1.46c-.19,.34-.39,.67-.63,.98h5.47s-.01,.27-.03,.42c-.22,2.68-.44,3.74-.8,4.12-.19,.23-.42,.31-.75,.35-.26,.01-.75,.01-1.28-.01-.01-.26-.09-.64-.23-.86,.49,.04,.91,.04,1.1,.04,.18,.01,.3-.01,.38-.14,.25-.25,.43-1.05,.6-3.11h-1.03c-.5,1.59-1.51,3.26-2.58,4.13-.16-.19-.42-.46-.65-.61,.96-.71,1.89-2.09,2.42-3.52h-1.17c-.69,1.35-1.94,2.81-3.1,3.62-.15-.22-.42-.48-.63-.64,1.02-.61,2.15-1.81,2.84-2.98h-1.21c-.45,.52-.94,.98-1.43,1.35-.12-.15-.45-.48-.65-.63,.91-.62,1.78-1.52,2.38-2.51h-1.67v-.86h7.75v.86h-5.1Zm4.16-1.56h-5.83v-4.46h5.83v4.46Zm-.98-3.7h-3.92v1.1h3.92v-1.1Zm0,1.82h-3.92v1.13h3.92v-1.13Z"/>
        <path class="cls-1" d="M254.9,53.05c.33,.5,1.28,2.08,1.48,2.47l-.56,.82c-.18-.45-.58-1.26-.92-1.93v6.72h-.92v-5.87c-.37,1.3-.84,2.54-1.33,3.34-.12-.27-.35-.64-.52-.86,.75-1.18,1.46-3.37,1.79-5.22h-1.54v-.92h1.59v-2.88h.92v2.88h1.29v.92h-1.29v.53Zm3.55-1.94c-.39,.79-.83,1.5-1.29,2.05-.16-.16-.54-.46-.75-.6,.86-.94,1.55-2.38,1.94-3.86l.92,.22c-.12,.44-.27,.87-.45,1.28h5.53v.91h-5.91Zm5.21,5.1c-.05,.91-.1,1.63-.15,2.22h.95v.86h-1.03c-.09,.69-.22,1.07-.38,1.29-.22,.31-.48,.42-.87,.46-.33,.04-.88,.03-1.45,0-.01-.26-.1-.63-.25-.86,.57,.04,1.09,.04,1.32,.04,.22,.01,.34-.01,.43-.19,.1-.11,.18-.35,.25-.75h-5.44c.14-.82,.31-1.92,.46-3.07h-.99v-.88h1.1c.14-1.02,.24-2.04,.31-2.92h5.87s-.01,.35-.01,.48c-.03,.92-.05,1.73-.09,2.45h.95v.88h-.98Zm-1.07,2.22c.05-.56,.11-1.29,.15-2.22h-4.31c-.09,.8-.2,1.56-.3,2.22h4.46Zm-3.82-5.17c-.08,.67-.15,1.36-.23,2.07h4.24c.03-.61,.05-1.29,.08-2.07h-4.09Zm2.3,4.94c-.44-.37-1.2-.97-1.75-1.36l.54-.49c.58,.38,1.36,.96,1.77,1.29l-.56,.56Zm-1.02-4.77c.6,.37,1.39,.9,1.79,1.21l-.56,.57c-.41-.34-1.21-.91-1.77-1.28l.53-.5Z"/>
        <path class="cls-1" d="M275.72,59.56c.73,0,1.77-.05,2.26-.15,.04,.29,.11,.75,.16,.96-.35,.11-1.39,.12-2.43,.12h-5.98c-2.08,0-3.09-.65-3.09-2.64v-7.61h-.56v-.91h11.39v.91h-9.84v7.68c0,1.16,.53,1.63,1.99,1.63h6.1Zm-7.02-4.5h3.54v3.48h-3.54v-3.48Zm.84,2.75h1.81v-2.01h-1.81v2.01Zm5.67-3.67h-5.04v-3h5.04v3Zm-.99-2.28h-3.1v1.55h3.1v-1.55Zm2.58,6.69h-3.66v-3.48h3.66v3.48Zm-.9-2.75h-1.89v2.01h1.89v-2.01Z"/>
      </g>
      <g>
        <path class="cls-1" d="M320.42,55.81c-.19-.44-.64-1.21-1.03-1.88v7.19h-.97v-6.24c-.38,1.37-.9,2.68-1.41,3.51-.11-.3-.35-.75-.52-.99,.76-1.14,1.52-3.3,1.86-5.12h-1.66v-.95h1.73v-2.61h.97v2.61h1.32v.95h-1.32v.43c.38,.49,1.43,1.96,1.66,2.34l-.62,.76Zm2.85-7.08h.92v5.57c0,2.43-.3,5.32-3.13,6.88-.12-.2-.42-.57-.64-.75,1.96-.94,2.57-2.58,2.76-4.21-.68,.58-1.37,1.17-2,1.67l-.49-.91c.64-.42,1.6-1.12,2.56-1.81,.01-.3,.01-.6,.01-.87v-5.57Zm-.96,5.15c-.22-.76-.71-1.94-1.2-2.83l.75-.3c.5,.87,1.03,2.01,1.24,2.76l-.79,.37Zm5.66,6.14c.29,0,.34-.35,.37-1.66,.23,.16,.58,.33,.87,.39-.09,1.62-.34,2.17-1.18,2.17h-1.32c-.92,0-1.2-.31-1.2-1.52v-10.69h.95v6.44l.38-.35c.82,.71,1.85,1.69,2.34,2.31l-.64,.64c-.45-.58-1.3-1.5-2.08-2.2v3.86c0,.5,.05,.6,.38,.6h1.13Zm.98-8.99c-.5,.95-1.09,2.07-1.58,2.8l-.72-.35c.46-.76,1.06-1.97,1.37-2.84l.92,.39Z"/>
        <path class="cls-1" d="M342.08,49.31v11.83h-.99v-.57h-9.33v.57h-.97v-11.83h11.29Zm-.99,10.33v-9.41h-9.33v9.41h9.33Zm-4.23-1.71c-.01,.19,0,.49,.03,.65-2.51,.69-2.87,.79-3.07,.92-.04-.19-.18-.49-.29-.64,.2-.07,.53-.23,.53-.72v-1.01c-.49,.19-.98,.35-1.44,.48-.11-.14-.35-.45-.52-.6,1.06-.25,2.26-.64,3.1-1.1h-1.9v-2.03h6.31v2.03h-3.26c-.41,.33-.94,.61-1.5,.88v1.6l2.01-.48Zm3.55-4.54h-7.98v-.65h3.51v-.84h-2.73v-.62h2.73v-.76h.92v.76h2.83v.62h-2.83v.84h3.55v.65Zm-6.25,1.98h4.54v-.94h-4.54v.94Zm6.21,1.25c-.46,.33-1.01,.64-1.52,.88,.61,.42,1.18,.83,1.58,1.16l-.67,.46c-.79-.71-2.39-1.81-3.67-2.54l.62-.38c.49,.27,1.03,.58,1.55,.94,.52-.3,1.1-.65,1.46-.92l.65,.41Z"/>
        <path class="cls-1" d="M350.5,51.69v1.84h4.41v4.76c0,.58-.14,.88-.57,1.06-.46,.16-1.22,.18-2.38,.18-.04-.31-.22-.72-.35-1.01,.92,.03,1.74,.03,1.97,.03,.24-.03,.31-.08,.31-.27v-3.75h-3.39v6.59h-1.02v-6.59h-3.18v5.04h-1.01v-6.04h4.19v-1.84h-5.51v-.99h5.79c-.22-.53-.58-1.24-.9-1.78l.96-.3c.41,.62,.87,1.48,1.06,2.01l-.18,.07h5.4v.99h-5.62Z"/>
        <path class="cls-1" d="M361.63,56.69c-.22-.44-.69-1.25-1.1-1.92v6.33h-.95v-6.32c-.46,1.48-1.07,2.91-1.71,3.79-.11-.27-.35-.67-.53-.9,.86-1.14,1.73-3.26,2.15-5.13h-1.89v-.94h1.98v-2.91h.95v2.91h1.64v.94h-1.64v1.02c.39,.48,1.44,1.97,1.66,2.33l-.56,.79Zm3.13-1.46c-.19,.34-.39,.67-.63,.98h5.47s-.01,.27-.03,.42c-.22,2.68-.44,3.74-.8,4.12-.19,.23-.42,.31-.75,.35-.26,.01-.75,.01-1.28-.01-.01-.26-.09-.64-.23-.86,.49,.04,.91,.04,1.1,.04,.18,.01,.3-.01,.38-.14,.25-.25,.43-1.05,.6-3.11h-1.03c-.5,1.59-1.51,3.26-2.58,4.13-.16-.19-.42-.46-.65-.61,.96-.71,1.89-2.09,2.42-3.52h-1.17c-.69,1.35-1.94,2.81-3.1,3.62-.15-.22-.42-.48-.63-.64,1.02-.61,2.15-1.81,2.84-2.98h-1.21c-.45,.52-.94,.98-1.43,1.35-.12-.15-.45-.48-.65-.63,.91-.62,1.78-1.52,2.38-2.51h-1.67v-.86h7.75v.86h-5.1Zm4.16-1.56h-5.83v-4.46h5.83v4.46Zm-.98-3.7h-3.92v1.1h3.92v-1.1Zm0,1.82h-3.92v1.13h3.92v-1.13Z"/>
        <path class="cls-1" d="M373.71,53.05c.33,.5,1.28,2.08,1.48,2.47l-.56,.82c-.18-.45-.58-1.26-.92-1.93v6.72h-.92v-5.87c-.37,1.3-.84,2.54-1.33,3.34-.12-.27-.35-.64-.52-.86,.75-1.18,1.46-3.37,1.79-5.22h-1.54v-.92h1.59v-2.88h.92v2.88h1.29v.92h-1.29v.53Zm3.55-1.94c-.39,.79-.83,1.5-1.29,2.05-.16-.16-.54-.46-.75-.6,.86-.94,1.55-2.38,1.94-3.86l.92,.22c-.12,.44-.27,.87-.45,1.28h5.53v.91h-5.91Zm5.21,5.1c-.05,.91-.1,1.63-.15,2.22h.95v.86h-1.03c-.09,.69-.22,1.07-.38,1.29-.22,.31-.48,.42-.87,.46-.33,.04-.88,.03-1.45,0-.01-.26-.1-.63-.25-.86,.57,.04,1.09,.04,1.32,.04,.22,.01,.34-.01,.43-.19,.1-.11,.18-.35,.25-.75h-5.44c.14-.82,.31-1.92,.46-3.07h-.99v-.88h1.1c.14-1.02,.24-2.04,.31-2.92h5.87s-.01,.35-.01,.48c-.03,.92-.05,1.73-.09,2.45h.95v.88h-.98Zm-1.07,2.22c.05-.56,.11-1.29,.15-2.22h-4.31c-.09,.8-.2,1.56-.3,2.22h4.46Zm-3.82-5.17c-.08,.67-.15,1.36-.23,2.07h4.24c.03-.61,.05-1.29,.08-2.07h-4.09Zm2.3,4.94c-.44-.37-1.2-.97-1.75-1.36l.54-.49c.58,.38,1.36,.96,1.77,1.29l-.56,.56Zm-1.02-4.77c.6,.37,1.39,.9,1.79,1.21l-.56,.57c-.41-.34-1.21-.91-1.77-1.28l.53-.5Z"/>
        <path class="cls-1" d="M394.53,59.56c.73,0,1.77-.05,2.26-.15,.04,.29,.11,.75,.16,.96-.35,.11-1.39,.12-2.43,.12h-5.98c-2.08,0-3.09-.65-3.09-2.64v-7.61h-.56v-.91h11.39v.91h-9.84v7.68c0,1.16,.53,1.63,1.99,1.63h6.1Zm-7.02-4.5h3.54v3.48h-3.54v-3.48Zm.84,2.75h1.81v-2.01h-1.81v2.01Zm5.67-3.67h-5.04v-3h5.04v3Zm-.99-2.28h-3.1v1.55h3.1v-1.55Zm2.58,6.69h-3.66v-3.48h3.66v3.48Zm-.9-2.75h-1.89v2.01h1.89v-2.01Z"/>
      </g>
      <g>
        <path class="cls-1" d="M438.15,57.32c-.33,.96-.9,2.03-1.4,2.71-.16-.12-.5-.38-.71-.49,.53-.64,1.01-1.56,1.28-2.45l.83,.23Zm1.67-.95v4.72h-.99v-4.72h-2.71v-.87h2.71v-1.43h-2.77v-.86h3.75c.26-.63,.57-1.52,.73-2.15l.92,.19c-.25,.65-.5,1.39-.76,1.96h1.73v.86h-2.61v1.43h2.46v.87h-2.46Zm2.41-5.38h-5.96v-.84h2.67c-.18-.41-.41-.87-.6-1.24l.98-.26c.29,.46,.58,1.05,.76,1.5h2.15v.84Zm-4.55,2.18c-.07-.5-.29-1.29-.52-1.89l.8-.19c.27,.58,.5,1.35,.56,1.85l-.84,.23Zm3.45,3.85c.44,.67,.91,1.55,1.14,2.13l-.72,.41c-.22-.58-.71-1.52-1.12-2.17l.69-.37Zm7.25-2.79h-1.5v6.85h-.98v-6.85h-1.86v.48c0,1.94-.18,4.61-1.41,6.38-.16-.19-.56-.5-.77-.61,1.14-1.63,1.25-3.96,1.25-5.76v-4.68c1.52-.25,3.26-.65,4.23-1.06l.82,.75c-1.12,.42-2.68,.76-4.11,.98v2.58h4.34v.95Z"/>
        <path class="cls-1" d="M455.41,57.78l.18,.87c-1.94,.84-4.05,1.73-5.62,2.34l-.46-.99c.98-.34,2.38-.86,3.85-1.43v-5.42h-3.44v-.99h3.44v-3.18h1.03v9.2l1.02-.39Zm4.53,1.82c.61,0,.69-.65,.78-3.25,.27,.22,.68,.42,.96,.49-.11,2.79-.35,3.75-1.66,3.75h-1.82c-1.17,0-1.51-.39-1.51-1.81v-9.8h1.02v3.15h3.79v.99h-3.79v5.67c0,.68,.09,.8,.61,.8h1.62Z"/>
        <path class="cls-1" d="M469.85,51.69v1.84h4.41v4.76c0,.58-.14,.88-.57,1.06-.46,.16-1.22,.18-2.38,.18-.04-.31-.22-.72-.35-1.01,.92,.03,1.74,.03,1.97,.03,.24-.03,.31-.08,.31-.27v-3.75h-3.39v6.59h-1.02v-6.59h-3.18v5.04h-1.01v-6.04h4.19v-1.84h-5.51v-.99h5.79c-.22-.53-.58-1.24-.9-1.78l.96-.3c.41,.62,.87,1.48,1.06,2.01l-.18,.07h5.4v.99h-5.62Z"/>
        <path class="cls-1" d="M489.05,59.55v.99h-12.1v-.99h5.48v-5.48h-4.62v-.99h4.62v-4.31h1.06v4.31h4.69v.99h-4.69v5.48h5.56Z"/>
        <path class="cls-1" d="M494.44,57.82c-1.29,.54-2.65,1.06-3.71,1.48l-.33-.99c.45-.15,.99-.34,1.59-.56v-4.8h-1.43v-.94h1.43v-3.14h.94v3.14h1.29v.94h-1.29v4.46l1.32-.49,.19,.9Zm8.02-4.43c-.45,1.77-1.07,3.29-1.9,4.58,.33,1.31,.72,2.07,1.18,2.07,.26,0,.39-.67,.45-2.23,.19,.22,.5,.42,.75,.52-.15,2.04-.43,2.67-1.32,2.67-.76,0-1.33-.76-1.75-2.04-.65,.83-1.4,1.55-2.27,2.13-.14-.19-.5-.56-.71-.69,1.06-.65,1.94-1.52,2.68-2.57-.35-1.62-.56-3.74-.65-6.09h-3.18v1.82h2.6s0,.29-.01,.41c-.04,3.1-.09,4.19-.35,4.53-.16,.25-.37,.34-.69,.38-.26,.03-.73,.03-1.22,0-.03-.27-.09-.62-.23-.86,.46,.04,.88,.04,1.06,.04,.16,0,.27-.01,.33-.14,.15-.2,.2-1.07,.25-3.51h-1.71v.6c0,1.9-.23,4.49-1.69,6.17-.15-.19-.53-.52-.75-.64,1.36-1.56,1.5-3.79,1.5-5.55v-4.2h4.09c-.03-.68-.04-1.37-.04-2.08h.96c0,.71,0,1.41,.01,2.08h1.82c-.33-.43-.99-1.1-1.56-1.55l.68-.43c.6,.43,1.29,1.06,1.62,1.52l-.68,.46h.99v.94h-2.84c.07,1.88,.23,3.56,.44,4.89,.54-1.01,.94-2.13,1.24-3.39l.94,.15Z"/>
        <path class="cls-1" d="M513.87,59.56c.73,0,1.77-.05,2.26-.15,.04,.29,.11,.75,.16,.96-.35,.11-1.39,.12-2.43,.12h-5.98c-2.08,0-3.09-.65-3.09-2.64v-7.61h-.56v-.91h11.39v.91h-9.84v7.68c0,1.16,.53,1.63,1.99,1.63h6.1Zm-7.02-4.5h3.54v3.48h-3.54v-3.48Zm.84,2.75h1.81v-2.01h-1.81v2.01Zm5.67-3.67h-5.04v-3h5.04v3Zm-.99-2.28h-3.1v1.55h3.1v-1.55Zm2.58,6.69h-3.66v-3.48h3.66v3.48Zm-.9-2.75h-1.89v2.01h1.89v-2.01Z"/>
      </g>
      <g>
        <path class="cls-1" d="M556.42,57.32c-.33,.96-.9,2.03-1.4,2.71-.16-.12-.5-.38-.71-.49,.53-.64,1.01-1.56,1.28-2.45l.83,.23Zm1.67-.95v4.72h-.99v-4.72h-2.71v-.87h2.71v-1.43h-2.77v-.86h3.75c.26-.63,.57-1.52,.73-2.15l.92,.19c-.25,.65-.5,1.39-.76,1.96h1.73v.86h-2.61v1.43h2.46v.87h-2.46Zm2.41-5.38h-5.96v-.84h2.67c-.18-.41-.41-.87-.6-1.24l.98-.26c.29,.46,.58,1.05,.76,1.5h2.15v.84Zm-4.55,2.18c-.07-.5-.29-1.29-.52-1.89l.8-.19c.27,.58,.5,1.35,.56,1.85l-.84,.23Zm3.45,3.85c.44,.67,.91,1.55,1.14,2.13l-.72,.41c-.22-.58-.71-1.52-1.12-2.17l.69-.37Zm7.25-2.79h-1.5v6.85h-.98v-6.85h-1.86v.48c0,1.94-.18,4.61-1.41,6.38-.16-.19-.56-.5-.77-.61,1.14-1.63,1.25-3.96,1.25-5.76v-4.68c1.52-.25,3.26-.65,4.23-1.06l.82,.75c-1.12,.42-2.68,.76-4.11,.98v2.58h4.34v.95Z"/>
        <path class="cls-1" d="M573.68,57.78l.18,.87c-1.94,.84-4.05,1.73-5.62,2.34l-.46-.99c.98-.34,2.38-.86,3.85-1.43v-5.42h-3.44v-.99h3.44v-3.18h1.03v9.2l1.02-.39Zm4.53,1.82c.61,0,.69-.65,.78-3.25,.27,.22,.68,.42,.96,.49-.11,2.79-.35,3.75-1.66,3.75h-1.82c-1.17,0-1.51-.39-1.51-1.81v-9.8h1.02v3.15h3.79v.99h-3.79v5.67c0,.68,.09,.8,.61,.8h1.62Z"/>
        <path class="cls-1" d="M588.12,51.69v1.84h4.41v4.76c0,.58-.14,.88-.57,1.06-.46,.16-1.22,.18-2.38,.18-.04-.31-.22-.72-.35-1.01,.92,.03,1.74,.03,1.97,.03,.24-.03,.31-.08,.31-.27v-3.75h-3.39v6.59h-1.02v-6.59h-3.18v5.04h-1.01v-6.04h4.19v-1.84h-5.51v-.99h5.79c-.22-.53-.58-1.24-.9-1.78l.96-.3c.41,.62,.87,1.48,1.06,2.01l-.18,.07h5.4v.99h-5.62Z"/>
        <path class="cls-1" d="M606.69,51.13v6.36h-1.03v-.78h-3.9v4.41h-1.05v-4.41h-3.89v.84h-.99v-6.43h4.88v-2.42h1.05v2.42h4.94Zm-5.98,4.6v-3.6h-3.89v3.6h3.89Zm4.95,0v-3.6h-3.9v3.6h3.9Z"/>
        <path class="cls-1" d="M612.44,52.71h2.37v.94h-2.37v.35c.52,.54,1.93,2.2,2.27,2.62l-.61,.83c-.31-.52-1.07-1.54-1.66-2.3v5.94h-.99v-5.98c-.67,1.58-1.56,3.11-2.43,4.05-.11-.27-.37-.68-.56-.92,1.03-1.03,2.12-2.9,2.73-4.6h-2.39v-.94h2.65v-2.26c-.76,.12-1.52,.23-2.24,.33-.05-.25-.16-.57-.29-.8,1.79-.24,3.92-.65,5.11-1.13l.68,.79c-.63,.23-1.43,.45-2.27,.62v2.45Zm7.86-2.73v10.46h-1.01v-1.02h-3.03v1.11h-.99v-10.55h5.03Zm-1.01,8.46v-7.49h-3.03v7.49h3.03Z"/>
        <path class="cls-1" d="M632.15,59.56c.73,0,1.77-.05,2.26-.15,.04,.29,.11,.75,.16,.96-.35,.11-1.39,.12-2.43,.12h-5.98c-2.08,0-3.09-.65-3.09-2.64v-7.61h-.56v-.91h11.39v.91h-9.84v7.68c0,1.16,.53,1.63,1.99,1.63h6.1Zm-7.02-4.5h3.54v3.48h-3.54v-3.48Zm.84,2.75h1.81v-2.01h-1.81v2.01Zm5.67-3.67h-5.04v-3h5.04v3Zm-.99-2.28h-3.1v1.55h3.1v-1.55Zm2.58,6.69h-3.66v-3.48h3.66v3.48Zm-.9-2.75h-1.89v2.01h1.89v-2.01Z"/>
      </g>
      <g>
        <path class="cls-1" d="M199.99,145.82c-.33,.96-.9,2.03-1.4,2.71-.16-.12-.5-.38-.71-.49,.53-.64,1.01-1.56,1.28-2.45l.83,.23Zm1.67-.95v4.72h-.99v-4.72h-2.71v-.87h2.71v-1.43h-2.77v-.86h3.75c.26-.63,.57-1.52,.73-2.15l.92,.19c-.25,.65-.5,1.39-.76,1.96h1.73v.86h-2.61v1.43h2.46v.87h-2.46Zm2.41-5.38h-5.96v-.84h2.67c-.18-.41-.41-.87-.6-1.24l.98-.26c.29,.46,.58,1.05,.76,1.5h2.15v.84Zm-4.55,2.18c-.07-.5-.29-1.29-.52-1.89l.8-.19c.27,.58,.5,1.35,.56,1.85l-.84,.23Zm3.45,3.85c.44,.67,.91,1.55,1.14,2.13l-.72,.41c-.22-.58-.71-1.52-1.12-2.17l.69-.37Zm7.25-2.79h-1.5v6.85h-.98v-6.85h-1.86v.48c0,1.94-.18,4.61-1.41,6.38-.16-.19-.56-.5-.77-.61,1.14-1.63,1.25-3.96,1.25-5.76v-4.68c1.52-.25,3.26-.65,4.23-1.06l.82,.75c-1.12,.42-2.68,.76-4.11,.98v2.58h4.34v.95Z"/>
        <path class="cls-1" d="M217.25,146.28l.18,.87c-1.94,.84-4.05,1.73-5.62,2.34l-.46-.99c.98-.34,2.38-.86,3.85-1.43v-5.42h-3.44v-.99h3.44v-3.18h1.03v9.2l1.02-.39Zm4.53,1.82c.61,0,.69-.65,.78-3.25,.27,.22,.68,.42,.96,.49-.11,2.79-.35,3.75-1.66,3.75h-1.82c-1.17,0-1.51-.39-1.51-1.81v-9.8h1.02v3.15h3.79v.99h-3.79v5.67c0,.68,.09,.8,.61,.8h1.62Z"/>
        <path class="cls-1" d="M231.7,140.19v1.84h4.41v4.76c0,.58-.14,.88-.57,1.06-.46,.16-1.22,.18-2.38,.18-.04-.31-.22-.72-.35-1.01,.92,.03,1.74,.03,1.97,.03,.24-.03,.31-.08,.31-.27v-3.75h-3.39v6.59h-1.02v-6.59h-3.18v5.04h-1.01v-6.04h4.19v-1.84h-5.51v-.99h5.79c-.22-.53-.58-1.24-.9-1.78l.96-.3c.41,.62,.87,1.48,1.06,2.01l-.18,.07h5.4v.99h-5.62Z"/>
        <path class="cls-1" d="M250.9,148.05v.99h-12.1v-.99h5.48v-5.48h-4.62v-.99h4.62v-4.31h1.06v4.31h4.69v.99h-4.69v5.48h5.56Z"/>
        <path class="cls-1" d="M256.29,146.32c-1.29,.54-2.65,1.06-3.71,1.48l-.33-.99c.45-.15,.99-.34,1.59-.56v-4.8h-1.43v-.94h1.43v-3.14h.94v3.14h1.29v.94h-1.29v4.46l1.32-.49,.19,.9Zm8.02-4.43c-.45,1.77-1.07,3.29-1.9,4.58,.33,1.31,.72,2.07,1.18,2.07,.26,0,.39-.67,.45-2.23,.19,.22,.5,.42,.75,.52-.15,2.04-.43,2.67-1.32,2.67-.76,0-1.33-.76-1.75-2.04-.65,.83-1.4,1.55-2.27,2.13-.14-.19-.5-.56-.71-.69,1.06-.65,1.94-1.52,2.68-2.57-.35-1.62-.56-3.74-.65-6.09h-3.18v1.82h2.6s0,.29-.01,.41c-.04,3.1-.09,4.19-.35,4.53-.16,.25-.37,.34-.69,.38-.26,.03-.73,.03-1.22,0-.03-.27-.09-.62-.23-.86,.46,.04,.88,.04,1.06,.04,.16,0,.27-.01,.33-.14,.15-.2,.2-1.07,.25-3.51h-1.71v.6c0,1.9-.23,4.49-1.69,6.17-.15-.19-.53-.52-.75-.64,1.36-1.56,1.5-3.79,1.5-5.55v-4.2h4.09c-.03-.68-.04-1.37-.04-2.08h.96c0,.71,0,1.41,.01,2.08h1.82c-.33-.43-.99-1.1-1.56-1.55l.68-.43c.6,.43,1.29,1.06,1.62,1.52l-.68,.46h.99v.94h-2.84c.07,1.88,.23,3.56,.44,4.89,.54-1.01,.94-2.13,1.24-3.39l.94,.15Z"/>
        <path class="cls-1" d="M275.72,148.06c.73,0,1.77-.05,2.26-.15,.04,.29,.11,.75,.16,.96-.35,.11-1.39,.12-2.43,.12h-5.98c-2.08,0-3.09-.65-3.09-2.64v-7.61h-.56v-.91h11.39v.91h-9.84v7.68c0,1.16,.53,1.63,1.99,1.63h6.1Zm-7.02-4.5h3.54v3.48h-3.54v-3.48Zm.84,2.75h1.81v-2.01h-1.81v2.01Zm5.67-3.67h-5.04v-3h5.04v3Zm-.99-2.28h-3.1v1.55h3.1v-1.55Zm2.58,6.69h-3.66v-3.48h3.66v3.48Zm-.9-2.75h-1.89v2.01h1.89v-2.01Z"/>
      </g>
      <g>
        <path class="cls-1" d="M320.42,144.31c-.19-.44-.64-1.21-1.03-1.88v7.19h-.97v-6.24c-.38,1.37-.9,2.68-1.41,3.51-.11-.3-.35-.75-.52-.99,.76-1.14,1.52-3.3,1.86-5.12h-1.66v-.95h1.73v-2.61h.97v2.61h1.32v.95h-1.32v.43c.38,.49,1.43,1.96,1.66,2.34l-.62,.76Zm2.85-7.08h.92v5.57c0,2.43-.3,5.32-3.13,6.88-.12-.2-.42-.57-.64-.75,1.96-.94,2.57-2.58,2.76-4.21-.68,.58-1.37,1.17-2,1.67l-.49-.91c.64-.42,1.6-1.12,2.56-1.81,.01-.3,.01-.6,.01-.87v-5.57Zm-.96,5.15c-.22-.76-.71-1.94-1.2-2.83l.75-.3c.5,.87,1.03,2.01,1.24,2.76l-.79,.37Zm5.66,6.14c.29,0,.34-.35,.37-1.66,.23,.16,.58,.33,.87,.39-.09,1.62-.34,2.17-1.18,2.17h-1.32c-.92,0-1.2-.31-1.2-1.52v-10.69h.95v6.44l.38-.35c.82,.71,1.85,1.69,2.34,2.31l-.64,.64c-.45-.58-1.3-1.5-2.08-2.2v3.86c0,.5,.05,.6,.38,.6h1.13Zm.98-8.99c-.5,.95-1.09,2.07-1.58,2.8l-.72-.35c.46-.76,1.06-1.97,1.37-2.84l.92,.39Z"/>
        <path class="cls-1" d="M342.09,137.81v11.83h-.99v-.57h-9.33v.57h-.97v-11.83h11.29Zm-.99,10.33v-9.41h-9.33v9.41h9.33Zm-4.23-1.71c-.01,.19,0,.49,.03,.65-2.51,.69-2.87,.79-3.07,.92-.04-.19-.18-.49-.29-.64,.2-.07,.53-.23,.53-.72v-1.01c-.49,.19-.98,.35-1.44,.48-.11-.14-.35-.45-.52-.6,1.06-.25,2.26-.64,3.1-1.1h-1.9v-2.03h6.31v2.03h-3.26c-.41,.33-.94,.61-1.5,.88v1.6l2.01-.48Zm3.55-4.54h-7.98v-.65h3.51v-.84h-2.73v-.62h2.73v-.76h.92v.76h2.83v.62h-2.83v.84h3.55v.65Zm-6.25,1.98h4.54v-.94h-4.54v.94Zm6.21,1.25c-.46,.33-1.01,.64-1.52,.88,.61,.42,1.18,.83,1.58,1.16l-.67,.46c-.79-.71-2.39-1.81-3.67-2.54l.62-.38c.49,.27,1.03,.58,1.55,.94,.52-.3,1.1-.65,1.46-.92l.65,.41Z"/>
        <path class="cls-1" d="M350.51,140.19v1.84h4.41v4.76c0,.58-.14,.88-.57,1.06-.46,.16-1.22,.18-2.38,.18-.04-.31-.22-.72-.35-1.01,.92,.03,1.74,.03,1.97,.03,.24-.03,.31-.08,.31-.27v-3.75h-3.39v6.59h-1.02v-6.59h-3.18v5.04h-1.01v-6.04h4.19v-1.84h-5.51v-.99h5.79c-.22-.53-.58-1.24-.9-1.78l.96-.3c.41,.62,.87,1.48,1.06,2.01l-.18,.07h5.4v.99h-5.62Z"/>
        <path class="cls-1" d="M369.07,139.63v6.36h-1.03v-.78h-3.9v4.41h-1.05v-4.41h-3.89v.84h-.99v-6.43h4.88v-2.42h1.05v2.42h4.94Zm-5.98,4.6v-3.6h-3.89v3.6h3.89Zm4.95,0v-3.6h-3.9v3.6h3.9Z"/>
        <path class="cls-1" d="M375.03,146.4c-1.33,.53-2.73,1.06-3.82,1.48l-.27-1.07c.46-.14,1.01-.3,1.6-.49v-4.81h-1.41v-.99h1.41v-3.14h.98v3.14h1.29v.99h-1.29v4.5l1.39-.45,.12,.84Zm1.28-3.62c0,2.05-.16,4.92-1.26,6.83-.16-.14-.54-.38-.73-.48,1.03-1.82,1.13-4.41,1.13-6.35v-4.92h7.9v.86h-7.03v4.06Zm4.32,5.53h2.83v.84h-7.34v-.84h1.36v-2.81h.86v2.81h1.44v-3.41h.86v1.03h2.34v.83h-2.34v1.55Zm-2.61-3.49v-2c-.34,.67-.76,1.32-1.14,1.71-.08-.22-.26-.54-.37-.75,.48-.44,1.01-1.24,1.35-1.97h-1.09v-.71h1.25v-.84c-.37,.08-.75,.15-1.09,.2-.04-.18-.15-.42-.25-.61,.94-.18,2.04-.43,2.67-.73l.54,.6c-.35,.14-.75,.27-1.17,.38v1.01h1.1v.71h-1.1v.31c.3,.2,1.06,.78,1.25,.95l-.43,.62c-.15-.19-.5-.57-.82-.86v1.97h-.71Zm3.3-.04v-2c-.34,.67-.76,1.31-1.17,1.69-.09-.2-.26-.52-.39-.72,.49-.41,1.02-1.18,1.36-1.92h-1.01v-.72h1.21v-.84c-.39,.08-.8,.16-1.17,.22-.05-.16-.15-.42-.26-.6,.95-.19,2.07-.46,2.69-.78l.56,.6c-.31,.14-.71,.27-1.1,.38v1.02h1.17v.72h-1.17v.33c.38,.31,1.24,1.06,1.46,1.28l-.45,.64c-.18-.27-.63-.76-1.01-1.17v1.88h-.72Z"/>
        <path class="cls-1" d="M394.53,148.06c.73,0,1.77-.05,2.26-.15,.04,.29,.11,.75,.16,.96-.35,.11-1.39,.12-2.43,.12h-5.98c-2.08,0-3.09-.65-3.09-2.64v-7.61h-.56v-.91h11.39v.91h-9.84v7.68c0,1.16,.53,1.63,1.99,1.63h6.1Zm-7.02-4.5h3.54v3.48h-3.54v-3.48Zm.84,2.75h1.81v-2.01h-1.81v2.01Zm5.67-3.67h-5.04v-3h5.04v3Zm-.99-2.28h-3.1v1.55h3.1v-1.55Zm2.58,6.69h-3.66v-3.48h3.66v3.48Zm-.9-2.75h-1.89v2.01h1.89v-2.01Z"/>
      </g>
      <g>
        <path class="cls-1" d="M447.71,148.05v.99h-12.1v-.99h5.48v-5.48h-4.62v-.99h4.62v-4.31h1.06v4.31h4.69v.99h-4.69v5.48h5.56Z"/>
        <path class="cls-1" d="M453.1,146.32c-1.29,.54-2.65,1.06-3.71,1.48l-.33-.99c.45-.15,.99-.34,1.59-.56v-4.8h-1.43v-.94h1.43v-3.14h.94v3.14h1.29v.94h-1.29v4.46l1.32-.49,.19,.9Zm8.02-4.43c-.45,1.77-1.07,3.29-1.9,4.58,.33,1.31,.72,2.07,1.18,2.07,.26,0,.39-.67,.45-2.23,.19,.22,.5,.42,.75,.52-.15,2.04-.43,2.67-1.32,2.67-.76,0-1.33-.76-1.75-2.04-.65,.83-1.4,1.55-2.27,2.13-.14-.19-.5-.56-.71-.69,1.06-.65,1.94-1.52,2.68-2.57-.35-1.62-.56-3.74-.65-6.09h-3.18v1.82h2.6s0,.29-.01,.41c-.04,3.1-.09,4.19-.35,4.53-.16,.25-.37,.34-.69,.38-.26,.03-.73,.03-1.22,0-.03-.27-.09-.62-.23-.86,.46,.04,.88,.04,1.06,.04,.16,0,.27-.01,.33-.14,.15-.2,.2-1.07,.25-3.51h-1.71v.6c0,1.9-.23,4.49-1.69,6.17-.15-.19-.53-.52-.75-.64,1.36-1.56,1.5-3.79,1.5-5.55v-4.2h4.09c-.03-.68-.04-1.37-.04-2.08h.96c0,.71,0,1.41,.01,2.08h1.82c-.33-.43-.99-1.1-1.56-1.55l.68-.43c.6,.43,1.29,1.06,1.62,1.52l-.68,.46h.99v.94h-2.84c.07,1.88,.23,3.56,.44,4.89,.54-1.01,.94-2.13,1.24-3.39l.94,.15Z"/>
        <path class="cls-1" d="M472.54,148.06c.73,0,1.77-.05,2.26-.15,.04,.29,.11,.75,.16,.96-.35,.11-1.39,.12-2.43,.12h-5.98c-2.08,0-3.09-.65-3.09-2.64v-7.61h-.56v-.91h11.39v.91h-9.84v7.68c0,1.16,.53,1.63,1.99,1.63h6.1Zm-7.02-4.5h3.54v3.48h-3.54v-3.48Zm.84,2.75h1.81v-2.01h-1.81v2.01Zm5.67-3.67h-5.04v-3h5.04v3Zm-.99-2.28h-3.1v1.55h3.1v-1.55Zm2.58,6.69h-3.66v-3.48h3.66v3.48Zm-.9-2.75h-1.89v2.01h1.89v-2.01Z"/>
        <path class="cls-1" d="M477.73,146.1v1.25h-.95v-9.3h4.12v8.05h-3.17Zm0-7.12v2.57h2.22v-2.57h-2.22Zm2.22,6.19v-2.69h-2.22v2.69h2.22Zm8.16,3.14c0,.64-.15,.94-.57,1.11-.45,.16-1.2,.19-2.35,.19-.04-.29-.2-.72-.35-.99,.86,.03,1.71,.01,1.96,.01,.23-.01,.33-.1,.33-.33v-3h-3.81c-.29,1.6-.96,3.22-2.42,4.41-.14-.19-.53-.54-.75-.67,2.16-1.77,2.39-4.34,2.39-6.43v-4.81h5.57v10.51Zm-.99-3.93v-2.38h-3.59v.61c0,.56-.01,1.16-.08,1.77h3.67Zm-3.59-5.63v2.32h3.59v-2.32h-3.59Z"/>
        <path class="cls-1" d="M493.74,140.49c-.31,.62-.71,1.25-1.11,1.88v7.27h-.95v-5.98c-.46,.58-.94,1.12-1.39,1.56-.11-.19-.41-.68-.6-.9,1.14-1.05,2.37-2.62,3.15-4.16l.9,.33Zm-.23-2.88c-.86,1.16-2.15,2.5-3.24,3.4-.11-.22-.34-.6-.5-.8,.96-.79,2.19-2.01,2.81-2.96l.92,.37Zm-.46,11.09c.54-.64,.98-1.7,1.22-2.51l.79,.3c-.29,.86-.67,1.94-1.22,2.65l-.79-.44Zm9.23-3.48h-8.69v-.83h8.69v.83Zm-5.18-5.07c.05-.29,.11-.63,.15-.98h-3.52v-.83h3.63c.05-.41,.1-.82,.12-1.16l1.05,.05c-.05,.35-.11,.73-.18,1.1h3.85v.83h-3.97c-.07,.35-.14,.69-.19,.98h3.67v3.36h-7.4v-3.36h2.79Zm-.61,.76h-1.35v1.84h1.35v-1.84Zm2.43,7.75c.44,0,.5-.15,.56-1.29,.2,.15,.56,.27,.8,.33-.1,1.41-.37,1.75-1.28,1.75h-1.99c-1.13,0-1.43-.25-1.43-1.14v-2.04h.91v2.04c0,.29,.08,.35,.61,.35h1.81Zm-.96-1.35c-.19-.45-.62-1.2-.96-1.74l.75-.27c.35,.53,.79,1.25,1.01,1.67l-.79,.34Zm.69-6.4h-1.41v1.84h1.41v-1.84Zm.75,1.84h1.45v-1.84h-1.45v1.84Zm1.51,3.29c.54,.82,1.13,1.9,1.39,2.6l-.82,.37c-.22-.69-.8-1.82-1.33-2.64l.76-.33Z"/>
        <path class="cls-1" d="M508.78,146.54c-1.13,.18-2.26,.38-3.3,.54v2.35h-.98v-2.2l-.98,.16-.15-.95c.33-.04,.72-.09,1.13-.15v-7.87h.03s0,0,0,0c1.26-.33,2.72-.84,3.56-1.28l.82,.76c-.96,.42-2.24,.83-3.43,1.13v1.48h3.04v.9h-3.04v1.86h3.03v.9h-3.03v1.97c1.01-.15,2.15-.31,3.26-.48l.04,.87Zm6.09-2.99c-.39,1.62-1.09,2.86-2,3.79,.84,.64,1.85,1.13,2.99,1.4-.22,.2-.49,.58-.62,.87-1.17-.35-2.2-.9-3.07-1.63-.98,.8-2.15,1.33-3.43,1.71-.09-.27-.33-.67-.52-.87,1.21-.29,2.33-.79,3.24-1.5-.78-.83-1.37-1.82-1.79-2.96l.5-.14h-.95v-.87h4.85l.18-.04,.62,.23Zm-3.77-4.17c0,1.21-.31,2.72-1.78,3.7-.14-.18-.5-.5-.69-.64,1.32-.9,1.54-2.09,1.54-3.09v-1.63h3.77v3.44c0,.35,.04,.46,.23,.46h.91c.18,0,.48-.01,.62-.05,.03,.23,.04,.57,.08,.79-.16,.05-.42,.05-.69,.05h-1.02c-.9,0-1.07-.35-1.07-1.28v-2.53h-1.89v.78Zm-.6,4.85c.38,.95,.92,1.78,1.65,2.49,.65-.67,1.18-1.5,1.52-2.49h-3.17Z"/>
      </g>
      <g>
        <path class="cls-1" d="M558.04,144.31c-.19-.44-.64-1.21-1.03-1.88v7.19h-.97v-6.24c-.38,1.37-.9,2.68-1.41,3.51-.11-.3-.35-.75-.52-.99,.76-1.14,1.52-3.3,1.86-5.12h-1.66v-.95h1.73v-2.61h.97v2.61h1.32v.95h-1.32v.43c.38,.49,1.43,1.96,1.66,2.34l-.62,.76Zm2.85-7.08h.92v5.57c0,2.43-.3,5.32-3.13,6.88-.12-.2-.42-.57-.64-.75,1.96-.94,2.57-2.58,2.76-4.21-.68,.58-1.37,1.17-2,1.67l-.49-.91c.64-.42,1.6-1.12,2.56-1.81,.01-.3,.01-.6,.01-.87v-5.57Zm-.96,5.15c-.22-.76-.71-1.94-1.2-2.83l.75-.3c.5,.87,1.03,2.01,1.24,2.76l-.79,.37Zm5.66,6.14c.29,0,.34-.35,.37-1.66,.23,.16,.58,.33,.87,.39-.09,1.62-.34,2.17-1.18,2.17h-1.32c-.92,0-1.2-.31-1.2-1.52v-10.69h.95v6.44l.38-.35c.82,.71,1.85,1.69,2.34,2.31l-.64,.64c-.45-.58-1.3-1.5-2.08-2.2v3.86c0,.5,.05,.6,.38,.6h1.13Zm.98-8.99c-.5,.95-1.09,2.07-1.58,2.8l-.72-.35c.46-.76,1.06-1.97,1.37-2.84l.92,.39Z"/>
        <path class="cls-1" d="M579.7,137.81v11.83h-.99v-.57h-9.33v.57h-.97v-11.83h11.29Zm-.99,10.33v-9.41h-9.33v9.41h9.33Zm-4.23-1.71c-.01,.19,0,.49,.03,.65-2.51,.69-2.87,.79-3.07,.92-.04-.19-.18-.49-.29-.64,.2-.07,.53-.23,.53-.72v-1.01c-.49,.19-.98,.35-1.44,.48-.11-.14-.35-.45-.52-.6,1.06-.25,2.26-.64,3.1-1.1h-1.9v-2.03h6.31v2.03h-3.26c-.41,.33-.94,.61-1.5,.88v1.6l2.01-.48Zm3.55-4.54h-7.98v-.65h3.51v-.84h-2.73v-.62h2.73v-.76h.92v.76h2.83v.62h-2.83v.84h3.55v.65Zm-6.25,1.98h4.54v-.94h-4.54v.94Zm6.21,1.25c-.46,.33-1.01,.64-1.52,.88,.61,.42,1.18,.83,1.58,1.16l-.67,.46c-.79-.71-2.39-1.81-3.67-2.54l.62-.38c.49,.27,1.03,.58,1.55,.94,.52-.3,1.1-.65,1.46-.92l.65,.41Z"/>
        <path class="cls-1" d="M588.12,140.19v1.84h4.41v4.76c0,.58-.14,.88-.57,1.06-.46,.16-1.22,.18-2.38,.18-.04-.31-.22-.72-.35-1.01,.92,.03,1.74,.03,1.97,.03,.24-.03,.31-.08,.31-.27v-3.75h-3.39v6.59h-1.02v-6.59h-3.18v5.04h-1.01v-6.04h4.19v-1.84h-5.51v-.99h5.79c-.22-.53-.58-1.24-.9-1.78l.96-.3c.41,.62,.87,1.48,1.06,2.01l-.18,.07h5.4v.99h-5.62Z"/>
        <path class="cls-1" d="M597.12,143.32c0,1.82-.2,4.47-1.39,6.31-.16-.15-.56-.41-.78-.5,1.12-1.73,1.26-4.12,1.26-5.82v-2.51h4.38v-1.6h.96v.57h4.65v.56h-4.65v.48h4.8l.18-.03,.64,.14c-.16,.57-.37,1.21-.56,1.62l-.83-.15c.11-.25,.22-.57,.3-.9h-4.85v.45l3.51-.18v.53s-3.51,.19-3.51,.19c.01,.27,.1,.35,.46,.35h2.76c.37,0,1.02-.03,1.26-.08,.03,.24,.05,.43,.08,.62-.23,.05-.76,.07-1.25,.07h-3c-.79,0-1.06-.25-1.13-.76l-2.69,.15-.04-.71,2.72-.14v-.5h-3.29v1.85Zm1.32-4.5h-3.09v-.75h3.09v-.84h.99v.84h1.65v.75h-1.65v.73h-.99v-.73Zm8.92,9.75v.67h-10.74v-.67h1.35v-1.74h8.16v1.74h1.24Zm-8.97-4.72h7.3v2.56h-7.3v-2.56Zm.42,4.72h1.62v-1.17h-1.62v1.17Zm.44-3.68h2.32v-.56h-2.32v.56Zm0,1.03h2.32v-.57h-2.32v.57Zm1.94,1.48v1.17h1.65v-1.17h-1.65Zm1.88-8.58h-1.54v-.75h1.54v-.84h.99v.84h3.17v.75h-3.17v.72h-.99v-.72Zm1.73,5.51h-2.42v.56h2.42v-.56Zm0,1.02h-2.42v.57h2.42v-.57Zm-1.2,2.05v1.17h1.64v-1.17h-1.64Z"/>
        <path class="cls-1" d="M612.44,140.96v8.66h-.99v-8.66h-.65c-.42,.99-.91,1.89-1.43,2.6-.19-.16-.65-.46-.91-.61,1.11-1.37,1.97-3.55,2.47-5.74l1.03,.22c-.22,.87-.48,1.73-.78,2.54h3.67v.99h-2.42Zm8.63,0h-2.05v7.33c0,.65-.14,.96-.57,1.11-.43,.19-1.2,.2-2.26,.2-.05-.3-.19-.76-.34-1.06,.83,.03,1.62,.03,1.86,.01,.23-.01,.29-.07,.29-.27v-7.33h-1.99c-.42,.98-.9,1.88-1.43,2.58-.18-.18-.61-.48-.87-.61,1.1-1.37,1.93-3.52,2.41-5.72l1.01,.2c-.2,.88-.45,1.74-.75,2.56h4.69v.99Z"/>
        <path class="cls-1" d="M632.15,148.06c.73,0,1.77-.05,2.26-.15,.04,.29,.11,.75,.16,.96-.35,.11-1.39,.12-2.43,.12h-5.98c-2.08,0-3.09-.65-3.09-2.64v-7.61h-.56v-.91h11.39v.91h-9.84v7.68c0,1.16,.53,1.63,1.99,1.63h6.1Zm-7.02-4.5h3.54v3.48h-3.54v-3.48Zm.84,2.75h1.81v-2.01h-1.81v2.01Zm5.67-3.67h-5.04v-3h5.04v3Zm-.99-2.28h-3.1v1.55h3.1v-1.55Zm2.58,6.69h-3.66v-3.48h3.66v3.48Zm-.9-2.75h-1.89v2.01h1.89v-2.01Z"/>
      </g>
    </g>
  </g>
</svg>