<?xml version="1.0" encoding="UTF-8"?>
<svg id="_圖層_2" data-name="圖層 2" xmlns="http://www.w3.org/2000/svg" viewBox="0 0 418.35 136.94">
  <defs>
    <style>
      .cls-1 {
        opacity: .7;
      }

      .cls-2 {
        fill: #dbe7ed;
      }
    </style>
  </defs>
  <g id="_圖層_1-2" data-name="圖層 1">
    <g class="cls-1">
      <path class="cls-2" d="M9.67,39.95v-1.65c2.11-.13,3.57-.59,4.4-1.39,.83-.8,1.24-2.18,1.24-4.15V2.43h-4.54c-2.29,0-4.13,.57-5.54,1.7-1.4,1.13-2.58,3.02-3.54,5.67H0L1.32,.78H34.9l1.32,9.02h-1.65c-.96-2.63-2.14-4.51-3.55-5.66-1.41-1.14-3.27-1.71-5.58-1.71h-4.7v30.33c0,1.96,.41,3.35,1.22,4.16,.81,.81,2.26,1.27,4.35,1.38v1.65H9.67Z"/>
      <path class="cls-2" d="M38.76,39.95v-1.65c2.11-.13,3.57-.59,4.4-1.39,.83-.8,1.24-2.18,1.24-4.15V7.91c0-1.95-.41-3.31-1.24-4.11-.83-.79-2.3-1.25-4.4-1.38V.78h16.53v1.65c-2.11,.13-3.58,.58-4.4,1.38-.83,.79-1.24,2.16-1.24,4.11v11.02h19.21V7.91c0-1.95-.41-3.31-1.23-4.11-.82-.79-2.29-1.25-4.42-1.38V.78h16.53v1.65c-2.11,.13-3.58,.58-4.4,1.38-.83,.79-1.24,2.16-1.24,4.11v24.85c0,1.94,.41,3.32,1.24,4.13,.83,.81,2.3,1.28,4.4,1.41v1.65h-16.53v-1.65c2.11-.13,3.57-.59,4.4-1.39,.83-.8,1.24-2.18,1.24-4.15v-12.02h-19.21v12.02c0,1.96,.41,3.34,1.24,4.15,.83,.8,2.3,1.27,4.4,1.39v1.65h-16.53Z"/>
      <path class="cls-2" d="M83.87,39.95v-1.65c2.11-.13,3.57-.59,4.4-1.39,.83-.8,1.24-2.18,1.24-4.15V7.91c0-1.95-.42-3.31-1.24-4.11-.83-.79-2.3-1.25-4.4-1.38V.78h30.31l.16,8.24h-1.54c-.5-2.54-1.42-4.26-2.75-5.16-1.39-.95-3.79-1.43-7.21-1.43h-6.7c-.92,0-1.38,.37-1.38,1.11v14.78h4.28c4.08,0,6.72-.39,7.93-1.17,1.1-.69,1.67-2.18,1.71-4.48h1.54v13.4h-1.54c-.04-2.43-.59-4-1.67-4.7-1.19-.81-3.84-1.21-7.97-1.21h-4.27v12.61c0,2.12,.49,3.58,1.47,4.36,.98,.78,2.83,1.17,5.55,1.17,3.33,0,5.95-.63,7.86-1.88,1.91-1.25,3.55-3.42,4.92-6.5l1.67,.41-2.38,9.62h-29.98Z"/>
      <path class="cls-2" d="M134.22,39.95v-1.65c2.11-.13,3.57-.59,4.4-1.39,.83-.8,1.24-2.18,1.24-4.15V7.91c0-1.95-.42-3.31-1.24-4.11-.83-.79-2.3-1.25-4.4-1.38V.78h14.88c4.57,0,8.14,.81,10.7,2.44s3.84,3.89,3.84,6.79c0,2.45-.84,4.49-2.51,6.12-1.67,1.63-3.97,2.63-6.89,3.01v.16c3.39,.27,6.09,1.32,8.1,3.16s3.03,4.14,3.03,6.92c0,3.39-1.3,5.99-3.89,7.82-2.59,1.83-6.31,2.74-11.16,2.74h-16.1Zm10.89-21.64h3.65c2.79,0,5.02-.72,6.68-2.15,1.67-1.43,2.5-3.34,2.5-5.71s-.99-4.22-2.97-5.74c-1.98-1.52-4.49-2.28-7.54-2.28h-.43c-.85,0-1.37,.07-1.58,.2-.21,.14-.31,.44-.31,.91v14.78Zm0,14.45c0,1.94,.43,3.34,1.3,4.2s2.28,1.28,4.24,1.28c2.47,0,4.55-.86,6.25-2.58,1.7-1.72,2.55-3.83,2.55-6.33,0-2.81-1.12-5.04-3.36-6.7-2.24-1.66-5.27-2.48-9.09-2.48h-1.89v12.61Z"/>
      <path class="cls-2" d="M176.2,7.91c0-1.89-.38-3.23-1.15-4.02-.77-.79-2.14-1.28-4.12-1.46V.78h15.88v1.65c-2.04,.18-3.44,.66-4.21,1.45s-1.16,2.13-1.16,4.04V29.06c0,2.65,.91,4.74,2.73,6.27,1.82,1.53,4.3,2.3,7.46,2.3,6.97,0,10.45-4.13,10.45-12.4V8.97c0-2.34-.44-4.01-1.31-5s-2.35-1.5-4.44-1.54V.78h13.24v1.65c-2.12,.13-3.6,.58-4.42,1.38-.82,.79-1.23,2.16-1.23,4.11V24.9c0,10.55-4.76,15.83-14.29,15.83-4.11,0-7.37-1.04-9.79-3.13s-3.63-4.88-3.63-8.37V7.91Z"/>
      <path class="cls-2" d="M213.58,39.95v-1.65c2.11-.13,3.57-.59,4.4-1.39,.83-.8,1.24-2.18,1.24-4.15V7.91c0-1.95-.41-3.31-1.23-4.11-.82-.79-2.29-1.25-4.42-1.38V.78h16.64v1.65c-2.11,.13-3.57,.58-4.39,1.38-.82,.79-1.23,2.16-1.23,4.11v24.85c0,1.96,.41,3.34,1.24,4.15,.83,.8,2.29,1.27,4.38,1.39v1.65h-16.64Z"/>
      <path class="cls-2" d="M234.81,39.95v-1.65c2.11-.13,3.57-.59,4.4-1.39,.83-.8,1.24-2.18,1.24-4.15V7.91c0-1.95-.41-3.31-1.23-4.11-.82-.79-2.29-1.25-4.42-1.38V.78h16.48v1.65c-2.11,.13-3.58,.58-4.4,1.38-.83,.79-1.24,2.16-1.24,4.11v24.85c0,2.09,.49,3.53,1.46,4.33,.97,.8,2.72,1.2,5.24,1.2,3.89,0,6.83-.65,8.83-1.96,2-1.3,3.63-3.62,4.89-6.96l1.62,.38-2.32,10.18h-30.55Z"/>
      <path class="cls-2" d="M271.68,39.95v-1.65c2.11-.13,3.57-.59,4.4-1.39,.83-.8,1.24-2.18,1.24-4.15V7.91c0-1.95-.42-3.31-1.24-4.11-.83-.79-2.3-1.25-4.4-1.38V.78h16.58c7.22,0,12.83,1.7,16.84,5.09s6.01,8.13,6.01,14.22-2.12,10.79-6.38,14.59c-3.93,3.51-9.01,5.27-15.26,5.27h-17.8Zm10.89-7.24c0,3.73,2.23,5.59,6.7,5.59s8.45-1.71,11.47-5.13c3.02-3.42,4.52-7.78,4.52-13.07s-1.71-9.58-5.12-12.82c-3.41-3.23-7.96-4.85-13.63-4.85-1.71,0-3.03,.15-3.94,.46v29.82Z"/>
      <path class="cls-2" d="M317.01,39.95v-1.65c2.11-.13,3.57-.59,4.4-1.39,.83-.8,1.24-2.18,1.24-4.15V7.91c0-1.95-.41-3.31-1.23-4.11-.82-.79-2.29-1.25-4.42-1.38V.78h16.64v1.65c-2.11,.13-3.57,.58-4.39,1.38-.82,.79-1.23,2.16-1.23,4.11v24.85c0,1.96,.41,3.34,1.24,4.15,.83,.8,2.29,1.27,4.38,1.39v1.65h-16.64Z"/>
      <path class="cls-2" d="M345.23,9.68V31.76c0,2.34,.44,4.01,1.32,5,.88,.99,2.38,1.5,4.48,1.54v1.65h-13.21v-1.65c2.11-.13,3.57-.59,4.4-1.41,.83-.81,1.24-2.19,1.24-4.13V7.21c-2.47-3.19-4.56-4.78-6.27-4.78h-.38V.78h7.62l25.9,30.76V8.97c0-2.34-.45-4.01-1.34-5-.89-.99-2.38-1.5-4.47-1.54V.78h13.21v1.65c-2.11,.13-3.58,.58-4.4,1.38-.83,.79-1.24,2.16-1.24,4.11v24.63c0,2.92,.24,5.65,.73,8.18h-1.47s-26.13-31.05-26.13-31.05Z"/>
      <path class="cls-2" d="M414.19,38.57c-.52,.05-2.61,.45-6.27,1.19-3.24,.65-5.47,.97-6.67,.97-4.68,0-8.48-1.16-11.4-3.48-5.31-4.23-7.97-9.75-7.97-16.56,0-4.09,1.02-7.86,3.05-11.32,1.98-3.33,4.54-5.81,7.67-7.43,2.56-1.3,5.42-1.94,8.59-1.94,4.11,0,7.92,.84,11.45,2.51l.76,8.45h-1.65c-.79-2.93-2.17-5.21-4.15-6.82-1.97-1.61-4.35-2.42-7.14-2.42-3.91,0-7,1.61-9.29,4.83s-3.43,7.6-3.43,13.15,1.27,10.35,3.8,13.96c2.53,3.61,5.77,5.42,9.71,5.42,2.54,0,5.11-.66,7.7-1.97v-9.87c0-1.84-.38-3.17-1.13-4-.76-.83-1.98-1.27-3.67-1.33v-1.7h14.21v1.65c-1.53,.22-2.61,.73-3.23,1.55-.62,.82-.93,2.15-.93,3.98v11.18Z"/>
      <path class="cls-2" d="M1.38,88.05v-1.65c2.11-.13,3.57-.59,4.4-1.39,.83-.8,1.24-2.18,1.24-4.15v-24.85c0-1.95-.41-3.31-1.24-4.11-.83-.79-2.3-1.25-4.4-1.38v-1.65H17.91v1.65c-2.11,.13-3.58,.58-4.4,1.38-.83,.79-1.24,2.16-1.24,4.11v11.02H31.47v-11.02c0-1.95-.41-3.31-1.23-4.11-.82-.79-2.29-1.25-4.42-1.38v-1.65h16.53v1.65c-2.11,.13-3.58,.58-4.4,1.38-.83,.79-1.24,2.16-1.24,4.11v24.85c0,1.94,.41,3.32,1.24,4.13,.83,.81,2.3,1.28,4.4,1.41v1.65H25.82v-1.65c2.11-.13,3.57-.59,4.4-1.39,.83-.8,1.24-2.18,1.24-4.15v-12.02H12.26v12.02c0,1.96,.41,3.34,1.24,4.15,.83,.8,2.3,1.27,4.4,1.39v1.65H1.38Z"/>
      <path class="cls-2" d="M46.73,88.05v-1.65c2.11-.13,3.57-.59,4.4-1.39,.83-.8,1.24-2.18,1.24-4.15v-24.85c0-1.95-.41-3.31-1.23-4.11-.82-.79-2.29-1.25-4.42-1.38v-1.65h16.64v1.65c-2.11,.13-3.57,.58-4.39,1.38-.82,.79-1.23,2.16-1.23,4.11v24.85c0,1.96,.41,3.34,1.24,4.15,.83,.8,2.29,1.27,4.38,1.39v1.65h-16.64Z"/>
      <path class="cls-2" d="M100.37,86.67c-.52,.05-2.61,.45-6.27,1.19-3.24,.65-5.47,.97-6.67,.97-4.68,0-8.48-1.16-11.4-3.48-5.31-4.23-7.97-9.75-7.97-16.56,0-4.09,1.02-7.86,3.05-11.32,1.98-3.33,4.54-5.81,7.67-7.43,2.56-1.3,5.42-1.94,8.59-1.94,4.11,0,7.92,.84,11.45,2.51l.76,8.45h-1.65c-.79-2.93-2.17-5.21-4.15-6.82-1.97-1.61-4.35-2.42-7.14-2.42-3.91,0-7,1.61-9.29,4.83s-3.43,7.6-3.43,13.15,1.27,10.35,3.8,13.96c2.53,3.61,5.77,5.42,9.71,5.42,2.54,0,5.11-.66,7.7-1.97v-9.87c0-1.84-.38-3.17-1.13-4-.76-.83-1.98-1.27-3.67-1.33v-1.7h14.21v1.65c-1.53,.22-2.61,.73-3.23,1.55-.62,.82-.93,2.15-.93,3.98v11.18Z"/>
      <path class="cls-2" d="M108.69,88.05v-1.65c2.11-.13,3.57-.59,4.4-1.39,.83-.8,1.24-2.18,1.24-4.15v-24.85c0-1.95-.41-3.31-1.24-4.11-.83-.79-2.3-1.25-4.4-1.38v-1.65h16.53v1.65c-2.11,.13-3.58,.58-4.4,1.38-.83,.79-1.24,2.16-1.24,4.11v11.02h19.21v-11.02c0-1.95-.41-3.31-1.23-4.11-.82-.79-2.29-1.25-4.42-1.38v-1.65h16.53v1.65c-2.11,.13-3.58,.58-4.4,1.38-.83,.79-1.24,2.16-1.24,4.11v24.85c0,1.94,.41,3.32,1.24,4.13,.83,.81,2.3,1.28,4.4,1.41v1.65h-16.53v-1.65c2.11-.13,3.57-.59,4.4-1.39,.83-.8,1.24-2.18,1.24-4.15v-12.02h-19.21v12.02c0,1.96,.41,3.34,1.24,4.15,.83,.8,2.3,1.27,4.4,1.39v1.65h-16.53Z"/>
      <path class="cls-2" d="M199.88,76.71h1.49l-.78,8.64c-3.93,2.36-8.26,3.54-12.99,3.54-5.78,0-10.48-1.84-14.1-5.54-3.62-3.69-5.43-8.49-5.43-14.4,0-5.06,1.35-9.52,4.05-13.37,3.55-5.06,8.63-7.59,15.26-7.59,4.41,0,8.6,1,12.56,3l.95,8.24h-1.51c-2.47-6.39-6.71-9.59-12.72-9.59-3.85,0-6.94,1.62-9.25,4.86-2.31,3.24-3.47,7.58-3.47,13.02,0,5.9,1.24,10.66,3.73,14.28,2.49,3.62,5.73,5.44,9.72,5.44,2.95,0,5.55-.94,7.79-2.83,2.24-1.89,3.81-4.45,4.71-7.7Z"/>
      <path class="cls-2" d="M207.58,88.05v-1.65c2.11-.13,3.57-.59,4.4-1.39,.83-.8,1.24-2.18,1.24-4.15v-24.85c0-1.95-.41-3.31-1.23-4.11-.82-.79-2.29-1.25-4.42-1.38v-1.65h16.48v1.65c-2.11,.13-3.58,.58-4.4,1.38-.83,.79-1.24,2.16-1.24,4.11v24.85c0,2.09,.49,3.53,1.46,4.33,.97,.8,2.72,1.2,5.24,1.2,3.89,0,6.83-.65,8.83-1.96,2-1.3,3.63-3.62,4.89-6.96l1.62,.38-2.32,10.18h-30.55Z"/>
      <path class="cls-2" d="M242.86,88.05v-1.65c1.39-.23,2.44-.77,3.16-1.59,.83-.92,1.71-2.71,2.65-5.38l10.3-29.08-.49-1.47h5.13l11.02,31.09c.77,2.2,1.57,3.77,2.39,4.71s1.85,1.52,3.09,1.72v1.65h-14.5v-1.65c1.71-.27,2.85-.59,3.42-.96,.57-.37,.85-.96,.85-1.77,0-.94-.23-2.06-.69-3.37l-2.99-8.84h-12.81l-2.6,7.51c-.33,.94-.49,1.94-.49,3,0,1.22,.31,2.15,.92,2.78,.61,.63,1.76,1.18,3.46,1.65v1.65h-11.8Zm17.09-35.07l-5.92,16.7h11.52l-5.61-16.7Z"/>
      <path class="cls-2" d="M284.86,75.87h1.49c1.5,7.42,4.79,11.13,9.89,11.13,2,0,3.62-.64,4.85-1.93,1.23-1.29,1.84-2.99,1.84-5.09,0-1.69-.43-3.11-1.3-4.24-.97-1.3-2.97-2.94-6-4.94-.05-.04-.14-.1-.27-.19-7-4.61-10.51-8.7-10.51-12.26,0-2.74,1.04-5.19,3.13-7.35,1.85-1.93,4.35-2.89,7.48-2.89,2.68,0,6.08,1,10.18,3v8.08h-1.51c-.67-6.19-3.45-9.29-8.35-9.29-1.91,0-3.52,.64-4.83,1.93-1.32,1.29-1.97,2.86-1.97,4.71,0,2.34,2.87,5.42,8.62,9.24,.97,.65,1.79,1.2,2.46,1.65,2.72,1.84,4.63,3.54,5.74,5.12,1.11,1.58,1.66,3.34,1.66,5.28,0,3.26-1.13,5.92-3.4,7.98-2.27,2.06-5.19,3.09-8.79,3.09s-7.08-1.14-10.42-3.43v-9.59Z"/>
      <path class="cls-2" d="M315.63,75.87h1.49c1.5,7.42,4.79,11.13,9.89,11.13,2,0,3.62-.64,4.85-1.93,1.23-1.29,1.84-2.99,1.84-5.09,0-1.69-.43-3.11-1.3-4.24-.97-1.3-2.97-2.94-6-4.94-.05-.04-.14-.1-.27-.19-7-4.61-10.51-8.7-10.51-12.26,0-2.74,1.04-5.19,3.13-7.35,1.85-1.93,4.35-2.89,7.48-2.89,2.68,0,6.08,1,10.18,3v8.08h-1.51c-.67-6.19-3.45-9.29-8.35-9.29-1.91,0-3.52,.64-4.83,1.93-1.32,1.29-1.97,2.86-1.97,4.71,0,2.34,2.87,5.42,8.62,9.24,.97,.65,1.79,1.2,2.46,1.65,2.72,1.84,4.63,3.54,5.74,5.12,1.11,1.58,1.66,3.34,1.66,5.28,0,3.26-1.13,5.92-3.4,7.98-2.27,2.06-5.19,3.09-8.79,3.09s-7.08-1.14-10.42-3.43v-9.59Z"/>
      <path class="cls-2" d="M344.39,88.05v-1.65c2.11-.13,3.57-.59,4.4-1.39,.83-.8,1.24-2.18,1.24-4.15v-24.85c0-1.95-.41-3.31-1.23-4.11-.82-.79-2.29-1.25-4.42-1.38v-1.65h16.64v1.65c-2.11,.13-3.57,.58-4.39,1.38-.82,.79-1.23,2.16-1.23,4.11v24.85c0,1.96,.41,3.34,1.24,4.15,.83,.8,2.29,1.27,4.38,1.39v1.65h-16.64Z"/>
      <path class="cls-2" d="M397.63,76.71h1.49l-.78,8.64c-3.93,2.36-8.26,3.54-12.99,3.54-5.78,0-10.48-1.84-14.1-5.54-3.62-3.69-5.43-8.49-5.43-14.4,0-5.06,1.35-9.52,4.05-13.37,3.55-5.06,8.63-7.59,15.26-7.59,4.41,0,8.6,1,12.56,3l.95,8.24h-1.51c-2.47-6.39-6.71-9.59-12.72-9.59-3.85,0-6.94,1.62-9.25,4.86-2.31,3.24-3.47,7.58-3.47,13.02,0,5.9,1.24,10.66,3.73,14.28,2.49,3.62,5.73,5.44,9.72,5.44,2.95,0,5.55-.94,7.79-2.83,2.24-1.89,3.81-4.45,4.71-7.7Z"/>
      <path class="cls-2" d="M1.65,136.16v-1.65c2.11-.13,3.57-.59,4.4-1.39,.83-.8,1.24-2.18,1.24-4.15v-24.85c0-1.95-.41-3.31-1.23-4.11-.82-.79-2.29-1.25-4.42-1.38v-1.65H18.12v1.65c-2.11,.13-3.58,.58-4.4,1.38-.83,.79-1.24,2.16-1.24,4.11v24.85c0,2.09,.49,3.53,1.46,4.33,.97,.8,2.72,1.2,5.24,1.2,3.89,0,6.83-.65,8.83-1.96,2-1.3,3.63-3.62,4.89-6.96l1.62,.38-2.32,10.18H1.65Z"/>
      <path class="cls-2" d="M38.76,136.16v-1.65c2.11-.13,3.57-.59,4.4-1.39,.83-.8,1.24-2.18,1.24-4.15v-24.85c0-1.95-.41-3.31-1.23-4.11-.82-.79-2.29-1.25-4.42-1.38v-1.65h16.64v1.65c-2.11,.13-3.57,.58-4.39,1.38-.82,.79-1.23,2.16-1.23,4.11v24.85c0,1.96,.41,3.34,1.24,4.15,.83,.8,2.29,1.27,4.38,1.39v1.65h-16.64Z"/>
      <path class="cls-2" d="M75.63,136.94c-.76-2.23-1.8-5.07-3.11-8.51l-.94-2.46-7.35-19.42c-1.28-3.38-2.32-5.58-3.13-6.59-.7-.88-1.63-1.32-2.78-1.32h-.51v-1.65h14.1v1.65h-.32c-2.5,0-3.75,.7-3.75,2.1,0,.45,.17,1.12,.5,2l9.9,27.04,7.97-22.31c1.21-3.31,1.81-5.37,1.81-6.16,0-1.78-1.48-2.67-4.43-2.67h-.65v-1.65h11.72v1.65h-.32c-2.05,0-4.09,2.8-6.1,8.4l-.03,.11-7,19.45c-2.16,5.92-3.3,9.37-3.43,10.34h-2.13Z"/>
      <path class="cls-2" d="M97.11,136.16v-1.65c2.11-.13,3.57-.59,4.4-1.39,.83-.8,1.24-2.18,1.24-4.15v-24.85c0-1.95-.41-3.31-1.23-4.11-.82-.79-2.29-1.25-4.42-1.38v-1.65h16.64v1.65c-2.11,.13-3.57,.58-4.39,1.38-.82,.79-1.23,2.16-1.23,4.11v24.85c0,1.96,.41,3.34,1.24,4.15,.83,.8,2.29,1.27,4.38,1.39v1.65h-16.64Z"/>
      <path class="cls-2" d="M125.33,105.89v22.08c0,2.34,.44,4.01,1.32,5,.88,.99,2.38,1.5,4.48,1.54v1.65h-13.21v-1.65c2.11-.13,3.57-.59,4.4-1.41,.83-.81,1.24-2.19,1.24-4.13v-25.55c-2.47-3.19-4.56-4.78-6.27-4.78h-.38v-1.65h7.62l25.9,30.76v-22.58c0-2.34-.45-4.01-1.34-5-.89-.99-2.38-1.5-4.47-1.54v-1.65h13.21v1.65c-2.11,.13-3.58,.58-4.4,1.38-.83,.79-1.24,2.16-1.24,4.11v24.63c0,2.92,.24,5.65,.73,8.18h-1.47s-26.13-31.05-26.13-31.05Z"/>
      <path class="cls-2" d="M194.29,134.78c-.52,.05-2.61,.45-6.27,1.19-3.24,.65-5.47,.97-6.67,.97-4.68,0-8.48-1.16-11.4-3.48-5.31-4.23-7.97-9.75-7.97-16.56,0-4.09,1.02-7.86,3.05-11.32,1.98-3.33,4.54-5.81,7.67-7.43,2.56-1.3,5.42-1.94,8.59-1.94,4.11,0,7.92,.84,11.45,2.51l.76,8.45h-1.65c-.79-2.93-2.17-5.21-4.15-6.82-1.97-1.61-4.35-2.42-7.14-2.42-3.91,0-7,1.61-9.29,4.83s-3.43,7.6-3.43,13.15,1.27,10.35,3.8,13.96c2.53,3.61,5.77,5.42,9.71,5.42,2.54,0,5.11-.66,7.7-1.97v-9.87c0-1.84-.38-3.17-1.13-4-.76-.83-1.98-1.27-3.67-1.33v-1.7h14.21v1.65c-1.53,.22-2.61,.73-3.23,1.55-.62,.82-.93,2.15-.93,3.98v11.18Z"/>
    </g>
  </g>
</svg>