<?xml version="1.0" encoding="UTF-8"?>
<svg id="_圖層_2" data-name="圖層 2" xmlns="http://www.w3.org/2000/svg" viewBox="0 0 649.13 222.58">
  <defs>
    <style>
      .cls-1, .cls-2 {
        fill-rule: evenodd;
      }

      .cls-1, .cls-3 {
        fill: #231815;
      }

      .cls-4, .cls-2 {
        fill: none;
        stroke: #e50012;
        stroke-miterlimit: 10;
        stroke-width: 2.24px;
      }
    </style>
  </defs>
  <g id="_圖層_1-2" data-name="圖層 1">
    <g>
      <g>
        <path class="cls-1" d="M365.77,83.07v-.61h-.31v-2.74c-.3-.2-.61-.41-.91-.61v-10.98c-.31-.2-.61-.41-.92-.61v-3.66c-.2-.1-.41-.2-.61-.3v-.61h-.3v-2.75c-.2-.1-.41-.2-.61-.3v-.61h-.31v-4.27h-.3v-.61c-.2-.1-.41-.2-.61-.3v-1.83c-.2-.1-.41-.2-.61-.31-.2-.61-.41-1.22-.61-1.83h-.31c-.28-1.06,.42-.88,.61-1.22v-.61h.31v-2.44c-.07-.81-.74-2.48-.31-3.66h.31v-.61c.2-.1,.41-.2,.61-.31v-5.8h-.31c-.41-.6-.69-.69-.91-1.52-1.5-.27-3.16-.55-3.97-1.53-1.15,.11-1.89,.53-2.44,1.22h-5.49c-1.02,1.12-2.03,2.24-3.05,3.36h-6.4c-.2-.31-.41-.61-.61-.92h-2.13c-.1-.2-.2-.41-.31-.61h-.61v-.3c-.61,.1-1.22,.2-1.83,.3v-.3c-.41-.1-.81-.2-1.22-.31v-.31h-.92v-.3c-.71,.1-1.42,.2-2.14,.3v-.3c-.71,.1-1.42,.2-2.13,.3v-.3h-1.53c-.4,.1-1.89,.63-2.74,.3v-.3h-.61c-.31-.41-.61-.81-.92-1.22-.41-.1-.81-.2-1.22-.31v-.3h-3.66v.3c-.81,.16-1.37-.34-1.83-.61v-.3h-7.01v-.31c-.41-.1-.81-.2-1.22-.3v-.31h-.61c-.1-.2-.2-.41-.31-.61-.7-.42-1.53,.05-2.44-.3v-.31h-.61c-.1-.2-.2-.41-.31-.61h-8.84c-.2-.3-.41-.61-.61-.91h-3.05c-.2-.31-.41-.61-.61-.92h-2.75v-.31c-.41-.1-.81-.2-1.22-.3v-.3h-9.45v-.31h-.61c-.31-.41-.61-.81-.92-1.22h-.91v-.31c-1.42,.1-2.85,.2-4.27,.31v-.31h-.61c-.1-.2-.2-.41-.3-.61h-7.01v-.3c-.41-.1-.81-.2-1.22-.31v-.3c-2.12-.77-3.9,.95-5.19-.92-2.62,.02-6.47,.46-8.54-.3v-5.8c.1-.61,.2-1.22,.3-1.83h-.3c-.32-.77-.48-1.79-.92-2.44-.81-.71-1.63-1.42-2.44-2.13-.41-.1-.81-.2-1.22-.31-.31-.41-.61-.81-.92-1.22h-.61v-.3c-.61-.2-1.22-.41-1.83-.61v-.31h-1.53c-.3-.41-.61-.81-.91-1.22h-.61c-.93-.54-1.88-1.21-2.44-2.13h-14.34v.3h-.61c-.3,.41-.61,.81-.91,1.22-.41,.1-.81,.2-1.22,.31-.1,.2-.2,.41-.31,.61h-.91v.3h-1.53c-.1,.2-.2,.41-.31,.61h-.61v.31h-.91c-.71,.81-1.42,1.63-2.14,2.44h-1.22v.3h-.31c.1,.31,.2,.61,.31,.92h.31v.61h.3v1.53c.2,.1,.41,.2,.61,.3v.61h.31v.92c1.12,1.02,2.24,2.03,3.35,3.05v.61h.31c.45,.9-.32,.57,.61,1.22,.03,2.18,.37,3.58-.92,4.57v.3h-.91v.31h-1.22v-.31h-3.36c-.1,.2-.2,.41-.3,.61h-.61c-.1,.2-.2,.41-.3,.61h-.92v.31h-.61v.31h-10.67v.3h-.61c-.1,.2-.2,.41-.3,.61h-3.36v.31h-.61c-.1,.2-.2,.41-.31,.61h-3.66c-.1,.2-.2,.41-.31,.61h-.61v.3h-3.66c-.2,.31-.41,.61-.61,.92h-8.23c-.41,.51-.81,1.02-1.22,1.52l-1.52,.31c-.1,.2-.2,.41-.31,.61h-.61v.3c-.71-.1-1.42-.2-2.14-.3v.3h-1.22c-.1,.2-.2,.41-.3,.61h-.61v.31h-2.75c-.1,.2-.2,.41-.31,.61h-.61v.3h-1.83c-.1,.2-.2,.41-.3,.61h-.61v.3c-.61-.1-1.22-.2-1.83-.3v.3h-.61v.31h-.61v.3h-1.52v.31c-.41,.1-.81,.2-1.22,.3v.31h-1.83c-.1,.2-.2,.41-.31,.61h-.61v.3h-1.83c-.1,.2-.2,.41-.31,.61-.67,.38-1.7,.32-2.74,.31-.33-.41-.83-.56-1.22-.92-.1-.2-.2-.41-.31-.61-.41-.1-.81-.2-1.22-.3v-.31h-.61v-.3h-.61v-.31h-.61v-.3h-.61v-.31h-.61v-.3h-.92c-.41-.51-.81-1.02-1.22-1.53l-1.52-.31c-1.02-1.12-2.03-2.24-3.05-3.35-.41-.1-.81-.2-1.22-.31-.88-.5-1.92-1.57-2.44-2.44h-8.84c-.1,.2-.2,.41-.3,.61-.92,.81-1.83,1.63-2.75,2.44v5.49c.25,.43,.74,.06,1.22,.3,.61,.51,1.22,1.02,1.83,1.53,.2,.61,.41,1.22,.61,1.83,.2,.1,.41,.2,.61,.3v6.4c.2,.1,.41,.2,.61,.31v.61h.31v.61h.3c-.2,.61-.41,1.22-.61,1.83-.2,.1-.41,.2-.61,.3-.71,1.62,.84,2.55-.3,3.66v.3c-.51,.1-1.02,.2-1.53,.31,.1,1.02,.2,2.03,.31,3.05h-.31v1.22h.31c-.1,.81-.2,1.63-.31,2.44h.31c.2,.61,.41,1.22,.61,1.83h.3v7.01h-.3v.61h-.31v.61c-.2,.1-.41,.2-.61,.31,.1,2.24,.2,4.47,.31,6.71-.2,.1-.41,.2-.61,.31v.61h-.31v1.83c-.2,.1-.41,.2-.61,.31v.91h-.3v1.53c-.2,.1-.41,.2-.61,.3v.61h-.3v4.27h-.3c-.1,.41-.2,.81-.31,1.22h-.31v4.27c.31,.2,.61,.41,.92,.61v9.15c1.54,.34,2.09,1.21,3.36,1.83v.3h11.89v-.3h.61v-.31c.71-.1,1.42-.2,2.14-.3v-.31h.61c.1-.2,.2-.41,.3-.61h.92c.41-.51,.81-1.02,1.22-1.52,.22-.17,.18,.23,.61-.31h.3v-1.83h.31v-.92c.2-.1,.41-.2,.61-.3v-.61h.3c.19-.62-.3-.92-.3-.92-.14-.98,.4-1.47,.92-1.83v-13.42c.51-.41,1.02-.81,1.52-1.22-.06-.72-.29-1.94-.61-2.44-1.12-1.02-2.24-2.03-3.36-3.05,.1-.69,.03-.79,.31-1.22h.3v-.61h.31c.13-.5-.75-2.68-.31-3.66,.2-.1,.41-.2,.61-.3,.2-.61,.41-1.22,.61-1.83h.31v-.61h.31c.6-1.61-.66-5.43-1.22-5.8h-.92v-.31h-.31c.25-.9,.71-1.2,1.22-1.83h.3c.2-.61,.41-1.22,.61-1.83h.31v-1.83h.3c.66-1.13,1.5-1.27,2.75-1.83v-.31h7.02c.1-.2,.2-.41,.3-.61h.61v-.3h1.83v-.31c.41-.1,.81-.2,1.22-.3v-.31c.41-.1,.81-.2,1.22-.3,.1-.2,.2-.41,.3-.61h1.83v-.31c.41-.1,.81-.2,1.22-.3v-.31h.61c.1-.2,.2-.41,.31-.61h.61v-.3h1.83v-.31h.61v-.31h2.44v-.3c.41-.1,.81-.2,1.22-.31v-.3c.99-.37,1.99,.18,2.75-.31,.41-.51,.81-1.02,1.22-1.52h3.97c.2-.31,.41-.61,.61-.92,1.59-.67,1.73,1.75,3.66,.92,.1-.2,.2-.41,.31-.61h.61v-.31h2.74c.2-.3,.41-.61,.61-.91h6.41c.1-.2,.2-.41,.31-.61h.91v-.31h1.53c.1-.2,.2-.41,.31-.61l1.52-.31c.1-.2,.2-.41,.31-.61h.61v-.31h14.03c.1-.2,.2-.41,.3-.61,.81-.1,1.63-.2,2.44-.31v-.3h.61c.1-.2,.2-.41,.31-.61l1.52-.31v-.3h17.39v-.31h.61c.1-.2,.2-.41,.31-.61h4.27v-.3c.91-.2,1.83-.41,2.75-.61h9.15c.1-.2,.2-.41,.31-.61h.61v-.31c1.37-.48,1.81,.68,2.44,.92h1.83c.42,.1-.12,.4,.3,.3v-.3h.61c.2-.31,.41-.61,.61-.92h8.23c.1-.2,.2-.41,.3-.61h1.83v-.3c.81,.1,1.63,.2,2.44,.3h1.83v-.3c.66-.15,.91,.3,.91,.3h3.36c2.27,0,4.93-.38,6.41,0,.91-.1,1.83-.2,2.74-.3v.3h.92v.31h.61v.3h1.22v.31c.41,.1,.81,.2,1.22,.3v.31h9.45v.3c.41,.1,.81,.2,1.22,.31v.3h2.44v.31h.61v.3h.91v.31h1.22v.3h.61c.1,.2,.2,.41,.31,.61,1.32-.1,2.64-.2,3.97-.3,.8,.13,1.54,.44,2.44,0v-.31h.61v-.3h9.76v.3h.61v.31c.92,.3,1.83,.61,2.75,.91v.31c.33,.02,1.11-.64,1.83-.31,.2,.31,.41,.61,.61,.92h1.83v.31h.61c.1,.2,.2,.41,.31,.61,.51,.1,1.02,.2,1.53,.31,.1,.2,.2,.41,.3,.61h9.76v.31h.61c.1,.2,.2,.41,.3,.61h2.75c.1,.2,.2,.41,.31,.61h.61v.3h.61c.71,.61,1.42,1.22,2.13,1.83,.2,.61,.41,1.22,.61,1.83,.51,.41,1.02,.81,1.53,1.22v2.75c.2,.1,.41,.2,.61,.31v.61h.3v4.27c-.2,.1-.41,.2-.61,.31v.61h-.3v7.01h.3c.31,.67,.08,.75,.61,1.22v3.35c-.61,.51-1.22,1.02-1.83,1.53-.2,.61-.41,1.22-.61,1.83h-.3v.92h-.31c-.1,.51,.29,.54,.31,.61v8.23c.2,.1,.41,.2,.61,.3v.61h.3v8.84c.25,.44,.76,.04,1.22,.31,.13,.08,.26,.43,.61,.61-.06,1.89-.3,1.67,.31,3.05h10.67c.31-.41,.61-.81,.92-1.22,1.09-1.08,2.48-2.09,3.05-3.66v-2.75c.2-.1,.41-.2,.61-.3,.2-.61,.41-1.22,.61-1.83h.31v-.61h.3v-3.35c-.2-.1-.41-.2-.61-.31Zm-162.87,32.33c.41-.51,.81-1.02,1.22-1.52,.51-.1,1.02-.2,1.53-.31,.41-.51,.81-1.02,1.22-1.52,.51-.1,1.02-.2,1.53-.31l1.83-2.14c.2-.1,.41-.2,.61-.3v-.61l.61-.61v-.61h.3v-.61h.31v-.92c.51-.41,1.02-.81,1.53-1.22,.91-1.02,1.83-2.03,2.74-3.05,.61-.2,1.22-.41,1.83-.61,.31-.41,.61-.81,.92-1.22l1.52-.31c1.12-1.22,2.24-2.44,3.36-3.66h.31v-2.14c.91-.81,1.83-1.63,2.74-2.44-.1-1.02-.2-2.03-.3-3.05h.3v-.91c.2-.1,.41-.2,.61-.31v-.92c1.12-1.02,2.24-2.03,3.36-3.05l.31-1.52c.2-.1,.41-.2,.61-.31v-.61h.3v-1.83h.31v-.61c.2-.1,.41-.2,.61-.31v-1.83c.2-.1,.41-.2,.61-.3,.41-.51,.81-1.02,1.22-1.53,.68-.44,1.63,0,2.44-.3v-.31h.61c.1-.2,.2-.41,.31-.61h.61v-.31c.51-.1,1.02-.2,1.52-.3v-.3c.79,.2,.88,.31,1.22,.91,1.71-.23,.95-.67,1.83-1.22h.61v-.31h8.84c.1,.2,.2,.41,.3,.61h.61v.3h4.58c.1,.2,.2,.41,.3,.61h.61v.31c1.45,.54,3.47-.25,4.27-.61v-.3h1.52v-.3h.61l.31-.61h5.8v.31h1.22c.1,.2,.2,.41,.3,.61h.61v.3h.61v.31h.91v.31h2.14v.3h.61v.31h2.44v.3h.61c.2,.31,.41,.61,.61,.92h.61c.1,.2,.2,.41,.3,.61h3.97c1.06,0,2.06-.08,2.75,.3,.1,.2,.2,.41,.31,.61h.91c1.52,.11,2.03,.08,2.75,.92h10.06v-.31c.41-.3,.81-.61,1.22-.91v-.61c.31-.2,.61-.41,.91-.61,.76-1.35,.62-3.42,.61-5.49v-2.13h-.31v-.61h-.31v-.61h-.3v-.61h-.3c-.38-.72-.59-1.45-.92-2.14-.51-.1-1.02-.2-1.53-.31-.1-.2-.2-.41-.3-.61h-2.75v-.3h-.61c-.1-.2-.2-.41-.3-.61h-2.44v-.31c-.41-.1-.81-.2-1.22-.3v-.31h-1.52v-.3c-.41-.1-.81-.2-1.22-.31v-.3h-1.53v.3h-6.1c-1.31-.06-3.39-1.57-4.27-1.22-.1,.2-.2,.41-.3,.61h-.61v.31h-.61v.3c-1.09,.58-2.25,.61-3.97,.61h-10.98c-2.06,0-3.93-.18-4.88,.92h-7.93c-.1-.2-.2-.41-.3-.61h-.61c-.2-.31-.41-.61-.61-.92-.41-.1-.81-.2-1.22-.3-.41-.51-.81-1.02-1.22-1.53h-.61c-.51-.61-1.02-1.22-1.53-1.83h-.31v-.92h-.3c-.1-.41-.2-.81-.3-1.22-.51-.41-1.02-.81-1.53-1.22-.1-.2-.2-.41-.31-.61h-.61c-.1-.2-.2-.41-.3-.61h-.61v-.3h-.92c-.1-.2-.2-.41-.3-.61h-.92v-.31c-.41-.1-.81-.2-1.22-.3v-.31c-1.12-.4-2.59,.35-3.36-.31-.67-.43-1.06-1.21-1.22-2.13-.3-.1-.61-.2-.91-.31v.31h-1.83c-1.03-.39-2.42-3.07-4.27-2.44v.3h-.61c-.1,.2-.2,.41-.3,.61h-.61c-.2,.31-.41,.61-.61,.92-.61,.51-1.22,1.02-1.83,1.52-.1,.2-.2,.41-.3,.61h-.92v.3c-.84,.44-1.15,.57-2.44,.61,.16,1.36,.67,2.03,1.22,3.05h.31v.61h.3c.16,.64-.72,1.23-.3,2.14,.3,.2,.61,.41,.91,.61v.91c.13,.41,.27-.12,.31,.31-.17,.23-.5,.19-.31,.92h.31v2.13c-.81,.92-1.63,1.83-2.44,2.75h-3.66c-.1,.2-.2,.41-.31,.61h-1.22v.31h-1.22v.3c-.41,.1-.81,.2-1.22,.3v.31c-.98,.35-2.83-.16-3.36-.31-1.67-.46-5.46,.11-6.71,.31-.59,.09-3.17-.72-4.27-.31v.31h-.61c-.1,.2-.2,.41-.3,.61h-.61v.31h-.61c-.1,.2-.2,.41-.31,.61h-.61v.3c-1.05,.38-2.99-.64-3.66-.91v-.31l-1.83,.31s-.33-.49-.92-.31v.31h-.61c-.41,.51-.81,1.02-1.22,1.52h-8.84l-3.97,3.66c-.2,.61-.41,1.22-.61,1.83-.41,.3-.81,.61-1.22,.91v.61h-.3c-.1,.41-.2,.81-.31,1.22-.2,.1-.41,.2-.61,.31-.61,.71-1.22,1.42-1.83,2.13h-.61c-.19,1.01-.32,2.26-.31,3.66,.38,.3,.98,1.09,1.22,1.52,2.64,.1,5.29,.2,7.93,.31,.91-.81,1.83-1.63,2.75-2.44v-.31h4.57c.1-.2,.2-.41,.3-.61,.51-.1,1.02-.2,1.53-.31,.1-.2,.2-.41,.3-.61h.61v-.31h1.53v-.31c.41-.1,.81-.2,1.22-.3v-.31h4.27c.1-.2,.2-.41,.31-.61h.61v-.3h1.83c.1-.2,.2-.41,.3-.61h.61v-.31h1.83c.2-.3,.41-.61,.61-.91h3.05c2.73,0,5.98-.13,8.23,.3v.61c.2,.1,.41,.2,.61,.31v.61c.24,.41,1.42,1.42,1.22,2.14-.2,.1-.41,.2-.61,.3v.61h-.31v.61h-.3v.61h-.31v.61l-.61,.61v.61c-3.05,2.95-6.1,5.9-9.15,8.84-1.42,1.53-2.85,3.05-4.27,4.58h-1.22c-.2,.31-.41,.61-.61,.92h-1.52c-.2,.3-.41,.61-.61,.91-.41,.1-.81,.2-1.22,.31-.81,.91-1.63,1.83-2.44,2.74v.92c-.81,.71-1.63,1.42-2.44,2.14-.2,.3-.41,.61-.61,.91h-.91v.31h-.61c-.1,.2-.2,.41-.31,.61h-1.83v.3h-.61c-.31,.41-.61,.81-.92,1.22h-1.52v.31c-.61,.2-1.22,.41-1.83,.61v.3c-.41,.1-.81,.2-1.22,.31-.41,.61-.81,1.22-1.22,1.83l-1.52,.31c-.1,.2-.2,.41-.31,.61-.41,.1-.81,.2-1.22,.3v.31c-.41,.1-.81,.2-1.22,.3v.31h-.91c-.1,.2-.2,.41-.31,.61-.41,.1-.81,.2-1.22,.3v.31c-.41,.1-.81,.2-1.22,.3v.31h-.92c-.1,.2-.2,.41-.3,.61-.71,.1-1.42,.2-2.14,.3v.31c-.97,.47-1.25,.61-2.75,.61-.34,.98,.11,1.66-.3,2.44-.05,.1-.7,.52-.92,.92-1.49-.1-1.6-.56-2.44-1.22v-.3h-.61v-.3c-1.22,.1-2.44,.2-3.66,.3v.3h-.61v.31h-1.53v.31c-.41,.1-.81,.2-1.22,.3v.31h-1.83c-.1,.2-.2,.41-.3,.61h-.61v.3h-1.83c-.1,.2-.2,.41-.31,.61h-.61v.31c-.83,.31-2.36-.11-2.75-.31-.44,.04-.48,.46-1.22,.31-.07-.01-.1-.44-.61-.31v.31h-.61c-.1,.2-.2,.41-.3,.61h-1.83v.3h-.61c-.1,.2-.2,.41-.3,.61-.51,.1-1.02,.2-1.53,.31-.1,.2-.2,.41-.3,.61h-7.93v.31h-.61c-.1,.2-.2,.41-.3,.61l-2.44,.31c-.1,.2-.2,.41-.3,.61h-.61v.3c-.49,.13-.57-.3-.61-.3-1.3-.22-1.99,.26-2.44,.92h-13.73c-1.34,0-4.11-.38-4.88,.3-.72,.83,.24,2.54-.31,3.66-.51,.41-1.02,.81-1.52,1.22-.2,.61-.41,1.22-.61,1.83-.51,.41-1.02,.81-1.53,1.22v.91c-.36,.73-1.07,1.16-1.83,1.53,.29,1.03,.96,1.38,1.53,2.14h.3l.31,1.52c.2,.1,.41,.2,.61,.3v.61h.3c.1,.41,.2,.81,.31,1.22h.3v.91c.2,.1,.41,.2,.61,.31l.31,1.52c.51,.41,1.02,.81,1.53,1.22,1.55,1.55,3.22,3.15,4.27,5.18,.91,.1,1.83,.2,2.74,.31,0,0,.26-.45,.92-.31,0,0,.14,.27,.61,.31,.91-.1,1.83-.2,2.75-.31,.1,.2,.2,.41,.3,.61,.51,.1,1.02,.2,1.53,.31,1.63,.09,4.51,.36,5.19-.61,1.8,0,1.85,.33,2.44,1.52h3.66v-.3h.61c.1-.2,.2-.41,.31-.61h.61v-.31h.61v-.3h.91v-.31h.61v-.3h.61c.1-.31,.2-.61,.31-.92l1.83-1.52h5.19v.3h1.22v-.3h.61l.31-.61c.81-.1,1.63-.2,2.44-.3v-.3h.61v-.31h.91v-.31h1.22c.1-.2,.2-.41,.31-.61h.92v-.31h1.52c.1-.2,.2-.41,.31-.61h2.44v-.31h.61v-.3h.61c.1-.2,.2-.41,.3-.61h.92c.3-.41,.61-.81,.92-1.22h.61v-.31h1.83c.1-.2,.2-.41,.3-.61h.61v-.3h4.27v-.31h.61v-.3c.51-.1,1.02-.2,1.53-.31,.1-.2,.2-.41,.31-.61h.61v-.3c.41-.1,.81-.2,1.22-.31v-.31h1.22v-.3h.91v-.3h.61v-.31h.92c.2-.31,.41-.61,.61-.92,.31-.1,.61-.2,.92-.3v-.61c.71-.61,1.42-1.22,2.13-1.83,.1-.2,.2-.41,.31-.61l1.52-.31c.1-.2,.2-.41,.31-.61h.61v-.31c.61-.2,1.22-.41,1.83-.61v-.31h1.53v.31c.91-.1,1.83-.2,2.74-.31v-.31c.41-.1,.81-.2,1.22-.3v-.3h.61l.31-.61h1.22c.41-.51,.81-1.02,1.22-1.52,.61-.2,1.22-.41,1.83-.61,.31-.41,.61-.81,.92-1.22h.61l.61-.61h.61v-.31h.61v-.3h.61c.1-.2,.2-.41,.3-.61h.61v-.3c.41-.3,.81-.61,1.22-.92,.1-.51,.2-1.02,.3-1.52,.2-.1,.41-.2,.61-.31v-.91h.31v-.61c.51-.41,1.02-.81,1.52-1.22,.2-.61,.41-1.22,.61-1.83,.2-.1,.41-.2,.61-.3,.51-.61,1.02-1.22,1.53-1.83,.51-.1,1.02-.2,1.53-.31,.3-.41,.61-.81,.91-1.22,.61-.2,1.22-.41,1.83-.61Zm106.75,22.26c-.1-.41-.2-.81-.3-1.22h-.31c-.1-.71-.2-1.42-.3-2.13h-.31v-.61c-.2-.1-.41-.2-.61-.3-.22-.61,.31-.92,.31-.92v-5.79c-.2-.1-.41-.2-.61-.31-.2-.71-.41-1.42-.61-2.14-.2-.1-.41-.2-.61-.3v-.61h-.31v-.61h-.31v-.61h-.3c.1-1.02,.2-2.03,.3-3.05-.2-.1-.41-.2-.61-.31v-.61h-.31v-.92h-.31v-.61c-.2-.1-.41-.2-.61-.3v-.61h-.3v-.92h-.31c-.2-.3-.41-.61-.61-.91h-.61c-.2-.31-.41-.61-.61-.92h-.61v-.3h-.3v.3c-1.02-.1-2.03-.2-3.05-.3-.61-3.43-2.2-3.38-4.58-4.88-.1-.2-.2-.41-.31-.61h-.61v-.3h-1.22c-.1-.2-.2-.41-.31-.61-.61-.2-1.22-.41-1.83-.61-.3-.41-.61-.81-.91-1.22h-.61v-.31h-3.36v.31c-.66,.3-.77,.07-1.22,.61h-6.71c-.41-.51-.81-1.02-1.22-1.53h-.61v-.31h-.61l-.61-.61h-.61c-.2-.41-.41-.81-.61-1.22-1.02-.91-2.03-1.83-3.05-2.74-.1-.51-.2-1.02-.3-1.53l-3.97-3.66h-.92v-.31h-.61v-.3h-.61c-.1-.2-.2-.41-.3-.61-.41-.1-.81-.2-1.22-.31v-.3c-.74-.24-1.14,.26-1.53,.3-.71-.1-1.42-.2-2.14-.3v.3h-1.22c-.1-.2-.2-.41-.3-.61h-.61v-.3h-6.1s-.04-.21-.61-.31c-.24,.31-.37,.3-.61,.61h-.3v.92h-.31c-.4,.79-.99,2.27-.61,3.66,.11,.41,.62,1.88,.31,2.75h-.31c-.1,.41-.2,.81-.3,1.22l-2.14,1.83v.61c-.34,.58-.9,1.21-1.22,1.83h-3.05c-.37,.9-1.12,3.22-1.83,3.66h-.92c-.3,.41-.61,.81-.92,1.22h-.61v.31h-.61l-1.83,1.52v.31c-.2,.1-.41,.2-.61,.31v.91l-1.83,2.14c-.51,.1-1.02,.2-1.52,.3-.1,.2-.2,.41-.31,.61-.51,.1-1.02,.2-1.53,.31v.3c-.81,.71-1.63,1.42-2.44,2.14-.2,.61-.41,1.22-.61,1.83-.41,.31-.81,.61-1.22,.92-.2,.61-.41,1.22-.61,1.83-.81,.71-1.63,1.42-2.44,2.13v.31h-2.14c-.2,.31-.41,.61-.61,.91l-1.52,.31c-.1,.2-.2,.41-.31,.61h-.61v.3c-.54,.14-2.93-.77-3.97-.3-.1,.2-.2,.41-.3,.61h-.61v.31h-1.83c-.2,.3-.41,.61-.61,.91-.51,.41-1.02,.81-1.53,1.22v.92h-.31c-.1,.41-.2,.81-.3,1.22h-.31c-.1,.41-.2,.81-.3,1.22-.2,.1-.41,.2-.61,.3v.61h-.31c-.1,.41-.2,.81-.3,1.22h-.31v3.66c-.3,.2-.61,.41-.91,.61,.1,.71,.2,1.42,.3,2.14h-.3c-.2,.61-.41,1.22-.61,1.83h-.31v.61h-.3v.61h-.31c.1,.3,.2,.61,.31,.91,1.69,.52,.59,.75,1.22,1.83h.3c.92,1.02,1.83,2.03,2.75,3.05h.92c.2,.3,.41,.61,.61,.91h3.66v.31h.61c.1,.2,.2,.41,.3,.61h.92v.3c.42,.08-.06-.07,.3-.3,.61,.1,1.22,.2,1.83,.3v-.3h.92c.1-.2,.2-.41,.31-.61l1.52-.31c.1-.2,.2-.41,.31-.61h.61v-.3h7.93s.27,.5,.92,.3v-.3c.41-.1,.81-.2,1.22-.31v-.31c.83-.32,1.49,.09,2.14-.3,.36-.22,.47-1.3,1.52-.92,.2,.31,.41,.61,.61,.92,1.29,.56,1.63-.87,2.44-.61,.41,.51,.81,1.02,1.22,1.53h.92v.3c1.01,.34,3.38,.04,3.97-.3,.1-.2,.2-.41,.3-.61h.61v-.3h1.22v.3c.71-.1,1.42-.2,2.14-.3,.61,.1,1.22,.2,1.83,.3v-.3h.92v-.3h.61v-.31h.91v-.31h30.5c3.57,0,7.99,.46,10.67,0,.22-.85,.55-1.16,1.22-1.52,1.13-.78,1.18,1.06,2.44,.61,.1-.2,.2-.41,.3-.61h.61v-.31c1.58-.56,3.26,1.4,3.66,2.14,.95-.21,1.31-.52,2.13-.91v-.31c.48-.18,3.36,.31,3.36,.31v-.31h1.22c.41-.51,.81-1.02,1.22-1.53h.31c.1-.41,.2-.81,.3-1.22h.31v-.91c.2-.1,.41-.2,.61-.31v-.61h.3v-.92c.2-.1,.41-.2,.61-.3v-.61h.31v-.61h.3v-3.05c.07-.43,.36,.12,.31-.31h-.31Zm-27.14-9.15h-.3c-.31,.41-.61,.81-.92,1.22-1.21-.04-1.4-.15-1.83-.92-1.42,.11-2.12,1.29-3.05,.92-.2-.31-.41-.61-.61-.92h-4.27v.31h-.61c-.1,.2-.2,.41-.3,.61h-9.76v.3c-.41,.1-.81,.2-1.22,.31v.3h-4.27c-.1,.2-.2,.41-.31,.61l-1.52,.31c-.1,.2-.2,.41-.31,.61h-.61v.3c-1.12,.42-2.9-.16-3.66-.3-.16-1.28-.57-1.7-1.22-2.44-.2-.1-.41-.2-.61-.31v-3.66l1.52-1.83c.31-.1,.61-.2,.92-.31v-.61l1.83-1.52v-.31c.51-.1,1.02-.2,1.53-.3,1.02-1.12,2.03-2.24,3.05-3.36l1.52-.31c1.93-2.03,3.86-4.07,5.8-6.1,1.76,.14,1.24,.38,2.14,1.22v.31h.61v.3h3.66s.04,.21,.61,.31c.19,.74,.32,.67,.61,1.22h.61v.3c1.65,.49,2.39-.69,3.66,0,.41,.51,.81,1.02,1.22,1.53,.51,.1,1.02,.2,1.52,.3,.1,.2,.2,.41,.31,.61,1.12,1.02,2.24,2.03,3.35,3.05-.04,1.78-.03,2.9,.92,3.66v4.58Z"/>
        <path class="cls-1" d="M647.49,141.14v-.82h-2.47l-.82-1.65h-2.47v-.82l-2.47,.82v-.82h-1.65v-.82l-4.94,.82v-.82h-2.47v-.82h-1.65v-.82h-5.76v-.82h-1.65v-.82h-3.29v-.82l-3.29-.82v-.82h-6.58v-.82h-.82c-1.14,.21,.3,1.14-.82,.82v-.82h-3.29v-.82c-1.52-.39-1.26,.69-1.65,.82l-2.47-.82v-.82h-2.47l-.82-1.65h-5.76v-.82l-3.29-.82v-.82l-3.29-.82-.82-1.65c-2.47-.27-4.94-.55-7.4-.82l-.82-1.65h-1.65l-.82-1.65h-1.65v-.82h-1.65l-.82-1.65h-1.65l-.82-1.65h-2.47v-.82l-3.29-.82v-1.65c-2.05-.55-1.34-.43-2.47-1.65h-.82v-1.65l-2.47-1.65v-1.65l-1.65-.82v-2.47l-1.65-.82c-.82-2.47-1.65-4.94-2.47-7.4,.55-2.47,1.1-4.94,1.65-7.4h-.82c-.39-2.09,.82-2.47,.82-2.47v-13.16h-.82v-4.94h-.82v-2.47h-.82v-4.94h-.82l-.82-2.47c-2.69-1.17-6.03-2.67-8.23,0-3.36,.96-.95,.34-2.47,2.47l-1.65,.82v1.65h-.82v3.29l-1.65,.82v3.29h-.82v3.29h-.82c-.41,1.61,.82,2.47,.82,2.47l-.82,3.29h.82v.82h-.82c-.55,1.64-1.1,3.29-1.65,4.94h-.82c-.55,1.81,1.8,5.06,1.65,5.76h-.82v1.65h-.82v2.47l-1.65,.82c-.72,1.66,.87,4.71,.82,4.94h-.82c-.27,1.64-.55,3.29-.82,4.94l-1.65,.82c.27,1.64,.55,3.29,.82,4.94-3.22,.94-1.07,.22-2.47,2.47h-.82v1.65h-.82v1.65l-3.29,2.47-.82,3.29h-.82l-.82,2.47-1.65,.82v1.65l-1.65,.82c-1.92,2.19-3.84,4.39-5.76,6.58h-1.65v1.65c-1.51,.35-5.43,1.7-6.58,2.47l-1.65,2.47h-1.65l-1.65,2.47c-1.65,.55-3.29,1.1-4.94,1.65l-.82,1.65h-1.65l-1.65,2.47h-4.94c-.06,.02,.15,.53-1.65,.82-.61,2.55-2.09,4.6-4.11,5.76,.6,2.86,1.86,4.01,2.47,6.58h1.65c-1.71,1.41,1.64,4.14,2.47,5.76h4.11v-3.29c.81,.42,1.47,1.55,1.65,1.65h1.65v.82l2.47-.82v-.82h1.65v-.82c1.64-.27,3.29-.55,4.94-.82v-.82l2.47-.82,.82-1.65h2.47l1.65-2.47,3.29-.82,.82-1.65h2.47c1.37-1.65,2.74-3.29,4.11-4.94h1.65l.82-1.65h1.65l1.65-1.65v-1.65l2.47-.82,.82-2.47,4.11-2.47,.82,1.65h.82l-.82,1.65h.82v7.4h.82v3.29h.82c.97,3.2-1.13,8.06-.82,9.87h.82c-.27,7.13-.55,14.26-.82,21.39-.2,1.22-1.3,2.68-.82,4.94h.82c.26,1.65-.82,1.65-.82,1.65,.27,2.74,.55,5.48,.82,8.23h-.82v3.29h.82v2.47l-.82,2.47c1.37,4.66,2.74,9.32,4.11,13.99h.82l1.65,2.47c1.64-.27,3.29-.55,4.94-.82v-.82l4.11-.82v-.82h3.29v-.82c3.74-2.3,.96-1.92,2.47-5.76h.82l.82-3.29h.82v-2.47h.82v-7.4h.82c-.27-4.39-.55-8.78-.82-13.16-1.13-4.41,1.6-15.56,0-22.21h-.82c-.24-1.38,.82-1.65,.82-1.65v-.82h-.82v-.82h.82v-6.58h.82v-5.76h.82l.82-3.29h.82v-4.11h.82v-1.65h.82l1.65-2.47c3.02,1.1,6.03,2.19,9.05,3.29v.82l2.47,.82v1.65c1.92,1.1,3.84,2.19,5.76,3.29l.82,2.47,3.29,.82,2.47,3.29,2.47,.82v1.65l1.65,.82v.82c1.92,.55,3.84,1.1,5.76,1.65l.82,1.65h1.65l1.65,1.65h1.65v.82h1.65v.82h1.65l.82,1.65c5.76,.27,11.52,.55,17.28,.82l.82-1.65h1.65v-.82h1.65v-.82h3.29v-.82c2.19-.82,4.79-.49,6.58-1.65v-.82c1.49-1.17,1.96-1.85,4.11-2.47v-1.65c4.23-1.17,2.1-2.34,4.11-4.94,.82-1.06,3.04-.9,4.11-1.65v-.82l2.47-1.65v-.82c.64-.97-.07-.08,.82-.82-.17-3.42,.23-2.5-1.65-4.11Zm-175.23-5.76c1.64,.27,3.29,.55,4.94,.82,4.16-1.16,8.64-3.33,12.34-4.94-.41-3.98-1.97-5.38-3.29-8.23-3.29-1.1-6.58-2.19-9.87-3.29h-21.39c-.23,.05-.23,1.17-1.65,.82v-.82l-4.11-.82v-.82h-3.29v-.82h-1.65v-.82h-3.29v-.82l-4.94-.82c-1.58-.7-3.33-2.46-4.94-3.29-.36-2.03-1.82-6.03-.82-9.05h.82v-2.47l1.65-.82v-2.47h.82v-1.65h.82c.55-3.29,1.1-6.58,1.65-9.87h-.82v-3.29h-.82v-1.65h-.82v-2.47h-.82v-2.47l-1.65-.82-2.47-4.11c-8.09-3.31-8.25-.09-14.81,1.65l-.82,2.47h-.82v1.65h-.82v3.29h-.82c.27,3.84,.55,7.68,.82,11.52,.06,.24,1.08,.24,.82,1.65h-.82c-.27,2.19-.55,4.39-.82,6.58h-.82v1.65h-.82c-.55,2.47-1.1,4.94-1.65,7.4-4.54,1.19-1.72,1.38-3.29,4.11l-1.65,.82v1.65c-.35,.53-1.1,.57-1.65,1.65h-1.65c-.88,3.17-2.46,2.58-3.29,5.76-2.44,.69-3.24,1.91-4.94,3.29v.82l-3.29,.82-1.65,2.47h-1.65v.82h-1.65v.82h-2.47v.82l-3.29,.82v.82h-3.29l-.82,1.65h-4.11v.82h-1.65v.82c-2.74,.27-5.49,.55-8.23,.82v.82h-2.47v.82c-1.92,.27-3.84,.55-5.76,.82v.82l-1.65-.82-.82,1.65-4.11,.82-1.65,2.47h-2.47c-1.92,1.37-3.84,2.74-5.76,4.11-.27,1.64-.55,3.29-.82,4.94h-.82l2.47,3.29c3.02,.55,6.03,1.1,9.05,1.65v.82h3.29v.82c1.97,.6,4.42-.89,4.94-.82v.82c3.02,.27,6.03,.55,9.05,.82v-.82c1.92-.27,3.84-.55,5.76-.82v-.82h2.47v-.82h3.29v-.82c2.47-.27,4.94-.55,7.4-.82l.82-1.65,4.94-.82,1.65-2.47h1.65l.82-1.65h1.65l.82-1.65,4.94-.82,1.65-2.47h2.47l.82-1.65h1.65v-.82h1.65l.82-1.65h2.47v-.82h3.29c.84,.47,1.86,4.65,2.47,5.76h.82v1.65l1.65,.82v6.58c1.31,4.59,.7,12.19,.82,18.1,.27,1.92,.55,3.84,.82,5.76h-.82v3.29h-.82v9.87h-.82v2.47h-.82c-.43,1.78,.82,2.47,.82,2.47,.27,3.56,.55,7.13,.82,10.69l2.47,1.65v1.65h.82c.93,.92,0,.35,1.65,.82,.51,2,.87,1.81,1.65,3.29,1.92,.27,3.84,.55,5.76,.82l.82-1.65h1.65l.82-2.47h.82v-1.65h.82v-3.29h.82v-4.94h.82l.82-3.29h.82c.27-7.4,.55-14.81,.82-22.21-.18-1.1-1.4-2.08-.82-4.11h.82v-2.47h.82v-9.87c-.05-.22-1.05-.27-.82-1.65h.82c.61-2.8-1.05-5.19-.82-6.58h.82v-7.4h-.82c.27-2.19,.55-4.39,.82-6.58l2.47-.82c2.5-1.77,17.41,1.62,23.04,0v-.82h7.4v-.82Z"/>
        <g>
          <path class="cls-3" d="M1.7,213.55v-15.73h7.75v1.08H2.98v6.07h5.95v1.08H2.98v7.5H1.7Z"/>
          <path class="cls-3" d="M14,197.83h1.28v15.73h-1.28v-15.73Z"/>
          <path class="cls-3" d="M31.61,213.55h-1.22l-5.66-8.89c-1.12-1.8-2.16-3.46-2.96-5.14l-.06,.02c.12,1.97,.15,3.69,.15,6.38v7.62h-1.22v-15.73h1.26l5.74,8.97c1.22,1.95,2.13,3.46,2.88,5.01l.04-.02c-.17-2.15-.19-3.96-.19-6.44v-7.52h1.24v15.73Z"/>
          <path class="cls-3" d="M36.95,198.05c1.18-.21,2.51-.35,3.96-.35,6.38,0,8.16,3.83,8.16,7.6,0,3.05-1.08,8.37-8.7,8.37-1.22,0-2.34-.02-3.42-.14v-15.48Zm1.28,14.44c.6,.1,1.43,.12,2.34,.12,4.72,0,7.17-2.67,7.17-7.25,0-4.21-2.32-6.61-6.86-6.61-1.14,0-2.03,.12-2.65,.25v13.49Z"/>
          <path class="cls-3" d="M53.44,197.83h1.28v15.73h-1.28v-15.73Z"/>
          <path class="cls-3" d="M71.05,213.55h-1.22l-5.66-8.89c-1.12-1.8-2.16-3.46-2.96-5.14l-.06,.02c.12,1.97,.15,3.69,.15,6.38v7.62h-1.22v-15.73h1.26l5.74,8.97c1.22,1.95,2.13,3.46,2.88,5.01l.04-.02c-.17-2.15-.19-3.96-.19-6.44v-7.52h1.24v15.73Z"/>
          <path class="cls-3" d="M87.54,212.89c-.79,.33-2.42,.83-4.48,.83-5.62,0-7.65-4-7.65-7.96,0-4.56,2.94-8.1,8.08-8.1,1.49,0,2.84,.31,3.61,.68l-.37,1.06c-.79-.37-1.82-.66-3.29-.66-4.1,0-6.69,2.65-6.69,6.94s2.53,6.98,6.47,6.98c1.53,0,2.53-.25,3.07-.54v-5.41h-3.48v-1.06h4.75v7.23Z"/>
          <path class="cls-3" d="M108.11,198.9h-4.91v14.65h-1.28v-14.65h-4.91v-1.08h11.11v1.08Z"/>
          <path class="cls-3" d="M122.24,213.55h-1.28v-7.77h-8.23v7.77h-1.28v-15.73h1.28v6.86h8.23v-6.86h1.28v15.73Z"/>
          <path class="cls-3" d="M135.72,213.55h-8.12v-15.73h7.77v1.08h-6.49v5.84h6.11v1.08h-6.11v6.65h6.84v1.08Z"/>
          <path class="cls-3" d="M155.75,198.9h-4.91v14.65h-1.28v-14.65h-4.91v-1.08h11.11v1.08Z"/>
          <path class="cls-3" d="M164.8,205.97c1.26,.39,2.03,1.6,2.4,3.36,.52,2.38,.83,3.61,1.16,4.23h-1.33c-.25-.46-.6-1.84-1.02-3.83-.48-2.24-1.41-3.32-3.42-3.32h-2.26v7.15h-1.26v-15.52c.95-.21,2.28-.33,3.42-.33,2.03,0,3.32,.41,4.21,1.28,.68,.68,1.12,1.72,1.12,2.86,0,2.11-1.24,3.46-3.03,4.08v.04Zm-2.13-.58c2.34,0,3.88-1.33,3.88-3.36,0-2.63-2.09-3.29-4.06-3.29-1.02,0-1.76,.08-2.13,.19v6.46h2.32Z"/>
          <path class="cls-3" d="M183.16,207.28c0,4.79-2.53,6.53-5.51,6.53-2.78,0-5.2-1.6-5.2-6.38v-9.57h1.28v9.53c0,3.85,1.76,5.37,3.98,5.37,2.49,0,4.16-1.64,4.16-5.37v-9.53h1.28v9.43Z"/>
          <path class="cls-3" d="M197.62,198.9h-4.91v14.65h-1.28v-14.65h-4.91v-1.08h11.11v1.08Z"/>
          <path class="cls-3" d="M211.74,213.55h-1.28v-7.77h-8.23v7.77h-1.28v-15.73h1.28v6.86h8.23v-6.86h1.28v15.73Z"/>
          <path class="cls-3" d="M236.37,205.56c0,5.57-3.23,8.25-6.88,8.25-3.83,0-6.73-3-6.73-7.96,0-5.22,3-8.27,6.92-8.27s6.69,3.13,6.69,7.98Zm-12.29,.25c0,3.48,1.93,6.94,5.45,6.94s5.51-3.36,5.51-7.13c0-3.27-1.7-6.98-5.45-6.98s-5.51,3.67-5.51,7.17Z"/>
          <path class="cls-3" d="M240.74,213.55v-15.73h7.75v1.08h-6.47v6.07h5.95v1.08h-5.95v7.5h-1.28Z"/>
          <path class="cls-3" d="M265.27,205.14c1.39,.31,3.32,1.49,3.32,4,0,.77-.17,2.01-1.18,3.03-1.04,1.08-2.71,1.51-4.97,1.51-1.22,0-2.16-.1-2.76-.14v-15.48c.85-.21,1.99-.35,3.19-.35,3.81,0,5.14,1.78,5.14,3.9,0,1.57-1.14,2.94-2.74,3.48v.06Zm-2.2-.46c2.22,0,3.63-1.3,3.63-3.03,0-2.13-1.6-2.9-3.85-2.9-.99,0-1.57,.06-1.91,.17v5.76h2.13Zm-2.13,7.81c.44,.1,1.06,.12,1.82,.12,2.36,0,4.5-.87,4.5-3.46s-2.18-3.46-4.46-3.46h-1.87v6.8Z"/>
          <path class="cls-3" d="M281.18,213.55h-8.12v-15.73h7.77v1.08h-6.49v5.84h6.11v1.08h-6.11v6.65h6.84v1.08Z"/>
          <path class="cls-3" d="M296.61,213.55h-1.35l-1.86-5.39h-5.95l-1.84,5.39h-1.31l5.49-15.73h1.33l5.49,15.73Zm-3.54-6.42l-1.78-5.08c-.35-1.1-.6-2.01-.83-2.92h-.06c-.21,.93-.48,1.84-.81,2.84l-1.8,5.16h5.28Z"/>
          <path class="cls-3" d="M311.36,207.28c0,4.79-2.53,6.53-5.51,6.53-2.78,0-5.2-1.6-5.2-6.38v-9.57h1.28v9.53c0,3.85,1.76,5.37,3.98,5.37,2.49,0,4.16-1.64,4.16-5.37v-9.53h1.28v9.43Z"/>
          <path class="cls-3" d="M325.82,198.9h-4.91v14.65h-1.28v-14.65h-4.91v-1.08h11.11v1.08Z"/>
          <path class="cls-3" d="M339.03,197.83l-5.2,8.93v6.8h-1.28v-6.8l-4.89-8.93h1.45l2.42,4.58c.64,1.22,1.2,2.24,1.72,3.38h.06c.46-1.06,1.06-2.16,1.74-3.4l2.53-4.56h1.45Z"/>
        </g>
        <g>
          <path class="cls-3" d="M1.15,36.77c4.71,.56,9.02,.85,12.91,.85h15.22c.51-5.23,.79-12.17,.85-20.83h-11.76c-4.15,0-7.64,.21-10.45,.62l-1.15-3.69c4.66,.56,8.97,.85,12.91,.85h31.59c.26-.1,1.18-1.2,2.77-3.31,1.95-2.51,3.07-3.77,3.38-3.77,1.08,0,2.74,1.21,5,3.61,2.25,2.41,3.38,3.87,3.38,4.38,0,.87-.54,1.31-1.61,1.31h-24.21c-.05,8.1-.38,15.04-1,20.83h17.6c.2-.1,1.18-1.23,2.92-3.38,2.15-2.61,3.43-3.92,3.84-3.92,1.08,0,2.79,1.23,5.15,3.69,2.31,2.51,3.46,4.02,3.46,4.54,0,.87-.54,1.31-1.61,1.31h-30.29c1.33,4,3.1,7.74,5.3,11.22,2.46,3.95,5.77,7.38,9.92,10.3,5.12,3.49,10.79,6.25,16.99,8.3l-.31,1.84c-2.77,1.08-4.59,2.46-5.46,4.15-.97,2.15-1.84,3.23-2.61,3.23-.87,0-2.56-.95-5.07-2.84-2.97-1.9-6.05-4.64-9.22-8.22-2.46-2.61-4.74-6.12-6.84-10.53-1.74-3.54-3.23-8.4-4.46-14.61-.1,.46-.21,.9-.31,1.31-1.33,6.2-3.46,11.35-6.38,15.45-2.46,3.64-5.79,6.92-9.99,9.84-4.92,3.54-11.43,6.64-19.53,9.3l-.61-1.31c5.23-2.72,9.74-5.74,13.53-9.07,3.64-3.38,6.48-7.07,8.53-11.07,2.2-4,3.74-8.17,4.61-12.53,.36-1.28,.67-2.87,.92-4.77H12.91c-4.2,0-7.69,.21-10.45,.62l-1.31-3.69Z"/>
          <path class="cls-3" d="M16.3,85.96c3.13,.31,6.2,.72,9.22,1.23,1.79,.1,2.69,.61,2.69,1.54,0,.31-.51,.69-1.54,1.15-1.23,.51-1.84,1.15-1.84,1.92v3.38h4.07c.05,0,.64-.64,1.77-1.92,1.64-1.84,2.66-2.77,3.07-2.77,.51,0,1.95,1.05,4.3,3.15,1.49,1.28,2.23,2.1,2.23,2.46,0,.77-.41,1.15-1.23,1.15H10.45v10.15h2.46v-.62c0-3.18-.1-6.02-.31-8.53,1.59,.21,3.74,.54,6.46,1,2.05,.31,3.07,.67,3.07,1.08,0,.62-.61,1.13-1.84,1.54-.82,.21-1.23,.62-1.23,1.23v4.3h4.3v-.62c0-3.18-.1-6.02-.31-8.53,1.64,.21,3.79,.54,6.46,1,2.05,.31,3.07,.67,3.07,1.08,0,.62-.61,1.13-1.84,1.54-.82,.21-1.23,.62-1.23,1.23v4.3h.85c.97-.97,1.87-1.84,2.69-2.61,.56-.72,1.1-1.08,1.61-1.08,.56,0,1.82,.62,3.77,1.85,2.25,1.54,3.38,2.59,3.38,3.15,0,.51-.54,1.05-1.61,1.61-.77,.56-1.15,1.15-1.15,1.77v3.69c0,1.84,.1,4.38,.31,7.61,0,.82-1.05,1.38-3.15,1.69-.97,.15-1.69,.23-2.15,.23-.97,0-1.46-.64-1.46-1.92v-.84H10.15c-.1,2.72-.26,5.28-.46,7.69-.56,5.69-1.61,10.99-3.15,15.91-1.33,3.95-3.13,7.87-5.38,11.76l-1.15-.62c1.08-6.41,1.84-12.45,2.31-18.14,.51-6.87,.77-17.22,.77-31.06,0-7.58-.21-13.02-.61-16.3,3.84,1.08,6.87,2.2,9.07,3.38h5.38v-2.77c0-2.1-.21-4.25-.61-6.46Zm-4.69,38.74c1.69,.2,3.84,.54,6.46,1,2.05,.31,3.07,.67,3.07,1.08,0,.62-.59,1.13-1.77,1.54-.87,.21-1.31,.62-1.31,1.23v5.92h1.61c.36-.67,.72-1.38,1.08-2.15,.51-1.02,.97-1.54,1.38-1.54,.46,0,1.1,.49,1.92,1.46,.2,.26,.36,.51,.46,.77v-.08c0-4.1-.21-7.17-.61-9.22,2.05,.15,4.51,.44,7.38,.84,2.05,.31,3.07,.72,3.07,1.23,0,.82-.59,1.44-1.77,1.84-.87,.26-1.31,.77-1.31,1.54v5.61c.31-.26,.56-.49,.77-.69,1.54-1.74,2.84-3.59,3.92-5.53,1.9,1.28,3.66,2.41,5.3,3.38,.46,.31,.85,.62,1.15,.92v-31.9c-1.64,.05-3.31,.15-5,.31l-1.15-3.08c2.41,.21,4.46,.36,6.15,.46v-7.53c0-1.89-.1-3.87-.31-5.92,2.92,.31,5.74,.69,8.46,1.15,1.74,.1,2.61,.56,2.61,1.38,0,.31-.54,.69-1.61,1.15-1.18,.51-1.77,1.15-1.77,1.92v7.92h7v-7c0-2-.18-4.07-.54-6.23,3.07,.31,6.07,.69,8.99,1.15,1.79,.15,2.69,.62,2.69,1.38,0,.31-.54,.69-1.61,1.15-1.18,.51-1.77,1.15-1.77,1.92v7.61h.92c.36-.92,.82-1.95,1.38-3.07,.77-1.38,1.43-2.08,2-2.08,.51,0,1.18,.62,2,1.84,1.33,1.95,2,3.36,2,4.23s-.41,1.31-1.23,1.31h-7.07v37.21h.92c.1-.1,.43-1.13,1-3.08,.92-3.07,1.72-4.61,2.38-4.61,.56,0,1.51,1.51,2.84,4.54,.97,2.36,1.46,3.69,1.46,4,0,.87-.74,1.31-2.23,1.31h-25.75c-3.54,0-6.3,.1-8.3,.31l-1.23-3.08c2.1,.26,4.36,.44,6.76,.54v-2.77l-3.07-.31c-1.95,.92-4.64,1.82-8.07,2.69v6c0,1.49,.23,2.41,.69,2.77,.31,.41,.85,.62,1.61,.62,1.13,0,1.87-.1,2.23-.31,.36-.21,.62-.72,.77-1.54,.26-.87,.54-2.13,.85-3.77h1.31c.1,1.9,.18,3.23,.23,4,.05,.87,.26,1.54,.61,2,.61,.51,.92,.97,.92,1.38,0,.97-.26,1.74-.77,2.31-.46,.46-1.26,.85-2.38,1.15-1.13,.41-2.38,.61-3.77,.61-2.26,0-4.02-.13-5.3-.38-1.13-.31-1.9-.67-2.31-1.08-.97-.72-1.46-2.28-1.46-4.69v-.38c-3.64,2.77-7.46,4.84-11.45,6.23-.51,.1-.77,.31-.77,.61-.1,.2-.18,.46-.23,.77-.15,.51-.41,.77-.77,.77-.82,0-1.82-1.46-3-4.38-.31-.77-.82-2.08-1.54-3.92,1.79-.1,3.51-.23,5.15-.38v-13.84c0-3.18-.1-6.02-.31-8.53Zm-1.38-4.38h2.69v-10.76h-2.46c-.05,3.84-.13,7.43-.23,10.76Zm14.3,24.91v-7.92h-6.46v8.99c2.25-.31,4.41-.67,6.46-1.08Zm-5.46-35.67v10.76h4.3v-10.76h-4.3Zm10.45,0v10.76h3.07v-10.76h-3.07Zm16.91,32.9c2.15,1.28,4.05,2.36,5.69,3.23,2.15,1.18,3.23,2.08,3.23,2.69s-.54,1-1.61,1.15c-1.18,0-1.87,.23-2.08,.69-1.64,1.33-3.41,2.56-5.3,3.69-2.15,1.28-5.51,2.61-10.07,4l-.61-1.31c2.41-1.9,4.51-4,6.3-6.3,2.15-2.77,3.64-5.38,4.46-7.84Zm3.38-30.36h7v-10.15h-7v10.15Zm0,12.91h7v-10.76h-7v10.76Zm0,14.14h7v-12.07h-7v12.07Zm7.92,3.92c5.48,1.33,9.3,2.77,11.45,4.3,1.84,1.38,2.77,3.05,2.77,5,0,1.13-.49,2.2-1.46,3.23-.67,.67-1.51,1-2.54,1-1.44,0-2.67-1.13-3.69-3.38-1.33-3.13-3.72-6.18-7.15-9.15l.62-1Z"/>
        </g>
      </g>
      <g>
        <circle class="cls-4" cx="407.64" cy="20.22" r="19.1" transform="translate(23.29 157.54) rotate(-22.5)"/>
        <line class="cls-4" x1="392.86" y1="8.71" x2="422.31" y2="8.71"/>
        <line class="cls-4" x1="414.94" y1="2.57" x2="414.94" y2="38.12"/>
        <polyline class="cls-2" points="396.12 35.45 396.12 14.09 425.47 14.09"/>
        <line class="cls-4" x1="396.12" y1="18.09" x2="388.99" y2="18.09"/>
        <line class="cls-4" x1="396.12" y1="27.07" x2="389.81" y2="27.07"/>
        <polyline class="cls-2" points="414.94 20.22 401.19 20.22 401.19 38.12"/>
        <polyline class="cls-2" points="401.19 27.07 410.01 27.07 410.01 33.26 401.19 33.26"/>
        <line class="cls-4" x1="414.94" y1="27.07" x2="425.47" y2="27.07"/>
        <line class="cls-4" x1="400.4" y1="7.99" x2="400.4" y2="2.57"/>
      </g>
    </g>
  </g>
</svg>